<svg version="1.1" xmlns="http://www.w3.org/2000/svg" xmlns:xlink="http://www.w3.org/1999/xlink" width="1120" height="736" viewBox="0,0,1120,736"><g fill="none" fill-rule="nonzero" stroke="none" stroke-width="1" stroke-linecap="butt" stroke-linejoin="miter" stroke-miterlimit="10" stroke-dasharray="" stroke-dashoffset="0" font-family="none" font-weight="none" font-size="none" text-anchor="none" style="mix-blend-mode: normal"><g><path d="M104.07764,186.51008c-0.22654,-0.3878 -22.59521,-259.77518 -22.98687,-258.20421c-0.39167,1.57097 -140.44444,305.12808 -146.65123,312.23199c-6.20679,7.10391 165.88557,-174.67003 168.10439,-159.65665c2.21882,15.01337 -219.64249,211.5149 -212.31097,225.35748c7.33153,13.84259 158.62455,-303.82022 165.07964,-296.20394c6.45508,7.61628 92.92745,247.96389 106.7756,249.6562c13.84815,1.69231 -87.0177,-304.36478 -77.86537,-299.75031c9.15232,4.61448 212.48635,331.0744 223.02891,321.92417c10.54256,-9.15023 -79.7571,-79.56873 -66.07965,-88.5823c13.67744,-9.01357 184.74962,33.01062 202.49729,22.21511c17.74767,-10.79551 -24.68305,-194.08342 -23.35116,-213.88781c1.33188,-19.80439 -21.8626,170.08176 -49.93781,163.09483c-28.07521,-6.98693 -408.39122,-135.82941 -433.42227,-134.07731c-25.03105,1.7521 319.22506,-249.61714 310.42449,-246.63861c-8.80058,2.97853 -341.29156,176.82475 -347.05821,177.15855c-5.76664,0.3338 47.85672,1.48356 41.72388,3.16984c-6.13285,1.68628 197.91137,162.54768 196.2094,160.46876c-1.70197,-2.07892 -33.95349,62.11199 -34.18004,61.72419z" fill="#ff8f8f"/><path d="M123.57145,-75.89117c-11.82422,26.6789 160.86992,9.66645 140.81186,43.68951c-20.05807,34.02307 -202.1224,431.5799 -224.06592,445.80872c-21.94352,14.22882 52.72846,-258.96704 44.5606,-262.90541c-8.16786,-3.93836 209.86985,60.82301 207.48481,63.34764c-2.38504,2.52463 -191.6298,219.61047 -190.92179,238.45031c0.70801,18.83984 -180.11996,-21.45871 -181.56697,-3.3427c-1.44701,18.11601 257.3175,-175.53334 260.39751,-169.83724c3.08002,5.6961 -11.08359,143.10534 31.04335,143.20491c42.12695,0.09957 327.77168,-191.01007 363.18388,-202.10446c35.4122,-11.09439 -115.48859,181.41936 -115.26434,167.69734c0.22424,-13.72202 -200.13281,-219.74266 -193.44198,-224.76021c6.69083,-5.01755 289.25224,-102.67512 300.26468,-101.88292c11.01243,0.7922 -194.83945,128.80365 -175.58001,125.65238c19.25944,-3.15127 251.40911,49.80205 262.35891,41.61492c10.9498,-8.18713 -18.30428,-59.4068 -18.36294,-75.507c-0.05866,-16.1002 -348.90086,284.43675 -349.61603,264.02467c-0.71517,-20.41208 75.78014,-123.5281 72.6995,-130.77957c-3.08064,-7.25147 -34.06085,-288.9575 -46.0231,-297.53954c-11.96225,-8.58204 157.52365,54.16397 143.4533,43.74361c-14.07035,-10.42037 -28.74969,184.21991 -31.50606,183.48342c-2.75636,-0.73649 -121.89731,-214.89722 -119.80151,-216.5309c2.0958,-1.63368 13.32065,-8.51533 32.69381,-12.24413c19.37315,-3.7288 -26.35989,-70.83796 -8.9483,-70.28909c17.41159,0.54886 34.00226,156.43639 43.98275,153.96973c9.98049,-2.46666 376.53993,-203.19267 376.20639,-210.87491c-0.33353,-7.68224 -354.45521,201.91022 -389.10156,198.10583c-34.64635,-3.80439 140.17055,-171.64013 108.08947,-170.74034c-32.08108,0.89979 -18.75795,50.0541 -24.7873,49.25934c-6.02935,-0.79476 -128.82708,-38.103 -135.62861,-31.82374c-6.80153,6.27926 -170.79018,-7.56908 -182.6144,19.10982z" fill="#ffc68f"/><path d="M854.39632,141.61836c-22.32379,-1.51185 -113.73619,-171.87797 -107.15668,-169.58634c6.57951,2.29163 -355.6396,50.25087 -363.63386,56.59619c-7.99426,6.34531 294.89297,92.29366 286.29049,98.62077c-8.60248,6.32711 -190.18016,-77.35822 -200.776,-76.01198c-10.59584,1.34625 122.69776,157.52205 113.6836,157.80996c-9.01417,0.28791 152.63616,129.46293 156.28867,138.96505c3.65251,9.50212 -31.80573,-68.26784 -18.4016,-44.56422c13.40413,23.70362 -31.36444,-304.38357 -20.63345,-286.70015c10.73099,17.68342 -63.5834,353.6395 -64.91148,363.20221c-1.32808,9.5627 -166.77817,-203.06586 -173.19685,-187.00009c-6.41868,16.06577 284.15728,112.20979 279.16006,121.38401c-4.99722,9.17422 -242.60175,53.64619 -247.19419,53.88353c-4.59245,0.23734 77.12606,241.56539 70.49308,243.44182c-6.63299,1.87643 194.43568,-171.45962 184.56007,-158.20268c-9.87561,13.25694 -85.32697,-79.2225 -95.19155,-68.12669c-9.86457,11.09581 -303.35703,-122.07682 -275.02313,-117.71701c28.33391,4.35981 26.02321,280.84444 50.55216,289.30939c24.52895,8.46495 323.06445,-311.06478 345.61474,-323.28438c22.55029,-12.2196 -220.52269,263.52396 -188.2528,249.93743c32.2699,-13.58653 -6.4889,-169.69276 3.88123,-173.12702c10.37013,-3.43426 502.63616,223.12209 508.88574,217.44568c6.24958,-5.67641 4.30057,-88.74055 2.93211,-106.60065c-1.36847,-17.8601 -166.71657,-14.30004 -180.49229,-38.18324c-13.77572,-23.8832 -355.98948,-377.1198 -363.51815,-404.72692c-7.52867,-27.60712 366.8115,280.30502 373.70189,264.61668c6.89039,-15.68834 27.15131,-55.42995 28.11842,-57.06948c0.96711,-1.63953 -251.97257,-30.93741 -247.7314,-35.69095c4.24116,-4.75354 64.77727,13.35174 59.84551,6.00542c-4.93176,-7.34632 -189.20078,-38.39867 -199.7149,-47.25986c-10.51412,-8.86119 194.94047,-180.08882 193.92871,-177.29774c-1.01176,2.79108 -173.42653,43.06958 -202.86537,42.76645c-29.43884,-0.30314 313.08099,168.67664 290.7572,167.16479z" fill="#fdff8f"/><path d="M1092.75524,424.35175c-10.09295,-0.80615 -207.74687,-404.21414 -204.87421,-401.40151c2.87265,2.81263 -109.76581,-7.58692 -111.16348,-4.03131c-1.39766,3.55561 4.41645,447.26067 10.13445,462.22558c5.718,14.96491 260.2972,-22.5316 269.82285,-9.94684c9.52565,12.58476 -176.51481,-213.89993 -165.33541,-200.20386c11.1794,13.69607 -5.08883,-74.03657 -3.33206,-57.40561c1.75677,16.63096 -107.93331,88.7656 -85.13977,95.54568c22.79354,6.78009 215.13701,180.91321 243.20609,177.1619c28.06909,-3.75131 -47.62283,-21.81104 -39.69271,-29.58589c7.93012,-7.77485 294.42691,-71.69621 301.63735,-74.84551c7.21043,-3.1493 49.03492,-229.99547 46.26307,-249.62344c-2.77186,-19.62796 -401.67017,-1.85461 -403.79318,-19.19345c-2.12301,-17.33884 174.61963,171.0159 171.88354,170.99924c-2.7361,-0.01666 209.09323,-27.48714 199.16063,-30.08166c-9.9326,-2.59452 -205.1946,69.14744 -212.7281,69.5422c-7.5335,0.39476 -151.2202,131.86522 -168.15362,122.88072c-16.93342,-8.9845 190.33978,-51.01725 170.60694,-59.474c-19.73283,-8.45675 -123.43044,-393.89863 -129.56568,-390.08713c-6.13524,3.81151 -185.57677,-24.75945 -203.30296,-27.54872c-17.72619,-2.78927 324.45922,455.87975 314.36627,455.0736z" fill="#b1ff8f"/><path d="M146.94118,283.58438c0.14718,0.22928 -252.16685,-243.12717 -253.73672,-242.99315c-1.56987,0.13401 183.3424,338.43471 176.47471,337.66937c-6.86768,-0.76534 -180.44802,-341.26994 -189.40742,-341.34259c-8.9594,-0.07265 49.96409,-5.23886 46.66938,15.81707c-3.29471,21.05593 79.32496,139.31487 75.46322,161.16379c-3.86175,21.84892 -80.11836,15.8473 -86.37666,29.39568c-6.2583,13.54838 236.38014,264.47582 237.2751,283.43338c0.89495,18.95756 13.15553,-120.41253 16.83402,-111.79114c3.67849,8.6214 46.3488,181.41676 51.73987,181.97362c5.39108,0.55686 -325.07156,-70.72856 -315.31436,-68.57739c9.7572,2.15117 360.88414,11.3184 369.46426,1.15687c8.58011,-10.16154 -262.68258,65.2507 -263.76023,46.74568c-1.07765,-18.50502 -110.85277,-171.07749 -112.12228,-177.89587c-1.26951,-6.81838 7.38591,-196.4427 15.54159,-205.66416c8.15568,-9.22146 360.72668,266.40438 363.37346,251.10859c2.64678,-15.29578 -121.89127,-382.96695 -123.63406,-397.56236c-1.74279,-14.59541 8.26229,185.81273 6.58668,176.49015c-1.6756,-9.32258 -226.62437,-240.21776 -228.17916,-242.33204c-1.55479,-2.11428 60.27795,290.65079 58.17272,290.43049c-2.10523,-0.2203 26.92001,-224.61078 27.89572,-224.61528c0.97571,-0.0045 126.89299,237.16001 127.04017,237.3893z" fill="#8fffd2"/><path d="M155.01028,467.82431c-5.87387,-1.98098 38.49781,-78.52547 36.65598,-74.3181c-1.84184,4.20737 -253.54821,-106.99549 -263.30699,-88.84399c-9.75878,18.15151 182.1474,-40.79891 175.02437,-21.6123c-7.12303,19.18661 -51.2001,52.45135 -50.94921,58.5534c0.2509,6.10206 -231.93469,313.58915 -231.81525,316.99432c0.11945,3.40517 320.46114,-294.03478 311.73246,-290.75751c-8.72868,3.27727 -225.24417,424.83918 -232.4489,429.32493c-7.20474,4.48575 61.09211,-404.84573 64.63974,-400.06602c3.54763,4.77972 274.84432,257.04023 277.85855,264.43561c3.01423,7.39539 -242.82185,63.64981 -243.42641,68.28855c-0.60456,4.63874 153.33583,-79.96433 185.73984,-75.91469c32.404,4.04964 -12.31119,-48.98684 18.67735,-45.82414c30.98854,3.16269 266.12643,161.74505 276.76826,151.04464c10.64183,-10.70041 -411.10126,-252.52683 -392.65713,-262.88788c18.44413,-10.36106 93.1941,141.28457 106.77576,138.4292c13.58166,-2.85537 -36.08398,-166.92167 -23.85474,-172.13914c12.22924,-5.21748 123.6981,-44.12634 126.19948,-51.40107c2.50138,-7.27473 2.34548,345.16824 5.11074,340.48463c2.76526,-4.6836 142.62691,-197.8062 133.06451,-209.79706c-9.5624,-11.99086 90.24096,-274.25209 73.7253,-285.60504c-16.51566,-11.35295 -347.11158,290.75515 -358.48656,287.15782c-11.37498,-3.59733 209.37123,-27.17317 199.38679,-31.4309c-9.98444,-4.25773 -95.88001,148.96913 -105.56728,144.59736c-9.68728,-4.37177 99.27833,-98.53997 84.01187,-102.79517c-15.26646,-4.2552 -92.61351,-7.16695 -101.8604,-3.77436c-9.24688,3.39259 -134.07489,-191.27968 -141.82089,-194.59482c-7.746,-3.31514 76.69664,114.43271 70.82277,112.45173z" fill="#8ff6ff"/><path d="M439.23596,456.36574c-5.13961,-3.13394 114.51967,-124.16682 116.89634,-124.21336c2.37667,-0.04655 -160.00649,-24.76231 -143.37357,-30.44219c16.63292,-5.67988 -99.11011,-77.84212 -78.01845,-82.07605c21.09166,-4.23393 247.70036,369.57051 251.7008,369.1861c4.00044,-0.38441 -321.65472,-72.16398 -320.74815,-71.39241c0.90657,0.77157 -54.40138,-317.2147 -55.0281,-311.91656c-0.62672,5.29814 432.76467,351.13992 439.36498,363.17579c6.60031,12.03587 -213.35056,-97.2182 -209.12506,-86.65983c4.2255,10.55837 134.48821,-104.12475 152.98591,-100.39411c18.4977,3.73064 -64.87492,12.60586 -45.09123,12.12492c19.78369,-0.48095 95.69756,130.52402 100.06509,134.71716c4.36753,4.19314 148.77136,-46.82155 157.51753,-27.11316c8.74617,19.70839 -20.81932,-170.27135 -21.17154,-156.29806c-0.35222,13.97329 71.03487,303.21534 69.69757,306.61378c-1.33731,3.39844 -208.64218,197.43525 -216.94074,202.86821c-8.29856,5.43296 -162.87224,-437.34118 -174.34068,-434.47144c-11.46845,2.86974 152.58032,3.19091 135.75267,-1.72099c-16.82765,-4.91191 -237.01207,30.11611 -253.23301,14.894c-16.22094,-15.22211 145.96686,16.26346 149.67828,3.06383c3.71142,-13.19964 57.03645,156.89245 59.4117,153.91312c2.37526,-2.97934 -275.38903,-282.60779 -284.60148,-285.49081c-9.21245,-2.88301 112.9245,6.60998 106.39904,1.12137c-6.52546,-5.48861 276.92685,289.161 272.24112,279.99847c-4.68572,-9.16253 -254.87672,-267.18675 -262.60837,-272.04802c-7.73166,-4.86127 19.93315,-99.35276 11.5455,-101.74515c-8.38765,-2.39239 -65.79064,327.27564 -72.50839,323.70647c-6.71774,-3.56917 -107.03974,151.64906 -116.78112,148.31815c-9.74138,-3.33091 235.45295,-224.58527 230.31334,-227.7192z" fill="#8f97ff"/><path d="M590.15721,593.93435c1.37733,-6.59875 34.34086,53.06256 34.82959,51.09087c0.48873,-1.97169 290.93545,57.75575 319.60321,51.24126c28.66776,-6.51448 -103.21723,-74.51053 -69.377,-79.4809c33.84023,-4.97037 20.93054,-223.54993 22.90185,-232.15396c1.97132,-8.60403 96.24946,219.78647 108.52396,216.17295c12.2745,-3.61351 -214.42845,49.88399 -201.49777,52.94207c12.93068,3.05808 358.77339,8.12828 365.77618,13.50946c7.00279,5.38118 -285.11798,-475.05258 -271.05982,-469.63539c14.05816,5.41719 119.94565,273.10899 132.71022,270.05904c12.76458,-3.04995 -6.38508,-65.83066 -1.50155,-65.04805c4.88354,0.78261 -140.77819,222.89015 -139.07692,229.80965c1.70127,6.9195 368.52322,-348.82144 368.83459,-341.28206c0.31138,7.53939 -431.68249,170.97779 -438.62926,189.90073c-6.94677,18.92295 18.02821,53.95584 -5.49607,62.72467c-23.52429,8.76883 43.84671,203.65266 19.89062,198.65441c-23.95608,-4.99825 -23.79086,-66.80812 -37.44224,-71.58394c-13.65138,-4.77582 110.54945,-263.00331 102.11104,-267.90177c-8.43841,-4.89846 -229.03887,344.88234 -236.63385,347.252c-7.59498,2.36966 335.13787,-272.3748 323.9562,-266.95497c-11.18167,5.41983 -274.74495,313.41804 -282.4233,318.36907c-7.67835,4.95103 -71.44439,-335.39 -83.54934,-341.61395c-12.10495,-6.22395 164.1635,62.9602 158.26164,54.90497c-5.90187,-8.05522 54.28306,25.28233 49.99548,25.72718c-4.28758,0.44485 -213.89336,73.65747 -220.84116,67.9333c-6.9478,-5.72417 -21.24364,-8.03789 -19.86631,-14.63664z" fill="#d08fff"/><path d="M769.07165,707.10984c2.01581,-3.09587 127.14377,75.80072 135.93012,76.34407c8.78634,0.54335 -173.47518,-267.32952 -156.63637,-266.40706c16.83881,0.92246 -1.93862,-102.15065 11.91978,-101.38385c13.8584,0.7668 80.72904,34.58315 88.45663,35.59347c7.72759,1.01032 188.20011,-99.56129 194.43136,-96.36939c6.23124,3.1919 -262.66569,22.55935 -242.31824,22.78141c20.34744,0.22206 -81.38077,218.61098 -57.00179,222.53082c24.37898,3.91984 233.88402,4.45164 244.02065,9.55022c10.13663,5.09858 35.69561,161.8404 37.77012,163.52625c2.07451,1.68585 42.18946,84.04227 41.7548,90.20029c-0.43466,6.15803 -30.19898,-428.7065 -28.53486,-424.02446c1.66412,4.68205 16.69898,348.36948 2.47717,358.48326c-14.22182,10.11378 -265.87178,96.91798 -283.64863,104.7808c-17.77685,7.86282 -39.54849,-304.4826 -52.21927,-307.04768c-12.67077,-2.56508 212.12989,146.14374 200.58984,145.54123c-11.54005,-0.60251 -200.41411,-192.87749 -203.58314,-191.90236c-3.16903,0.97513 45.22279,-53.37187 37.43896,-50.66986c-7.78383,2.70201 111.76632,430.41661 99.07067,430.63344c-12.69565,0.21684 -6.48641,-9.15749 -23.91996,-9.72685c-17.43356,-0.56936 62.79613,-100.66132 54.22602,-100.60071c-8.57011,0.06061 -45.11134,-276.18161 -48.39733,-278.85469c-3.28599,-2.67307 -190.81467,-20.12341 -207.10059,-21.49173c-16.28592,-1.36832 -132.59264,31.00302 -144.16297,31.14937c-11.57033,0.14635 180.55592,251.22974 174.12317,252.01267c-6.43275,0.78293 -123.14936,91.04643 -127.84803,92.76837c-4.69867,1.72194 161.19715,-128.20508 161.42458,-129.87578c0.22743,-1.6707 113.83828,-83.77912 115.62721,-94.81826c1.78893,-11.03914 -51.57181,88.43075 -39.95498,83.25801c11.61683,-5.17273 26.99923,-123.24733 38.74297,-128.51725c11.74374,-5.26992 108.68447,-113.18994 114.09268,-120.93752c5.40821,-7.74759 -240.42643,40.09109 -237.80302,37.35136c2.62341,-2.73973 -165.09293,256.22844 -163.99478,247.93494c1.09815,-8.2935 263.01144,-78.7167 265.02725,-81.81257z" fill="#ff8fdc"/></g></g></svg>