<svg version="1.1" xmlns="http://www.w3.org/2000/svg" xmlns:xlink="http://www.w3.org/1999/xlink" width="1512" height="824" viewBox="0,0,1512,824"><g fill="none" fill-rule="nonzero" stroke="none" stroke-width="1" stroke-linecap="butt" stroke-linejoin="miter" stroke-miterlimit="10" stroke-dasharray="" stroke-dashoffset="0" font-family="none" font-weight="none" font-size="none" text-anchor="none" style="mix-blend-mode: normal"><g><path d="M156.67774,-65.06138c-73.71351,-14.76404 -107.89201,-12.86504 -122.14673,4.42963c-14.25472,17.29466 34.18624,330.96275 9.91864,369.54813c-24.2676,38.58538 -63.06536,-296.45854 -52.74024,-276.09473c10.32513,20.36381 366.8811,324.89915 368.84819,323.85852c1.96709,-1.04063 -25.68596,160.22763 -26.87945,159.02632c-1.19349,-1.20131 -398.83893,-200.32169 -403.03205,-170.47583c-4.19313,29.84586 93.70993,268.1648 92.67592,310.98265c-1.03401,42.81785 113.93124,-33.67767 117.26039,-20.79495c3.32916,12.88272 -105.08514,108.73897 -105.36777,106.39025c-0.28263,-2.34872 273.79783,-299.1397 282.59918,-297.62754c8.80134,1.51217 60.00984,-88.21727 76.08708,-76.91722c16.07725,11.30006 -341.88837,266.68 -325.9987,266.96762c15.88967,0.28761 128.11639,-253.38007 138.48047,-254.83057c10.36408,-1.4505 -39.46123,67.66001 -35.80722,38.17442c3.65402,-29.4856 -102.51964,168.594 -104.49979,135.98689c-1.98015,-32.60711 -5.44065,-387.46842 -11.17408,-391.55437c-5.73343,-4.08595 56.65636,10.25286 52.57021,8.20379c-4.08615,-2.04907 277.99979,171.12019 283.07781,170.40242c5.07802,-0.71777 -164.44974,243.32025 -129.67568,239.24039c34.77406,-4.07986 -32.20822,-409.31219 -9.3825,-414.275c22.82573,-4.96281 259.14243,394.39687 263.06546,385.32796c3.92303,-9.06891 -235.85587,-218.52062 -220.37373,-225.28216c15.48214,-6.76153 247.47805,-269.89829 256.62645,-266.78324c9.1484,3.11505 -194.78804,334.6854 -189.86379,332.98673c4.92425,-1.69867 99.16104,-158.21134 111.31563,-175.5317c12.15459,-17.32037 257.66033,-241.04027 270.11771,-259.06013c12.45738,-18.01986 -37.36774,45.55052 -44.35186,33.95033c-6.98412,-11.60019 100.26563,7.49471 113.74472,5.91534c13.47909,-1.57937 -412.26846,354.77916 -479.2007,341.69684c-66.93224,-13.08232 -102.18007,-389.09673 -175.89358,-403.86077z" fill="#0000ff"/><path d="M691.37534,314.38124c-15.27094,-22.70404 -38.14288,-395.69828 -28.04926,-391.95741c10.09362,3.74086 -171.17818,159.07475 -171.28171,155.81533c-0.10354,-3.25941 144.45412,27.85564 181.77466,21.15244c37.32053,-6.70321 19.19262,-149.38811 75.01402,-143.31586c55.8214,6.07224 474.9264,412.4542 498.32026,443.86842c23.39386,31.41423 -158.7512,8.84337 -140.14805,27.11421c18.60315,18.27084 151.06485,-210.38975 161.25838,-216.88734c10.19352,-6.49759 -280.73319,242.29843 -281.11044,235.01795c-0.37725,-7.28048 -3.1102,-4.69101 -1.79472,-5.07151c1.31548,-0.3805 260.93622,-401.09625 265.05154,-387.29378c4.11532,13.80247 189.51543,221.08093 195.73865,241.25154c6.22322,20.17061 -312.45501,-0.63459 -322.46322,19.88051c-10.00821,20.5151 145.16195,81.24496 101.97156,97.01394c-43.19039,15.76898 -275.89763,198.55155 -308.12786,199.96054c-32.23023,1.40899 -167.18721,-158.76675 -172.07592,-160.17167c-4.88871,-1.40492 162.75349,261.69198 160.53854,262.90268c-2.21495,1.2107 207.4417,-187.38775 208.19021,-176.82564c0.74851,10.5621 -301.64832,-238.33693 -309.42743,-225.79605c-7.7791,12.54088 39.82286,460.63939 -2.80923,441.91378c-42.63209,-18.72561 -199.0281,-524.31079 -236.72062,-549.94923c-37.69252,-25.63843 197.18453,171.96163 199.58669,168.24098c2.40216,-3.72065 9.18199,224.56574 20.26588,222.08678c11.08389,-2.47896 -81.9218,-29.8032 -58.65951,-38.16671c23.26229,-8.36351 218.75214,-87.10599 249.61909,-102.17299c30.86695,-15.067 135.4594,-145.21256 154.72929,-153.58104c19.26989,-8.36848 48.36257,-123.23476 58.41605,-123.69384c10.05348,-0.45907 -346.31768,24.36207 -345.80149,22.56684c0.51619,-1.79523 87.57444,219.79384 81.45622,217.43383c-6.11822,-2.36002 178.90173,-4.42724 150.85844,-13.19194c-28.04329,-8.7647 -328.56691,-57.16814 -347.27551,-51.74932c-18.70861,5.41882 124.70017,-118.65709 108.57789,-135.56766c-16.12228,-16.91057 -130.35146,121.87628 -145.6224,99.17224z" fill="#000000"/><path d="M383.48991,567.70977c15.04105,-4.56701 13.24543,-248.4592 8.48398,-247.26066c-4.76144,1.19854 324.29754,422.52384 322.30227,422.29668c-1.99527,-0.22716 -28.85634,-202.91641 -40.11381,-203.20633c-11.25747,-0.28992 -363.24826,-29.56974 -385.22311,-38.18291c-21.97485,-8.61317 -56.99829,32.59219 -75.8414,21.33478c-18.84312,-11.25741 17.9038,34.37711 10.25112,35.01991c-7.65268,0.6428 161.24276,-181.1781 149.69658,-158.49191c-11.54617,22.68619 139.12506,259.14289 129.96244,284.7553c-9.16262,25.61242 -396.21527,0.37275 -399.01861,4.23688c-2.80333,3.86414 290.69506,-42.15 282.07101,-45.21897c-8.62405,-3.06897 91.26762,-215.68653 82.56716,-215.2748c-8.70047,0.41173 -253.47373,178.50734 -261.04782,212.92939c-7.57409,34.42205 126.51356,45.60082 153.51038,79.50091c26.99682,33.90008 -221.36473,164.36883 -198.77791,167.34644c22.58682,2.97762 316.9149,-120.65316 329.5708,-129.46371c12.6559,-8.81055 173.30268,-208.83153 207.09227,-233.56695c33.78959,-24.73542 -265.81048,-2.02813 -258.62476,-18.27591c7.18573,-16.24778 300.59149,308.53558 280.059,292.26211c-20.5325,-16.27348 -436.63061,-313.33796 -458.68635,-326.99628c-22.05574,-13.65832 435.41378,212.7056 431.16924,212.61235c-4.24454,-0.09325 -96.59967,-304.58571 -94.56575,-304.55439c2.03391,0.03132 -88.15183,427.7169 -86.04294,425.68489c2.10889,-2.03201 51.52851,-289.5495 59.05904,-293.45276c7.53053,-3.90326 89.18238,307.5187 104.95137,300.16375c15.76899,-7.35496 0.12079,-429.96279 2.5143,-431.6397c2.3935,-1.67691 -72.6308,148.58685 -58.97381,145.64945c13.65699,-2.9374 -251.38574,46.35945 -236.34469,41.79244z" fill="#000000"/><path d="M1112.63542,687.53002c-16.00683,-11.44689 51.59194,-230.97392 39.92669,-224.44016c-11.66525,6.53376 194.99014,189.92804 178.65795,194.2399c-16.33218,4.31186 127.47563,-356.5417 117.46961,-355.32289c-10.00602,1.21881 -221.45757,-1.94877 -245.10131,15.86413c-23.64374,17.8129 -63.219,51.72534 -59.63802,82.25493c3.58098,30.52959 229.42664,141.84214 253.74647,168.91088c24.31983,27.06874 -348.41173,345.09227 -338.27202,357.28771c10.13971,12.19544 244.49444,-99.81461 251.61577,-96.66512c7.12133,3.14949 27.39491,142.75278 47.7699,125.95938c20.37499,-16.7934 -69.65494,-449.52688 -55.27621,-473.50275c14.37873,-23.97587 76.33568,292.7129 83.44577,282.4098c7.11009,-10.3031 275.64081,-53.0652 272.82173,-72.87691c-2.81908,-19.81172 -336.45474,-131.20601 -341.28852,-141.65605c-4.83378,-10.45004 -0.45378,-264.54187 6.70041,-265.93001c7.15419,-1.38814 253.58638,156.26492 256.8034,159.26751c3.21701,3.0026 -354.43649,-3.50145 -366.45873,-15.12369c-12.02224,-11.62224 -86.91606,270.77023 -102.92289,259.32333z" fill="#000000"/><path d="M1174.86872,108.7896c-4.22219,-4.39067 119.38364,-71.60394 119.94481,-70.48618c0.56118,1.11776 266.14818,-41.85623 252.12567,-46.93659c-14.02251,-5.08037 2.8018,130.35964 -23.66933,119.56336c-26.47113,-10.79629 -111.17363,148.89795 -130.2666,140.16346c-19.09298,-8.73449 -136.03633,-71.65801 -142.1933,-72.92376c-6.15697,-1.26575 126.39977,-1.95404 122.12061,-3.15654c-4.27916,-1.2025 -71.18763,32.88983 -90.91403,15.96557c-19.72639,-16.92426 83.75008,-179.3437 72.93481,-194.44415c-10.81527,-15.10045 -5.43178,-15.92274 -13.4443,-17.59667c-8.01252,-1.67392 -26.48359,224.06253 -40.61824,221.85868c-14.13465,-2.20385 -105.56463,62.28616 -108.01351,71.77548c-2.44888,9.48932 -220.10611,-17.16339 -220.17593,5.08319c-0.06982,22.24659 51.35595,-203.41035 60.08412,-185.88601c8.72818,17.52434 281.67574,-10.40723 297.83286,-0.75118c16.15712,9.65605 -271.98181,255.72354 -262.33847,261.57498c9.64334,5.85145 136.79946,-132.33287 142.069,-130.3947c5.26953,1.93816 -56.95301,132.80677 -54.67447,134.20268c2.27854,1.3959 -173.61021,-97.61283 -161.99389,-96.13461c11.61633,1.47822 194.67047,167.97266 208.92664,180.66387c14.25616,12.69121 62.30538,-367.69114 66.6644,-348.9342c4.35902,18.75693 -160.44028,420.07506 -163.13252,429.35612c-2.69225,9.28105 230.76805,-193.33913 256.17801,-202.22028c25.40996,-8.88115 110.39513,244.00526 135.44753,231.2488c25.0524,-12.75646 -139.72033,-222.93082 -139.33988,-231.02384c0.38045,-8.09302 104.01004,-262.86224 113.43586,-270.73369c9.42582,-7.87145 -195.75452,412.78309 -196.83823,406.36191c-1.08371,-6.42119 -95.92942,-341.80501 -100.15162,-346.19568z" fill="#0000ff"/><path d="M1256.17461,431.3574c3.62226,-7.05046 74.8028,189.04982 70.41871,191.40309c-4.3841,2.35327 -72.63641,15.60829 -81.72228,17.24568c-9.08588,1.63739 17.19339,-409.67794 -12.07901,-402.58075c-29.2724,7.09719 -487.46974,258.30161 -510.29426,260.27547c-22.82452,1.97386 445.64789,249.70135 446.21837,254.7087c0.57048,5.00735 -199.00936,-41.61763 -199.46675,-34.62091c-0.4574,6.99672 110.01102,-388.90222 113.27012,-369.89645c3.2591,19.00577 61.55021,479.91306 66.97119,502.89327c5.42098,22.98021 -415.95601,-130.51485 -416.89905,-128.44147c-0.94303,2.07339 364.6335,-285.65431 359.98464,-285.92807c-4.64886,-0.27375 80.11925,62.14181 71.65772,64.16344c-8.46153,2.02163 -221.91076,100.41709 -241.41577,103.60432c-19.50501,3.18723 -108.57858,9.69763 -126.09699,10.92708c-17.51841,1.22945 204.28811,223.77195 196.86676,223.66691c-7.42135,-0.10504 47.44742,-22.45877 44.65123,-22.26808c-2.79619,0.19069 -418.9406,41.00687 -416.33449,47.34914c2.60612,6.34227 -37.05258,-151.3067 -37.68086,-146.86647c-0.62827,4.44023 262.46633,186.26546 278.37331,199.16228c15.90698,12.89682 73.93721,-29.83094 95.93756,-14.85844c22.00035,14.97251 -86.81676,139.86693 -82.72513,140.08009c4.09163,0.21315 172.12999,-181.38519 190.76312,-188.21031c18.63313,-6.82512 -239.55992,-112.34106 -220.18408,-127.25373c19.37584,-14.91268 391.60376,-68.13465 391.46727,-77.65883c-0.1365,-9.52418 -392.89851,311.27218 -386.72837,310.28157c6.17014,-0.99061 92.85143,-372.78966 104.30736,-382.30304c11.45594,-9.51338 19.85805,211.27768 20.86417,187.3218c1.00612,-23.95589 72.04428,-117.99493 66.56388,-137.658c-5.48041,-19.66307 -122.98022,33.84743 -129.06471,27.45561c-6.08449,-6.39181 1.84099,-11.90161 12.65934,-18.67128c10.81835,-6.76967 162.70813,-313.84203 174.5192,-316.37155c11.81107,-2.52952 -78.36935,411.74739 -75.43199,405.63514c2.93737,-6.11226 227.00755,-285.53576 230.62981,-292.58623z" fill="#0000ff"/><path d="M499.17,621.336c-38.01884,-25.36227 -54.89649,0.19728 -59.13546,-19.3064c-4.23897,-19.50368 214.87464,-38.75101 216.84937,-48.37401c1.97472,-9.623 41.65891,-421.03098 16.999,-421.03529c-24.65992,-0.00431 22.17052,25.80862 1.83547,27.44887c-20.33505,1.64025 -190.32539,252.10685 -200.32528,255.55016c-9.99989,3.44331 119.3381,-29.14891 111.67272,-23.56241c-7.66538,5.5865 -112.04501,69.06172 -111.3836,81.2724c0.66141,12.21068 -69.99077,-167.8337 -65.97103,-159.26292c4.01974,8.57078 229.1903,353.9981 238.44993,357.5043c9.25963,3.5062 -230.24175,-245.01583 -210.3,-236.61141c19.94175,8.40442 230.57033,-122.35048 246.54372,-117.47437c15.97339,4.87611 -27.82402,66.40224 -23.65932,64.49338c4.1647,-1.90886 -115.67918,245.82416 -109.31137,246.58349c6.36782,0.75933 186.53878,-164.37569 192.90282,-162.50415c6.36404,1.87154 -205.20366,79.00838 -199.02764,81.76287c6.17602,2.75449 -68.70121,202.04208 -59.76934,209.15257c8.93187,7.11049 362.27728,-472.64791 369.37379,-464.84435c7.09651,7.80356 -312.6408,50.63125 -311.95871,65.3065c0.6821,14.67526 255.26408,243.63611 259.43918,257.13152c4.17511,13.49541 44.94787,-94.32194 34.56535,-85.97884c-10.38252,8.3431 -40.42137,-33.51196 -54.0664,-28.37978c-13.64503,5.13218 -306.56496,291.46566 -307.60233,290.59384c-1.03737,-0.87182 389.61756,-151.7396 390.41208,-151.38451c0.79452,0.35509 -357.76734,86.5073 -355.90803,85.95874c1.85931,-0.54856 303.89664,35.228 324.6649,37.06715c20.76826,1.83915 -17.15301,71.04643 6.91464,63.2384c24.06765,-7.80803 -282.19858,29.66466 -277.23745,18.05763c4.96112,-11.60703 370.11412,-126.08352 371.20197,-131.84738c1.08785,-5.76386 -143.35555,-350.93508 -144.66807,-357.27262c-1.31252,-6.33753 -248.72122,354.14892 -248.559,353.26291c0.16221,-0.88601 430.9194,8.51318 436.58306,7.39474c5.66366,-1.11844 -240.93485,42.71026 -245.75171,33.07005c-4.81686,-9.64022 265.40453,-130.26351 265.00831,-131.58419c-0.39622,-1.32068 -170.26895,-9.40108 -188.8672,-19.47814c-18.59825,-10.07705 -271.89554,49.41351 -309.91438,24.05123z" fill="#0000ff"/></g></g></svg>