<svg version="1.1" xmlns="http://www.w3.org/2000/svg" xmlns:xlink="http://www.w3.org/1999/xlink" width="1120" height="736" viewBox="0,0,1120,736"><g fill="#ff0000" fill-rule="nonzero" stroke="none" stroke-width="1" stroke-linecap="butt" stroke-linejoin="miter" stroke-miterlimit="10" stroke-dasharray="" stroke-dashoffset="0" font-family="none" font-weight="none" font-size="none" text-anchor="none" style="mix-blend-mode: normal"><g><path d="M538.39178,-134.55739c-43.36498,3.9853 -156.89072,35.74406 -153.49772,48.43812c3.393,12.69405 -26.67724,26.96905 -24.88426,37.20755c1.79298,10.23849 -69.65397,-51.32603 -68.21888,-48.97405c1.43509,2.35197 209.2195,229.08927 205.68615,230.44289c-3.53335,1.35361 -305.99884,244.02148 -286.30052,254.25506c19.69832,10.23358 174.42677,-392.85238 203.16683,-385.14032c28.74006,7.71207 29.48269,13.39085 38.82411,11.30899c9.34142,-2.08185 100.32626,82.37679 105.22052,84.99214c4.89426,2.61535 54.64734,16.27053 54.7289,26.89099c0.08155,10.62046 60.49888,-34.85979 61.2784,-22.95696c0.77953,11.90282 -186.66515,388.33461 -186.8648,391.10286c-0.19966,2.76825 243.38876,-364.46825 258.40786,-362.44407c15.0191,2.02418 -325.44461,317.83169 -310.32134,314.96671c15.12327,-2.86498 119.10383,-275.32131 122.59163,-281.88558c3.48781,-6.56428 307.76201,-78.67178 310.68751,-90.5497c2.9255,-11.87792 -76.94596,198.56954 -87.13577,166.6455c-10.18981,-31.92404 -171.67347,-353.48844 -189.83972,-370.91435c-18.16625,-17.42591 31.70161,192.41365 18.55641,195.04134c-13.1452,2.62769 -162.19883,-178.36043 -159.45179,-184.44528c2.74703,-6.08484 -106.09942,270.91559 -98.94236,267.62728c7.15706,-3.28831 245.4543,-304.41049 244.07901,-303.17238c-1.37529,1.2381 49.03937,355.12221 57.38345,354.45811c8.34408,-0.6641 -10.84459,102.73734 -45.84562,103.15562c-35.00104,0.41828 -25.94302,-440.03574 -69.308,-436.05045z"/><path d="M677.12857,359.79625c-2.62717,-9.90045 -91.03505,17.84737 -95.31302,20.92947c-4.27797,3.08211 -245.28342,-232.72671 -250.54437,-232.15469c-5.26094,0.57203 327.56904,334.47108 300.89078,331.10086c-26.67826,-3.37022 -475.26837,-254.09146 -502.29439,-262.18262c-27.02602,-8.09116 57.71187,-217.58558 52.49421,-226.85072c-5.21765,-9.26514 285.40896,385.92171 283.3056,377.07343c-2.10336,-8.84828 -155.81065,-350.00565 -164.17955,-353.34739c-8.3689,-3.34174 -82.66914,303.06417 -99.09017,304.27941c-16.42103,1.21524 -60.28996,-285.47938 -66.23695,-277.99859c-5.94698,7.48079 -58.7779,96.65703 -57.56895,126.51863c1.20895,29.8616 229.56034,-3.73644 234.67151,18.33636c5.11117,22.0728 -55.86245,-26.68684 -45.51607,-21.83965c10.34638,4.8472 -89.37462,-36.78961 -85.8713,-33.25119c3.50332,3.53842 78.37407,181.55304 97.01441,189.55217c18.64034,7.99914 140.02115,-3.52566 163.95646,-12.06062c23.93531,-8.53496 197.0903,-74.73849 217.70872,-89.59778c20.61842,-14.85929 -204.07237,-25.49084 -188.48137,-23.51871c15.591,1.97213 206.72847,296.19834 208.74603,294.16912c2.01756,-2.02922 49.67265,-158.22597 55.01139,-158.08121c5.33874,0.14477 -242.07159,-101.89138 -244.44413,-116.44122c-2.37254,-14.54984 188.36832,155.26537 185.74114,145.36492z"/><path d="M727.6304,573.8935c-2.29037,4.78868 -377.68932,-106.38208 -377.9768,-107.63467c-0.28748,-1.25259 352.86082,71.82463 346.3011,75.04631c-6.55973,3.22168 -64.78247,-248.67792 -79.25609,-242.31204c-14.47362,6.36588 -134.10604,68.89287 -153.65183,75.20768c-19.54579,6.3148 -130.36612,-194.49749 -144.70933,-187.12258c-14.34321,7.37491 323.75046,261.72381 310.6691,278.90935c-13.08136,17.18555 -280.40563,56.38109 -288.73699,68.26399c-8.33136,11.8829 215.77163,136.04559 221.17842,140.32843c5.40679,4.28285 -85.74736,-368.8964 -88.04317,-363.91068c-2.2958,4.98572 77.14874,422.47884 106.92517,436.25312c29.77643,13.77429 -119.58849,-259.6611 -66.39839,-255.74396c53.19009,3.91714 -95.0293,201.26787 -79.5661,193.82502c15.46319,-7.44285 257.68957,-115.52527 256.6467,-136.671c-1.04287,-21.14573 -260.29151,1.94075 -251.58322,-17.03347c8.70828,-18.97422 52.80591,-43.95335 71.01564,-51.91073c18.20974,-7.95739 69.47473,150.8577 76.92749,136.66147c7.45276,-14.19623 8.78454,-188.75555 6.76376,-199.01324c-2.02078,-10.25768 -63.28098,-313.33878 -75.65062,-319.11182c-12.36963,-5.77304 156.50505,257.82765 141.00437,255.17748c-15.50068,-2.65018 111.78134,153.14704 99.1537,152.52078c-12.62764,-0.62626 -270.36668,-231.8031 -281.35542,-229.64787c-10.98874,2.15522 313.3005,192.04373 310.88312,196.0491c-2.41738,4.00537 -58.25022,97.08065 -60.54059,101.86932z"/><path d="M676.52451,121.80756c-10.62461,-0.11061 42.00585,188.8843 47.37812,191.71976c5.37227,2.83546 -101.6934,69.39218 -98.55787,73.16093c3.13554,3.76876 289.73373,60.12144 304.81932,84.21094c15.08559,24.08951 -104.94732,-126.08626 -92.4252,-96.21306c12.52212,29.87321 115.19235,209.45567 118.01828,218.87333c2.82593,9.41766 59.47701,-264.66967 63.65115,-252.21351c4.17414,12.45616 -310.14677,-14.03918 -312.66927,15.71853c-2.5225,29.75771 -5.71125,290.96806 -4.7954,311.48106c0.91585,20.513 168.23769,-265.84272 185.09677,-261.65243c16.85908,4.1903 58.36983,-16.20518 70.01766,-15.47936c11.64783,0.72582 -14.2654,442.31155 4.28422,423.21799c18.54962,-19.09356 261.72102,-399.9294 275.87472,-421.28098c14.1537,-21.35158 -155.03716,214.63255 -159.20158,202.13241c-4.16442,-12.50013 87.57349,-227.54802 86.07745,-243.1959c-1.49604,-15.64789 -197.26855,0.74198 -202.11998,-16.16634c-4.85144,-16.90832 202.89503,-101.53586 200.79682,-114.25469c-2.09822,-12.71883 -293.90873,216.68112 -292.66442,211.46477c1.2443,-5.21636 35.33057,47.66883 32.45158,46.25309c-2.87899,-1.41574 348.98466,35.92797 334.25632,33.8073c-14.72834,-2.12067 -513.24482,-222.27593 -527.45245,-229.37752c-14.20763,-7.10159 278.21548,-44.68105 265.77437,-50.15403c-12.44112,-5.47298 -273.07874,-202.33312 -284.10664,-210.33961c-11.02789,-8.0065 417.38238,176.30345 408.93507,169.80241c-8.44731,-6.50104 -21.23706,-10.74076 -25.41994,-11.73012c-4.18288,-0.98936 -43.73064,-240.82603 -56.5518,-243.36756c-12.82116,-2.54153 -330.84269,183.69318 -341.46731,183.58258z"/><path d="M740.41382,168.22705c-2.98883,5.15097 263.89808,179.75615 265.83576,182.22365c1.93768,2.4675 -327.31477,50.68578 -332.07667,68.6648c-4.7619,17.97902 128.93902,-5.43486 118.04893,13.18155c-10.89009,18.6164 -258.51983,133.68977 -276.19758,144.24513c-17.67776,10.55536 187.45064,-200.50485 178.05175,-192.34269c-9.39889,8.16215 -186.3884,11.82958 -183.11509,14.62561c3.27331,2.79603 359.32803,122.85781 363.63368,127.51153c4.30565,4.65372 -371.6295,299.43659 -368.12541,310.02568c3.50409,10.5891 256.50243,-74.59199 285.18041,-77.60211c28.67798,-3.01011 248.63917,-349.31383 274.42317,-371.86248c25.784,-22.54865 -372.28583,369.00596 -373.09981,357.21068c-0.81398,-11.79528 402.35102,-259.88252 404.82295,-266.15273c2.47193,-6.27022 -129.26625,42.09199 -127.33998,33.96813c1.92627,-8.12385 -116.77378,-294.24593 -122.95077,-299.4803c-6.17699,-5.23437 208.53624,173.11757 196.31794,158.17889c-12.2183,-14.93868 27.94006,151.60906 20.99027,142.59815c-6.94979,-9.01091 -321.41073,-350.14446 -324.39956,-344.99348z"/><path d="M220.63515,264.16705c63.49732,66.56104 137.04362,77.69889 117.45569,60.04842c-19.58793,-17.65048 -107.84976,14.17202 -106.99535,18.21288c0.85441,4.04086 170.80464,282.58588 159.97493,284.07291c-10.8297,1.48703 -282.03307,-374.05259 -329.56867,-397.04156c-47.53559,-22.98898 250.82624,-8.04682 215.79832,-38.57794c-35.02792,-30.53112 -409.01497,52.08516 -405.36771,46.19862c3.64726,-5.88654 -75.13751,-116.93675 -75.69864,-119.85946c-0.56114,-2.92272 364.30679,56.60657 366.90407,56.18398c2.59729,-0.42259 -277.20141,-168.29342 -269.02942,-188.68034c8.17199,-20.38691 188.58551,317.71397 200.30024,295.68421c11.71474,-22.02976 -232.90723,-20.84374 -222.93817,-20.3378c9.96906,0.50594 251.96912,-275.86275 241.37814,-286.85676c-10.59097,-10.99401 90.93724,-69.1537 72.33208,-77.6836c-18.60516,-8.5299 -316.42072,80.00072 -318.4091,94.11435c-1.98838,14.11363 170.16869,365.11821 148.72738,352.19361c-21.44131,-12.9246 136.72006,-417.98604 202.47367,-349.40127c65.75361,68.58477 -60.83479,205.16873 2.66253,271.72977z"/><path d="M261.75396,555.68953c-6.393,-9.41026 -457.79584,-333.55937 -456.123,-329.86335c1.67284,3.69601 442.70912,62.63372 441.41075,67.25993c-1.29837,4.62621 -374.19842,-18.38819 -375.67777,1.41097c-1.47935,19.79915 -23.55122,104.81991 -24.33546,127.99709c-0.78424,23.17718 22.33494,-70.08282 22.95125,-54.5907c0.61631,15.49212 39.98777,322.45348 41.30678,332.30782c1.31901,9.85434 357.86033,6.56721 359.96799,14.65774c2.10766,8.09053 -157.32612,-144.93759 -149.07577,-124.15403c8.25035,20.78355 -47.90329,-111.43022 -38.01236,-99.65496c9.89093,11.77526 -28.78144,122.55359 -25.59551,122.66901c3.18593,0.11541 233.11414,30.95276 247.47949,24.71584c14.36534,-6.23691 47.5652,118.8093 61.91789,103.64153c14.35269,-15.16776 -216.50859,-46.86513 -213.28469,-51.95716c3.2239,-5.09203 -129.83142,-15.25878 -120.0797,-11.72289c9.75172,3.53589 22.33544,-87.41174 32.10466,-97.46326c9.76922,-10.05152 14.18715,148.0807 18.35854,132.7509c4.17138,-15.32979 269.39522,93.22582 260.94046,84.59652c-8.45476,-8.6293 -360.24448,-370.40082 -370.59683,-378.55384c-10.35234,-8.15302 92.4519,302.82856 85.31604,298.06993c-7.13586,-4.75863 193.03886,-268.96481 177.93464,-278.77726c-15.10421,-9.81246 101.66071,262.37246 92.21342,251.38091c-9.44728,-10.99155 -143.29532,-110.13763 -150.40197,-114.35899c-7.10665,-4.22136 -117.93051,23.83067 -133.05663,10.70766c-15.12612,-13.12301 220.73079,-21.65914 214.33779,-31.06939z"/><path d="M410.95884,417.09104c-5.86329,2.48299 83.22329,-8.27323 85.0739,-7.80768c1.85061,0.46555 -330.29554,197.77617 -332.83469,208.43099c-2.53916,10.65482 225.47016,108.40178 222.77618,122.31697c-2.69399,13.91519 103.42596,9.0832 100.74106,11.76762c-2.6849,2.68442 -366.19027,-27.39141 -358.75669,-24.04429c7.43359,3.34711 -50.84779,-91.39892 -23.89723,-79.4718c26.95056,11.92712 139.96578,139.60057 155.72996,148.54498c15.76418,8.94441 -5.41698,-220.16593 -0.42425,-228.8707c4.99273,-8.70477 364.21484,109.66994 372.47973,105.5446c8.26489,-4.12534 -187.15705,-149.13062 -171.20934,-153.9245c15.94771,-4.79387 -78.58478,60.11727 -67.64052,49.41809c10.94426,-10.69917 44.09118,-57.44417 21.36641,-62.8536c-22.72477,-5.40943 179.14429,-54.89376 166.0991,-56.55687c-13.04519,-1.66311 83.7539,447.51037 75.65944,437.57224c-8.09446,-9.93813 -86.35532,-457.61308 -103.93228,-467.19744c-17.57696,-9.58436 -378.28455,84.31917 -387.88223,85.59475c-9.59768,1.27558 -13.44864,267.54997 -16.48094,266.03201c-3.0323,-1.51796 -43.75706,-80.44375 -48.03017,-79.6475c-4.27311,0.79625 317.02586,-277.33085 311.16257,-274.84786z"/><path d="M618.59927,775.17535c0.61609,-15.13673 -57.5543,-291.55347 -31.31745,-286.43494c26.23686,5.11853 22.25663,21.38468 46.69312,29.04731c24.43649,7.66262 66.79619,-113.25818 63.81338,-103.02719c-2.98281,10.23099 289.67464,294.11119 301.16939,296.52463c11.49474,2.41343 -7.09163,-50.07353 10.91221,-53.95825c18.00384,-3.88472 -289.09005,-47.90379 -278.60015,-49.77834c10.48989,-1.87455 270.58776,-39.1171 277.62435,-40.73418c7.03659,-1.61708 -111.13779,66.11098 -110.77404,65.45386c0.36374,-0.65713 -70.11494,228.15302 -70.6065,232.39861c-0.49156,4.24559 227.46703,-29.89064 229.06952,-24.21586c1.60249,5.67478 52.93202,-378.98143 38.01362,-373.92614c-14.9184,5.05529 -198.14601,227.97753 -214.07488,231.0816c-15.92887,3.10406 76.41606,51.46996 62.04996,51.99841c-14.3661,0.52845 -33.00818,-141.8752 -47.6149,-140.09308c-14.60672,1.78212 -38.65498,170.24915 -38.86199,168.59222c-0.20701,-1.65694 79.97147,170.45882 69.40624,162.30445c-10.56523,-8.15438 -502.52121,-25.07892 -512.05325,-34.80448c-9.53205,-9.72556 39.93476,-437.29498 32.62819,-440.23837c-7.30657,-2.94338 284.44992,7.65626 276.20824,7.15535c-8.24168,-0.5009 -266.11121,377.68306 -266.83792,381.63005c-0.72671,3.94699 181.28514,0.00636 181.43365,3.71929c0.14851,3.71293 118.49471,-183.09579 118.62738,-178.89452c0.13267,4.20127 32.92048,223.68645 32.24128,212.16843c-0.6792,-11.51802 -169.76553,-100.83211 -169.14944,-115.96884z"/><path d="M717.1067,797.41752c-7.86007,5.25077 160.81929,-204.53322 157.30739,-200.84023c-3.51189,3.69299 -14.83559,43.34391 -14.92795,45.32119c-0.09236,1.97727 231.82005,22.69268 242.70139,23.09061c10.88134,0.39792 23.11268,-166.29112 34.67967,-165.86009c11.56699,0.43103 -197.29564,268.40155 -190.44496,268.27949c6.85068,-0.12205 26.4254,-363.73087 30.45569,-362.67369c4.03029,1.05718 23.32433,39.9034 23.35251,47.79672c0.02817,7.89333 -173.82171,286.02865 -174.96468,293.39816c-1.14297,7.36951 18.33974,28.04428 22.88346,27.67292c4.54372,-0.37136 292.34435,-139.57883 304.31246,-142.46289c11.96811,-2.88406 -323.96698,12.0411 -315.38312,8.94869c8.58386,-3.09241 166.94577,32.42346 173.64223,27.67717c6.69646,-4.74629 3.80115,88.99096 7.43145,82.06853c3.6303,-6.92243 49.21033,-7.12964 46.99266,-14.69361c-2.21767,-7.56398 48.40357,-143.82746 44.64395,-146.64912c-3.75963,-2.82166 -204.38942,211.46484 -214.13324,211.31546c-9.74382,-0.14938 -103.07683,-19.18385 -114.34191,-17.76468c-11.26508,1.41917 -50.33903,-336.92187 -55.53489,-337.44918c-5.19586,-0.52731 436.42248,-38.3002 425.47099,-40.61012c-10.95149,-2.30992 -247.36564,300.87762 -255.36384,300.6446c-7.9982,-0.23302 -102.25393,77.86577 -107.30966,80.10777c-5.05573,2.242 -63.60953,7.43154 -71.4696,12.68231z"/></g></g></svg>