<svg version="1.1" xmlns="http://www.w3.org/2000/svg" xmlns:xlink="http://www.w3.org/1999/xlink" width="1512" height="824" viewBox="0,0,1512,824"><g fill="none" fill-rule="nonzero" stroke="none" stroke-width="1" stroke-linecap="butt" stroke-linejoin="miter" stroke-miterlimit="10" stroke-dasharray="" stroke-dashoffset="0" font-family="none" font-weight="none" font-size="none" text-anchor="none" style="mix-blend-mode: normal"><g><path d="M321.46596,140.829c-73.71351,-14.76404 -164.67717,-143.12344 -178.93189,-125.82878c-14.25472,17.29466 -88.40877,120.43124 -112.67637,159.01662c-24.2676,38.58538 78.4345,36.6238 88.75962,56.98761c10.32513,20.36381 27.81137,118.87074 29.77846,117.83011c1.96709,-1.04063 -58.75383,-5.84816 -59.94732,-7.04947c-1.19349,-1.20131 66.53782,-28.83446 62.34469,1.01141c-4.19313,29.84586 -99.48393,61.19044 -100.51793,104.00829c-1.03401,42.81785 69.55937,121.25495 72.88853,134.13766c3.32916,12.88272 -68.99046,-117.88323 -69.27309,-120.23195c-0.28263,-2.34872 61.37422,133.45286 70.17556,134.96502c8.80134,1.51217 19.23206,-118.49024 35.30931,-107.19018c16.07725,11.30006 -17.8735,106.96374 -1.98383,107.25136c15.88967,0.28761 147.97066,-15.45016 158.33474,-16.90067c10.36408,-1.4505 -26.2784,-91.02623 -22.62438,-120.51183c3.65402,-29.4856 -92.74003,27.33519 -94.72017,-5.27192c-1.98015,-32.60711 124.18277,-15.95574 118.44934,-20.04169c-5.73343,-4.08595 -152.42433,-150.93437 -156.51048,-152.98344c-4.08615,-2.04907 44.88665,93.15617 49.96467,92.4384c5.07802,-0.71777 113.39945,-21.28966 148.17351,-25.36952c34.77406,-4.07986 22.32473,5.42538 45.15045,0.46257c22.82573,-4.96281 -31.27042,-10.76969 -27.34738,-19.83861c3.92303,-9.06891 66.67242,-2.28067 82.15456,-9.0422c15.48214,-6.76153 40.91666,-113.72835 50.06506,-110.6133c9.1484,3.11505 -44.04438,102.11964 -39.12013,100.42096c4.92425,-1.69867 124.83126,-107.80888 136.98585,-125.12925c12.15459,-17.32037 -93.75013,85.54688 -81.29274,67.52702c12.45738,-18.01986 9.59412,-68.8252 2.61,-80.42539c-6.98412,-11.60019 57.24378,-83.18406 70.72287,-84.76344c13.47909,-1.57937 59.65616,17.54649 -7.27609,4.46417c-66.93224,-13.08232 -195.93189,65.43448 -269.64541,50.67044z" fill="#0000ff"/><path d="M678.36065,168.87779c-15.27094,-22.70404 61.96549,-40.38378 72.05911,-36.64292c10.09362,3.74086 -80.84944,40.15587 -80.95298,36.89645c-0.10354,-3.25941 25.02727,26.65681 62.3478,19.9536c37.32053,-6.70321 223.55286,-18.72315 279.37426,-12.65091c55.8214,6.07224 45.0444,59.35082 68.43826,90.76505c23.39386,31.41423 57.19846,-47.98971 75.80161,-29.71887c18.60315,18.27084 31.49731,40.1149 41.69084,33.61731c10.19352,-6.49759 -23.38926,-28.10933 -23.76652,-35.3898c-0.37725,-7.28048 -65.90481,57.67464 -64.58933,57.29414c1.31548,-0.3805 108.51504,-100.8946 112.63036,-87.09212c4.11532,13.80247 -27.13138,94.55258 -20.90815,114.72319c6.22322,20.17061 82.58413,43.80429 72.57592,64.31939c-10.00821,20.5151 -46.02194,125.56612 -89.21233,141.3351c-43.19039,15.76898 -105.17091,-123.56819 -137.40114,-122.1592c-32.23023,1.40899 -83.94341,144.35525 -88.83212,142.95032c-4.88871,-1.40492 40.84864,-107.02584 38.63368,-105.81513c-2.21495,1.2107 -88.13736,51.6619 -87.38885,62.22401c0.74851,10.5621 73.94086,-45.32028 66.16175,-32.77941c-7.7791,12.54088 -99.62902,131.0025 -142.26112,112.27689c-42.63209,-18.72561 -122.81434,-47.61259 -160.50686,-73.25102c-37.69252,-25.63843 0.39343,-171.88915 2.79559,-175.6098c2.40216,-3.72065 61.24835,102.61053 72.33224,100.13158c11.08389,-2.47896 -27.95798,-76.38997 -4.69569,-84.75348c23.26229,-8.36351 37.91195,11.28575 68.7789,-3.78126c30.86695,-15.067 62.32948,-103.13142 81.59937,-111.4999c19.26989,-8.36848 48.48788,92.29206 58.54136,91.83299c10.05348,-0.45907 -50.53212,-43.39584 -50.01593,-45.19106c0.51619,-1.79523 118.50858,-70.78178 112.39036,-73.1418c-6.11822,-2.36002 -123.80045,35.79299 -151.84374,27.02829c-28.04329,-8.7647 -35.1098,-24.78875 -53.8184,-19.36994c-18.70861,5.41882 4.4933,68.45626 -11.62898,51.5457c-16.12228,-16.91057 -103.05834,-75.34335 -118.32928,-98.04739z" fill="#000000"/><path d="M594.52696,478.71022c15.04105,-4.56701 15.52228,114.82246 10.76084,116.021c-4.76144,1.19854 52.57911,-74.61866 50.58383,-74.84581c-1.99527,-0.22716 -130.23103,72.44097 -141.4885,72.15105c-11.25747,-0.28992 95.58161,-42.52209 73.60676,-51.13525c-21.97485,-8.61317 -177.37618,-65.22218 -196.2193,-76.47959c-18.84312,-11.25741 103.14551,-28.24515 95.49283,-27.60234c-7.65268,0.6428 -12.20763,-25.25656 -23.75381,-2.57037c-11.54617,22.68619 -110.97982,67.32742 -120.14244,92.93984c-9.16262,25.61242 -23.93556,28.62305 -26.73889,32.48719c-2.80333,3.86414 -37.74907,119.12269 -46.37312,116.05373c-8.62405,-3.06897 -12.41382,-106.12371 -21.11429,-105.71198c-8.70047,0.41173 86.031,74.76365 78.45692,109.1857c-7.57409,34.42205 -4.35524,8.95114 22.64157,42.85122c26.99682,33.90008 80.86745,101.75176 103.45427,104.72938c22.58682,2.97762 -114.46767,67.74071 -101.81177,58.93017c12.6559,-8.81055 183.42934,-114.59995 217.21894,-139.33537c33.78959,-24.73542 -15.47033,37.48935 -8.2846,21.24158c7.18573,-16.24778 -18.79719,-14.72034 -39.32969,-30.99381c-20.5325,-16.27348 24.8698,-99.16536 2.81406,-112.82368c-22.05574,-13.65832 -135.89952,-46.66275 -140.14406,-46.75599c-4.24454,-0.09325 103.94109,49.3837 105.97501,49.41502c2.03391,0.03132 -83.15798,-33.83542 -81.04909,-35.86743c2.10889,-2.03201 70.26436,-50.13225 77.79489,-54.0355c7.53053,-3.90326 62.93403,-33.86404 78.70302,-41.219c15.76899,-7.35496 -92.34106,-6.69076 -89.94756,-8.36767c2.3935,-1.67691 19.72079,120.052 33.37778,117.1146c13.65699,-2.9374 70.47536,-120.80964 85.51641,-125.37665z" fill="#000000"/><path d="M1289.32393,465.40924c-16.00683,-11.44689 6.16908,52.82841 -5.49617,59.36216c-11.66525,6.53376 -26.54614,-68.18343 -42.87832,-63.87157c-16.33218,4.31186 2.08295,51.49106 -7.92307,52.70987c-10.00602,1.21881 -40.40449,-11.18105 -64.04823,6.63185c-23.64374,17.8129 -17.28961,6.71303 -13.70863,37.24262c3.58098,30.52959 61.92761,152.97804 86.24744,180.04679c24.31983,27.06874 19.67703,-12.49754 29.81674,-0.3021c10.13971,12.19544 88.87662,23.34166 95.99795,26.49115c7.12133,3.14949 -13.00106,34.07946 7.37392,17.28605c20.37499,-16.7934 15.39782,-144.25109 29.77655,-168.22696c14.37873,-23.97587 40.38557,33.8729 47.49565,23.5698c7.11009,-10.3031 -28.89133,-18.92033 -31.71041,-38.73205c-2.81908,-19.81172 4.22072,10.97129 -0.61306,0.52126c-4.83378,-10.45004 6.65219,-73.17841 13.80638,-74.56655c7.15419,-1.38814 -63.98562,-64.6831 -60.7686,-61.68051c3.21701,3.0026 81.51502,0.33486 69.49278,-11.28738c-12.02224,-11.62224 -136.8541,26.25245 -152.86093,14.80556z" fill="#000000"/><path d="M1415.67339,272.77122c-4.22219,-4.39067 -44.41377,-18.03263 -43.85259,-16.91487c0.56118,1.11776 -29.89933,11.07736 -43.92184,5.99699c-14.02251,-5.08037 107.22405,-95.0575 80.75292,-105.85378c-26.47113,-10.79629 -146.33595,15.77475 -165.42893,7.04026c-19.09298,-8.73449 11.62609,-10.35981 5.46912,-11.62556c-6.15697,-1.26575 -28.05309,-74.97707 -32.33225,-76.17956c-4.27916,-1.2025 -61.07609,47.95036 -80.80248,31.02609c-19.72639,-16.92426 12.65583,-6.02088 1.84056,-21.12133c-10.81527,-15.10045 -3.30685,15.11256 -11.31937,13.43863c-8.01252,-1.67392 -41.91067,-34.14864 -56.04532,-36.35249c-14.13465,-2.20385 -48.07627,-44.39942 -50.52515,-34.9101c-2.44888,9.48932 -2.32955,49.35086 -2.39937,71.59744c-0.06982,22.24659 16.86355,48.17109 25.59173,65.69543c8.72818,17.52434 -21.37388,-17.6651 -5.21675,-8.00905c16.15712,9.65605 29.74136,42.6516 39.38469,48.50305c9.64334,5.85145 2.93759,60.65948 8.20712,62.59764c5.26953,1.93816 31.45216,-60.43192 33.73069,-59.03602c2.27854,1.3959 -28.01189,55.34076 -16.39557,56.81898c11.61633,1.47822 66.61703,38.28165 80.8732,50.97286c14.25616,12.69121 30.30197,-10.20916 34.66099,8.54778c4.35902,18.75693 77.28943,10.98066 74.59718,20.26171c-2.69225,9.28105 -15.68845,-8.01909 9.72151,-16.90024c25.40996,-8.88115 126.14839,-41.06403 151.20079,-53.82049c25.0524,-12.75646 -92.74553,-8.95049 -92.36508,-17.04351c0.38045,-8.09302 126.75711,43.35265 136.18292,35.48121c9.42582,-7.87145 -94.48154,-5.91401 -95.56525,-12.3352c-1.08371,-6.42119 18.17872,-3.48521 13.95653,-7.87588z" fill="#0000ff"/><path d="M1161.84879,406.42539c3.62226,-7.05046 -47.03991,-17.53279 -51.42401,-15.17953c-4.3841,2.35327 48.8641,23.10492 39.77822,24.74231c-9.08588,1.63739 -73.62995,27.06232 -102.90235,34.1595c-29.2724,7.09719 -113.41403,105.29738 -136.23855,107.27125c-22.82452,1.97386 12.85546,-95.45671 13.42594,-90.44935c0.57048,5.00735 53.11018,-12.41434 52.65279,-5.41762c-0.4574,6.99672 -88.12782,115.55102 -84.86872,134.55679c3.2591,19.00577 145.33934,-48.84005 150.76032,-25.85984c5.42098,22.98021 5.92964,85.67723 4.98661,87.75061c-0.94303,2.07339 -150.51934,-64.00926 -155.1682,-64.28302c-4.64886,-0.27375 66.57564,106.06187 58.11411,108.0835c-8.46153,2.02163 5.6098,40.35965 -13.89522,43.54688c-19.50501,3.18723 -21.38385,-1.21221 -38.90226,0.01725c-17.51841,1.22945 -21.76178,8.46275 -29.18312,8.35771c-7.42135,-0.10504 -79.13919,-46.15592 -81.93538,-45.96523c-2.79619,0.19069 56.91021,51.7775 59.51633,58.11977c2.60612,6.34227 27.46224,3.09513 26.83396,7.53536c-0.62827,4.44023 -33.54966,12.79397 -17.64267,25.69078c15.90698,12.89682 17.66078,9.13964 39.66112,24.11214c22.00035,14.97251 -5.15168,-44.55252 -1.06005,-44.33937c4.09163,0.21315 49.52099,-45.59902 68.15413,-52.42414c18.63313,-6.82512 65.25965,87.92255 84.63549,73.00988c19.37584,-14.91268 -82.17778,-75.5408 -82.31427,-85.06498c-0.1365,-9.52418 33.29605,15.71148 39.46619,14.72087c6.17014,-0.99061 40.36534,37.08701 51.82127,27.57364c11.45594,-9.51338 50.97362,-86.14233 51.97974,-110.09822c1.00612,-23.95589 -36.92409,-112.15028 -42.40449,-131.81335c-5.48041,-19.66307 -35.18894,-9.49817 -41.27342,-15.88998c-6.08449,-6.39181 -35.05097,-33.8571 -24.23262,-40.62677c10.81835,-6.76967 50.08553,41.46546 61.8966,38.93594c11.81107,-2.52952 29.77639,-68.92642 32.71375,-75.03867c2.93737,-6.11226 63.42651,-8.68366 67.04877,-15.73413z" fill="#0000ff"/><path d="M732.23564,427.5371c-38.01884,-25.36227 -196.18576,-82.79146 -200.42473,-102.29514c-4.23897,-19.50368 138.9507,-25.57669 140.92542,-35.19969c1.97472,-9.623 -16.89571,29.73461 -41.55563,29.7303c-24.65992,-0.00431 -69.5414,-6.74733 -89.87644,-5.10708c-20.33505,1.64025 6.3425,-25.86016 -3.65739,-22.41685c-9.99989,3.44331 -47.7753,127.22425 -55.44068,132.81075c-7.66538,5.5865 -111.36954,-10.8548 -110.70813,1.35588c0.66141,12.21068 36.37292,19.42252 40.39266,27.9933c4.01974,8.57078 19.68154,-3.3609 28.94117,0.1453c9.25963,3.5062 72.93388,53.93556 92.87562,62.33998c19.94175,8.40442 8.15867,-82.12373 24.13205,-77.24762c15.97339,4.87611 76.64572,-5.86453 80.81042,-7.77339c4.1647,-1.90886 -115.54697,51.31391 -109.17916,52.07323c6.36782,0.75933 53.44962,21.67706 59.81366,23.5486c6.36404,1.87154 6.94911,39.05954 13.12513,41.81403c6.17602,2.75449 -30.00055,-45.54736 -21.06868,-38.43688c8.93187,7.11049 156.36236,-27.40739 163.45887,-19.60383c7.09651,7.80356 -123.99317,47.40076 -123.31107,62.07602c0.6821,14.67526 27.13748,36.90396 31.31259,50.39937c4.17511,13.49541 67.27529,-14.87926 56.89277,-6.53616c-10.38252,8.3431 15.05874,-0.89283 1.41371,4.23935c-13.64503,5.13218 -72.16308,7.95773 -73.20046,7.08591c-1.03737,-0.87182 -66.62864,56.95165 -65.83413,57.30675c0.79452,0.35509 88.11743,-59.35714 89.97673,-59.9057c1.85931,-0.54856 -9.45971,113.6446 11.30855,115.48375c20.76826,1.83915 6.98578,-127.17644 31.05343,-134.98447c24.06765,-7.80803 110.81626,33.37015 115.77739,21.76312c4.96112,-11.60703 6.74808,-39.79386 7.83592,-45.55772c1.08785,-5.76386 -26.35832,-25.86239 -27.67084,-32.19993c-1.31252,-6.33753 47.30078,61.05938 47.46299,60.17337c0.16221,-0.88601 -38.98583,-30.26058 -33.32217,-31.37903c5.66366,-1.11844 9.28652,-14.42915 4.46966,-24.06937c-4.81686,-9.64022 -92.10614,-40.62055 -92.50237,-41.94123c-0.39622,-1.32068 115.78362,96.11343 97.18537,86.03638c-18.59825,-10.07705 -53.39343,-126.359 -91.41227,-151.72127z" fill="#0000ff"/></g></g></svg>