<svg version="1.1" xmlns="http://www.w3.org/2000/svg" xmlns:xlink="http://www.w3.org/1999/xlink" width="1120" height="736" viewBox="0,0,1120,736"><g fill="#000000" fill-rule="nonzero" stroke="none" stroke-width="1" stroke-linecap="butt" stroke-linejoin="miter" stroke-miterlimit="10" stroke-dasharray="" stroke-dashoffset="0" font-family="none" font-weight="none" font-size="none" text-anchor="none" style="mix-blend-mode: normal"><g><path d="M317.41619,101.10028c1.65179,7.78573 70.84237,-11.69263 64.67794,-17.86206c-6.16443,-6.16942 1.3673,27.443 -3.62677,22.33496c-4.99408,-5.10804 -134.80425,3.48152 -146.66352,-7.9169c-11.85927,-11.39841 3.61778,4.61143 -4.95107,-1.68689c-8.56885,-6.29831 19.73924,-44.23338 15.87393,-42.64172c-3.86531,1.59165 -34.78487,-20.19111 -45.75476,10.74059c-10.96989,30.93169 61.32604,86.97936 59.0709,118.66093c-2.25513,31.68157 -98.06593,127.41658 -92.07551,127.7586c5.99042,0.34202 116.76996,-46.26284 128.06341,-46.3125c11.29345,-0.04966 -103.74646,56.24059 -84.9107,55.09719c18.83576,-1.1434 109.54522,-3.81768 121.90871,-2.19444c12.36349,1.62324 34.61239,-66.39361 38.32267,-71.74317c3.71028,-5.34955 2.98362,-4.97105 9.77901,-10.19607c6.79539,-5.22502 40.29644,46.28908 48.40461,33.53871c8.10816,-12.75037 -32.07078,-38.50329 -29.29881,-51.2768c2.77196,-12.77351 80.78415,4.71737 86.58815,3.56177c5.80399,-1.1556 -101.30722,-100.19112 -95.29516,-103.79521c6.01206,-3.60409 80.35877,-25.37472 75.50652,-27.80274c-4.85225,-2.42803 -21.19027,8.42399 -23.79332,4.74019c-2.60306,-3.6838 -82.0559,-4.08019 -96.79143,-8.91695c-14.73552,-4.83676 66.41595,13.16474 53.9611,21.19559c-12.45485,8.03084 -80.64769,-13.06883 -78.9959,-5.2831z"/><path d="M391.06382,148.16212c-0.49033,-3.73278 57.19653,9.75073 66.26353,6.86689c9.067,-2.88385 -30.16582,42.16759 -22.94349,31.43575c7.22232,-10.73184 66.75818,-12.62107 63.80188,-20.80988c-2.9563,-8.18881 -51.54238,1.94464 -50.93951,0.43173c0.60287,-1.51291 -0.30092,-59.43041 9.2439,-61.18994c9.54482,-1.75953 99.86615,25.29564 111.08399,32.84669c11.21785,7.55105 -8.2453,-9.04878 8.3385,-11.49344c16.58379,-2.44465 -3.3661,-26.24087 9.08088,-28.0133c12.44698,-1.77243 24.11414,-15.32047 23.74242,-0.7861c-0.37172,14.53437 20.13072,-7.47 22.17063,-1.83505c2.0399,5.63495 55.53829,93.2418 46.7504,102.16764c-8.7879,8.92584 -122.81093,2.37039 -134.69925,9.03208c-11.88832,6.66168 35.36791,-51.40439 34.70908,-47.97696c-0.65883,3.42743 -59.15778,133.63916 -46.63413,136.26777c12.52365,2.62861 148.05385,-39.05493 157.6181,-40.99678c9.56425,-1.94185 -113.9263,-91.91649 -102.70695,-92.7777c11.21935,-0.86121 77.97429,72.58287 95.53263,70.96955c17.55833,-1.61332 63.31689,20.12361 72.8642,17.43809c9.54731,-2.68551 28.27328,20.61345 38.52572,24.96883c10.25244,4.35538 -68.87607,-84.84142 -65.43312,-75.57742c3.44295,9.264 68.27434,42.47494 68.25011,53.06355c-0.02424,10.58862 -55.88341,15.21116 -57.22942,25.59268c-1.34601,10.38152 11.10356,-25.71522 -7.48817,-20.82992c-18.59173,4.88529 16.49732,93.55008 2.21025,96.62738c-14.28706,3.07731 -95.00623,50.15967 -107.26625,46.96515c-12.26002,-3.19451 -46.40469,-39.01035 -67.07756,-39.3096c-20.67287,-0.29925 76.5402,-54.59815 63.49168,-52.20665c-13.04851,2.3915 -80.88186,-20.00607 -89.01493,-21.27282c-8.13307,-1.26675 28.27852,-17.47952 26.85933,-16.80404c-1.41919,0.67549 -17.13838,5.32929 -27.32854,7.8941c-10.19016,2.56481 -18.3276,93.58528 -30.14777,89.65057c-11.82017,-3.93471 -66.66308,-38.09005 -77.19224,-37.91603c-10.52916,0.17403 19.70902,30.07637 9.64583,35.31498c-10.06319,5.23861 2.00078,-70.51097 1.78269,-73.63941c-0.21809,-3.12845 -74.37601,57.76113 -74.44048,50.03631c-0.06447,-7.72482 9.78642,-15.01576 13.26238,-19.98805c3.47596,-4.97228 -13.61349,-50.32181 -8.45287,-57.70785c5.16062,-7.38605 89.67122,-11.66256 88.55279,-20.14609c-1.11843,-8.48353 -71.50225,-20.24381 -67.18913,-25.92365c4.31311,-5.67984 57.3994,-26.47374 61.26539,-31.27085c3.86599,-4.79711 -42.45674,-4.19048 -40.2338,-5.3222c2.22294,-1.13171 1.98267,-9.53313 3.22493,-13.20916c1.24226,-3.67603 51.70375,-35.87885 47.51177,-43.04301c-4.19199,-7.16416 -68.87505,26.20895 -69.36538,22.47617z"/><path d="M439.91796,250.03218c0.63025,-9.51826 -60.35675,1.21852 -61.40986,6.1114c-1.05311,4.89288 -12.13192,91.47381 -12.54974,93.42054c-0.41781,1.94673 24.3841,-63.25549 9.10845,-47.93528c-15.27565,15.32021 -55.33762,77.91052 -71.81723,89.68295c-16.4796,11.77243 -66.29382,-29.83241 -70.09976,-35.24235c-3.80594,-5.40994 24.64064,37.44331 4.34399,36.31062c-20.29664,-1.13269 -80.96291,-107.34974 -106.9704,-107.40906c-26.00749,-0.05932 -49.24069,24.91486 -63.91408,37.28481c-14.67339,12.36995 67.61427,138.41135 60.31533,158.99085c-7.29894,20.5795 -21.22737,-89.05914 -20.35823,-68.74708c0.86915,20.31206 21.51803,44.10273 40.34039,63.27501c18.82236,19.17228 -13.88354,161.10857 7.95789,166.1074c21.84143,4.99883 81.53068,-86.52037 97.34262,-85.68796c15.81194,0.83241 -10.29765,-26.95772 18.61316,-32.2862c28.91081,-5.32848 21.22589,-0.99738 36.77072,-18.51588c15.54483,-17.51849 104.22351,-10.40874 102.13339,-22.00628c-2.09013,-11.59754 12.49392,-55.27675 6.30959,-58.36809c-6.18433,-3.09133 -128.63686,78.3744 -110.80943,81.33727c17.82743,2.96287 120.05557,-60.32887 148.93017,-54.08903c28.8746,6.23985 69.29018,103.07798 72.96437,101.15572c3.67418,-1.92226 -17.86721,-119.62161 -15.43855,-123.17241c2.42867,-3.5508 55.84863,93.76114 54.45978,86.8866c-1.38885,-6.87454 -32.34361,4.15002 -53.21686,-11.80104c-20.87325,-15.95106 -83.49256,-144.30128 -105.6107,-153.62252c-22.11814,-9.32124 -21.02625,35.97485 -20.68043,28.21086c0.34582,-7.76398 -62.08591,-85.69103 -58.35103,-94.31385c3.73487,-8.62283 96.79306,110.96805 95.50775,97.22334c-1.28531,-13.74471 15.49843,-123.28208 16.12869,-132.80034z"/><path d="M432.63105,408.82454c-12.88746,-7.15788 -47.81416,-43.61609 -42.66714,-42.06812c5.14702,1.54798 19.37045,-58.92933 26.66983,-61.96335c7.29939,-3.03402 -21.48228,73.16014 -2.82684,70.74826c18.65544,-2.41189 80.36202,-72.38916 88.44088,-67.70759c8.07885,4.68157 -32.18902,8.27603 -19.15987,14.96163c13.02914,6.6856 41.69495,113.01747 77.49953,110.5935c35.80458,-2.42397 113.26313,-33.79782 134.01569,-37.78753c20.75256,-3.98971 85.22349,-24.8869 95.40869,-20.5041c10.1852,4.3828 -28.78881,70.00979 -19.28218,73.46828c9.50663,3.4585 -59.9656,-71.40464 -60.17733,-70.62143c-0.21173,0.7832 117.76572,-1.09478 119.106,-1.6861c1.34028,-0.59132 0.8501,2.78378 2.70069,0.36584c1.8506,-2.41794 -96.07267,46.42807 -89.81533,43.69114c6.25733,-2.73693 43.62865,-68.21518 77.74872,-71.84952c34.12007,-3.63433 128.14894,85.90574 167.41133,87.17999c39.26239,1.27426 44.26219,-20.98248 57.09256,-23.44518c12.83037,-2.4627 -34.19064,-57.43593 -47.77453,-80.85939c-13.58389,-23.42346 68.33539,6.13157 44.84056,-9.71189c-23.49482,-15.84347 -85.63905,-59.2046 -96.07587,-56.40727c-10.43682,2.79733 18.91662,-29.57408 12.15872,-34.91992c-6.7579,-5.34585 -120.71884,-41.92116 -129.25043,-47.3351c-8.53159,-5.41394 49.47263,69.14387 44.35688,69.14549c-5.11575,0.00162 4.33276,-78.29857 6.32736,-80.89109c1.9946,-2.59252 -64.02445,103.00503 -46.88709,97.3735c17.13736,-5.63153 56.3302,-118.56649 75.78617,-121.44786c19.45597,-2.88137 78.98778,60.48715 89.02653,64.64416c10.03876,4.15701 -29.79282,49.0837 -11.40382,52.33702c18.389,3.25332 93.73213,-16.96117 104.13735,-11.13147c10.40523,5.8297 20.92128,29.63684 25.91137,56.0647c4.99009,26.42786 49.13355,-28.41433 52.76797,-3.95549c3.63441,24.45884 -109.03414,147.31775 -112.56188,160.05452c-3.52774,12.73677 6.74768,-36.58831 -0.77578,-17.99424c-7.52346,18.59406 -43.31244,16.73544 -49.69085,25.62241c-6.37842,8.88697 83.21894,79.70099 81.25608,83.55903c-1.96286,3.85805 17.35966,-89.08121 24.58953,-78.40037c7.22987,10.68084 -48.08841,107.70172 -52.04503,122.1203c-3.95662,14.41859 -18.05791,-65.05735 -47.46129,-57.41253c-29.40339,7.64482 -30.20633,86.77412 -49.63617,84.77626c-19.42984,-1.99786 -39.04274,-35.91077 -45.92,-39.56416c-6.87726,-3.6534 42.06218,13.13967 34.00108,9.75111c-8.0611,-3.38856 -67.60026,-31.40863 -68.47858,-40.20099c-0.87832,-8.79236 -31.54812,-47.57869 -24.97375,-59.02068c6.57437,-11.44198 -21.45391,69.48139 -13.87308,65.0417c7.58082,-4.4397 40.41801,-13.88729 45.52035,-20.68652c5.10234,-6.79923 56.73096,9.9143 57.74079,3.55091c1.00983,-6.36339 12.86948,-43.02483 10.72782,-45.77206c-2.14166,-2.74722 -89.27688,-0.46348 -107.72007,-2.1112c-18.44319,-1.64772 -36.63229,-73.56294 -53.71789,-73.22483c-17.0856,0.33811 34.82117,-30.28974 34.60674,-25.99445c-0.21442,4.29529 -40.26564,25.00095 -53.32235,39.48168c-13.05671,14.48073 20.69438,61.66726 4.13562,71.44905c-16.55875,9.78179 -84.04499,81.41864 -85.75327,88.81075c-1.70828,7.39211 24.44026,-66.15595 18.83214,-53.50618c-5.60812,12.64977 -2.38876,119.56178 -15.24798,137.5706c-12.85923,18.00882 -66.99859,28.5222 -84.95356,55.83713c-17.95497,27.31494 -67.39527,-40.85483 -76.71616,-29.1234c-9.32088,11.73143 26.8821,69.7572 6.12061,63.51654c-20.7615,-6.24065 -27.19377,-19.03444 -49.82689,-29.80325c-22.63312,-10.76881 13.54021,-20.31689 5.83419,-29.00099c-7.70601,-8.6841 -11.02112,42.83746 -20.56394,40.34268c-9.54282,-2.49478 -107.47337,-53.6668 -109.59607,-56.00356c-2.1227,-2.33676 12.60361,-22.7846 17.63723,-34.94277c5.03361,-12.15817 55.28905,31.72262 67.27729,22.69205c11.98824,-9.03056 -24.41146,-5.26403 -5.39804,-9.98361c19.01342,-4.71958 50.71351,-35.19159 62.67159,-43.28269c11.95807,-8.0911 -17.2972,-0.35477 -11.14291,-5.27077c6.15429,-4.916 63.72361,-90.00281 71.14837,-101.24769c7.42476,-11.24488 -48.1863,-16.14278 -48.03963,-24.24725c0.14667,-8.10446 123.63071,-3.60379 126.61926,0.05895c2.98855,3.66274 -76.31609,-19.60371 -81.41695,-30.1502c-5.10086,-10.54649 53.07846,26.71045 40.49336,16.23368c-12.5851,-10.47677 -82.68394,-41.14193 -89.24267,-41.68836c-6.55873,-0.54643 -13.11095,61.30503 -14.29094,54.96752c-1.17999,-6.33751 85.09586,-123.59665 75.37455,-128.70019c-9.72131,-5.10354 -75.11612,105.7761 -81.0509,103.52775c-5.93478,-2.24835 -37.28489,-41.34755 -51.82446,-50.25062c-14.53958,-8.90307 -2.54445,-10.50429 -15.43191,-17.66217z"/><path d="M761.59678,498.71289c-1.73575,-1.43936 102.5355,-33.37261 83.405,-23.19686c-19.13049,10.17575 -90.3622,87.3051 -99.10447,110.04145c-8.74227,22.73635 14.41961,36.922 25.51918,43.80083c11.09957,6.87883 61.08958,53.39588 54.43356,59.14419c-6.65602,5.74831 -136.48898,0.2094 -149.96449,7.33734c-13.47551,7.12794 49.70182,-71.83981 67.25987,-70.09986c17.55805,1.73995 40.95159,73.09588 68.1949,75.00814c27.2433,1.91226 58.83137,-30.21852 66.30011,-31.60751c7.46874,-1.38899 -9.79561,81.75367 -0.91389,80.39737c8.88172,-1.3563 -17.13303,-58.92147 9.87133,-57.10727c27.00436,1.8142 181.35718,-13.96003 208.45799,-12.86054c27.10082,1.09949 -94.96045,86.03986 -98.3681,76.8277c-3.40764,-9.21216 -22.83194,-34.02064 -25.30218,-42.27149c-2.47024,-8.25085 44.80162,-73.4907 30.09024,-77.27514c-14.71138,-3.78444 40.43863,46.094 9.75439,49.4826c-30.68424,3.3886 -65.67733,-95.49444 -81.229,-101.26441c-15.55167,-5.76997 -26.55274,21.35629 -34.66184,11.04756c-8.10909,-10.30873 -7.88504,51.58478 -11.897,52.58966c-4.01196,1.00489 -64.415,-85.54659 -62.25808,-96.25741c2.15692,-10.71082 71.98916,20.33364 75.37343,11.17203c3.38427,-9.16161 -113.28777,-71.66153 -111.98177,-72.30426c1.306,-0.64273 4.26676,73.79531 3.65849,71.52786c-0.60827,-2.26745 29.10182,-73.8594 25.2289,-73.14685c-3.87292,0.71255 -50.13084,10.45423 -51.86659,9.01487z"/><path d="M544.47362,570.12358c-1.1733,-3.06388 -71.86752,-82.83909 -80.90118,-82.04399c-9.03366,0.7951 -59.36033,53.7982 -71.0524,53.68168c-11.69207,-0.11651 105.58859,-40.72455 100.39053,-41.05359c-5.19807,-0.32904 -73.8957,90.25707 -76.41137,89.68976c-2.51567,-0.56731 33.23814,-29.91324 25.49889,-30.31495c-7.73925,-0.40172 -85.67029,18.20262 -90.1976,10.3768c-4.52731,-7.82582 7.99687,-13.28741 -2.15461,10.41757c-10.15149,23.70498 -31.00556,-33.20198 -42.8723,-9.1961c-11.86674,24.00589 -15.47132,52.43474 -25.85288,45.7062c-10.38156,-6.72854 -39.423,-15.28391 -78.03002,-13.37564c-38.60702,1.90827 -25.38855,11.82563 -60.57893,8.92109c-35.19037,-2.90454 -21.44696,51.23809 -34.07845,43.94797c-12.63149,-7.29012 -122.64965,-117.09997 -127.93332,-121.03495c-5.28368,-3.93498 48.28517,22.42538 46.05137,23.45541c-2.2338,1.03003 1.09243,-22.76559 -0.68868,-17.95075c-1.78111,4.81484 18.80137,138.71083 18.15961,143.42143c-0.64176,4.7106 -43.47944,-65.79048 -44.13129,-60.44773c-0.65185,5.34275 -51.75449,16.17763 -49.50534,25.09603c2.24915,8.9184 -5.36165,12.49667 0.29359,25.48031c5.65524,12.98364 53.12996,51.17684 57.25986,58.32386c4.1299,7.14703 78.93346,-4.73723 96.75864,-7.30898c17.82518,-2.57175 6.15437,49.75727 31.72375,49.89724c25.56938,0.13997 2.00648,17.18114 14.90376,16.19301c12.89728,-0.98814 11.1059,-113.80278 16.94738,-115.99021c5.84148,-2.18743 19.18026,72.89253 28.91704,75.63039c9.73678,2.73786 66.06078,12.22081 77.27217,8.45681c11.21139,-3.764 -46.11951,-44.25937 -38.70184,-47.94124c7.41768,-3.68187 141.78289,-48.55204 144.90081,-49.06055c3.11791,-0.50851 -127.48318,69.83026 -133.3725,64.54616c-5.88933,-5.2841 10.32533,-110.94187 4.76472,-114.29698c-5.56061,-3.35511 58.34712,65.00721 60.47888,64.71174c2.13176,-0.29546 7.46242,15.06396 19.49599,13.60093c12.03356,-1.46303 -16.01475,-82.52188 -7.28077,-82.37428c8.73398,0.1476 21.56735,17.97313 30.59786,14.84577c9.0305,-3.12736 18.75295,8.91059 25.89695,5.27245c7.144,-3.63814 30.89274,4.15424 30.28625,-2.16583c-0.6065,-6.32007 -40.7662,-67.94396 -31.48421,-76.02553c9.28199,-8.08156 67.94298,21.4077 78.42152,15.05403c10.47854,-6.35368 -8.49679,-39.68986 5.30707,-46.1936c13.80386,-6.50373 33.03549,57.63874 41.34152,54.00735c8.30603,-3.63139 3.46467,-90.98453 1.4367,-91.95525c-2.02797,-0.97072 20.50206,109.66077 19.3079,107.17502c-1.19416,-2.48575 19.98824,-16.11502 18.81494,-19.1789z"/><path d="M224.06261,231.44269c-3.43004,-3.00609 101.62537,15.35979 101.93131,16.71241c0.30594,1.35262 -89.38303,16.81097 -107.17673,13.4066c-17.7937,-3.40438 -58.06871,20.32444 -82.19986,18.58933c-24.13114,-1.73511 -4.59621,37.27126 -6.27793,12.61607c-1.68172,-24.65519 39.46848,-184.72604 46.32651,-207.37015c6.85804,-22.64412 -40.20922,19.45496 -34.95965,17.68662c5.24957,-1.76834 81.80276,-1.34674 87.94643,-17.62926c6.14367,-16.28252 -48.30981,35.2474 -45.13407,23.1458c3.17574,-12.1016 70.816,-6.28496 68.96936,-10.59606c-1.84664,-4.31109 -49.88095,-98.2924 -64.67013,-101.94642c-14.78918,-3.65402 -75.44361,77.95666 -99.44023,76.88386c-23.99662,-1.07281 -21.42821,-54.60317 -32.65254,-48.65792c-11.22433,5.94525 -12.18681,40.10775 -15.29288,52.39956c-3.10607,12.2918 -86.46229,-9.12425 -90.81368,-3.23672c-4.35139,5.88753 77.59335,25.81045 76.10499,35.96853c-1.48835,10.15807 -81.81074,87.1916 -84.50593,102.67178c-2.69519,15.48018 39.18944,-109.6036 37.45855,-98.68239c-1.73089,10.92121 -2.97501,158.06202 -5.35627,166.89701c-2.38126,8.83499 9.76548,-12.01476 20.02139,3.72407c10.25592,15.73883 -5.36416,63.25365 5.99343,82.46333c11.35759,19.20968 6.35708,17.11052 5.67082,21.53295c-0.68626,4.42244 3.73275,-68.15613 13.1202,-70.05556c9.38745,-1.89943 102.94127,4.78725 118.07772,6.96252c15.13646,2.17527 42.27893,9.48367 52.34566,6.682c10.06673,-2.80167 23.10916,-70.49486 31.7058,-76.46347c8.59664,-5.9686 17.41601,16.00259 32.96274,15.67866c15.54673,-0.32393 39.7608,0.96366 49.97725,-0.77204c10.21646,-1.7357 8.18657,80.76748 11.77401,79.03419c3.58745,-1.73329 -34.46206,2.03129 -35.02831,-1.29984c-0.56625,-3.33113 -53.44792,-113.33937 -56.87797,-116.34546z"/><path d="M275.26442,81.79218c-8.91673,4.12646 2.60625,8.03388 7.57384,9.08771c4.96759,1.05383 31.9281,-42.48606 33.97448,-35.82783c2.04637,6.65823 -19.2276,-68.14974 -6.38068,-62.83649c12.84692,5.31325 66.49875,10.35984 78.06471,6.44861c11.56596,-3.91123 28.67323,78.38509 53.56247,71.71675c24.88924,-6.66834 17.41129,-75.38923 46.28836,-76.80465c28.87707,-1.41542 88.80178,-26.36308 95.40424,-21.03307c6.60246,5.33 4.62046,72.25081 14.33354,78.34621c9.71307,6.0954 -11.37947,77.42291 -6.83423,77.71132c4.54524,0.28841 47.818,-67.81827 69.92396,-68.0673c22.10597,-0.24903 -1.2356,-3.01145 20.7953,1.69627c22.0309,4.70772 -7.06627,24.84028 -20.29584,42.25844c-13.22956,17.41816 1.71071,95.55466 -10.40194,113.1743c-12.11264,17.61963 66.18556,16.5459 77.8657,19.6492c11.68014,3.1033 -52.98154,0.69908 -34.58945,-2.33375c18.39209,-3.03283 -6.49441,-20.94843 1.25709,-26.92042c7.7515,-5.97198 19.95422,-91.91178 24.55614,-91.99103c4.60192,-0.07924 44.63346,119.2949 52.47428,112.58385c7.84082,-6.71105 80.83704,-83.0614 86.87183,-101.13795c6.03479,-18.07655 35.90086,-16.69639 28.92088,-25.67913c-6.97999,-8.98274 -117.83929,-73.71442 -120.95414,-79.70692c-3.11485,-5.99249 53.13465,-19.1361 54.57403,-23.18339c1.43938,-4.04728 -55.06054,22.08979 -69.70322,15.27142c-14.64268,-6.81837 -52.527,1.29501 -70.39567,-4.38424c-17.86867,-5.67925 16.94748,-67.54868 8.06483,-67.01333c-8.88264,0.53536 -49.53739,-11.34184 -57.13814,-10.80402c-7.60075,0.53783 33.21912,88.52135 28.50478,89.8347c-4.71434,1.31334 -51.40159,-54.0258 -59.94349,-52.817c-8.5419,1.2088 -32.31812,5.38175 -46.43619,7.2332c-14.11807,1.85145 5.29584,86.90426 -2.68997,85.28967c-7.98581,-1.61458 -72.88109,-70.5946 -80.81979,-70.9877c-7.9387,-0.39311 17.63074,81.48298 1.37135,79.66999c-16.2594,-1.81299 -47.43814,-79.36171 -63.46185,-78.71666c-16.02371,0.64505 51.06574,-26.30269 35.41998,-25.06991c-15.64576,1.23278 -67.25684,25.8371 -90.65011,28.26091c-23.39326,2.42381 -70.19035,82.95578 -79.10708,87.08224z"/></g></g></svg>