<svg version="1.1" xmlns="http://www.w3.org/2000/svg" xmlns:xlink="http://www.w3.org/1999/xlink" width="1120" height="736" viewBox="0,0,1120,736"><g fill="none" fill-rule="nonzero" stroke="none" stroke-width="1" stroke-linecap="butt" stroke-linejoin="miter" stroke-miterlimit="10" stroke-dasharray="" stroke-dashoffset="0" font-family="none" font-weight="none" font-size="none" text-anchor="none" style="mix-blend-mode: normal"><g><path d="M61,28c-0.22654,-0.3878 -2.60833,3.42903 -3,5c-0.39167,1.57097 1.20679,0.89609 -5,8c-6.20679,7.10391 -20.21882,21.98663 -18,37c2.21882,15.01337 20.66847,30.15741 28,44c7.33153,13.84259 3.54492,26.38372 10,34c6.45508,7.61628 23.15185,10.30769 37,12c13.84815,1.69231 24.84768,2.38552 34,7c9.15232,4.61448 16.45744,13.15023 27,4c10.54256,-9.15023 24.32256,-35.98643 38,-45c13.67744,-9.01357 27.25233,-0.20449 45,-11c17.74767,-10.79551 39.66812,-41.19561 41,-61c1.33188,-19.80439 -17.92479,-29.01307 -46,-36c-28.07521,-6.98693 -64.96895,-11.7521 -90,-10c-25.03105,1.7521 -38.19942,10.02147 -47,13c-8.80058,2.97853 -13.23336,0.6662 -19,1c-5.76664,0.3338 -12.86715,3.31372 -19,5c-6.13285,1.68628 -11.29803,2.07892 -13,0c-1.70197,-2.07892 0.22654,-6.6122 0,-7z" fill="#ff8f8f"/><path d="M319,87c-11.82422,26.6789 -17.94193,61.97693 -38,96c-20.05807,34.02307 -54.05648,66.77118 -76,81c-21.94352,14.22882 -31.83214,9.93836 -40,6c-8.16786,-3.93836 -14.61496,-7.52463 -17,-5c-2.38504,2.52463 -0.70801,11.16016 0,30c0.70801,18.83984 0.44701,47.88399 -1,66c-1.44701,18.11601 -4.08002,25.3039 -1,31c3.08002,5.6961 11.87305,9.90043 54,10c42.12695,0.09957 117.5878,-3.90561 153,-15c35.4122,-11.09439 30.77576,-29.27798 31,-43c0.22424,-13.72202 5.30917,-22.98245 12,-28c6.69083,-5.01755 14.98757,-5.7922 26,-5c11.01243,0.7922 24.74056,3.15127 44,0c19.25944,-3.15127 44.0502,-11.81287 55,-20c10.9498,-8.18713 8.05866,-15.8998 8,-32c-0.05866,-16.1002 2.71517,-40.58792 2,-61c-0.71517,-20.41208 -4.91936,-36.74853 -8,-44c-3.08064,-7.25147 -5.03775,-5.41796 -17,-14c-11.96225,-8.58204 -33.92965,-27.57963 -48,-38c-14.07035,-10.42037 -20.24364,-12.26351 -23,-13c-2.75636,-0.73649 -2.0958,-0.36632 0,-2c2.0958,-1.63368 5.62685,-5.2712 25,-9c19.37315,-3.7288 54.58841,-7.54886 72,-7c17.41159,0.54886 17.01951,5.46666 27,3c9.98049,-2.46666 30.33353,-12.31776 30,-20c-0.33353,-7.68224 -21.35365,-13.19561 -56,-17c-34.64635,-3.80439 -82.91892,-5.89979 -115,-5c-32.08108,0.89979 -47.97065,4.79476 -54,4c-6.02935,-0.79476 -2.19847,-6.27926 -9,0c-6.80153,6.27926 -24.17578,24.3211 -36,51z" fill="#ffc68f"/><path d="M634,53c-22.32379,-1.51185 -6.57951,4.70837 0,7c6.57951,2.29163 3.99426,0.65469 -4,7c-7.99426,6.34531 -21.39752,20.67289 -30,27c-8.60248,6.32711 -12.40416,4.65375 -23,6c-10.59584,1.34625 -27.98583,5.71209 -37,6c-9.01417,0.28791 -9.65251,-3.50212 -6,6c3.65251,9.50212 11.59587,32.29638 25,56c13.40413,23.70362 32.26901,48.31658 43,66c10.73099,17.68342 13.32808,28.4373 12,38c-1.32808,9.5627 -6.58132,17.93423 -13,34c-6.41868,16.06577 -14.00278,39.82578 -19,49c-4.99722,9.17422 -7.40755,3.76266 -12,4c-4.59245,0.23734 -11.36701,6.12357 -18,8c-6.63299,1.87643 -13.12439,-0.25694 -23,13c-9.87561,13.25694 -23.13543,41.90419 -33,53c-9.86457,11.09581 -16.33391,4.64019 12,9c28.33391,4.35981 91.47105,19.53505 116,28c24.52895,8.46495 10.44971,10.2196 33,-2c22.55029,-12.2196 81.7301,-38.41347 114,-52c32.2699,-13.58653 37.62987,-14.56574 48,-18c10.37013,-3.43426 25.75042,-9.32359 32,-15c6.24958,-5.67641 3.36847,-11.1399 2,-29c-1.36847,-17.8601 -1.22428,-48.1168 -15,-72c-13.77572,-23.8832 -41.47133,-41.39288 -49,-69c-7.52867,-27.60712 5.10961,-65.31166 12,-81c6.89039,-15.68834 8.03289,-9.36047 9,-11c0.96711,-1.63953 1.75884,-11.24646 6,-16c4.24116,-4.75354 11.93176,-4.65368 7,-12c-4.93176,-7.34632 -22.48588,-22.13881 -33,-31c-10.51412,-8.86119 -13.98824,-11.79108 -15,-9c-1.01176,2.79108 0.43884,11.30314 -29,11c-29.43884,-0.30314 -89.67621,-9.48815 -112,-11z" fill="#fdff8f"/><path d="M843,197c-10.09295,-0.80615 -2.87265,3.18737 0,6c2.87265,2.81263 1.39766,4.44439 0,8c-1.39766,3.55561 -2.718,9.03509 3,24c5.718,14.96491 18.47435,39.41524 28,52c9.52565,12.58476 15.8206,13.30393 27,27c11.1794,13.69607 27.24323,40.36904 29,57c1.75677,16.63096 -10.79354,23.21991 12,30c22.79354,6.78009 80.93091,13.75131 109,10c28.06909,-3.75131 26.06988,-18.22515 34,-26c7.93012,-7.77485 25.78957,-8.8507 33,-12c7.21043,-3.1493 3.77186,-8.37204 1,-28c-2.77186,-19.62796 -4.87699,-53.66116 -7,-71c-2.12301,-17.33884 -4.2639,-17.98334 -7,-18c-2.7361,-0.01666 -6.0674,0.59452 -16,-2c-9.9326,-2.59452 -26.4665,-8.39476 -34,-8c-7.5335,0.39476 -6.06658,6.9845 -23,-2c-16.93342,-8.9845 -52.26717,-33.54325 -72,-42c-19.73283,-8.45675 -23.86476,-0.81151 -30,3c-6.13524,3.81151 -14.27381,3.78927 -32,1c-17.72619,-2.78927 -44.90705,-8.19385 -55,-9z" fill="#b1ff8f"/><path d="M102,214c0.14718,0.22928 -3.43013,-0.13401 -5,0c-1.56987,0.13401 -1.13232,0.76534 -8,0c-6.86768,-0.76534 -21.0406,-2.92735 -30,-3c-8.9594,-0.07265 -12.70529,1.94407 -16,23c-3.29471,21.05593 -6.13825,61.15108 -10,83c-3.86175,21.84892 -8.7417,25.45162 -15,39c-6.2583,13.54838 -13.89495,37.04244 -13,56c0.89495,18.95756 10.32151,33.3786 14,42c3.67849,8.6214 1.60892,11.44314 7,12c5.39108,0.55686 18.2428,-1.15117 28,1c9.7572,2.15117 16.41989,8.16154 25,-2c8.58011,-10.16154 19.07765,-36.49498 18,-55c-1.07765,-18.50502 -13.73049,-29.18162 -15,-36c-1.26951,-6.81838 8.84432,-9.77854 17,-19c8.15568,-9.22146 14.35322,-24.70422 17,-40c2.64678,-15.29578 1.74279,-30.40459 0,-45c-1.74279,-14.59541 -4.3244,-28.67742 -6,-38c-1.6756,-9.32258 -2.44521,-13.88572 -4,-16c-1.55479,-2.11428 -3.89477,-1.7797 -6,-2c-2.10523,-0.2203 -3.97571,-0.9955 -3,-1c0.97571,-0.0045 4.85282,0.77072 5,1z" fill="#8fffd2"/><path d="M125,414c-5.87387,-1.98098 -5.15816,4.79263 -7,9c-1.84184,4.20737 -6.24122,5.84849 -16,24c-9.75878,18.15151 -24.87697,52.81339 -32,72c-7.12303,19.18661 -6.2509,22.89794 -6,29c0.2509,6.10206 -0.11945,14.59483 0,18c0.11945,3.40517 0.72868,1.72273 -8,5c-8.72868,3.27727 -26.79526,11.51425 -34,16c-7.20474,4.48575 -3.54763,5.22028 0,10c3.54763,4.77972 6.98577,13.60461 10,21c3.01423,7.39539 5.60456,13.36126 5,18c-0.60456,4.63874 -4.404,7.95036 28,12c32.404,4.04964 101.01146,8.83731 132,12c30.98854,3.16269 24.35817,4.70041 35,-6c10.64183,-10.70041 38.55587,-33.63894 57,-44c18.44413,-10.36106 27.41834,-8.14463 41,-11c13.58166,-2.85537 31.77076,-10.78252 44,-16c12.22924,-5.21748 18.49862,-7.72527 21,-15c2.50138,-7.27473 1.23474,-19.3164 4,-24c2.76526,-4.6836 9.5624,-2.00914 0,-14c-9.5624,-11.99086 -35.48434,-38.64705 -52,-50c-16.51566,-11.35295 -23.62502,-7.40267 -35,-11c-11.37498,-3.59733 -27.01556,-14.74227 -37,-19c-9.98444,-4.25773 -14.31272,-1.62823 -24,-6c-9.68728,-4.37177 -24.73354,-15.7448 -40,-20c-15.26646,-4.2552 -30.75312,-1.39259 -40,2c-9.24688,3.39259 -12.254,7.31514 -20,4c-7.746,-3.31514 -20.12613,-14.01902 -26,-16z" fill="#8ff6ff"/><path d="M323,422c-5.13961,-3.13394 2.62333,-0.95345 5,-1c2.37667,-0.04655 -0.63292,-2.32012 16,-8c16.63292,-5.67988 52.90834,-14.76607 74,-19c21.09166,-4.23393 26.99956,-3.61559 31,-4c4.00044,-0.38441 6.09343,-1.77157 7,-1c0.90657,0.77157 0.62672,3.70186 0,9c-0.62672,5.29814 -1.60031,12.96413 5,25c6.60031,12.03587 20.7745,28.44163 25,39c4.2255,10.55837 -1.4977,15.26936 17,19c18.4977,3.73064 61.21631,6.48095 81,6c19.78369,-0.48095 16.63247,-4.19314 21,0c4.36753,4.19314 16.25383,16.29161 25,36c8.74617,19.70839 14.35222,47.02671 14,61c-0.35222,13.97329 -6.66269,14.60156 -8,18c-1.33731,3.39844 2.29856,9.56704 -6,15c-8.29856,5.43296 -28.53155,10.13026 -40,13c-11.46845,2.86974 -14.17235,3.91191 -31,-1c-16.82765,-4.91191 -47.77906,-15.77789 -64,-31c-16.22094,-15.22211 -17.71142,-34.80036 -14,-48c3.71142,-13.19964 12.62474,-20.02066 15,-23c2.37526,-2.97934 -1.78755,-2.11699 -11,-5c-9.21245,-2.88301 -23.47454,-9.51139 -30,-15c-6.52546,-5.48861 -5.31428,-9.83747 -10,-19c-4.68572,-9.16253 -15.26834,-23.13873 -23,-28c-7.73166,-4.86127 -12.61235,-0.60761 -21,-3c-8.38765,-2.39239 -20.28226,-11.43083 -27,-15c-6.71774,-3.56917 -8.25862,-1.66909 -18,-5c-9.74138,-3.33091 -27.86039,-11.86606 -33,-15z" fill="#8f97ff"/><path d="M664,490c1.37733,-6.59875 6.51127,-5.02831 7,-7c0.48873,-1.97169 -3.66776,-7.48552 25,-14c28.66776,-6.51448 90.15977,-14.02963 124,-19c33.84023,-4.97037 40.02868,-7.39597 42,-16c1.97132,-8.60403 -0.2745,-23.38649 12,-27c12.2745,-3.61351 39.06932,3.94192 52,7c12.93068,3.05808 11.99721,1.61882 19,7c7.00279,5.38118 21.94184,17.58281 36,23c14.05816,5.41719 27.23542,4.04995 40,1c12.76458,-3.04995 25.11646,-7.78261 30,-7c4.88354,0.78261 2.29873,7.0805 4,14c1.70127,6.9195 7.68862,14.46061 8,22c0.31138,7.53939 -5.05323,15.07705 -12,34c-6.94677,18.92295 -15.47571,49.23117 -39,58c-23.52429,8.76883 -62.04392,-4.00175 -86,-9c-23.95608,-4.99825 -33.34862,-2.22418 -47,-7c-13.65138,-4.77582 -31.56159,-17.10154 -40,-22c-8.43841,-4.89846 -7.40502,-2.36966 -15,0c-7.59498,2.36966 -23.81833,4.58017 -35,10c-11.18167,5.41983 -17.32165,14.04897 -25,19c-7.67835,4.95103 -16.89505,6.22395 -29,0c-12.10495,-6.22395 -27.09813,-19.94478 -33,-28c-5.90187,-8.05522 -2.71242,-10.44485 -7,-10c-4.28758,0.44485 -16.0522,3.72417 -23,-2c-6.9478,-5.72417 -9.37733,-20.40125 -8,-27z" fill="#d08fff"/><path d="M684,573c2.01581,-3.09587 4.21366,-0.54335 13,0c8.78634,0.54335 24.16119,-0.92246 41,0c16.83881,0.92246 35.1416,4.2332 49,5c13.8584,0.7668 23.27241,-1.01032 31,0c7.72759,1.01032 13.76876,4.8081 20,8c6.23124,3.1919 12.65256,5.77794 33,6c20.34744,0.22206 54.62102,-1.91984 79,2c24.37898,3.91984 38.86337,13.90142 49,19c10.13663,5.09858 15.92549,5.31415 18,7c2.07451,1.68585 0.43466,4.84197 0,11c-0.43466,6.15803 0.33588,15.31795 2,20c1.66412,4.68205 4.22182,4.88622 -10,15c-14.22182,10.11378 -45.22315,30.13718 -63,38c-17.77685,7.86282 -22.32923,3.56508 -35,1c-12.67077,-2.56508 -33.45995,-3.39749 -45,-4c-11.54005,-0.60251 -13.83097,-0.97513 -17,0c-3.16903,0.97513 -7.21617,3.29799 -15,6c-7.78383,2.70201 -19.30435,5.78316 -32,6c-12.69565,0.21684 -26.56644,-2.43064 -44,-3c-17.43356,-0.56936 -38.42989,0.93939 -47,1c-8.57011,0.06061 -4.71401,-1.32693 -8,-4c-3.28599,-2.67307 -13.71408,-6.63168 -30,-8c-16.28592,-1.36832 -38.42967,-0.14635 -50,0c-11.57033,0.14635 -12.56725,-0.78293 -19,0c-6.43275,0.78293 -18.30133,3.27806 -23,5c-4.69867,1.72194 -2.22743,2.6707 -2,1c0.22743,-1.6707 -1.78893,-5.96086 0,-17c1.78893,-11.03914 7.38317,-28.82727 19,-34c11.61683,-5.17273 29.25626,2.26992 41,-3c11.74374,-5.26992 17.59179,-23.25241 23,-31c5.40821,-7.74759 10.37659,-5.26027 13,-8c2.62341,-2.73973 2.90185,-10.7065 4,-19c1.09815,-8.2935 2.98419,-16.90413 5,-20z" fill="#ff8fdc"/></g></g></svg>