<?xml version="1.0" encoding="UTF-8" standalone="no"?><!DOCTYPE svg PUBLIC "-//W3C//DTD SVG 1.1//EN" "http://www.w3.org/Graphics/SVG/1.1/DTD/svg11.dtd"><svg width="100%" height="100%" viewBox="0 0 331 430" version="1.1" xmlns="http://www.w3.org/2000/svg" xmlns:xlink="http://www.w3.org/1999/xlink" xml:space="preserve" xmlns:serif="http://www.serif.com/" style="fill-rule:evenodd;clip-rule:evenodd;stroke-linejoin:round;stroke-miterlimit:2;"><rect id="Artboard1" x="0" y="0" width="330.862" height="429.204"/><path id="bubble" d="M157.497,269.479c-15.243,2.121 -28.484,-0.751 -49.624,-11.9c-49.1,-25.9 -61.28,-37.96 -80.62,-90.9c-18.67,-51.1 -21.91,-77.1 4.59,-117.19c21.79,-32.96 45,-21 92,-28.91c38.85,-6.54 42.31,-10.29 79.7,0c49.94,13.74 74.06,8.12 94.97,48.07c25.1,47.96 23.2,77.79 -2.96,127.76c-23.29,44.49 -43.99,44.24 -95.95,61.17c-6.504,2.12 -12.305,4.053 -17.605,5.732l-4.329,47.983l-20.172,-41.815Z" style="fill:none;stroke:#fff;stroke-width:1px;"/><path id="bubble1" serif:id="bubble" d="M157.497,269.479c-15.243,2.121 -28.484,-0.751 -49.624,-11.9c-49.1,-25.9 -61.28,-37.96 -80.62,-90.9c-18.67,-51.1 -21.91,-77.1 4.59,-117.19c21.79,-32.96 45,-21 92,-28.91c38.85,-6.54 42.31,-10.29 79.7,0c49.94,13.74 74.06,8.12 94.97,48.07c25.1,47.96 23.2,77.79 -2.96,127.76c-23.29,44.49 -43.99,44.24 -95.95,61.17c-6.504,2.12 -12.305,4.053 -17.605,5.732l-4.329,47.983l-20.172,-41.815Z" style="fill:#fff;stroke:#000;stroke-width:1px;stroke-dasharray:5,5,0,0,0,0;"/><g id="face"><path d="M193.965,371.307c-2.287,1.88 -4.167,3.788 -6.384,5.163c-6.145,3.83 -12.024,1.613 -14.283,-5.275c-1.543,-4.729 -1.361,-9.541 -0.449,-14.396c1.431,-7.66 4.293,-14.647 9.204,-20.736c2.147,-2.652 4.644,-4.897 7.941,-6.118c4.995,-1.852 7.927,-0.968 11,3.438c0.407,0.575 0.786,1.178 1.319,1.978c4.728,-4.756 10.073,-8.053 16.443,-9.204c3.017,-0.547 6.145,-0.813 9.204,-0.631c5.318,0.323 7.913,3.62 7.184,8.937c-0.323,2.301 -0.983,4.63 -1.951,6.735c-4.728,10.326 -10.564,20.021 -17.383,29.099c-1.586,2.104 -3.55,3.914 -5.374,5.836c-1.824,1.922 -4.139,2.778 -6.748,2.75c-6.777,-0.098 -8.11,-1.655 -8.98,-6.271c-0.07,-0.407 -0.407,-0.758 -0.729,-1.305l-0.014,-0Zm2.343,-3.985c0.589,1.628 1.178,3.087 1.669,4.574c0.982,3.002 1.502,3.423 4.644,3.662c2.189,0.168 4.097,-0.435 5.584,-2.034c2.007,-2.147 4.097,-4.224 5.823,-6.595c5.963,-8.207 11.168,-16.878 15.532,-26.04c0.813,-1.712 1.473,-3.522 1.936,-5.359c1.15,-4.574 -0.463,-6.917 -5.135,-6.931c-8.054,-0.014 -15.265,2.595 -21.467,7.8c-1.333,1.109 -1.992,2.386 -1.838,4.195c0.786,9.723 -2.062,18.548 -6.748,26.7l-0,0.028Zm-20.218,0.365c0.309,1.277 0.407,2.301 0.8,3.213c1.726,3.998 4.784,5.107 8.502,2.806c1.964,-1.221 3.788,-2.834 5.247,-4.616c5.065,-6.159 8.04,-13.343 8.783,-21.256c0.337,-3.578 0.127,-7.394 -0.785,-10.845c-1.291,-4.939 -5.458,-6.047 -9.625,-3.031c-3.522,2.554 -5.991,6.019 -8.011,9.821c-0.954,1.796 -2.091,3.578 -2.329,6.146c1.403,-0.8 2.273,-1.333 3.171,-1.81c2.048,-1.095 4.082,-1.614 6.131,0.07c2.02,1.655 2.259,3.914 1.487,6.005c-1.151,3.129 -2.511,6.285 -4.363,9.035c-1.979,2.933 -4.785,5.107 -9.022,4.49l0.014,-0.028Z" style="fill:#fff;fill-rule:nonzero;"/><path d="M164.81,413.819c-1.459,-3.059 -0.533,-4.883 0.954,-6.539c2.343,-2.609 5.401,-4.11 8.741,-4.812c6.243,-1.319 12.557,-1.74 18.73,0.253c3.592,1.164 6.777,0.883 10.172,-0.8c4.392,-2.175 9.092,-3.339 14.101,-2.315c1.936,0.393 3.633,1.024 4.209,3.802c-1.165,0 -2.147,0.239 -2.961,-0.042c-4.658,-1.571 -9.176,-0.702 -13.244,1.445c-4.827,2.54 -9.373,2.329 -14.452,0.954c-6.005,-1.627 -12.22,-1.375 -18.267,0.393c-3.676,1.066 -6.187,3.55 -7.983,7.675l-0,-0.014Z" style="fill:#fff;fill-rule:nonzero;"/><path d="M247.154,309.223c-4.196,-1.656 -8.363,-3.718 -12.95,-2.891c-4.462,0.8 -8.868,1.867 -11.786,6.342c-1.417,-2.006 -0.505,-3.269 0.561,-4.433c4.518,-4.897 16.402,-6.721 22.224,-3.283c1.109,0.659 1.866,1.922 2.778,2.904c-0.28,0.449 -0.561,0.912 -0.842,1.361l0.015,-0Z" style="fill:#fff;fill-rule:nonzero;"/><path d="M196.308,367.322c4.686,-8.165 7.534,-16.991 6.748,-26.699c-0.154,-1.81 0.505,-3.087 1.838,-4.196c6.216,-5.205 13.413,-7.814 21.467,-7.8c4.672,-0 6.271,2.343 5.135,6.931c-0.463,1.838 -1.123,3.647 -1.936,5.359c-4.364,9.162 -9.569,17.833 -15.532,26.04c-1.712,2.357 -3.816,4.448 -5.823,6.595c-1.487,1.599 -3.395,2.202 -5.584,2.034c-3.142,-0.253 -3.662,-0.659 -4.644,-3.662c-0.491,-1.487 -1.066,-2.96 -1.669,-4.574l-0,-0.028Zm21.2,-24.174c-2.891,-0.154 -4.42,1.866 -5.795,3.634c-2.778,3.592 -5.275,7.408 -7.815,11.182c-0.547,0.828 -0.842,1.866 -1.094,2.848c-0.912,3.578 -0.084,6.159 2.245,7.338c2.174,1.108 4.153,0.238 6.664,-2.806c3.157,-3.83 4.714,-8.404 6.328,-12.992c1.066,-3.059 1.375,-5.963 -0.533,-9.218l-0,0.014Z" style="fill-rule:nonzero;"/><path d="M176.09,367.687c4.223,0.617 7.043,-1.557 9.022,-4.49c1.852,-2.75 3.213,-5.907 4.363,-9.035c0.772,-2.091 0.533,-4.364 -1.487,-6.005c-2.049,-1.684 -4.083,-1.165 -6.131,-0.07c-0.898,0.477 -1.768,1.01 -3.171,1.81c0.252,-2.568 1.375,-4.336 2.329,-6.146c2.006,-3.802 4.489,-7.267 8.011,-9.821c4.167,-3.016 8.334,-1.908 9.625,3.031c0.898,3.465 1.122,7.267 0.785,10.845c-0.743,7.899 -3.718,15.083 -8.782,21.256c-1.474,1.782 -3.298,3.409 -5.248,4.616c-3.704,2.301 -6.762,1.192 -8.502,-2.806c-0.393,-0.898 -0.491,-1.936 -0.8,-3.213l-0.014,0.028Z" style="fill-rule:nonzero;"/><path d="M217.508,343.148c1.894,3.255 1.599,6.159 0.533,9.218c-1.614,4.588 -3.171,9.162 -6.328,12.992c-2.511,3.044 -4.476,3.914 -6.664,2.806c-2.329,-1.179 -3.143,-3.746 -2.245,-7.338c0.252,-0.982 0.547,-2.02 1.094,-2.848c2.526,-3.774 5.037,-7.59 7.815,-11.182c1.375,-1.768 2.89,-3.788 5.795,-3.634l-0,-0.014Z" style="fill:#fff;fill-rule:nonzero;"/></g><g transform="matrix(1,0,0,1,-3.05207,-145.072)"><text x="85.128px" y="217.296px" style="font-family:'Consolas';font-size:20.942px;">Sorry, the code</text><text x="85.128px" y="241.817px" style="font-family:'Consolas';font-size:20.942px;">snippets aren&apos;t</text><text x="56.343px" y="266.338px" style="font-family:'Consolas';font-size:20.942px;">optimized for mobile</text><text x="125.427px" y="290.859px" style="font-family:'Consolas';font-size:20.942px;">devices…</text><text x="62.1px" y="339.901px" style="font-family:'Consolas';font-size:20.942px;">please use a larger</text><g transform="matrix(20.942,0,0,20.942,206.025,364.422)"></g><text x="136.941px" y="364.422px" style="font-family:'Consolas';font-size:20.942px;">screen</text></g></svg>