<svg version="1.1" xmlns="http://www.w3.org/2000/svg" xmlns:xlink="http://www.w3.org/1999/xlink" width="2021.33337" height="1318" viewBox="0,0,2021.33337,1318"><g fill="none" fill-rule="nonzero" stroke="none" stroke-width="none" stroke-linecap="butt" stroke-linejoin="miter" stroke-miterlimit="10" stroke-dasharray="" stroke-dashoffset="0" font-family="none" font-weight="none" font-size="none" text-anchor="none" style="mix-blend-mode: normal"><path d="M0,1318v-1318h2021.33337v1318z" fill="#daff54" stroke="none" stroke-width="1"/><g stroke="none" stroke-width="10"><g><path d="M65.66669,49c0,-13.80712 11.19288,-25 25,-25c13.80712,0 25,11.19288 25,25c0,13.80712 -11.19288,25 -25,25c-13.80712,0 -25,-11.19288 -25,-25z" fill="#000000"/><path d="M265.66669,49c0,-13.80712 11.19288,-25 25,-25c13.80712,0 25,11.19288 25,25c0,13.80712 -11.19288,25 -25,25c-13.80712,0 -25,-11.19288 -25,-25z" fill="#000000"/><path d="M65.66669,99c0,-13.80712 11.19288,-25 25,-25c13.80712,0 25,11.19288 25,25c0,13.80712 -11.19288,25 -25,25c-13.80712,0 -25,-11.19288 -25,-25z" fill="#000000"/><path d="M265.66669,99c0,-13.80712 11.19288,-25 25,-25c13.80712,0 25,11.19288 25,25c0,13.80712 -11.19288,25 -25,25c-13.80712,0 -25,-11.19288 -25,-25z" fill="#4b51fa"/><path d="M65.66669,149c0,-13.80712 11.19288,-25 25,-25c13.80712,0 25,11.19288 25,25c0,13.80712 -11.19288,25 -25,25c-13.80712,0 -25,-11.19288 -25,-25z" fill="#000000"/><path d="M115.66669,149c0,-13.80712 11.19288,-25 25,-25c13.80712,0 25,11.19288 25,25c0,13.80712 -11.19288,25 -25,25c-13.80712,0 -25,-11.19288 -25,-25z" fill="#000000"/><path d="M165.66669,149c0,-13.80712 11.19288,-25 25,-25c13.80712,0 25,11.19288 25,25c0,13.80712 -11.19288,25 -25,25c-13.80712,0 -25,-11.19288 -25,-25z" fill="#4b51fa"/><path d="M215.66669,149c0,-13.80712 11.19288,-25 25,-25c13.80712,0 25,11.19288 25,25c0,13.80712 -11.19288,25 -25,25c-13.80712,0 -25,-11.19288 -25,-25z" fill="#000000"/><path d="M265.66669,149c0,-13.80712 11.19288,-25 25,-25c13.80712,0 25,11.19288 25,25c0,13.80712 -11.19288,25 -25,25c-13.80712,0 -25,-11.19288 -25,-25z" fill="#000000"/><path d="M65.66669,199c0,-13.80712 11.19288,-25 25,-25c13.80712,0 25,11.19288 25,25c0,13.80712 -11.19288,25 -25,25c-13.80712,0 -25,-11.19288 -25,-25z" fill="#4b51fa"/><path d="M265.66669,199c0,-13.80712 11.19288,-25 25,-25c13.80712,0 25,11.19288 25,25c0,13.80712 -11.19288,25 -25,25c-13.80712,0 -25,-11.19288 -25,-25z" fill="#000000"/><path d="M65.66669,249c0,-13.80712 11.19288,-25 25,-25c13.80712,0 25,11.19288 25,25c0,13.80712 -11.19288,25 -25,25c-13.80712,0 -25,-11.19288 -25,-25z" fill="#000000"/><path d="M265.66669,249c0,-13.80712 11.19288,-25 25,-25c13.80712,0 25,11.19288 25,25c0,13.80712 -11.19288,25 -25,25c-13.80712,0 -25,-11.19288 -25,-25z" fill="#4b51fa"/></g><g><path d="M335.66669,49c0,-13.80712 11.19288,-25 25,-25c13.80712,0 25,11.19288 25,25c0,13.80712 -11.19288,25 -25,25c-13.80712,0 -25,-11.19288 -25,-25z" fill="#000000"/><path d="M385.66669,49c0,-13.80712 11.19288,-25 25,-25c13.80712,0 25,11.19288 25,25c0,13.80712 -11.19288,25 -25,25c-13.80712,0 -25,-11.19288 -25,-25z" fill="#000000"/><path d="M435.66669,49c0,-13.80712 11.19288,-25 25,-25c13.80712,0 25,11.19288 25,25c0,13.80712 -11.19288,25 -25,25c-13.80712,0 -25,-11.19288 -25,-25z" fill="#000000"/><path d="M485.66669,49c0,-13.80712 11.19288,-25 25,-25c13.80712,0 25,11.19288 25,25c0,13.80712 -11.19288,25 -25,25c-13.80712,0 -25,-11.19288 -25,-25z" fill="#000000"/><path d="M535.66669,49c0,-13.80712 11.19288,-25 25,-25c13.80712,0 25,11.19288 25,25c0,13.80712 -11.19288,25 -25,25c-13.80712,0 -25,-11.19288 -25,-25z" fill="#000000"/><path d="M335.66669,99c0,-13.80712 11.19288,-25 25,-25c13.80712,0 25,11.19288 25,25c0,13.80712 -11.19288,25 -25,25c-13.80712,0 -25,-11.19288 -25,-25z" fill="#4b51fa"/><path d="M335.66669,149c0,-13.80712 11.19288,-25 25,-25c13.80712,0 25,11.19288 25,25c0,13.80712 -11.19288,25 -25,25c-13.80712,0 -25,-11.19288 -25,-25z" fill="#4b51fa"/><path d="M385.66669,149c0,-13.80712 11.19288,-25 25,-25c13.80712,0 25,11.19288 25,25c0,13.80712 -11.19288,25 -25,25c-13.80712,0 -25,-11.19288 -25,-25z" fill="#000000"/><path d="M435.66669,149c0,-13.80712 11.19288,-25 25,-25c13.80712,0 25,11.19288 25,25c0,13.80712 -11.19288,25 -25,25c-13.80712,0 -25,-11.19288 -25,-25z" fill="#000000"/><path d="M485.66669,149c0,-13.80712 11.19288,-25 25,-25c13.80712,0 25,11.19288 25,25c0,13.80712 -11.19288,25 -25,25c-13.80712,0 -25,-11.19288 -25,-25z" fill="#000000"/><path d="M535.66669,149c0,-13.80712 11.19288,-25 25,-25c13.80712,0 25,11.19288 25,25c0,13.80712 -11.19288,25 -25,25c-13.80712,0 -25,-11.19288 -25,-25z" fill="#000000"/><path d="M335.66669,199c0,-13.80712 11.19288,-25 25,-25c13.80712,0 25,11.19288 25,25c0,13.80712 -11.19288,25 -25,25c-13.80712,0 -25,-11.19288 -25,-25z" fill="#4b51fa"/><path d="M335.66669,249c0,-13.80712 11.19288,-25 25,-25c13.80712,0 25,11.19288 25,25c0,13.80712 -11.57645,124.28964 -25.38357,124.28964c-13.80712,0 -24.61643,-110.48252 -24.61643,-124.28964z" fill="#4b51fa"/><path d="M385.66669,249c0,-13.80712 11.19288,-25 25,-25c13.80712,0 25,11.19288 25,25c0,13.80712 -11.19288,25 -25,25c-13.80712,0 -25,-11.19288 -25,-25z" fill="#000000"/><path d="M435.66669,249c0,-13.80712 11.19288,-25 25,-25c13.80712,0 25,11.19288 25,25c0,13.80712 -11.19288,25 -25,25c-13.80712,0 -25,-11.19288 -25,-25z" fill="#000000"/><path d="M485.66669,249c0,-13.80712 11.19288,-25 25,-25c13.80712,0 25,11.19288 25,25c0,13.80712 -11.19288,25 -25,25c-13.80712,0 -25,-11.19288 -25,-25z" fill="#000000"/><path d="M535.66669,249c0,-13.80712 11.19288,-25 25,-25c13.80712,0 25,11.19288 25,25c0,13.80712 -11.19288,25 -25,25c-13.80712,0 -25,-11.19288 -25,-25z" fill="#000000"/></g><g><path d="M605.66669,49c0,-13.80712 11.19288,-25 25,-25c13.80712,0 25,11.19288 25,25c0,13.80712 -11.19288,25 -25,25c-13.80712,0 -25,-11.19288 -25,-25z" fill="#000000"/><path d="M605.66669,99c0,-13.80712 11.19288,-25 25,-25c13.80712,0 25,11.19288 25,25c0,13.80712 -11.19288,25 -25,25c-13.80712,0 -25,-11.19288 -25,-25z" fill="#4b51fa"/><path d="M605.66669,149c0,-13.80712 11.19288,-25 25,-25c13.80712,0 25,11.19288 25,25c0,13.80712 -11.19288,25 -25,25c-13.80712,0 -25,-11.19288 -25,-25z" fill="#4b51fa"/><path d="M605.66669,199c0,-13.80712 11.19288,-25 25,-25c13.80712,0 25,11.19288 25,25c0,13.80712 -11.19288,25 -25,25c-13.80712,0 -25,-11.19288 -25,-25z" fill="#4b51fa"/><path d="M605.66669,249c0,-13.80712 11.19288,-25 25,-25c13.80712,0 25,11.19288 25,25c0,13.80712 -11.19288,25 -25,25c-13.80712,0 -25,-11.19288 -25,-25z" fill="#4b51fa"/><path d="M655.66669,249c0,-13.80712 11.19288,-25 25,-25c13.80712,0 25,11.19288 25,25c0,13.80712 -11.19288,25 -25,25c-13.80712,0 -25,-11.19288 -25,-25z" fill="#000000"/><path d="M705.66669,249c0,-13.80712 11.19288,-25 25,-25c13.80712,0 25,11.19288 25,25c0,13.80712 -11.19288,25 -25,25c-13.80712,0 -25,-11.19288 -25,-25z" fill="#000000"/><path d="M755.66669,249c0,-13.80712 11.19288,-25 25,-25c13.80712,0 25,11.19288 25,25c0,13.80712 -11.19288,25 -25,25c-13.80712,0 -25,-11.19288 -25,-25z" fill="#000000"/><path d="M805.66669,249c0,-13.80712 11.19288,-25 25,-25c13.80712,0 25,11.19288 25,25c0,13.80712 -11.19288,25 -25,25c-13.80712,0 -25,-11.19288 -25,-25z" fill="#000000"/></g><g><path d="M875.66669,49c0,-13.80712 11.19288,-25 25,-25c13.80712,0 25,11.19288 25,25c0,13.80712 -11.19288,25 -25,25c-13.80712,0 -25,-11.19288 -25,-25z" fill="#000000"/><path d="M875.66669,99c0,-13.80712 11.19288,-25 25,-25c13.80712,0 25,11.19288 25,25c0,13.80712 -11.19288,25 -25,25c-13.80712,0 -25,-11.19288 -25,-25z" fill="#000000"/><path d="M875.66669,149c0,-13.80712 11.19288,-25 25,-25c13.80712,0 25,11.19288 25,25c0,13.80712 -11.19288,25 -25,25c-13.80712,0 -25,-11.19288 -25,-25z" fill="#000000"/><path d="M875.66669,199c0,-13.80712 11.19288,-25 25,-25c13.80712,0 25,11.19288 25,25c0,13.80712 -11.19288,25 -25,25c-13.80712,0 -25,-11.19288 -25,-25z" fill="#000000"/><path d="M875.66669,249c0,-13.80712 11.19288,-25 25,-25c13.80712,0 25,11.19288 25,25c0,13.80712 -11.19288,25 -25,25c-13.80712,0 -25,-11.19288 -25,-25z" fill="#000000"/><path d="M925.66669,249c0,-13.80712 11.19288,-25 25,-25c13.80712,0 25,11.19288 25,25c0,13.80712 -11.19288,25 -25,25c-13.80712,0 -25,-11.19288 -25,-25z" fill="#000000"/><path d="M975.66669,249c0,-13.80712 11.19288,-25 25,-25c13.80712,0 25,11.19288 25,25c0,13.80712 -11.19288,25 -25,25c-13.80712,0 -25,-11.19288 -25,-25z" fill="#000000"/><path d="M1025.66669,249c0,-13.80712 11.19288,-25 25,-25c13.80712,0 25,11.19288 25,25c0,13.80712 -11.19288,25 -25,25c-13.80712,0 -25,-11.19288 -25,-25z" fill="#000000"/><path d="M1075.66669,249c0,-13.80712 11.19288,-25 25,-25c13.80712,0 25,11.19288 25,25c0,13.80712 264.88655,30.24465 251.07943,30.24465c-13.80712,0 -301.07943,-16.43753 -301.07943,-30.24465z" fill="#4b51fa"/></g><g><path d="M1195.66669,49c0,-13.80712 11.19288,-25 25,-25c13.80712,0 25,11.19288 25,25c0,13.80712 -11.19288,25 -25,25c-13.80712,0 -25,-11.19288 -25,-25z" fill="#000000"/><path d="M1245.66669,49c0,-13.80712 11.19288,-25 25,-25c13.80712,0 25,11.19288 25,25c0,13.80712 -11.19288,25 -25,25c-13.80712,0 -25,-11.19288 -25,-25z" fill="#4b51fa"/><path d="M1295.66669,49c0,-13.80712 11.19288,-25 25,-25c13.80712,0 25,11.19288 25,25c0,13.80712 -11.19288,25 -25,25c-13.80712,0 -25,-11.19288 -25,-25z" fill="#000000"/><path d="M1145.66669,99c0,-13.80712 11.19288,-25 25,-25c13.80712,0 25,11.19288 25,25c0,13.80712 -11.19288,25 -25,25c-13.80712,0 -25,-11.19288 -25,-25z" fill="#000000"/><path d="M1345.66669,99c0,-13.80712 11.19288,-25 25,-25c13.80712,0 25,11.19288 25,25c0,13.80712 -11.19288,25 -25,25c-13.80712,0 -25,-11.19288 -25,-25z" fill="#000000"/><path d="M1145.66669,149c0,-13.80712 11.19288,-25 25,-25c13.80712,0 25,11.19288 25,25c0,13.80712 -11.19288,25 -25,25c-13.80712,0 -25,-11.19288 -25,-25z" fill="#4b51fa"/><path d="M1345.66669,149c0,-13.80712 11.19288,-25 25,-25c13.80712,0 25,11.19288 25,25c0,13.80712 -11.19288,25 -25,25c-13.80712,0 -25,-11.19288 -25,-25z" fill="#4b51fa"/><path d="M1145.66669,199c0,-13.80712 11.19288,-25 25,-25c13.80712,0 25,11.19288 25,25c0,13.80712 -11.19288,25 -25,25c-13.80712,0 -25,-11.19288 -25,-25z" fill="#000000"/><path d="M1345.66669,199c0,-13.80712 11.19288,-25 25,-25c13.80712,0 25,11.19288 25,25c0,13.80712 181.66338,30.67926 167.85626,30.67926c-13.80712,0 -217.85626,-16.87214 -217.85626,-30.67926z" fill="#000000"/><path d="M1467.70377,242.85523c0,-13.80712 -13.80712,0 0,0c13.80712,0 0,-13.80712 0,0c0,13.80712 13.80712,0 0,0c-13.80712,0 0,13.80712 0,0z" fill="#000000"/><path d="M1467.70377,242.85523c0,-13.80712 82.01206,-13.17597 95.81918,-13.17597c13.80712,0 0,-13.80712 0,0c0,13.80712 13.80712,0 0,0c-13.80712,0 -95.81918,26.98309 -95.81918,13.17597z" fill="#4b51fa"/><path d="M1563.52295,229.67926c0,-13.80712 -13.80712,0 0,0c13.80712,0 0,-13.80712 0,0c0,13.80712 13.80712,0 0,0c-13.80712,0 0,13.80712 0,0z" fill="#000000"/></g></g><g stroke="none" stroke-width="10"><g><path d="M703.47346,1015.84091c0,-13.80712 -13.80712,0 0,0c13.80712,0 0,-13.80712 0,0c0,13.80712 13.80712,0 0,0c-13.80712,0 0,13.80712 0,0z" fill="#000000"/><path d="M935.66669,1049c0,-13.80712 301.3796,-138.28563 315.18672,-138.28563c13.80712,0 0,-13.80712 0,0c0,13.80712 -276.3796,163.28563 -290.18672,163.28563c-13.80712,0 -25,-11.19288 -25,-25z" fill="#4b51fa"/><path d="M703.47346,1015.84091c0,-13.80712 -13.80712,0 0,0c13.80712,0 82.19322,69.35197 82.19322,83.15909c0,13.80712 -11.19288,25 -25,25c-13.80712,0 -57.19322,-94.35197 -57.19322,-108.15909z" fill="#000000"/><path d="M935.66669,1099c0,-13.80712 11.19288,-25 25,-25c13.80712,0 25,11.19288 25,25c0,13.80712 -11.19288,25 -25,25c-13.80712,0 -25,-11.19288 -25,-25z" fill="#000000"/><path d="M735.66669,1149c0,-13.80712 11.19288,-25 25,-25c13.80712,0 25,11.19288 25,25c0,13.80712 -11.19288,25 -25,25c-13.80712,0 -25,-11.19288 -25,-25z" fill="#4b51fa"/><path d="M835.66669,1149c0,-13.80712 11.19288,-25 25,-25c13.80712,0 25,11.19288 25,25c0,13.80712 -11.19288,25 -25,25c-13.80712,0 -25,-11.19288 -25,-25z" fill="#4b51fa"/><path d="M935.66669,1149c0,-13.80712 11.19288,-25 25,-25c13.80712,0 25,11.19288 25,25c0,13.80712 -11.19288,25 -25,25c-13.80712,0 -25,-11.19288 -25,-25z" fill="#4b51fa"/><path d="M735.66669,1199c0,-13.80712 11.19288,-25 25,-25c13.80712,0 25,11.19288 25,25c0,13.80712 -11.19288,25 -25,25c-13.80712,0 -25,-11.19288 -25,-25z" fill="#000000"/><path d="M785.66669,1199c0,-13.80712 11.19288,-25 25,-25c13.80712,0 25,11.19288 25,25c0,13.80712 -11.19288,25 -25,25c-13.80712,0 -25,-11.19288 -25,-25z" fill="#4b51fa"/><path d="M885.66669,1199c0,-13.80712 11.19288,-25 25,-25c13.80712,0 25,11.19288 25,25c0,13.80712 -11.19288,25 -25,25c-13.80712,0 -25,-11.19288 -25,-25z" fill="#4b51fa"/><path d="M935.66669,1199c0,-13.80712 11.19288,-25 25,-25c13.80712,0 25,11.19288 25,25c0,13.80712 -11.19288,25 -25,25c-13.80712,0 -25,-11.19288 -25,-25z" fill="#000000"/><path d="M735.66669,1249c0,-13.80712 11.19288,-25 25,-25c13.80712,0 25,11.19288 25,25c0,13.80712 -11.19288,25 -25,25c-13.80712,0 -25,-11.19288 -25,-25z" fill="#4b51fa"/><path d="M935.66669,1249c0,-13.80712 11.19288,-25 25,-25c13.80712,0 25,11.19288 25,25c0,13.80712 -11.19288,25 -25,25c-13.80712,0 -25,-11.19288 -25,-25z" fill="#4b51fa"/></g><g><path d="M1334.18997,983.40678c0,-13.80712 -13.80712,0 0,0c13.80712,0 0,-13.80712 0,0c0,13.80712 13.80712,0 0,0c-13.80712,0 0,13.80712 0,0z" fill="#000000"/><path d="M1334.18997,983.40678c0,-13.80712 -13.80712,0 0,0c13.80712,0 99.89671,35.11983 99.89671,48.92695c0,13.80712 -86.08959,-48.92695 -99.89671,-48.92695c-13.80712,0 0,13.80712 0,0z" fill="#4b51fa"/><path d="M1434.08668,1032.33374c0,-13.80712 -13.80712,0 0,0c13.80712,0 0,-13.80712 0,0c0,13.80712 13.80712,0 0,0c-13.80712,0 0,13.80712 0,0z" fill="#000000"/><path d="M1005.66669,1099c0,-13.80712 314.71616,-115.59322 328.52328,-115.59322c13.80712,0 0,-13.80712 0,0c0,13.80712 -289.71616,140.59322 -303.52328,140.59322c-13.80712,0 -25,-11.19288 -25,-25z" fill="#000000"/><path d="M1434.08668,1032.33374c0,-13.80712 -13.80712,0 0,0c13.80712,0 -178.41999,52.85914 -178.41999,66.66626c0,13.80712 192.22711,-66.66626 178.41999,-66.66626c-13.80712,0 0,13.80712 0,0z" fill="#000000"/><path d="M1005.66669,1149c0,-13.80712 11.19288,-25 25,-25c13.80712,0 25,11.19288 25,25c0,13.80712 -11.19288,25 -25,25c-13.80712,0 -25,-11.19288 -25,-25z" fill="#4b51fa"/><path d="M1434.08668,1032.33374c0,-13.80712 -13.80712,0 0,0c13.80712,0 -178.41999,102.85914 -178.41999,116.66626c0,13.80712 -11.19288,25 -25,25c-13.80712,0 203.41999,-127.85914 203.41999,-141.66626z" fill="#4b51fa"/><path d="M1005.66669,1199c0,-13.80712 11.19288,-25 25,-25c13.80712,0 25,11.19288 25,25c0,13.80712 -11.19288,25 -25,25c-13.80712,0 -25,-11.19288 -25,-25z" fill="#000000"/><path d="M1205.66669,1199c0,-13.80712 11.19288,-25 25,-25c13.80712,0 25,11.19288 25,25c0,13.80712 -11.19288,25 -25,25c-13.80712,0 -25,-11.19288 -25,-25z" fill="#000000"/><path d="M1055.66669,1249c0,-13.80712 11.19288,-25 25,-25c13.80712,0 25,11.19288 25,25c0,13.80712 -11.19288,25 -25,25c-13.80712,0 -25,-11.19288 -25,-25z" fill="#000000"/><path d="M1105.66669,1249c0,-13.80712 11.19288,-25 25,-25c13.80712,0 25,11.19288 25,25c0,13.80712 -11.19288,25 -25,25c-13.80712,0 -25,-11.19288 -25,-25z" fill="#4b51fa"/><path d="M1155.66669,1249c0,-13.80712 11.19288,-25 25,-25c13.80712,0 25,11.19288 25,25c0,13.80712 -11.19288,25 -25,25c-13.80712,0 -25,-11.19288 -25,-25z" fill="#000000"/></g><g><path d="M1275.66669,1049c0,-13.80712 11.19288,-25 25,-25c13.80712,0 351.29244,8.51235 351.29244,22.31946c0,13.80712 -337.48532,27.68054 -351.29244,27.68054c-13.80712,0 -25,-11.19288 -25,-25z" fill="#000000"/><path d="M1651.95913,1046.31946c0,-13.80712 -13.80712,0 0,0c13.80712,0 0,-13.80712 0,0c0,13.80712 13.80712,0 0,0c-13.80712,0 0,13.80712 0,0z" fill="#4b51fa"/><path d="M1651.95913,1046.31946c0,-13.80712 -13.80712,0 0,0c13.80712,0 0,-13.80712 0,0c0,13.80712 13.80712,0 0,0c-13.80712,0 0,13.80712 0,0z" fill="#4b51fa"/><path d="M1651.95913,1046.31946c0,-13.80712 87.17107,-33.59576 100.97819,-33.59576c13.80712,0 0,-13.80712 0,0c0,13.80712 13.80712,0 0,0c-13.80712,0 -100.97819,47.40288 -100.97819,33.59576z" fill="#4b51fa"/><path d="M1275.66669,1099c0,-13.80712 11.19288,-25 25,-25c13.80712,0 25,11.19288 25,25c0,13.80712 -11.19288,25 -25,25c-13.80712,0 -25,-11.19288 -25,-25z" fill="#4b51fa"/><path d="M1752.93732,1012.7237c0,-13.80712 -13.80712,0 0,0c13.80712,0 0,-13.80712 0,0c0,13.80712 13.80712,0 0,0c-13.80712,0 0,13.80712 0,0z" fill="#4b51fa"/><path d="M1275.66669,1149c0,-13.80712 11.19288,-25 25,-25c13.80712,0 25,11.19288 25,25c0,13.80712 -11.19288,25 -25,25c-13.80712,0 -25,-11.19288 -25,-25z" fill="#4b51fa"/><path d="M1325.66669,1149c0,-13.80712 312.48532,-102.68054 326.29244,-102.68054c13.80712,0 0,-13.80712 0,0c0,13.80712 -287.48532,127.68054 -301.29244,127.68054c-13.80712,0 -25,-11.19288 -25,-25z" fill="#4b51fa"/><path d="M1651.95913,1046.31946c0,-13.80712 -13.80712,0 0,0c13.80712,0 0,-13.80712 0,0c0,13.80712 13.80712,0 0,0c-13.80712,0 0,13.80712 0,0z" fill="#4b51fa"/><path d="M1651.95913,1046.31946c0,-13.80712 -13.80712,0 0,0c13.80712,0 100.97819,-47.40288 100.97819,-33.59576c0,13.80712 -87.17107,33.59576 -100.97819,33.59576c-13.80712,0 0,13.80712 0,0z" fill="#4b51fa"/><path d="M1275.66669,1199c0,-13.80712 11.19288,-25 25,-25c13.80712,0 25,11.19288 25,25c0,13.80712 -11.19288,25 -25,25c-13.80712,0 -25,-11.19288 -25,-25z" fill="#4b51fa"/><path d="M1425.66669,1199c0,-13.80712 212.48532,-152.68054 226.29244,-152.68054c13.80712,0 -176.29244,138.87342 -176.29244,152.68054c0,13.80712 -11.19288,25 -25,25c-13.80712,0 -25,-11.19288 -25,-25z" fill="#4b51fa"/><path d="M1275.66669,1249c0,-13.80712 11.19288,-25 25,-25c13.80712,0 25,11.19288 25,25c0,13.80712 -11.19288,25 -25,25c-13.80712,0 -25,-11.19288 -25,-25z" fill="#4b51fa"/><path d="M1475.66669,1249c0,-13.80712 11.19288,-25 25,-25c13.80712,0 25,11.19288 25,25c0,13.80712 -11.19288,25 -25,25c-13.80712,0 -25,-11.19288 -25,-25z" fill="#4b51fa"/></g><g><path d="M1842.26268,955.21499c0,-13.80712 -13.80712,0 0,0c13.80712,0 0,-13.80712 0,0c0,13.80712 13.80712,0 0,0c-13.80712,0 0,13.80712 0,0z" fill="#000000"/><path d="M1752.93732,1012.7237c0,-13.80712 75.51824,-57.50871 89.32536,-57.50871c13.80712,0 0,-13.80712 0,0c0,13.80712 -257.78887,168.78501 -271.59599,168.78501c-13.80712,0 182.27063,-97.46918 182.27063,-111.2763z" fill="#000000"/><path d="M1545.66669,1149c0,-13.80712 11.19288,-25 25,-25c13.80712,0 25,11.19288 25,25c0,13.80712 -11.19288,25 -25,25c-13.80712,0 -25,-11.19288 -25,-25z" fill="#000000"/><path d="M1545.66669,1199c0,-13.80712 11.19288,-25 25,-25c13.80712,0 25,11.19288 25,25c0,13.80712 -11.19288,25 -25,25c-13.80712,0 -25,-11.19288 -25,-25z" fill="#000000"/><path d="M1545.66669,1249c0,-13.80712 11.19288,-25 25,-25c13.80712,0 25,11.19288 25,25c0,13.80712 -11.19288,25 -25,25c-13.80712,0 -25,-11.19288 -25,-25z" fill="#000000"/><path d="M1595.66669,1249c0,-13.80712 11.19288,-25 25,-25c13.80712,0 25,11.19288 25,25c0,13.80712 -11.19288,25 -25,25c-13.80712,0 -25,-11.19288 -25,-25z" fill="#000000"/><path d="M1645.66669,1249c0,-13.80712 11.19288,-25 25,-25c13.80712,0 25,11.19288 25,25c0,13.80712 -11.19288,25 -25,25c-13.80712,0 -25,-11.19288 -25,-25z" fill="#000000"/><path d="M1695.66669,1249c0,-13.80712 11.19288,-25 25,-25c13.80712,0 25,11.19288 25,25c0,13.80712 -11.19288,25 -25,25c-13.80712,0 -25,-11.19288 -25,-25z" fill="#000000"/><path d="M1745.66669,1249c0,-13.80712 11.19288,-25 25,-25c13.80712,0 25,11.19288 25,25c0,13.80712 -11.19288,25 -25,25c-13.80712,0 -25,-11.19288 -25,-25z" fill="#4b51fa"/></g><g fill="#000000"><path d="M1815.66669,1049c0,-13.80712 11.19288,-25 25,-25c13.80712,0 25,11.19288 25,25c0,13.80712 -11.19288,25 -25,25c-13.80712,0 -25,-11.19288 -25,-25z"/><path d="M1865.66669,1049c0,-13.80712 11.19288,-25 25,-25c13.80712,0 25,11.19288 25,25c0,13.80712 -11.19288,25 -25,25c-13.80712,0 -25,-11.19288 -25,-25z"/><path d="M1915.66669,1049c0,-13.80712 11.19288,-25 25,-25c13.80712,0 25,11.19288 25,25c0,13.80712 -11.19288,25 -25,25c-13.80712,0 -25,-11.19288 -25,-25z"/><path d="M1965.66669,1049c0,-13.80712 11.19288,-25 25,-25c13.80712,0 25,11.19288 25,25c0,13.80712 -11.19288,25 -25,25c-13.80712,0 -25,-11.19288 -25,-25z"/><path d="M1815.66669,1099c0,-13.80712 11.19288,-25 25,-25c13.80712,0 25,11.19288 25,25c0,13.80712 -11.19288,25 -25,25c-13.80712,0 -25,-11.19288 -25,-25z"/><path d="M2015.66669,1099c0,-13.80712 11.19288,-25 25,-25c13.80712,0 25,11.19288 25,25c0,13.80712 -11.19288,25 -25,25c-13.80712,0 -25,-11.19288 -25,-25z"/><path d="M1815.66669,1149c0,-13.80712 11.19288,-25 25,-25c13.80712,0 25,11.19288 25,25c0,13.80712 -11.19288,25 -25,25c-13.80712,0 -25,-11.19288 -25,-25z"/><path d="M2015.66669,1149c0,-13.80712 11.19288,-25 25,-25c13.80712,0 25,11.19288 25,25c0,13.80712 -11.19288,25 -25,25c-13.80712,0 -25,-11.19288 -25,-25z"/><path d="M1815.66669,1199c0,-13.80712 11.19288,-25 25,-25c13.80712,0 25,11.19288 25,25c0,13.80712 -11.19288,25 -25,25c-13.80712,0 -25,-11.19288 -25,-25z"/><path d="M2015.66669,1199c0,-13.80712 11.19288,-25 25,-25c13.80712,0 25,11.19288 25,25c0,13.80712 -11.19288,25 -25,25c-13.80712,0 -25,-11.19288 -25,-25z"/><path d="M1815.66669,1249c0,-13.80712 11.19288,-25 25,-25c13.80712,0 25,11.19288 25,25c0,13.80712 -11.19288,25 -25,25c-13.80712,0 -25,-11.19288 -25,-25z"/><path d="M1865.66669,1249c0,-13.80712 11.19288,-25 25,-25c13.80712,0 25,11.19288 25,25c0,13.80712 -11.19288,25 -25,25c-13.80712,0 -25,-11.19288 -25,-25z"/><path d="M1915.66669,1249c0,-13.80712 11.19288,-25 25,-25c13.80712,0 25,11.19288 25,25c0,13.80712 -11.19288,25 -25,25c-13.80712,0 -25,-11.19288 -25,-25z"/><path d="M1965.66669,1249c0,-13.80712 11.19288,-25 25,-25c13.80712,0 25,11.19288 25,25c0,13.80712 -11.19288,25 -25,25c-13.80712,0 -25,-11.19288 -25,-25z"/></g></g><path d="M1164.84437,500.01215c20.24497,54.01424 51.44732,214.2905 -11.14201,217.32378c-62.58933,3.03327 -401.72991,-31.83027 -422.37481,-85.82513c-20.6449,-53.99486 -106.42716,-80.63498 -42.92976,-83.64068c63.4974,-3.0057 456.20161,-101.87221 476.44658,-47.85797z" fill="#4b51fa" stroke="#4b51fa" stroke-width="10"/><path d="M1545.23612,731.38679c-4.18085,-0.26373 -8.34458,-0.78924 -12.45908,-1.57395c-4.1145,-0.78471 -86.45221,228.99523 -90.436,227.70077c-3.98379,-1.29446 70.38632,-233.66331 66.5962,-235.44679c-3.79012,-1.78348 -143.64887,198.32952 -147.18558,196.08505c-3.53671,-2.24447 129.24862,-206.8464 126.02111,-209.51643c-3.22751,-2.67003 -190.48183,154.0586 -193.34925,151.0051c-2.86742,-3.05349 178.65205,-165.8891 176.18995,-169.2779c-2.46211,-3.3888 -4.71101,-6.9325 -6.72897,-10.60316c-2.01796,-3.67066 -3.80499,-7.46828 -5.34698,-11.36291c-1.54199,-3.89463 -241.92271,39.3775 -242.96442,35.32032c-1.04171,-4.05719 237.25559,-55.44369 236.7306,-59.59945c-0.52499,-4.15575 -0.78853,-8.34454 -0.78853,-12.53332c0,-4.18878 0.26354,-8.37757 0.78853,-12.53332c0.52499,-4.15575 -229.41629,-86.69665 -228.37458,-90.75384c1.04171,-4.05719 233.06641,70.36934 234.6084,66.47471c1.54199,-3.89463 3.32902,-7.69225 5.34698,-11.36291c2.01796,-3.67066 4.26686,-7.21436 6.72897,-10.60316c2.46211,-3.3888 5.13742,-6.62269 8.00484,-9.67619c2.86742,-3.05349 5.92695,-5.92658 9.15446,-8.59661c3.22751,-2.67003 -97.64257,-204.45084 -94.10587,-206.69531c3.53671,-2.24446 111.48021,195.04742 115.27034,193.26393c3.79013,-1.7835 -45.36864,-221.92867 -41.38486,-223.22307c3.98377,-1.29441 61.11007,216.26195 65.22466,215.47705c4.11459,-0.7849 8.61172,-226.2699 12.79224,-226.53291c4.18052,-0.26302 8.04442,224.69595 12.22494,224.95896c4.18052,0.26302 8.34449,0.78905 12.45908,1.57395c4.11459,0.7849 8.1798,1.82867 12.16357,3.12307c3.98377,1.29441 7.8861,2.83945 11.67623,4.62295c3.79013,1.7835 7.46804,3.80545 11.00475,6.04991c3.53671,2.24446 6.93221,4.71144 10.15972,7.38147c3.22751,2.67003 6.28704,5.54312 9.15446,8.59661c2.86742,3.05349 5.54273,6.28739 8.00484,9.67619c2.46211,3.3888 4.71101,6.9325 6.72897,10.60316c2.01796,3.67066 3.80499,7.46828 5.34698,11.36291c1.54199,3.89463 2.83896,7.88628 3.88067,11.94347c1.04171,4.05719 1.82816,8.17991 2.35315,12.33567c0.52499,4.15575 0.78853,8.34454 0.78853,12.53332c0,4.18878 -0.26354,8.37757 -0.78853,12.53332c-0.52499,4.15575 -1.31145,8.27848 -2.35315,12.33567c-1.04171,4.05719 -2.33867,8.04883 -3.88067,11.94347c-1.54199,3.89463 -3.32902,7.69225 -5.34698,11.36291c-2.01796,3.67066 -4.26686,7.21436 -6.72897,10.60316c-2.46211,3.3888 -5.13742,6.62269 -8.00484,9.67619c-2.86742,3.05349 150.93572,192.45472 147.7082,195.12475c-3.22752,2.67004 -163.48568,-181.39112 -167.02238,-179.14667c-3.5367,2.24445 98.5304,223.85055 94.74025,225.63411c-3.79014,1.78355 -113.43753,-216.25545 -117.42123,-214.96125c-3.98371,1.29421 39.84587,241.30779 35.73104,242.09343c-4.11483,0.78565 -56.17408,-237.65664 -60.35369,-237.39641c-4.17961,0.26023 -8.37725,0.26373 -12.5581,0z" fill="#000000" stroke="none" stroke-width="1"/></g></svg>