<?xml version="1.0" encoding="UTF-8"?><svg id="Ebene_1" xmlns="http://www.w3.org/2000/svg" xmlns:xlink="http://www.w3.org/1999/xlink" viewBox="0 0 285 288"><defs><style>.cls-1{fill:url(#linear-gradient);}.cls-1,.cls-2{stroke-width:0px;}.cls-2{fill:#ff7300;}</style><linearGradient id="linear-gradient" x1="101.39" y1="131.81" x2="183.86" y2="131.81" gradientUnits="userSpaceOnUse"><stop offset="0" stop-color="#ff8fab"/><stop offset="1" stop-color="#ffe38f"/></linearGradient></defs><path class="cls-2" d="m135.99,60.82c-7.46-12.91-15.24-26.99-28.66-34.77-5.69-3.3-16.59-7.5-19.57,1.58-.55,4.2-.09,8.29,1.38,12.29,1.76,5.1,3.89,10.04,6.39,14.82,2.45,5.02,5.06,9.95,7.83,14.79,2.09,1.56,2.6,3.18,1.51,4.88-17.09-1.08-34.38-3.78-51.08,1.25-10.67,3.22-18.76,8.9-26.25,17.07-3.95,4.01-7.46,8.39-10.53,13.13-3.47,3.82-5.22,8.23-5.25,13.23,3.52,3.15,7.7,3.99,12.53,2.52,5.09-.7,10.1-1.75,15.03-3.15,4.24-1.25,8.56-2.12,12.97-2.61,3.51-.72,6.59-.01,9.24,2.13-3.46,6.55-11.86,10.69-17.05,15.58-9,8.46-16.65,18-23.65,28.15s-13.58,20.44-16.87,31.87c-.97,4.17-1.95,8.35-2.92,12.52-2.12,5.99-.97,10.89,3.45,14.72,7.01-1.4,12.71-5.08,17.1-11.04,5.6-5.78,11.52-11.19,17.78-16.24,8.92-7.49,18.24-13.82,29.27-17.74.71,2.03-2.79,4.07-4.02,5.3-8.49,8.54-15.48,17.27-21.59,27.62s-10.9,20.24-15.09,31.02c-2.05,4.36-3.52,8.9-4.4,13.62-1.85,5.46-2.42,11.07-1.71,16.86,1.16,2.45,2.32,4.9,3.49,7.34,2.63.6,5.26,1.21,7.89,1.81,3.88-1.73,7.76-3.46,11.64-5.19,4.49-3.7,8.97-7.41,13.46-11.11,11.41-10.31,21.62-22,32.64-32.7,6.39-6.2,12.67-11.98,20.31-16.59,2.33,1.92,2.13,4.39-.58,7.41-2.65,8.12-4.86,16.36-6.6,24.72-2.35,10-1.2,19.56,3.47,28.71,3.43,6.95,8.68,10.84,15.76,11.67,5.83,2.79,11.59,2.16,17.28-1.9,7.21-6.27,11.67-14.14,13.4-23.6,1.74-7.79,3.38-15.61,4.93-23.44-.42-3.26.62-5.34,3.11-6.23,1.68,4.26,2.9,8.78,4.74,12.96,2.85,6.48,7.22,12.74,12.73,17.25,3.19,2.01,6.39,4.01,9.58,6.02,3.42.97,6.83,1.94,10.25,2.92,3.22-.54,6.43-1.08,9.65-1.61,5.5-3.22,8.74-7.83,9.73-13.84,2.11-4.18,2.87-8.59,2.29-13.24.66-4.43.28-8.75-1.14-12.98-1.33-6.08-3.32-11.71-5.37-17.57-.97-2.77-1.92-5.5-3.68-7.86-.75-1-2.83-2.38-2.45-3.79,2.97-.81,5.93-.9,8.94-1.48,6.57-1.27,12.62-4.63,18.29-8.03,20.2-12.13,37.38-29.03,45.79-51.32,2.25-4.01,3.25-8.3,3-12.86,1.22-3.8.72-7.3-1.5-10.51-.34-3.72-2.34-5.7-5.99-5.94-3.12-2.06-6.3-2.01-9.55.15-14.53,4.32-25.85,14.98-38.21,23.29-2.31-3.32-1.72-6.89,1.77-10.71,3.97-9.8,8.15-19.51,12.53-29.14,6.5-15.75,16.67-37.33,7.9-54.27-5.69-11-20.65-19.22-31.74-10.24-4.56,5.42-7.9,11.52-10.02,18.3-1.77,5.29-3.85,10.45-6.23,15.49-1.98-3.02-.57-9.2-.38-12.64.52-9.29-.13-18.78-3.89-27.44-4.37-10.07-17.74-28.88-30.73-19.45-16.64,12.07-16.23,35.18-18.17,53.51-2.05-2.02-2.48-7.09-3.35-9.41-1.38-3.71-3.07-7.27-5.68-10.29-1.16-1.35-3.31-3.48-5.11-1.72-1.4,1.37-.92,5.85-.85,7.43.17,3.84,1.49,7.51,1.67,11.31.11,2.19,2.44,8.6,2.44,10.8l-3.27-3.38Z"/><path class="cls-1" d="m133.3,108.32c-1.66-2.49-3.43-4.96-5.57-6.45-1.28-.89-2.6-1.54-4.03-1.29-1.21.21-2.17,1.02-3.1,2.14-1.93,2.32-3.34,5.61-4.6,8.77-1.19,3-2.28,6.09-3.43,9.12-1.12,2.94-2.33,5.66-4.13,7.72-1.67,1.9-3.68,2.99-5.26,5.06-1.78,2.33-1.93,5.91-1.71,9.31.25,3.97,1.21,8.28,2.33,11.84,1.51,4.85,3.6,9.3,6.35,12.64,1.12,1.65,2.47,2.72,4.03,3.21,2.4.52,4.78.35,7.15-.51,1.75-.65,3.52-.93,5.3-.86,1.62-.21,3.22.07,4.78.84,1.91,1,3.71,2.34,5.4,4.01,1.49,1.38,3.02,2.62,4.6,3.74,4.47,3.33,9.1,5.39,14.06,6.1,2.36.43,4.72.44,7.07.03,2.35-.09,4.65-.69,6.9-1.81,2.92-1.39,5.4-3.84,7.45-7.34,1.64-2.8,2.84-5.97,3.59-9.51,1.09-3.62,1.81-7.42,2.15-11.4.63-6.08,1.02-12.2,1.16-18.35.19-9.36.1-18.76-1.19-27.97-.68-5.24-1.78-10.25-3.3-15.05-.78-1.82-1.56-3.64-2.34-5.46-2.37-4.59-6.93-8.66-10.86-6.75-2.27,1.1-4.03,3.4-5.53,6.21s-2.39,6.09-3.64,9.13c-.93,2.27-3,5.71-4.72,2.78l-.88-2.09c-.57-1.84-1.17-3.65-1.81-5.43-.81-2.05-1.9-4.74-3.51-5.51s-3.04,1.89-3.47,3.85c-.86,3.9,0,7.98.13,11.96.13,4.09-.67,7.6-2.26,10.84-.4.82-.95,1.88-1.66,2.1-.97.31-2.03-.83-2.92-1.29l-2.52-4.3Z"/></svg>