<?xml version="1.0" encoding="UTF-8"?><svg id="Ebene_1" xmlns="http://www.w3.org/2000/svg" xmlns:xlink="http://www.w3.org/1999/xlink" viewBox="0 0 356.34 605.22"><defs><style>.cls-1{fill:url(#linear-gradient);}.cls-1,.cls-2,.cls-3,.cls-4,.cls-5,.cls-6,.cls-7{stroke-width:0px;}.cls-2{fill:url(#linear-gradient-4);}.cls-3{fill:url(#linear-gradient-2);}.cls-4{fill:url(#linear-gradient-3);}.cls-5{fill:url(#linear-gradient-5);}.cls-6{fill:url(#linear-gradient-6);}.cls-7{fill:#ff7300;}</style><linearGradient id="linear-gradient" x1="175.5" y1="241.6" x2="221.25" y2="513.39" gradientUnits="userSpaceOnUse"><stop offset="0" stop-color="#36bf2c"/><stop offset="1" stop-color="#00ffb2"/></linearGradient><linearGradient id="linear-gradient-2" x1="101.39" y1="131.81" x2="183.86" y2="131.81" gradientUnits="userSpaceOnUse"><stop offset="0" stop-color="#ff8fab"/><stop offset="1" stop-color="#ffe38f"/></linearGradient><linearGradient id="linear-gradient-3" x1="193.2" y1="385.59" x2="354.39" y2="385.59" gradientUnits="userSpaceOnUse"><stop offset="0" stop-color="lime"/><stop offset="1" stop-color="#fff"/></linearGradient><linearGradient id="linear-gradient-4" x1="264.64" y1="351.32" x2="278.46" y2="433.41" xlink:href="#linear-gradient"/><linearGradient id="linear-gradient-5" x1="76.66" y1="347.08" x2="170.13" y2="347.08" gradientUnits="userSpaceOnUse"><stop offset="0" stop-color="lime"/><stop offset="1" stop-color="#fff"/></linearGradient><linearGradient id="linear-gradient-6" x1="119.03" y1="329.26" x2="124.14" y2="359.65" xlink:href="#linear-gradient"/></defs><path class="cls-1" d="m165.86,228.43c-3.29-.86-6.44-2.07-9.46-3.61-1.13-.88-2.26-.96-3.38-.25-2.85,1.8-.84,8.14-.52,10.53.96,7.14.39,14.28,1.67,21.4,1.34,5.36,2.44,10.77,3.3,16.23.79,7.01,1.83,13.98,3.11,20.92,2.95,16.33,5.28,32.69,7.95,49.06,2.4,14.75,5.72,29.33,8.22,44.07,2.29,13.52,4.75,27,7.25,40.48,2.52,13.63,4.04,27.37,6.28,41.04s4.11,26.61,8.18,39.32c4.48,13.98,11.46,26.74,18.25,39.68,7.96,15.17,14.62,30.91,22.17,46.24,1.64,3.33,3.42,6.98,5.79,9.88s5.08,1.63,8.19,1.22c2.16-.28,5.85.45,7.19-1.84.09-1.53-.15-3.02-.72-4.46-.79-2.88-1.73-5.72-2.81-8.51-2.58-7.33-4.77-14.66-8.15-21.68s-7.77-13.77-11.56-20.77c-2.34-4.76-4.56-9.58-6.68-14.44-3.25-6.56-6.45-13.15-9.61-19.75-4.43-9.79-7.94-19.87-11.24-30.08-2.35-7.25-3.58-14.55-5.55-21.87-1.44-5.32-3-10.58-4.15-15.98-1.95-9.12-2.47-18.41-3.94-27.6-1.78-11.15-4.86-21.98-6.27-33.21-1.23-9.84-1.88-19.77-3.72-29.53-2.18-11.63-4.26-23.13-5.95-34.85-2.63-18.21-6.39-36.41-7.73-54.78-.46-6.27-1.19-12.01-2.49-18.13-.71-3.32-1.67-7.18-1.84-10.61-.11-2.17-.08-3.57-.63-5.63-.28-1.06-1.22-3.44-.23-4.31"/><path class="cls-7" d="m135.99,60.82c-7.46-12.91-15.24-26.99-28.66-34.77-5.69-3.3-16.59-7.5-19.57,1.58-.55,4.2-.09,8.29,1.38,12.29,1.76,5.1,3.89,10.04,6.39,14.82,2.45,5.02,5.06,9.95,7.83,14.79,2.09,1.56,2.6,3.18,1.51,4.88-17.09-1.08-34.38-3.78-51.08,1.25-10.67,3.22-18.76,8.9-26.25,17.07-3.95,4.01-7.46,8.39-10.53,13.13-3.47,3.82-5.22,8.23-5.25,13.23,3.52,3.15,7.7,3.99,12.53,2.52,5.09-.7,10.1-1.75,15.03-3.15,4.24-1.25,8.56-2.12,12.97-2.61,3.51-.72,6.59-.01,9.24,2.13-3.46,6.55-11.86,10.69-17.05,15.58-9,8.46-16.65,18-23.65,28.15s-13.58,20.44-16.87,31.87c-.97,4.17-1.95,8.35-2.92,12.52-2.12,5.99-.97,10.89,3.45,14.72,7.01-1.4,12.71-5.08,17.1-11.04,5.6-5.78,11.52-11.19,17.78-16.24,8.92-7.49,18.24-13.82,29.27-17.74.71,2.03-2.79,4.07-4.02,5.3-8.49,8.54-15.48,17.27-21.59,27.62s-10.9,20.24-15.09,31.02c-2.05,4.36-3.52,8.9-4.4,13.62-1.85,5.46-2.42,11.07-1.71,16.86,1.16,2.45,2.32,4.9,3.49,7.34,2.63.6,5.26,1.21,7.89,1.81,3.88-1.73,7.76-3.46,11.64-5.19,4.49-3.7,8.97-7.41,13.46-11.11,11.41-10.31,21.62-22,32.64-32.7,6.39-6.2,12.67-11.98,20.31-16.59,2.33,1.92,2.13,4.39-.58,7.41-2.65,8.12-4.86,16.36-6.6,24.72-2.35,10-1.2,19.56,3.47,28.71,3.43,6.95,8.68,10.84,15.76,11.67,5.83,2.79,11.59,2.16,17.28-1.9,7.21-6.27,11.67-14.14,13.4-23.6,1.74-7.79,3.38-15.61,4.93-23.44-.42-3.26.62-5.34,3.11-6.23,1.68,4.26,2.9,8.78,4.74,12.96,2.85,6.48,7.22,12.74,12.73,17.25,3.19,2.01,6.39,4.01,9.58,6.02,3.42.97,6.83,1.94,10.25,2.92,3.22-.54,6.43-1.08,9.65-1.61,5.5-3.22,8.74-7.83,9.73-13.84,2.11-4.18,2.87-8.59,2.29-13.24.66-4.43.28-8.75-1.14-12.98-1.33-6.08-3.32-11.71-5.37-17.57-.97-2.77-1.92-5.5-3.68-7.86-.75-1-2.83-2.38-2.45-3.79,2.97-.81,5.93-.9,8.94-1.48,6.57-1.27,12.62-4.63,18.29-8.03,20.2-12.13,37.38-29.03,45.79-51.32,2.25-4.01,3.25-8.3,3-12.86,1.22-3.8.72-7.3-1.5-10.51-.34-3.72-2.34-5.7-5.99-5.94-3.12-2.06-6.3-2.01-9.55.15-14.53,4.32-25.85,14.98-38.21,23.29-2.31-3.32-1.72-6.89,1.77-10.71,3.97-9.8,8.15-19.51,12.53-29.14,6.5-15.75,16.67-37.33,7.9-54.27-5.69-11-20.65-19.22-31.74-10.24-4.56,5.42-7.9,11.52-10.02,18.3-1.77,5.29-3.85,10.45-6.23,15.49-1.98-3.02-.57-9.2-.38-12.64.52-9.29-.13-18.78-3.89-27.44-4.37-10.07-17.74-28.88-30.73-19.45-16.64,12.07-16.23,35.18-18.17,53.51-2.05-2.02-2.48-7.09-3.35-9.41-1.38-3.71-3.07-7.27-5.68-10.29-1.16-1.35-3.31-3.48-5.11-1.72-1.4,1.37-.92,5.85-.85,7.43.17,3.84,1.49,7.51,1.67,11.31.11,2.19,2.44,8.6,2.44,10.8l-3.27-3.38Z"/><path class="cls-3" d="m133.3,108.32c-1.66-2.49-3.43-4.96-5.57-6.45-1.28-.89-2.6-1.54-4.03-1.29-1.21.21-2.17,1.02-3.1,2.14-1.93,2.32-3.34,5.61-4.6,8.77-1.19,3-2.28,6.09-3.43,9.12-1.12,2.94-2.33,5.66-4.13,7.72-1.67,1.9-3.68,2.99-5.26,5.06-1.78,2.33-1.93,5.91-1.71,9.31.25,3.97,1.21,8.28,2.33,11.84,1.51,4.85,3.6,9.3,6.35,12.64,1.12,1.65,2.47,2.72,4.03,3.21,2.4.52,4.78.35,7.15-.51,1.75-.65,3.52-.93,5.3-.86,1.62-.21,3.22.07,4.78.84,1.91,1,3.71,2.34,5.4,4.01,1.49,1.38,3.02,2.62,4.6,3.74,4.47,3.33,9.1,5.39,14.06,6.1,2.36.43,4.72.44,7.07.03,2.35-.09,4.65-.69,6.9-1.81,2.92-1.39,5.4-3.84,7.45-7.34,1.64-2.8,2.84-5.97,3.59-9.51,1.09-3.62,1.81-7.42,2.15-11.4.63-6.08,1.02-12.2,1.16-18.35.19-9.36.1-18.76-1.19-27.97-.68-5.24-1.78-10.25-3.3-15.05-.78-1.82-1.56-3.64-2.34-5.46-2.37-4.59-6.93-8.66-10.86-6.75-2.27,1.1-4.03,3.4-5.53,6.21s-2.39,6.09-3.64,9.13c-.93,2.27-3,5.71-4.72,2.78l-.88-2.09c-.57-1.84-1.17-3.65-1.81-5.43-.81-2.05-1.9-4.74-3.51-5.51s-3.04,1.89-3.47,3.85c-.86,3.9,0,7.98.13,11.96.13,4.09-.67,7.6-2.26,10.84-.4.82-.95,1.88-1.66,2.1-.97.31-2.03-.83-2.92-1.29l-2.52-4.3Z"/><path class="cls-4" d="m202.53,407.33c-3.04,3.41-7.63,6.71-9.33,11.11,1.58,2.58,6.31.75,8.57.3,6.75-1.34,13.53-.72,20.36-.53,11.55.31,23.13.4,34.67,1.04s23.97,1.96,35.92,3.23c18.43,1.96,40.58,7.8,54.59-8.13,5.8-6.6,7.86-14.11,6.84-22.63-1.53-6.26-4.04-12.11-7.53-17.54-2.46-4.56-5.57-8.59-9.34-12.08-6.96-7.21-14.9-12.58-24.72-14.95-10.48-2.53-20.17-.36-30.31,2.69-7.73,2.32-15.84,4.41-23.08,8.02-6.54,3.26-12.58,7.34-18.27,11.92-6.76,5.45-12.26,12.14-18.81,17.79-1.4,1.21-6.23,4.34-6.2,6.4l-13.37,13.37Z"/><path class="cls-2" d="m201.64,406.44c-1.94,2.14-4.15,4.02-6.09,6.17-1.05,1.16-2.01,2.36-2.85,3.69-.67,1.05-1.95,2.84-1.2,4.02,1.2,1.9,4.16,1.52,6,1.15,2.87-.58,5.52-1.25,8.49-1.45,7.29-.51,14.69.17,21.98.33s14.86.3,22.29.61c14.48.61,28.96,2.01,43.35,3.73,10.51,1.26,21.21,3.34,31.82,2.05,11.51-1.41,21.91-7.78,27.45-18.15,2.82-5.28,3.84-11.18,3.31-17.11-.28-3.16-1.54-6.36-2.73-9.29-1.27-3.14-2.85-6.13-4.61-9.02-1.65-2.7-3.2-5.39-5.19-7.87s-4.32-4.76-6.64-6.97c-4.25-4.07-9.05-7.57-14.38-10.08-5.89-2.78-12.32-4.24-18.83-4.19-6.99.05-13.85,1.78-20.5,3.76s-13.28,3.73-19.64,6.39c-6.43,2.68-12.45,6.3-18.1,10.37s-10.55,8.59-15.37,13.45c-2.3,2.32-4.6,4.65-7.01,6.87-1.68,1.54-3.53,2.84-5.25,4.33s-3.91,3.43-4.04,5.82l1.09-1.96c-4.46,4.46-8.91,8.91-13.37,13.37-.53.53-1.6,1.9-.88,2.65s2.19-.42,2.65-.88c4.08-4.08,8.15-8.15,12.23-12.23.76-.76,1.81-1.61,2.13-2.65-.15.47.23-.97.09-.55-.03.08-.12.35.06-.09-.15.38.29-.3.01-.01.2-.21.4-.42.61-.63.72-.7,1.64-1.39,2.53-2.07,5.14-3.92,9.47-8.83,14.07-13.33,4.87-4.76,10.21-9.02,15.97-12.66,6.05-3.82,12.41-6.71,19.21-8.89s13.53-4.34,20.42-5.81,14.44-1.82,21.53.1c5.87,1.59,11.3,4.39,16.12,8.08,2.49,1.91,4.75,4.04,6.97,6.25,2.38,2.36,4.63,4.75,6.56,7.5s3.66,5.72,5.23,8.68,2.92,6.16,3.95,9.41c.51,1.6,1.06,3.23,1.2,4.91s.15,3.32.02,4.98c-.22,2.84-.88,5.66-2.06,8.26-2.24,4.96-6.2,9.18-10.97,11.79s-9.91,3.57-15.15,3.85c-11.32.61-22.68-1.78-33.9-2.97-15.23-1.61-30.44-2.95-45.75-3.39-7.75-.22-15.5-.28-23.25-.56-6.92-.25-13.81-.6-20.59,1.11-1.8.45-4.45,1.23-5.71-.61l.11,1.14c1.59-3.92,5.58-6.55,8.34-9.6.5-.56,1.61-1.88.88-2.65-.69-.73-2.21.4-2.65.88Z"/><path class="cls-5" d="m168.59,340.33c-7.03-6.72-15.42-12.11-25.47-12.95s-20.12,1.48-29.48,5.08c-8.59,3.31-17.56,8.15-24.25,14.58-4.16,4.06-7.63,8.63-10.41,13.72-2.34,1.98-2.91,4.04-1.73,6.19,5.22-1.31,10.33-1.79,15.63-2.74,7.15-1.29,13.8-4.19,20.59-6.66,11.01-4.01,21.44-8.09,33.24-8.86,4.39-.29,8.29.44,12.47,1.61,2.15.61,6.29,2.34,8.7,1.4,2.96-1.15,2.14-4.34,2.16-6.85v.55l-1.45-5.08Z"/><path class="cls-6" d="m170.36,338.56c-5.15-4.9-11.08-9.18-17.87-11.47-7.51-2.53-15.82-2.23-23.52-.76s-15.67,4.29-22.92,7.86-13.67,7.85-19.07,13.52c-3.07,3.23-5.79,6.77-8.13,10.56-.3.49-.6.99-.89,1.49-.11.19-.23.37-.32.57-.21.45.44-.43-.19.15-.8.73-1.51,1.72-2.01,2.68-.88,1.71-1.01,3.54-.13,5.27.29.57.74.55,1.31.41,7.39-1.81,15.04-2.17,22.34-4.4,6.92-2.11,13.62-4.94,20.43-7.39s13.87-4.78,21.12-5.83c3.66-.53,7.36-.85,11.04-.32,3.03.43,5.92,1.31,8.83,2.2,3.32,1.01,6.73,1.48,9.46-1.13,1.16-1.11,1.93-2.51,2.17-4.1.2-1.35,0-2.72,0-4.07,0-2.26-3.95.57-3.95,2.16v.55l3.91-2.55c-.48-1.69-.97-3.38-1.45-5.08s-4.35,1.31-3.88,2.94.97,3.38,1.45,5.08c.54,1.9,3.91-1.4,3.91-2.55v-.55l-3.95,2.16c0,1.07.13,2.15.08,3.22,0,.07-.09,1.21-.17,1.19.02,0,.73-1.28.37-.42.24-.14.2-.14-.12,0-.15.04-.29.06-.44.06-2.38.27-4.9-.98-7.14-1.62-3.22-.93-6.52-1.57-9.87-1.69s-6.97.35-10.37.96c-13.51,2.43-25.9,8.43-38.87,12.63-7.72,2.5-15.81,2.89-23.66,4.81l1.31.41c-.52-1.01-.88-2.19-.08-3.14.61-.72,1.24-1.25,1.73-2.09s1.01-1.75,1.54-2.61c1.83-2.92,3.98-5.67,6.36-8.17,4.73-4.97,10.54-8.74,16.66-11.79,6.6-3.29,13.71-5.89,20.95-7.33s14.67-1.87,21.67.14,13.41,6.48,18.8,11.61c1.27,1.21,4.79-2.34,3.54-3.54Z"/></svg>