<?xml version="1.0" encoding="UTF-8"?><svg id="Ebene_1" xmlns="http://www.w3.org/2000/svg" xmlns:xlink="http://www.w3.org/1999/xlink" viewBox="0 0 308.15 732.36"><defs><style>.cls-1{fill:url(#linear-gradient);}.cls-1,.cls-2,.cls-3{stroke-width:0px;}.cls-2{fill:url(#linear-gradient-2);}.cls-3{fill:url(#linear-gradient-3);}</style><linearGradient id="linear-gradient" x1="198.02" y1="583.78" x2="198.02" y2="46.92" gradientUnits="userSpaceOnUse"><stop offset="0" stop-color="#b3a8f9"/><stop offset="1" stop-color="#7bff00"/></linearGradient><linearGradient id="linear-gradient-2" x1="185.06" y1="42.47" x2="307.5" y2="57.16" gradientUnits="userSpaceOnUse"><stop offset="0" stop-color="#7bff00"/><stop offset="1" stop-color="#00ff84"/></linearGradient><linearGradient id="linear-gradient-3" x1="48.09" y1="445.1" x2="136.51" y2="395" gradientUnits="userSpaceOnUse"><stop offset="0" stop-color="#b2a7fb"/><stop offset="1" stop-color="#7bff00"/></linearGradient></defs><path class="cls-1" d="m130.87,8.22c6.62,14.39,13.32,28.72,20.2,42.93,6.04,12.48,12.68,24.5,17.84,37.57,4.4,11.14,10.25,24.15,12.66,36.22,1.04,5.21,2.15,17.07-2.17,21.3-3.77,3.68-11.75-.77-15.72-1.35-6.58-.95-12.72-.15-19.21,1.2-6.08,1.27-12.32,1.98-16.37,8.33-5.8,9.1-4.85,21.37-1.44,31.24,6.65,19.25,21.79,33.66,34.29,47.23,15.07,16.36,28.47,37.2,36.46,59.78,3.04,8.61,6.76,19.94,7.32,29.45.5,8.5-2.78,11.6-8.08,16.44-13.59,12.41-28.89,23.5-38.38,41.15-6.12,11.37-15.16,41.67-1.22,50.76,6.46,4.21,14.78-.06,20.74-3.11,9.95-5.09,17.76-13.01,26.85-19.78,7.74-5.77,16.55-10.86,25.98-8.24,8.7,2.42,11.55,9.7,12.78,19.69,3.6,29.23-15.16,55.42-29.35,76.24-14.48,21.24-30.95,40.48-43.47,63.6-6.93,12.8-11.71,26.56-15.5,41.01-6.95,26.46-14.18,52.67-20.09,79.5-2.33,10.57-5.75,21.41-7.26,32.16-.62,4.44-.57,9.03-1.29,13.43-.26,1.58-2.02,4.88-.92,6.57,1.22,1.89,4.46-.14,5.9-.29,3.33-.33,6.83.06,10.17.05,5.84-.01,10.92,2.34,11.23-6.76.4-11.7.38-23.12,2.5-34.71,3.17-17.28,10.55-33.39,16.12-49.63,7.94-23.19,17.78-45.01,27.68-67.07,5.31-11.84,10.5-23.32,16.69-34.54,8.07-14.65,16.61-28.35,25.42-42.33,11.55-18.31,20.63-37.02,26.33-58.99,2.81-10.82,3.54-20.64,4.06-31.86.32-6.87,1.37-12.51-1.21-18.99-1.59-3.99-4.79-9.95-8.26-12.09-3.88-2.39-9.4-1.35-13.53-1.36-9.59-.02-18.54,2.14-27.46,6.68-5.2,2.64-12.32,6.86-18.15,4.75-8.63-3.13,1.01-16.67,4.49-20.77,7.38-8.69,16.94-17.07,21.52-28.61,7.64-19.25,2.94-42.97-5.39-60.58-9.85-20.82-22.37-40.91-35.51-58.87-3.84-5.25-8.14-10.51-10.75-16.85-1.4-3.4-4.84-12.39-2.46-16.22,1.69-2.72,6.5-2.52,8.81-1.73,6.2,2.1,8.79,10.5,15.64,11.63,13,2.15,21.91-14.51,21.83-27.98-.04-7.37-1.56-14.23-3.2-21.27-2.73-11.76-5.47-23.08-9.32-34.38-6.11-17.97-12.6-35.48-20.17-52.68-5.81-13.2-11.75-26.37-17.78-39.43-1.56-3.38-2.88-6.84-4.36-10.26-1.14-2.64-3.33-4.05-4.11-6.42l-31.4,8.22Z"/><path class="cls-2" d="m182.76,35.73c2.87-2.03,5.95-3.58,9.23-4.63,4.03-1.12,8.11-2.02,12.22-2.71,9.06-1.54,18.11-2.13,27.26-2.71,10.94-.7,21.76-2.18,32.65-3.33,11.5-1.21,23.9-2.06,35.23,1.22,3.19.92,7.24,1.68,8.41,5.64,1.31,4.41-1,10.3-2.13,14.56-2.46,9.3-6.18,19.11-11.52,26.87-4.45,6.46-9.55,11.86-16.95,14.01-6.18,1.79-13.35.99-19.46-.72-9.1-2.55-17.97-7.11-26.39-11.58-12.57-6.67-23.81-15.92-36.1-23.19-3.03-1.79-6.23-3.3-9.35-4.89-1.66-.85-4.05-1.57-4.54-3.8-.57-2.59,1.37-4.16,2.88-5.8"/><path class="cls-3" d="m133.98,395.77c-10.92-.86-21.78-1.57-32.71-.19-14.1,1.78-28.64,6.3-41.76,12.75-12.2,6-24.73,14.19-35.07,24.11-4.55,5.13-9.09,10.26-13.64,15.39-2.89,5.17-5.78,10.35-8.68,15.52-.71,4.39-1.42,8.79-2.13,13.18,1.37,3.02,2.74,6.04,4.11,9.06,2.93,1.19,5.86,2.38,8.8,3.57,3.89-.62,7.78-1.23,11.67-1.85,9.53-2.72,18.92-9.06,27.43-14.68,12.06-7.97,23.52-17.18,35.48-25.36,13.8-9.45,29.44-14.45,42.8-24.77,6.1-4.71,12.42-9.2,16.79-16.31,1.87-3.05,2.74-4.39.48-7.17-1.42-1.75-2.68-3.72-4.92-3.23h-8.65Z"/></svg>