<?xml version="1.0" encoding="UTF-8"?>
<svg id="Ebene_1" data-name="Ebene 1" xmlns="http://www.w3.org/2000/svg" viewBox="0 0 1277.56 857">
  <defs>
    <style>
      .cls-1 {
        fill: #48d1cc;
        stroke-width: 1.82px;
      }

      .cls-1, .cls-2, .cls-3, .cls-4, .cls-5, .cls-6, .cls-7, .cls-8, .cls-9, .cls-10, .cls-11, .cls-12 {
        stroke-miterlimit: 10;
      }

      .cls-1, .cls-7 {
        stroke: plum;
      }

      .cls-2 {
        stroke-width: 1.12px;
      }

      .cls-2, .cls-6, .cls-9 {
        stroke: #ffb6c1;
      }

      .cls-2, .cls-9 {
        fill: #db7093;
      }

      .cls-3 {
        fill: #00688b;
      }

      .cls-3, .cls-8 {
        stroke: #db7093;
      }

      .cls-4, .cls-5 {
        fill: #ffb6c1;
      }

      .cls-4, .cls-10 {
        stroke: #5f9ea0;
      }

      .cls-5 {
        stroke: pink;
      }

      .cls-6 {
        fill: pink;
      }

      .cls-7, .cls-8 {
        fill: #d8bfd8;
      }

      .cls-10, .cls-11 {
        fill: #4682b4;
      }

      .cls-11 {
        stroke: #b0e0e6;
      }

      .cls-13 {
        fill: #b0e0e6;
        font-family: ArialMT, Arial;
        font-size: 100px;
        isolation: isolate;
      }

      .cls-14 {
        stroke-width: 0px;
      }

      .cls-12 {
        fill: #ff69b4;
        stroke: #00688b;
        stroke-width: 1.4px;
      }
    </style>
  </defs>
  <rect class="cls-14" width="1329.68" height="857"/>
  <path class="cls-7" d="m490.1,216.46l1-1,6-2,8-3,5-1,9-3h16l4,5,3,8,5,11,2,6,1,5,1,3m-89-204c-3.6,21.58-15.72,45.88-23,66-3.45,9.55-7.63,18.83-12,28-3.27,6.86-5.2,12.78-7,20-.51,2.05-2,6-2,6v-3c0-2-.39-4.04,0-6,.75-3.73,2.01-7.33,3-11,1.35-5,2.68-10,4-15,1.68-6.33,3.23-12.7,5-19,2.83-10.07,7.24-25.24,15-33,1.75-1.75,4.41-3.35,6-6,2.45-4.09,3.02-9.7,5-14,2.6-5.64,6.3-11.6,9-17,.21-.42.53-1,1-1,.33,0,0,.67,0,1v9c0,4,.1,8,0,12-.56,22.27-.35,44.78-2,67-.11,1.45-2,21-2,21,0,0,2.35-5.52,4-8,3.85-5.77,8.05-11.3,12-17,13.35-19.29,27.43-37.62,42-56,3.53-4.45,7.19-8.79,11-13,2.53-2.8,5.33-5.33,8-8,.53-.53,2-1.75,2-1,0,16.43-10.46,44.85-14,59-6.82,27.29-13.79,54.56-20,82-3,13.27-8,29.11-8,43l53,19h-4"/>
  <path class="cls-3" d="m607.96,466.43v4m-20-53c-27.83,0-53.68,7.51-80,16-7.85,2.53-15.96,4.15-24,6-2.36.55-4.57,2-7,2-.47,0-1.33.67-1,1,3.89,3.89,10.83,2.12,16,4,9.83,3.58,19.55,7.52,29,12,18.86,8.94,58.36,29.3,79,42,5.93,3.65,31.78,21.8,39,27,2.71,1.95,5.4,3.92,8,6,1.1.88,2.22,4.18,3,3,4.53-6.79,6.27-16.55,10-24,1.53-3.07,6.77-6.06,5-9-2.95-4.92-9.48-6.47-14-10-7.63-5.97-14.3-13.11-22-19-3.68-2.81-7.51-5.88-12-7-1.68-.42-9,1.3-9-1"/>
  <path class="cls-6" d="m982.8,393.27c30.62,0,61.49,1,92,1m-236-113c-1.89,0-.89,0,1,0h68c27.99,0,81.37,1.33,107,15,14.63,7.8,14.53,31.22,12,45-8.12,44.22-32.68,86.87-48,129"/>
  <path class="cls-4" d="m54.1,745.96v-238l11-47,24-70,27-60,40-77,19-39,27-48,13-24,8-9,7-7m231,98h-35l-10,1-7,4-7,3-5,5-6,7-3,8-1,6-2,9v39l3,9,5,11,7,10,6,7,5,7,7,5,8,4,11,1,15,1,17-1,25-12,18-13,11-9,11-9,5-6,4-8,1-8v-12l-5-10m-407,248v-125c0-49.85-3.71-101.11,17-148,17.97-40.7,47.4-66.45,92-69,6.2-.35,29.17-3.52,34,4,1.36,2.11,1.14,23.4,1,25-2.57,30.15-11.51,56.53-21,85-1.56,4.68-9.28,20.59-8,27,1.32,6.58,12.56-5.08,18-9,9.25-6.67,17.9-14.13,27-21,30.34-22.91,64.46-42.58,104-40,11.64.76,25,1.01,31,13,15.08,30.16-3.35,73.61-17,98-27.82,49.72-83.1,107.36-121,150-13.79,15.52-27.85,30.8-42,46-3.87,4.15-7.11,8.87-11,13-1.46,1.55-3.36,2.63-5,4-.57.48-.33,2.33-1,2-4.84-2.42-9.09-9.21-12-13-3.61-4.69-12-12.73-12-19,0-1.94,3.56-1.69,5-3,2.44-2.22,4.72-4.62,7-7,11.58-12.08,23.6-23.75,35-36,32.71-35.16,60.11-74.37,87-114,2.96-4.36,6.03-8.65,9-13,8.11-11.9,17-19.16,17-33,0-1.13,1.27-12.15,0-13-6.04-4.03-20.99-7.16-28-5-7.33,2.26-14.28,9.35-20,14-13.29,10.79-25.95,21.95-38,34-10.26,10.26-24.83,24.47-41,18-10.02-4.01-14-16.45-14-26,0-21.64,4.51-37.05,8-58,.46-2.75,1.73-14.59,2-17,1.2-10.79,3.5-14-7-14-2.33,0-4.82-.82-7,0-5.21,1.95-10.84,10.26-14,14-10.78,12.75-19.66,27.72-24,44-8.01,30.04-8.32,60.18-10,91-2.31,42.35-5.18,84.73-8,127-.16,2.35.67,5.33-1,7-1.02,1.02-2.36-1.79-3-2-2-.67-4.16-.98-6-2-8.37-4.65-15.74-11.77-23-18-.89-.76-7-4.22-7-6,0-1.98,7.41-5,8-5l400-257-6-8-8-8-5-5-6-5-7-6-5-2-5-3-6-2-5-2-7-2-5-1h-14l-1,1h-2v1l-218-99,3-1,1-1v-1m28-33c0,37.49,5.79,82.89,44,102,22.18,11.09,53.91,5,78,5m-27-110c-12.2,0-20.24.23-33,3-8.77,1.91-17.43,4.35-26,7-11.45,3.54-33,8.97-33,24,0,3.68-1.54,8.33,1,11,4.94,5.18,12.27,7.58,19,10,28.64,10.31,78.71,15.97,108,7,26.05-7.97,42.58-41.94,31-68-6.52-14.67-19.53-25.88-32-36-10.89-8.83-23.52-16.15-37-20-24.34-6.96-49.68-12-75-12-93.65,0-160.92,72.4-218,137-21.04,23.82-52,58.42-52,93"/>
  <path class="cls-5" d="m554.1,8.46h1l10,5,10,5,12,8m-6,50V23.46c0-1.33-.42-5.26,0-4,5.67,17.02,13.33,33.4,17,51,1.31,6.28,2.09,12.65,3,19,.43,2.99,1,5.98,1,9,0,.47.85,1.45,1,1,5.84-17.53,3.36-35.96,5-54,.5-5.53,2.07-10.85,4-16,.52-1.4.95-2.95,2-4,.33-.33,1.26-1.39,1-1-4.26,6.39-8.36,9.11-14,16-6.13,7.5-10.67,16.01-16,24-3.4,5.1-7.29,10.71-9,9-1.84-1.84,3.16-4.16,5-6,2.67-2.67,5.33-5.33,8-8,10.85-10.85,22.15-21.15,33-32l-32,1,5,3"/>
  <path class="cls-12" d="m1194.55,762.92l-5.28,4.58-31.74,14.6-22.38,8.33-18.16,4.66m121.94-113.21l-71.44-82.33c-1.83-2.11-7.33-8.44-5.49-6.33,20.92,24.11,40.75,48.36,60.17,73.6,4.26,5.54,9.16,10.55,13.74,15.83l6.41,7.39c.92,1.06,2.45,4.53,2.75,3.16,3.07-14.22-2.14-35.88-4.4-49.85-.67-4.11-1.86-8.13-3.11-12.11-1.18-3.81-2.86-7.43-4.16-11.19-.34-.99-1.46-3.82-.77-3.02,11.44,13.18,17.59,30.68,26.5,45.47,2.42,4.01,5.27,7.74,8.1,11.47,1.41,1.85,3.05,3.52,4.58,5.28.61.7,2.25,2.95,1.83,2.11-4.16-8.18-14.38-26.52-22.62-30.33-16.24-7.52-23.04,1.97-34.49,11.43-11.67,9.64-51.68,38.52-32.07,61.12,11.97,13.79,37.15-19.93,42.72-29.67,1.86-3.26,2.29-7.16,3.72-10.63.96-2.31,2.62-4.32,3.45-6.69.44-1.24,1.4-4.63.28-3.94-11.15,6.83-37.74,52.81-48.12,63.96-12.94,13.91-59.88,53.82-70.86,63.34l-55.94,48.54c-2.11,1.83-8.44,7.33-6.33,5.49,31.5-27.34,60.4-42.88,96.62-63.49,13.76-7.84,29.1-23.59,44.55-27.56l-84.67,34.62-9.22,4.3"/>
  <path class="cls-8" d="m38.1,398.46v-43m59-104c-5.21,0-14.65,12.07-18,15-14.86,13-30.05,27.15-37,46-2.74,7.44-3.55,9.36-4,17-.6,10.15-2.4,20.02,10,12,4.2-2.72,8.06-5.92,12-9,3.73-2.92,7.37-5.95,11-9,11.07-9.3,21.93-18.67,31-30,10.97-13.72,13-30.33,13-47,0-.98-4.85.9-5,1-2.39,1.59-5.09,2.86-7,5-10.96,12.25-17.84,22.66-25,38-11.48,24.6-18.06,52.45-27,78-2.78,7.95-6.86,22.86-13,29v-144h1v2"/>
  <path class="cls-10" d="m872.94,422.06v110m-34-146c3,0,10.71-.44,14,1,15.35,6.71,40.98,29.07,35,49-1.4,4.66-7.55,10.8-10,15-8.05,13.8-13.85,30.64-31,36-4.96,1.55-11.02.75-16,2-5.05,1.26-7.96,12.45-11,16-1.56,1.83-6,4-6,4,0,0,9.24-3.05,14-4,18.18-3.64,46.24-.71,61-14,14.23-12.81,11.06-46.94-2-60-2.66-2.66-10-9-14-9"/>
  <path class="cls-1" d="m597.77,367.18c9.1,13.69,12.85,24.43,18.02,39.8m49.73-71.35c-21.53,14.32-47.13,40.2-74.46,40.52-9.33.11-18.75-1.76-27.96-3.92-3.15-.74-13.33-7.14-16.67-9.18-1.18-.72-4.63-3.02-3.54-2.15,33.37,27.02,62.97,53.48,93.85,83.91,6.74,6.64,13.23,13.85,19.97,20.49,2.27,2.23,7.91,9.76,6.66,6.83-6.83-16.12-9.72-32.4-13.81-49.35-3.56-14.76-7.21-33.07-15.7-45.84"/>
  <text class="cls-13" transform="translate(650.1 87.96)"><tspan x="0" y="0">merge motion</tspan></text>
  <path class="cls-9" d="m2164.64,95.25c10.1,6.81,20.3,13.52,30.4,20.33m134.5,118.03l4.1,16.12,4.1,80.6-66.9,48.36m-850-244.66h0l38.3-8.87,182.3-17.82m271.5,71.02c24.2-41.37,83.9-72.18,132.5-86.33m-1183.8,108.18c2.7,9.04,6.9,17.91,8.1,27.22,2.9,22.75-1.7,46.3,4,68.69,8.3,32.24,62.5,144.72,77.1,175.88m-55.5,306.19c39.1,3.04,84.1-2.51,116.8-23.37,17.5-11.19,30.5-27.4,47.5-39.22,18.1-12.63,36.6-25.25,57.5-33.85,8.6-3.58,19-1.07,28.5-1.61m175.4,76.3c42.8,20.06,96.6,4.3,144.9,4.75,27.8.27,55.5,1.61,83.3,2.51m407.1-16.84c41.8,6.99,85,4.12,127.5,5.02,12.1.27,33.6-6.09,36,4.57m-235.5-9.31c96.1-24.63,212.5-10.66,311.9-16.39m120.9-298.48c-5.7,0,6.7,0,10.9.18,13.3.54,27.3-1.97,40,1.88,17.1,5.19,37.1,10.75,47,24.27,6.3,8.69,4.2,28.12-7,30.54-40.8,8.87-85.8,9.13-126-1.7-21.7-5.82-30.7-29.82-46-44.69m-715.6-260.78c-19.1-15.49-57.4-12.09-44.6,20.24,2.9,7.25,7.6,14.42,14.4,19.16,7.2,4.93,16.5,7.52,25.4,8.42,9.5.9,19.1-1.52,28.4-3.22,5.4-.99,11.9-1.34,15.4-5.02,2.5-2.6,1.1-7.25-.6-10.39-8.1-15.49-18.8-29.28-37.7-32.15m-66.9,273.5c18.8,6.99,80.7-18.09,68.6,23.02-3.8,12.99-26.4,14.78-37.4,12.45-10-2.15-8.3-15.67-10.6-20.69-2.1-4.66-7-9.85-12.6-9.94m314.8,39.76l9.7,4.57-14.1-2.06-15.1-4.75-18.1-7.43-6.1-1.16-7.1-1.16-8.1,1.52-3.1,1.52-2.1,8.69,1.9,22.12,6.9,21.22,15.9,20.33,15.9,14.06,15.9,6.9,20.9,4.21,23.9,3.31,34.9,5.1,36.9,1.52m394-197.11c9.2-8.06,18.2-18,32.6-.72m-64.8-139.26c-14.3-.72-28.5-2.33-42.8-2.15-3.1.09-6.5.9-8.6,2.96-6.8,6.99-16.9,34.12-17.1,39.94-.1,2.33,5,.81,7.6,1.16m-1285.3,392.78c15.9,0,31.2-5.55,47-7.16,68.5-7.16,70.5-6.27,123-6.27h27c3.3,0,8.5-2.69,10,0,4.5,8.15-33.7,21.4-34,21.49-27,7.16-59.3,12.54-88,12.54m325.2-174.81v35.82s5.1-9.58,9-13.43c.4-.45,46.7-28.84,13-26.87-3,.18-6.1.27-9,.9-5,1.07-9.4,5.1-14,7.16m829.8-268.57l-22.4,11.73-12.5-3.22-19.5-2.33-26.5,1.25-17.5.36-18.5-6.81-14.5-5.02-11.5-5.02m-362.8,62.51l-17.5,6.45-4.8,15.76-5.8,13.07-7.8,9.49m32,1.97l-9.6-14.6m13.9-51.49c-2.2,13.16-4.5,26.33-6.6,39.58m-52.4,45.22c4.6-8.51,9.2-17.1,13.8-25.61m-151.8-28.75c23.9,1.52,47.8,2.06,71.8,2.51m219.1,54.63c14.8,2.15,29.6,4.3,44.3,6.45m23.4-69.05c2.6,4.21,3.6,9.67,7.9,12.54,6.8,4.39,15.6,5.37,23.4,8.06m141.9-118.84l-3.4-.9-1.1,4.48-1.1.9-1.1,2.69-1.1,4.48-1.1,4.48-2.1,6.27-2.1,1.79-4.1,6.27-6.1,10.75-6.1,15.22-7.1,14.33-4.1,6.27-6.1,12.54-4.1,10.75-4.1,10.75-4.1,13.43m101.8-224.78c27.9,25.97,59.4-1.61,96.7-6m-582.1,156.36c17.7,7.34,34.6,16.48,53.1,22.03,12.6,3.76,26.2,3.67,39.4,5.55m-224-102.81c-16.7,25.79-7.4,5.73,60.4,12.63,5.8.63,11.2,2.78,16.8,4.21m-551.6-45.22l18.1-1.07,15,.54,16,4.12,15,3.22,10,3.22,8,5.91,10,12.18,8,12.18,5,5.91,5,2.33,5,7.7,5,15.76m91.4-197.11c19.5,7.34,40.1,12.63,58.6,21.85,9.1,4.57,13.8,14.06,19.9,21.58,9,11.19,17.8,13.97,29.3,21.67,9.8,6.54,20.1,12.72,28.3,20.78,4.6,4.48,5,11.55,9.4,16.21,5.2,5.46,12.7,1.43,17.9-.09m-117.4,30.36c-9.7,0,13.8,12.99,22.8,16.21,11.3,4.03,24,3.58,35.9,5.37m461.7-123.14c38.6,3.94,78.2,4.84,115.5,14.78m100.4,648.28c4.4-2.6,8-7.25,13.2-7.79,37.4-3.49,314.1-14.6,335.5-15.49m-697.1,72.72c53.2-15.13,111.3-8.24,167-9.67,32.1-.9,64.2-2.15,96.3-3.22m309.8-196.12c57.5-10.84,117.4-6.27,176.2-7.16m-48-193.88c.2,2.6-2.3,7.43.5,7.88,35.2,5.19,71,5.28,106.5,7.88m-239.6,101.11c25.7,4.48,52.2,2.51,78.4,3.04m-42.9-416.16c22.5,3.94,53.5-.63,66.2,16.48m-479.9,49.88c11.7,2.87,22.9,8.69,35.1,8.6,13.1-.09,25.4-6.09,38-9.13m-65.6,148.12c18.1-20.6,35.7-41.55,53.2-62.69m29.8,14.15c0,22.39,1,46.21,1.6,68.69m272.8-18.27c-7.5,13.34-13.6,27.4-17.7,41.91m-742.7,78.36l18.3,71.02m-118.3,295.98c-4.9-2.24-12.6-2.15-14.7-6.72-5.9-13.07-3.6-28.12-7.3-41.91-1.2-4.57-4.9-8.24-7.3-12.36m-78.7-654.19c5,2.69,12.3,3.49,15.1,8.15,5.4,9.04,5,20.06,7.5,30m484.6,69.85c27.3.36,7.2,17.73,19.9,36.09m215.3,304.48c0,3.22-3.8,5.64-4.5,8.78-2.4,11.19-3,22.57-4.5,33.85m293.6-95.91c6.5,1.43,14.1,7.79,19.4,4.21,18.8-12.9,30-32.69,45.5-48.72,11.2-11.64,23-22.93,34.5-34.39m-142.9,164.96c-6.7-6.09-16.2-10.48-20.1-18.18-2.1-4.12,1.8-9.13,4-13.25,5.7-11.1,13.8-21.05,19.9-31.97m-407.4,104.51c7.1,4.39,15.3,7.7,21.3,13.25,8.9,8.15,13.5,43.43,16,54m148-8.96c-5-.72-10.2-3.67-14.9-2.15-2.3.81-8.3,17.1-10,21.31m256.7-582.73c-4.3,6.36-9.5,12.27-12.8,18.99-6.6,13.43-5.2,30.27-9.6,44.51m-248.9,118.03c2.2-9.22,3.7-18.54,6.5-27.58.4-1.16.9,3.4,2.2,3.04m-197.1,76.75c11.2-15.76,7.2,3.94,8.5,12.9m-811.4,91.79c6.8,12.54,9.7,20.15,14.2,32.33m270.8-333.95c-7,2.33-14.3,4.03-21.1,6.9-7.6,3.22-12.2,13.79-15.8,19.79m-286.6,101.2c4-.36,8-1.25,12.1-1.07,4.2.09,4.1,6.63,4.8,10.3,1.9,9.85,3.7,19.79,7.8,29.11m837.5,182.87c1.5.18,4.1-.63,4.5.63,4,12.9,2.1,26.78,3,40.12m-.5-37.52c-3.1,5.64-1,38.87-1.2,46.12m182.9-59.2c-2-.99-5.2-4.75-6.1-2.87-2.9,6.54-1.3,14.06-2,21.13-1.3,12.27-2.8,24.63-4,36.9m19.6-72.18c-2.5,2.06-6.4,3.4-7.4,6.27-2.2,6.45-1.3,13.43-1.8,20.15-1.3,17.64-2.4,35.28-3.7,52.84m33-42.45c-8.4,17.28-7.5,34.39-8.6,53.55-3.1,50.78-4.7,101.64-6.5,152.51m5-165.5c4,9.31,1.5,37.79,1.6,47.11.2,24.45.3,48.9.5,73.34m-616.5-209.11c-7.3-7.52-4.8,8.15-5.1,13.61-.4,9.22-.7,18.45-1,27.58-1.3,42.54-2,85.08-3.1,127.61m-455.9-16.93c5-7.34,1.9-3.94,2.2,13.34.1,7.16.2,14.33.3,21.49.3,20.87.6,41.73,1,62.6m-6.5-23.73c9.4-10.3,5.1-8.15,6.6,11.91.4,5.91.9,11.73,1.3,17.64m24.9-395.65c11.3-19.08,7-2.24,8,12.18m383.9-4.21c2.5-2.96,4.2-6.72,7.6-8.78,1.1-.63,1.3,2.06,1.9,3.22,1.1,2.15,2.2,4.48,3.8,6.36m164.4-64.03c-11.7-6-7.9,6.63-9.7,15.22m-573.9,153.94c-2.7-2.69-4.9-5.82-8-8.06-.3-.27-3.3,4.12-4,4.48-2.6,1.43-5.1-.36-7.3-1.52-5.6-2.87-5.2-12.18-6-17.02m1353-.63c-20.9-2.33-41.8-5.28-62.7-7.07-2.5-.18-9,5.55-12.1,2.78-1.9-1.7-4.9-6.09-2.4-6.72,26.9-6.54,55.3-7.16,82.4-12.81,6.8-1.43-15.1-12.99-8.9-13.34,13.8-.72,10.2,10.75,11.3,20.6.4,3.94,4.8,4.75.5,9.58-2.2,2.51-11.4,2.78-12.2,2.87m-471.1,129.67c10-.45,10.5,7.97,15.2,14.51,13.5,18.9,13.1,44.51,14.3,66.18.4,6.09,2.8,14.15,2.2,20.15-.1.63-1.2,1.34-.6,1.7.4.27,1.6-1.97,1.5-2.33-.6-5.91-1.5-12.18-2.2-18.27-2.3-19.7-3.8-36.72-11.2-55.25-1.5-3.76-8.8-14.06-7.4-17.82m-431.5,208.75c-10.6,1.7,4.1-12.9,6.7-16.84,12-17.64,22-36.09,32.4-54.54,12.7-22.66,25.9-45.58,39.4-67.97,8.7-14.51,23.7-25.88,32-40.39,5.4-9.58,10-24.72,17.8-31.88.9-.81-2.1,1.25-2.9,1.97-1.3,1.16-2.5,2.42-3.6,3.76-3.4,4.3-5.8,9.22-8.9,13.79-8,11.82-11.5,26.87-21.3,37.61-15.4,16.84-22.4,37.88-35.9,55.7-15.3,20.15-31.4,42.45-43.4,64.21-5.4,9.67-10.7,19.25-15.9,28.84-1.3,2.33-7.4,6-6.1,9.49.3.81,4.9-1.88,5-1.88m805.8-594.91c8.4,5.46,17.7,4.21,27.4,7.61,15,5.28,29.9,17.55,38.6,29.64,17.3,24.18,23.7,49.88,24.9,78.27.6,14.51,1.5,29.28-4.5,43.17-8.6,19.88-20.8,32.78-32.7,48.9-3.5,4.75-15.4,7.79-21.2,10.3-3.8,1.7-9.9.63-14.2,1.34m-789-21.58c-26.8,0-53.4,2.6-79-6.27-9.2-3.13-22.8-12.9-30-17.91-13.9-9.67-28.5-19.7-33-35.82-4.8-17.19-5.6-36.09-7-53.73-1.3-16.57-1.8-33.58-1-50.15.3-6.18,1.8-15.05,7-19.7.9-.81,1,10.21,1,10.75v20.6c0,20.42,3,48.81,16,66.27,24,32.24,42.9,45.67,86,61.79,7.3,2.78,38.8,15.05,43,18.81.4.36,0,3.04,0,3.58m-155.8,162.45c-8.7,0-17.9-.9-26-.9-1.4,0-7.3-.63-8,0-1.2,1.07,0,8.33,0,9.85,0,9.67-2,16.66-2,25.97,0,1.97-2.9,9.04-1,10.75,1,.9,11.3-2.15,14-.9.4.18.6.81,1,.9,5.2,1.52,14.6,1.79,20,1.79.3,0,.8.18,1,0,.4-.36.4-8.6,0-8.96-2.8-2.51-19.3.63-23-2.69-.5-.45,0-3.76,0-4.48s-.7-5.64,0-6.27c2.2-1.97,10.8,1.97,13,0,5.6-5.02-5.1-8.96-10-8.96-.3,0-.8.18-1,0-1-.9,0-13.43,0-13.43v.9c0,.45.5.9,1,.9,1.8,0,22.5.45,23,0,2.4-2.15-1.3-3.58-3-3.58m556.6,264.01c-30.9,0-61.9,3.94-93,1.79-18.3-1.25-36.8-4.21-55-6.27-17.7-1.97-36.2,1.79-54,0-20.7-2.06-41.1-6.18-62-8.06-18.3-1.61-36.7.9-55,.9h-99s13.3-4.12,14-4.48c13.6-6.09,28.2-11.91,43-15.22,6.5-1.43,13.3-2.69,20-2.69,2.7,0,10.7,0,8,0-9.2,0-20.5-4.39-29-6.27-3.8-.9-12.4-1.25-15-3.58-1-.9,6.2-1.61,7-1.79,4.4-.99,8.8-2.06,13-3.58,10.2-3.67,20.3-7.25,31-9.85,2-.45,15.8-1.61,18-3.58.2-.18.2-.72,0-.9-5.8-5.19-14.4-7.43-21-11.64-1.4-.9-4.6-3.13-3-3.58,9.2-2.78,31.4-.27,42-.9,2.2-.09,15.5.9,17-1.79.8-1.52-2.6-2.42-4-3.58-7.3-5.82-14-13.16-19-20.6-1.4-2.06-3.2-4.03-4-6.27-.1-.27-.3-.81,0-.9,8.9-2.69,33,6.9,42,9.85.2.09,9.9,2.06,10,1.79,3.6-9.76-1.2-24.18-2-34.03-.1-1.79,0-3.58,0-5.37,0-1.16-1.3-3.58,0-3.58,1.2,0,16.9,11.82,20,13.43.3.18,4.8,2.42,5,1.79,4.5-12.09,1.5-26.87,5-39.4.7-2.33,1.8-10.21,3-10.75,1-.45,3.6,6.45,4,7.16,3.1,6.09,4.8,13.97,8,19.7.3.63,1.5,1.34,2,.9,1.4-1.25.3-3.67,1-5.37,4.8-11.82,9.5-23.82,14-35.82.4-1.16,3-9.85,4-10.75,2.2-1.97,2.4,5.28,3,8.06,1.3,6,2.7,12.18,5,17.91.9,2.15,1.6,8.15,3,6.27,2.9-3.85,2.7-8.96,4-13.43,3.9-13.43,6.5-27.22,12-40.3,1-2.51,2.8-4.75,4-7.16.1-.27,2.6-4.84,3-4.48,3.1,2.78,2.8,16.57,3,17.91,1.1,6.9,5.1,35.11,9,40.3.5.72,1.5-.36,5-8.06,4.4-9.94,8.7-19.97,14-29.55,1-1.79,4-9.4,7-8.06,2.2.99,1,8.69,1,9.85,0,15.4-5.9,27.49-10,42.09-.9,3.31-1.6,6.72-3,9.85-.3.63-1.7,1.61-1,1.79,9.4,2.78,25.5-7.97,34-10.75,5.3-1.7,8.8-3.04,9-2.69,1.1,1.97-2.4,4.57-3,5.37-6.2,7.61-12.6,14.96-19,22.39-1.6,1.88-5,3.04-5,5.37,0,.99,10.6-.81,11-.9,9.6-1.97,19.1-3.58,29-3.58,2.3,0,7-2.06,7,0s-4,2.33-6,3.58c-6.2,3.85-11.7,8.69-17,13.43-2.2,1.97-8.2,4.3-6,6.27,2.8,2.51,8.1,0,12,.9,12.1,2.87,24.1,7.16,36,10.75,3.1.9,6.1,2.24,9,3.58.7.27,2.5.45,2,.9-2.4,2.15-6.6,1.25-10,1.79-11.8,1.79-22.6,4.21-34,7.16-2.7.72-8,.18-8,2.69,0,1.79,4.1.36,6,.9,3.7,1.07,7.3,2.42,11,3.58,11.9,3.67,25.5,8.15,38,9.85,3.6.54,7.7.27,11,1.79.9.45-.7,2.51-1,2.69-3.9,2.06-7.3,2.96-12,3.58-11.2,1.52-22.7.9-34,.9h-7c-2,0-6.9-1.61-6,0,1.9,3.49,7.1,4.57,11,6.27,15.1,6.72,30.9,12.09,46,18.81,5.9,2.6,12.2,4.57,18,7.16.3.09,1.7,1.16,1,1.79-3.1,2.78-11.4,1.79-15,1.79-12,0-24.1-1.25-36-2.69-5-.54-10,0-15,0h-4c-.7,0-2.6-.18-2,0,14.8,3.31,30.3,10.3,43,17.91,8.2,4.84,21.6,14.33,29,14.33m-850.2-432.19c-15.6,65.02-19.4,130.93-19.3,197.38m2.9-89.64c17.8,17.64,38.5,33.31,53.5,53.02,6.3,8.33,6.2,19.34,8.9,29.11,7,25.7,13.4,51.49,20.8,77.11m412.2-321.32c23.7,19.97,48.7,38.78,71.1,59.91,6.2,5.82,14.2,12.36,14.2,20.42,0,12.63-8.3,24.18-14.2,35.64-3.6,7.07-9.5,12.99-14.2,19.52m250.8-221.2c-19,6.54-38.3,12.18-56.9,19.52-25.2,9.94-36.6,33.14-56.9,49.08m-520.1,203.2c6-11.64,21.2-22.66,17.7-35.11-.3-.99-8.1-1.07-8.2-7.88m-9.6,28.03c19.2,6.36,38.7,12,57.6,18.99,10,3.67,19.5,13.97,28.8,19.34l775-172.93,1.6,1.16,2.6,2.06,2.6,2.06,2.6,2.06,2.6,2.06,2.6,1.16,2.6,1.16,2.6.27,2.6.27,2.6.27,1.6.27,1.6.27,1.6,1.16.6,2.06.6,2.06m-970.9,221.02c15.5-23.02,19.5-43.88,43-55.88,27.1-13.79,66.5-12.09,87-34.57m-116.6,63.14c3.9,33.14,6.1,65.91,9.4,99.05m783.3-283.35c-29,32.42-49.3,53.55-69.3,86.96m-121.9-190.66c15.6,15.22,31,30.72,46.9,45.76,4.5,4.21,10.9,5.55,15.6,9.85,9.1,8.33,17.5,17.37,27.1,25.43,19.3,16.21,49.7,21.13,71.5,33.76m-285.1-10.84c13.3-9.58,47.9-46.03,78.2-48.9,33.9-3.22,71.3,11.55,101.1-8.15m12.3-19.79c7.8,19.79,12.8,36,18.2,55.61m-133.4,101.29c2.4-3.85,13.2-39.31,31.4-35.55l209.4,396.73,14.6,2.24,8.6,4.03,8.6-.45m-171.3-300.9c-4.5,1.61-9.4,2.42-13.5,4.75-1.1.63,2.6.54,3.9.72,2.6.27,5.3.45,7.9.72,8.9.81,17.9,1.16,26.8,2.06,1.3.09,9.9.63,9.8,2.06m-20.3-7.61c18,6.81,36.2,13.25,54.1,20.51,3,1.25,5.1,3.76,7.4,5.82.3.27,1.1,1.43.7,1.16-7-5.19,5.4-2.24,7.6-1.52m32.3,34.21c-12.6-8.96-25.5-17.64-37.7-26.96-1.5-1.16-4-2.78-3.4-4.48,1.4-4.03,7.4-5.55,10.1-8.96m-288.2-127.35c-.9,12.99-4.9,26.78-.2,39.14m176.8-156.45c11.5-5.46,23-10.93,34.5-16.48m-523,229.62c16.7,8.06,33,14.33,51,19.34m20.3,20.51c5.4-9.13,10.5-18.27,16.1-27.31,1.3-2.06,4.7-.99,6.4-2.69,2.4-2.33,3.5-5.46,5.8-7.79,3.2-3.13,11.7-5.28,15.8-6.9,14.8-6.09,30.8-10.57,41.2-22.12m716.7-67.26c-20.1-13.7-40.5-26.96-60.2-41.11-2.6-1.88.6-6.54-.4-8.6-2.3-5.02-6.1-7.61-12.2-11.55m56.9,66.27c13.1-10.3,37.9-32.96,57-43.34,7.6-4.12,16-7.34,22.9-12.36m-475,50.69c14.5,9.31,27.3,20.69,41.3,30.54,30.1,21.13,62.5,40.57,93.3,60.99m24.1,216.9c-3.3,2.87-7.2,5.28-10,8.51-.3.36,6.9,3.04,7.2,3.22,2.9,1.43,4.3,4.12,5,6.99,4.2,18.54,17,34.21,21.7,52.84,1.1,4.21,3.9,9.13,1.5,12.9m-815.2-227.92c1.6,17.37.8,35.11,4.7,52.21,1,4.39,5.4,7.88,9.5,10.48,6.8,4.3,43.6,18.36,50.1,20.87m985.5-278.96c-6.7,9.58,3.6,5.82,13.6,6.45m-867.2,126.36c-10.9-26.15-20.7-52.75-32.6-78.54-.7-1.52-4-4.03-4.7-2.51-.2.45,6,9.49,7.7,12m616.3-40.21c-1.5-3.22-5-6.18-4.6-9.67.2-1.7,3.8.36,5.6,1.07,4.4,1.79,8.4,4.3,12.6,6.45,11.9,6.09,19.6,10.3,31.7,13.97m-602.7-23.91c21.4,14.51,43.8,27.94,64.2,43.52,4.7,3.58,10.7,7.88,10.7,13.34,0,7.79-7.6,14.15-10.7,21.4-4.1,9.67-7.1,19.7-10.7,29.46m-62.5,33.76c-12.9-19.34-15.6-36.27-32.8-17.1m238.6-213.41c-5.3,1.52-11.3,1.79-16,4.57-4.5,2.69-7.4,22.75-8,25.61-3,13.88-5.6,27.76-8,41.73m-506,210c19-21.94,30.1-58.21,51.5-29.37,3.5,4.75,6.4,9.94,9.6,14.96m876,236.15c0,2.69,3,4.48,3,7.16m268.9-300.19c-15.8,0-6.2,20.87-9,25.97-4.7,8.33-19.2,10.39-23,20.6-3.1,8.24,1.8,17.37-2,24.18-2.2,3.94-7.5,4.75-10,8.06-1.7,2.33-16.2,24-12,27.76,2.7,2.42,7.8-2.51,9-3.58,6.5-5.82,13.4-12.54,21-17.02,11.6-6.9,4.3-23.28,7-33.14,2.2-7.97,17.2-13.61,23-18.81,2.8-2.51-.1-9.76,2-11.64,4-3.58,8.3-3.58,14-3.58.7,0,1.8-.54,2,0,2.1,5.73,0,15.4,0,21.49,0,.09-.5,8.69,0,8.96,2.6,1.16,6.3,1.07,9,2.69,6.2,3.67,9.3,20.06,10,25.97.9,7.43-3,30.72,8,34.03,3.9,1.16,12.1-.18,14-3.58,1.6-2.87-3.6-6.09-5-8.06-3.1-4.21-4.6-12-6-17.02-2.7-9.76,2.6-20.24,0-29.55-.4-1.61-11.9-14.15-14-17.91-2.8-5.02,5.9-8.78,8-12.54,9.8-17.55,6.5-22.66,27-33.14,3.1-1.52,14.8-5.55,18-2.69,5,4.48,7.8,34.21,3,38.51-3.3,2.96-11.9,1.61-14,5.37-4.2,7.52,17.6,16.48,20,14.33,8.3-7.43,5.5-23.55,7-34.03,2.2-16.12,13.1-28.12-4-40.3-1.3-.9-2.4-3.31-3-3.58s-5.8,0-6,0c-1.1,0-8.7-.81-10,0-3.7,2.24-5.9,7.07-10,8.96-5.7,2.51-13.2.99-19,3.58-5.4,2.42-6.4,12.9-11,17.02-.4.36-2.2,1.61-3,.9-5.9-5.28.7-14.51,3-19.7,3.2-7.25,0-21.49,6-26.87,9.4-8.42,22.9-4.12,32-18.81,11-17.82.2-22.75,3-40.3,2.1-13.25,18.7-24.09,2-34.03-2.8-1.7-6.4-1.07-8,1.79-2.6,4.66,0,15.05,0,20.6s-4.5,7.07-6,12.54c-1.4,5.02,1.8,11.28,0,16.12-8.2,22.03-30.2,21.4-36,42.09-2.6,9.22-3.9,17.73-9,26.87-.6.99-8,8.96-10,5.37-2.2-3.85,1-10.93,0-15.22-2.5-11.37-6.4-21.85-5-34.03.4-4.03,5-9.04,5-12.54,0-1.07-9.6-4.48-11-5.37-6.9-4.48-9.9-10.12-13-17.02-3.1-6.81.8-38.15-16-33.14-2.1.63-2.6,5.91-3,7.16-3.5,10.84-1.3,12.9,2,23.28,1.5,4.75.7,12,3,16.12,3,5.37,9,7.25,10,14.33,1.3,9.13-2,18.27-2,27.76,0,4.66,5.1,9.49,4,13.43-.9,3.4-3,7.79-5,10.75-8.9,13.25-19.2-5.46-26-9.85-8-5.1-14.2-13.07-23-17.02-16.1-7.25-46.7-5.55-52,13.43-2.5,8.96,1.1,14.33,11,16.12,8.7,1.52,15-13.16,26-9.85,3.5,1.07,5.8,5.28,9,7.16,4.6,2.78,10.5,4.21,15,6.27,3.3,1.43,4,5.37,6,7.16,4,3.58,15.9-3.67,19,1.79,4.6,8.24-7.5,14.33-14,16.12-16.9,4.57-42-.09-54,14.33-6.5,7.7-7,21.13-7,30.45,0,2.15.5,8.78,3,9.85,11.2,5.02,14.8-27.58,20-32.24,2.3-2.06,8.8-1.34,12-1.79,8.9-1.34,17.1-5.82,26-7.16,2.8-.45,7.5.18,10-.9,6.2-2.78,11.3-20.33,16-22.39,3.9-1.7,14.8-2.69,19-2.69m-56.9,107.2c0-9.58-28.1-7.43-11-11.64,1.7-.45,3.3-1.34,5-1.79,2.4-.63,6.4-1.79,9-1.79M845.64,306.42c0,6.54-8,17.02-4,24.18,4.7,8.42,31.8,6.63,36-.9,5.4-9.76-4.7-22.93-15-25.97-5.1-1.52-18,.36-18,5.37m319.4,48.18c-1.2,0-5.3-.63-6,0-1.8,1.61-4.2,13.25-2,15.22,2.7,2.42,12.1,2.69,17,2.69,2.3,0,6.3.63,8-.9,15.3-13.7-12.6-29.02-24-18.81m915.7,204.27v2.69m-403.3-260.16c-11.7,0-19,5.19-19,15.22,0,2.96-.2,6.09,2,8.06,2,1.79,6.1,1.79,9,1.79,1.5,0,8.9.99,10,0,9-8.06,7.1-25.08-7-25.08m354.2,257.47c-21.2,0-29.1,17.91-9,26.87,12.5,5.64,33.9-17.91,14-22.39-3.3-.72-4.2-1.79-8-1.79m-1234.1,32.69c0-12.81-.6-25.79,1-38.51.3-2.42-1.1-11.55,1-13.43.7-.63,6.9,0,8,0,1.6,0,8.8-1.07,10,0,.8.72,4.8,9.13,6,10.75,1.3,1.79,4.1,4.57,5,5.37.5.45-1,3.58,1,2.69,9-4.03,15.4-12.9,22-18.81,1.1-.99,7.3,0,9,0,1.6,0,10.9-.99,12,0,1,.9,0,7.61,0,8.96,0,10.75-1,21.85-1,32.24,0,2.06,1.4,10.39,0,11.64-.1.09-6.1-.9-7-.9-1.1,0-8.1.81-9,0-2.4-2.15,2.3-26.6,0-28.66-1-.9-4.2,2.33-5,2.69-5.1,2.33-14.1,6.36-18,9.85-.8.72-3.4-3.94-4-4.48-1.6-1.43-7.5-7.16-10-7.16-2.3,0,0,4.21,0,6.27s-1.5,20.15-2,20.6c-.2.18-.7,0-1,0-2.1,0-20-1.97-20,.9m703.9-321.86c-11.3,0-17.3,13.61-14,22.39,2,5.46,11.4,7.16,17,7.16,2.2,0,8,.9,10,0,14.6-6.54,7.9-25.97-4-29.55-3.4-.99-13.2-2.51-16,0m510.2,303.68v18.81m-313.7,36.99v4.48m101.1,119.02c-7.8,0-18.3,2.96-23,7.16-7.4,6.63-4,18.54,6,21.49,4.7,1.43,11.2,3.04,16,.9,7.7-3.4,7.9-26.87-4-26.87m-225.5-517.18c-10.7,0-15.2,13.97-11,21.49,2.9,5.1,10.8,4.48,16,4.48,2.4,0,5.9,0,8-.9,2.5-1.07,3.8-16.48,2-19.7-1.2-2.15-5.7-6-7-7.16-1.9-1.7-10,.54-10,2.69m99.9,14.24c0-2.42,4.3-10.48,3-11.64-4.7-4.21-23.8-10.03-14-18.81.7-.63,16.2,7.88,18,6.27,4.7-4.21,7.9-18.45,10-24.18.3-.81,4.6-6.63,3-8.06-5.4-4.84-22.7-8.24-30-9.85-2-.45-5.1.72-6-.9-2.2-4.03,6.6-16.75,8-20.6.7-1.79-.1-5.37,2-5.37,5.4,0,13,3.58,18,5.37,2.6.99,5.5,1.52,8,2.69.9.45,2.7,1.79,3,.9,2.4-8.6,2.3-16.57,8-24.18,1.6-2.15-4.5-3.31-7-4.48-15.2-7.25-30.4-14.42-47-18.81-2.3-.63-4.7-.45-7-.9-1.3-.27-4.5.27-4-.9,5.7-12.81,13.1-26.15,20-38.51,2-3.67,7.1-.72,10,0,10.4,2.69,20.7,4.12,31,7.16,23.1,6.9,40.5,19.25,61,30.45,7.9,4.39,17.2,6.54,25,10.75.7.36,5,3.58,5,3.58,0,0-4.8,11.02-5,11.64-1,3.04-1.5,10.3-4,12.54-.3.27-.7-.63-1-.9-4.2-3.76-13.1-5.02-18-8.96-8.5-6.81-16.4-14.6-25-21.49-9.3-7.52-24.6-10.66-36-15.22-6.2-2.51-13.1-4.48-19-7.16-.3-.09-1.2-1.61-2-.9-.7.63.3,1.88,0,2.69-2.1,5.73-.1,5.37,8,8.96,5,2.24,11.3,3.31,16,5.37,3.9,1.7,13.6,11.28,17,14.33,5.6,5.02,11.3,4.39,10,12.54-1.6,9.85-10.4,27.49-21,32.24-7.3,3.22-20-2.24-27,.9-.2.09,11.6,4.93,13,5.37,8.1,2.87,13.1,7.7,10,16.12-4.4,11.73-15.9,23.11-22,34.03-2.8,4.93-9,7.7-9,13.43m-158.7,14.33c-18.8,15.05-26.8,25.34-49,10.66-2.2-1.52-9.7-5.46-10.7-8.15-1.9-5.1,6.9-7.07,10.3-8.15,7.6-2.42,22.7,1.07,29.5,5.19,3.6,2.15.4,12.36.5,15.94m-370.5,129.14c-4.3-2.42-8.3-5.19-12.9-7.25-1.5-.72-3.8,4.21-4.8,5.02-.5.36-4.5.81-2.8,1.43,7.2,2.6,14-5.02,10.7-10.66-4-6.81-10.7-9.13-18.7-10.57m19,81.4c-2.7,4.93-6.1,9.58-8.2,14.78-1.2,3.13,3,10.21,3.9,13.61m97.4-315.41c-1.5,7.88-2,15.49-3.1,23.37m-322,186.99c8.3,12.99,12,20.78,16.6,33.94m-7.6-74.24c1.8-.45,4-2.6,5.3-1.43,3.2,2.78,2,7.88,2.6,11.82,1.8,11.28,2.7,22.93,4,34.3M1610.74,119.61c-11.4.72-5.2,6.9-10.2,14.24m-414.2,117.67c9.2,3.67,6.3,6.63,9.8,14.24m-13-170.87c-2.5,1.34-6.3,1.61-7.4,4.03-2.4,5.02-1.9,10.84-2.5,16.3-3.1,27.85-1.7,56.6-9.9,83.82m443.5-7.7c-2.7,2.87-6.5,5.19-8,8.69-1.7,3.94-.6,8.51-.9,12.72m-135.4,38.96c-.7,4.48-.9,8.78-1.1,13.25m180.9-131.82c-2.2,1.7-4.2,4.03-4.8,6.63m4.7,10.12c-2.7,2.78-6.6,5.02-8.1,8.42-1.9,4.12-1.1,8.87-1.6,13.34m-337.1,431.47c-1.7.18-4.4-.9-5,.45-4.5,9.94-4.6,50.6-5,57.76m-239.5-182.15c13.4,17.37,9.9,35.19,10.7,56.51.8,21.94,1.7,43.79,3.2,65.64m665.6-224.42c9.1,13.7,8.9,30.81,11.4,46.3l105.1,33.85m93.5-95.46l-.7,4.03-.2,6.45-.2,23.46m-176.3-52.75c2.8-8.6,3.2-17.82,3.6-26.78m-7.5-140.6c7.7-14.15,4-31.08,5.4-46.57m-72.4,212.87c4.5-10.39,5.4-21.76,6.4-32.78m433.4,54.09c-1.9-27.31,4.3-53.02,10.3-79.7m-335.6,51.4c4.9-12.81,7-26.33,10.1-39.58m154.6,86.69c-.7-13.52-.5-27.05-.6-40.57m-87.3-24.72c2-18.72.2-37.34,3.9-55.97m-122.5,54.99c1.5,2.15,2.5,8.24,4.6,6.45,3.1-2.6.8-7.61,1.2-11.37.4-5.02.8-9.94,1.2-14.96m-3.5,39.31c1.4,1.79,2.5,6.81,4.3,5.37,2.7-2.15.7-6.45,1.1-9.67m440.9,152.24c-.4-3.76-.6-7.52-1.2-11.19-71.9-438.64,5.1,29.11-.3,2.78-3.1-14.78-.3-29.73-3.3-44.24m-1306.8,15.76c-3.9,18.72-2.1,27.13,1.6,47.37m686-294.1c-4.8,5.91-10.7,11.19-14.3,17.73-4.3,7.88-3.7,17.19-5.7,25.7m556.6,88.93c-4.9-1.97-9.4-7.16-14.7-6-3.8.9-2.9,6.63-3.7,10.12-1.7,7.16-2.4,14.51-3.7,21.76m-105.2-36.54c-2.4,15.49-2.9,30.63-3.4,46.21m-289.6-281.65c4.8,7.52,3.4,16.39,3.9,24.9m441.8-8.96c-13.6,9.31-10,16.66-11.5,32.06m-225.6,568.76c21.4-24.54,37.2-44.69,62.8-66.36m-32.9,14.06c19-21.76,35.9-44.6,55.6-65.91l276.4,105.58,22.3-28.39,22.7-17.64L982.94,216.24l6.3,48.81m-15,419.38c2.9.09,8,2.87,8.7.27,4.3-14.6,2.2-30.09,4.4-45.05.7-5.02,2.9-9.76,4.4-14.6l396.6-105.67m-306.8-21.49v-.9M2131.04,118.09c0,3.22-3.9,5.55-5.1,8.6-3.5,9.31-5.1,19.25-10.2,27.94m102.4,197.91c-8.3,12.63-16.6,25.25-24.9,37.88m-39.4-213.23c-12.7,19.7-14.9,82.21-17.3,100.84m-109.9,13.52c-2.8,18.36-5.5,36.81-9.3,55.08m-15.5-69.58c-8.1,31.16-7.6,63.4-12,95.2m119.4-47.2c-5.2,5.64-11.5,10.57-15.5,16.93-3.8,5.91-5.2,12.81-7.8,19.16m-23.8-217.08c38.3-17.19,98.3-59.73,129.7-49.61m19.3,317.29c8.4-3.58,16-9.67,25.2-10.75,31.4-3.76,63.4-2.42,95.1-3.58m-581.2,352.04c-35-1.34-9.8-.27,82.4-.45,63.4-.09,126.8-.18,190.2-.18M1444.84,222.69c16.1-22.66,77.2,17.55,117.3,23.28l-287.8-90.36-222.3,110.78-2.7,8.96,5.7,5.37m518-76.48l9.4,2.51,324.8,2.87.6,150.9-2.3,3.76-.7.18m212.4-61.88l4.5,15.76-505.4,45.4,6.2,10.93-33.5,1.97,3.3,3.04-3.3,3.94,1.3,9.31-4.3,6.81,1.3,4.12-10.3,3.22-7.7-2.15-10.3-16.48,1.3-20.06-3.3-11.1,2.3-4.84-3.3-3.04,3.3-1.25-3.3-.36,5.3-2.15-.3-6.81,4.3-7.7-3.3-8.6,2.3-5.02-8.3-5.91-4.7-2.33-26.3-2.33-17.7,6.63-11.3,1.25,2.3-1.43-4.3,3.94,3.3,10.21,3.7,12.18,11.3,5.02,8.7,5.02,6.3,3.22-1.3,3.22,5.3,6.81-2.3,8.6.3,10.39-12.3,7.7-.7,4.12-7.3,2.33,2.3,2.33-3-6.45-14.3-13.07-4.7-12.18-5.3-13.97,2.3-14.87-3.3-5.91,1.3-3.22-11.3-5.91.3-2.33-7.3,6.63.3,11.1-3.3,13.07,6.3,5.91,5.7,5.02,6.3,3.22-31.3,5.91-18.7,5.02-.3,3.22,29.3,1.43,10.7.54,3.3.54-12.3-12-24.7-13.79-13.3-5.02,6.3-5.91,16.7-23.82-6.7-5.02-20.3-2.33-4.7-10.39-5.3-10.39-1.7-5.91-11.3-10.39,6.3-5.91,20.7-6.81,35.3-2.33,6.7,6.81,2.3,7.7-16.3,36.36,2.3,19.34,528.6-67.08,4.4-6.63-5.4-3.22,11.4-8.42-3.4.36,7.4-1.25-1.4,1.25,11.4-1.25-3.4,1.25,8.4-.36,6.6,11.1,18.4,6.81.6,3.94,6.4-1.25-5.4,2.15m-1005.1,59.55c0-4.12-.8-12.54,0-15.22,2.2-7.16,12.6-14.15,15-9.85,7,12.54,1.9,27.49-10,34.93-6,3.76-12.8,6.09-19,0-6.9-6.72-10.1-34.93-6-42.99,4.7-9.22,18-12.9,28-14.33,5.3-.72,11.3-3.22,16-.9,9.2,4.48,10.3,21.49,11,29.55,2.2,26.69,4.7,55.79-32,60-47.7,5.55-57.4-42.09-47-74.33,2.1-6.45,12.7-32.15,21-34.03m82.8,332.43c-5.5,4.93-6,4.93-10,16.12-1.3,3.76-10.3,31.25,0,35.82,23.8,10.66,75.7-7.97,86-30.45,3.3-7.34-3-10.75-9-14.33-9.2-5.46-25.6-4.39-36-3.58-2.1.18-16.3,2.24-18,5.37-2.4,4.21-7,15.22-4,19.7,5.8,8.69,39.8,5.64,46-2.69,1.3-1.79-3.7-2.96-6-3.58-3.2-.9-6.6-1.43-10-1.79-2.6-.36-5.3,0-8,0l883-435.41m-109.4,31.79l20.8-4.57,13.7-54.18,2.1-.63-2.1,3.31,2.1,4.75-2.1,12.27,3.1,3.85-2.1,3.31,2.1-.63m-73.2,31.79l11.2-15.05,3.8-.18,3.8-.18,2.8-2.87,2.8,1.61,2.8,2.51,2.8,3.4,3.8-.18,39.8-21.05-2.5,3.49,2.5,1.88-1.5,7.97,2.5,5.46-3.5,7.97.5,2.78-4.5,6.18.5.99-5.5,6.18-2.5,2.78-7.5,7.07.5-1.7-3.5,2.6-2,1.79-4.5,1.88-12.5,6.18-.5-1.7-6.5,2.6-3.5-3.49-4.5-.09-1.5-9.76-4.5-2.78,1.5-5.28-6.5-.09-6.5-5.28-14.5.81-15.5-2.6-18.5,7.97-9.5,1.88-12.5,8.87-5.5,2.78-8.5,6.18,1.5-.81-2.5,3.49,1.5-2.6-6.5,3.49-7.5-1.7-7.5,3.49.5-2.6-3.5,2.6.5-1.7-5.5,3.49,1.5-1.7-2.5,4.39,5.5,2.78,3.5,7.07,11.5.09,10.5,4.39,14.5-1.7,16.5,3.49,11.5-1.7,2.5,3.49,10.5-1.7,4.5,3.49,7.5-2.6,2.5,2.6,4.5-2.6,2.5,2.6,9.5-2.6,4.5,2.6,11.5-2.6,1.5,2.6,3.5-2.6,10.5,3.49,9.5-.81-.5,3.49,2.5,10.84-11.5,17.82-6.5,6.36-7.5,5.28,1.5-2.6h1l7.5.81,16.5-7.07,21.5-2.78,22.5-5.28,12.5,1.7,18.5-4.39,9.5,2.6,13.5-4.39,16.5,1.7,14.5-3.49,1.5,2.6,2.5-4.39-2.5,1.7-2.5-6.18-11.5-5.46-11.5-11.55-9.5-.09-7.5-4.39-16.5,1.7-18.5-5.28-17.5-.99-10.5-7.97-11.5-4.57-10.5-16.03-9.5-6.36-2.5-7.07-4.5,1.7-5.5-.81-18.5,10.66-17.5,5.46-12.5,5.28,1.5-1.7,77.7,355.8,8.8-3.94,5.2-5.02-4.2-11.1-7.8-18.45-23.2-15.58-14.8-6.81-40.2-.36-34.8-2.33-29.2-3.04-7.8-1.43-4.2.54m493.8-149.29c4.4-6,24.7,12.09,27.6,14.15l-532.8,134.69h-70.5l-12.5-.9h-.5.5l13.5,8.96,35.5,21.49,35.5,19.7,22.5,9.85,40.5,11.64,28.5,6.27,37.5,4.48,29.5,3.58,23.5,2.69,11.5,3.58,9.5,1.79,7.5,1.79,18.5,3.58,27.5,3.58,32.5.9h32.5l14.5-1.79,3.5-4.48,2.5-2.69-1.5-1.79-19.5-24.18-36.5-35.82-9.5-11.64-7.5-1.79-6.5-.9-5.5-1.79-10.5-12.54-9.5-19.7-1.5-7.16-5.5-6.27-.5-4.48-2.5-3.58,4.5-8.06,9.5-9.85,17.5-7.16,8.5-2.69,6.5-1.79,3.5-1.79,4.5-1.79,1.5-.9,2.5-.9.5-1.79,13.5-8.06,11.5-7.16,14.5-4.48,11.5-2.69,9.5-1.79,14.5-6.27,15.5-3.58,14.5-2.69,15.5-1.79,7.5-1.79,12.5-3.58,7.5-4.48,11.5-4.48,10.5-5.37,12.5-5.37,10.5-7.16,13.5-5.37,14.5-3.58,9.5-.9h22l9.5,8.06,4.5,6.27-.5,7.16,1.5,4.48-3.5,1.79-7.5,3.58-23.5,6.27-16.5,2.69-16.5-2.69-4.5-2.69h-5.5l-8.5.9-10.5,2.69-6.5,1.79h-29.5l-8.5.9-5.5,1.79-4.5,1.79-19.5,2.69-7.5,1.79-8.5,1.79h-5,.5l-5.5,1.79-.5.9h-5.5l-6.5,1.79-8.5,1.79-8.5,2.69h-12l-6.5.9-2.5,1.79h-2l-4.5-5.37-.5-10.75-1.5-17.02,1.5-8.96-.5-10.75,2.5-3.58-1.5-.9,1.5-2.69-1.5-6.27-.5-11.64-4.5-2.69h-.5l-5.5.9-2.5,3.58-4.5,5.37.5,5.37,2.5,8.96,10.5,9.85,5.5,9.85,4.5,4.48-1.5,1.79,1.5,3.58-1.5,7.16,1.5,7.16-1.5,2.69-1,3.58.5,1.79-1.5.9-1,1.79-.5.9h-18.5l-8.5-1.79-13.5-3.58-6.5-5.37-6.5-7.16-1.5-6.27-8.5-12.54-5.5-8.96-12.5-3.58-8.5-1.79h-7.5l-1.5,1.79-2.5,5.37,1.5,8.96,5.5,15.22,16.5,11.64,9.5,8.06,9.5,8.96,6.5,11.64,5.5,8.96-.5,5.37,1.5,1.79h-5.5l-13.5-10.75-26.5-37.61-8.5-26.87-6.5-13.43-1.5-4.48-5.5-.9-13.5-1.79h-19l-5.5,9.85-1.5,5.37-1.5,4.48,5.5,5.37,16.5,8.06,21.5,5.37,14.5,7.16,19.5,17.02,4.5,8.06,4.5,5.37,2.5,6.27,7.5,3.58,6.5,3.58,5.5.9h10.5l30.5-3.58h17.5l11.5-.9,6.5-1.79,11.5-1.79,2.5-1.79,9.5-3.58,4.5-1.79,18.5-5.37,11.5-5.37,29.5-3.58h20.5l9.5,2.69-.5.9,1.5,2.69-5.5,8.06-12.5,8.06h-21.5l-15.5-2.69-12.5-2.69h-11.5l-27.5,3.58-5.5,1.79-6.5,2.69-.5.9-5,1.79-6.5.9-.5,1.79-3.5,3.58-2.5,5.37-3.5,2.69,1.5.9-2,4.48-.5,22.39,10.5,18.81,8.5,13.43,8.5,8.96,1.5,4.48,8.5,4.48,6.5,2.69,13.5,8.06,4.5,9.85,2.5,7.16,1.5.9,11.5-5.37,1.5-8.06-9.5-12.54-25.5-12.54-12.5-7.16-12.5-8.06-15.5-21.49-5.5-8.96,1.5-.9-950.1-347.02,7-13.52-7-20.51-28-24.27-23-1.7-7-.09m-34.8,9.85l-11.2,8.78-23.8,13.88-13.8,26.42.2,23.73,16.2,15.67,33.2,7.61m1074.4,526.94c71.4-3.49,143-4.03,214.5-6.09,21.3-.63,49.9,8.6,63.5-6.09,1-.99,1.1-2.69.7-3.94-4.2-15.22-12.2-29.64-14.3-45.14-8.1-61.17,3.1-66.99,11.5-126.09,2.1-14.78,1.5-29.73,2.5-44.6m-512.1,258.18c-18.6-9.13-6.1-2.06,44.2-4.3m501.1-257.92c0,54.99.1,111.5-2.8,166.48L1671.94,103.31l407,287.29-221.1,43.17-80.9,63.76"/>
  <path class="cls-11" d="m565.43,689.24v104l-9,6-20,4h-16l-37,3h-67l-31-9-29-18-17-13-9-7m167,43h-147M17.43,610.24v12l3,9,8,13,9,17,10,19,11,19,12,18,13,13,11,8,7,4,11,6,3,1,2,1,2,1h13l8-2,6-1,6-3,5-2,3-1,2-1,2-1,3-2,2-1h1v-1h1l1-1,3-2,6-6,7-5,8-5,11-5,15-10,11-10,11-11,8-10,5-6,10-10,6-6,5-7,4-5,5-5,4-4,5-6,6-5,8-6,11-7,21-19,13-12,38-24,29-14,35-10,24-7,24-7,19-5,19-6,13-3,11-1,6-1h4m-224,256h-33c-.67,0-2.47.47-2,0,2.52-2.52,29.14-7.08,33-8,2.67-.64,5.3-1.46,8-2,3.01-.6,6.02-1.25,9-2,.91-.23,2.77-1.45,2-2-14.93-10.67-32.18-16.4-47-28-4.67-3.66-9.06-7.71-14-11-1.18-.78-4.39-2.72-3-3,18.15-3.63,39.72,3.48,58,5,4.99.42,10,.75,15,1,1.66.08,3.33,0,5,0,.67,0,2.37.55,2,0-4.7-7.05-31.97-26.98-40-34-2.67-2.33-5.38-4.62-8-7-1.58-1.44-3.22-2.82-5-4-.39-.26-1.46-.89-1-1,12.07-3.02,26.72,2.53,38,6,4.2,1.29,11.45,4.09,12,3,1.74-3.48-4.38-6.47-6-10-5.06-11.03-9.16-22.49-13-34-1.97-5.91-3.49-11.96-5-18-.49-1.97-.56-4.02-1-6-.23-1.03-1.88-3.58-1-3,11.41,7.6,28.56,30.74,38,41,3.19,3.47,6.55,6.79,10,10,1.22,1.13,2.7,1.96,4,3,.74.59,1.87,2.93,2,2,1.29-9.02-2.76-20.12-4-28-2.61-16.63-4.72-33.33-7-50-1.78-12.99-3.01-26.05-5-39-.52-3.36-1.52-6.63-2-10-.24-1.65,0-6.67,0-5,0,7.84,16.59,36.92,20,44,4.06,8.43,5.24,11.85,9,20,.62,1.35,1.45,2.62,2,4,.28.69.67,2.67,1,2,1.76-3.51,1.56-15.14,2-18,1.76-11.44,5.15-22.58,7-34,1.45-8.94,1.72-18.04,3-27,.39-2.72,1.13-5.39,2-8,.11-.32-.15-1.3,0-1,5.36,10.72,2.72,38.72,10,46,.72.72,9.72-10.74,10-11,7.74-7.19,11.7-8.32,21-14,2.05-1.25,4-2.67,6-4,1-.67,1.93-1.46,3-2,.67-.33,2.53-1.53,2-1-6.05,6.05-8.21,16.04-11,24-2.47,7.07-5,14.14-8,21-1.02,2.33-2.06,4.64-3,7-.55,1.38-3.47,3.75-2,4,21.15,3.52,43.79-3.42,65,1,6.61,1.38,17.81,4.71,22,11,2.11,3.16-5.39,5.8-9,7-14.2,4.73-30.3,3-45,3h-15c-.33,0-1.26-.21-1,0,16.93,13.55,32.6,27.68,47,44,3.76,4.26,11,7.32,11,13,0,3.02-6.14-.05-9-1-22.05-7.35-42.5-19.27-64-28-5.57-2.26-11.35-3.95-17-6-1.29-.47-4-2.37-4-1,0,5.43,7.32,8.02,11,12,20.62,22.29,40.4,44.83,60,68,3.97,4.69,8.02,9.32,12,14,1.69,1.98,3.44,3.92,5,6,.72.96,2.85,2.15,2,3-4.22,4.22-10.69-5.28-16-8-16.06-8.22-32.25-16.2-48-25-4.3-2.4-8.6-4.8-13-7-4.94-2.47-10.01-4.65-15-7-1.09-.51-3.85-2.85-3-2,13.94,13.94,26.83,29.29,40,44,1.9,2.12,13,12.8,13,17,0,3.68-7.51.16-11-1-4.95-1.65-9.33-4.67-14-7-14.02-7.01-27.89-14.41-41-23-3.77-2.47-16.33-15-22-15-6.87,0,8.92,10.47,13,16,9.4,12.74,17.4,26.6,24,41,.45.98,10.14,16.86,7,20-2.03,2.03-4.74-3.24-7-5-13.25-10.31-25.51-20.76-38-32-1.94-1.74-4.04-3.29-6-5-1.06-.93-2-4-3-3-2.13,2.13.65,6,1,9,1.4,11.92,2.96,24.07,4,36,.4,4.65,0,9.33,0,14,0,1.33,1.33,4,0,4-1.41,0-5.82-6.8-6-7-4.74-5.27-10.34-9.76-16-14-1.33-1-2.82-4.18-4-3-2.11,2.11-4.21,12.98-5,15-4.15,10.68-9.2,21.22-13,32-.91,2.59-1.06,5.42-2,8-.61,1.69-2,5-2,5,0,0-.18-6.01,0-9,.22-3.68.68-7.33,1-11,.93-10.69,1.24-21.31,2-32,.17-2.33,1.65-5.35,0-7-1.4-1.4-5.15.85-7-1l-76,50h-16l-38-5-41-8-21-4-10-1-8-1h-2l10-1,40-2,65-1h195l14-2,11-4,6-1,3-1-157-17-5-4-6-1-20-1h-27l-18,6-27,22-8,16-8,17-10,11-19,6-33-5-23-14-10-9-6-6-5-11v-9l-1-10v-11m384,20h160m147-170c0,50.31,5.82,99.87,8,150m-193-22c-5.01,0-1,9.99-1,15v32c0,2-1.49,4.67,0,6,3.83,3.41,30.63,2.06,31,2,55.95-9.33,59.91-8.42,100-32,6.61-3.89,12.74-8.56,19-13,4.08-2.89,8.14-5.82,12-9,2.57-2.12,7.71-5.14,6-8-.77-1.28-2.52-1.81-4-2-11.28-1.48-22.63-2.51-34-3-53.39-2.29-108.4-5.28-158,18-16.63,7.81-21.13,13.17-32,27-3.26,4.14-6.01,8.66-9,13-1.02,1.48-3.72,5.5-2,5,38.7-11.29,78.88-30,115-47,16.59-7.81,33.2-15.7,49-25,6.96-4.09,12.66-10.01,19-15,2.99-2.35,6.11-4.53,9-7,1.79-1.53,3.33-3.33,5-5,.33-.33,1.42-1.21,1-1-11.27,5.64-20.21,15.06-30,23-29.67,24.08-67.69,46.32-88,80-5.35,8.88-14.44,42.34-6,55,18.92,28.38,64.23-5.53,78-16,29.43-22.37,55.55-49.59,79-78,14.48-17.54,27-36.67,39-56,3.41-5.5,7.53-10.54,11-16,1.2-1.89,1.89-4.06,3-6,.23-.41,1-1.47,1-1,0,10.42-4.69,16.77-9,27m-37-224h-11m26,4c-20.35,0-41.72,1.74-62,0-8.1-.69-18.34-3.45-26-6-.63-.21-1.4-.3-2,0-.33.16,0,24.23,0,25,0,19.67,1.27,39.37,0,59-1.19,18.41-7.66,53.83-12,75-.89,4.36-1.83,8.71-3,13-.83,3.05-2,6-3,9-.38,1.14-2,4.2-2,3,0-4.77,8.65-4.04,13-6,31.08-13.99,61.9-25.55,95-34,6.97-1.78,13.98-3.44,21-5,3-.67,9-2,9-2,0,0-5.31,2.71-8,4-7.26,3.49-14.46,7.17-22,10-34.82,13.06-71.01,21.2-107,30-9.83,2.4-19.29,6.14-29,9-2.26.67-5.33,2.67-7,1-1.18-1.18,0-3.33,0-5,0-9.02-.38-11.9,2-22,1.59-6.78,3.61-13.46,6-20,2.62-7.15,5.5-14.24,9-21,13.33-25.77,23.7-23.51,53-26,15.97-1.36,31.99-2.09,48-3,5.7-.33,11.33-1.37,17-2,1.33-.15,5.33,0,4,0-11.62,0-22.11,6.89-33,10-9.35,2.67-30.7,6.13-40,7-3.65.34-7.33,0-11,0-2,0-5.61,1.96-6,0-2.31-11.55,2.91-31.77,4-43,2.67-27.55,7-56.21,7-84,0-.75,1.27.83,2,1,3.7.85,7.34,1.99,11,3,12.8,3.53,25.44,7.68,38,12,6.68,2.3,13.3,4.77,20,7,1.3.43,2.64.77,4,1,.66.11,2.67,0,2,0h-33c-.85,0-10-1.25-10,1l24-5"/>
  <path class="cls-2" d="m544.1,254.88h37.15l30.78-2.38,35.02-3.57,33.96-5.95,36.08-3.57,33.96-3.57,18.04-1.19,12.74-1.19m-100.82-51.15v14.27m-16.98-134.41h-109.31c-1.77,0-4.51-1.77-5.31,0-1,2.25,1.43,4.75,2.12,7.14,3.21,11.1,6.19,22.27,9.55,33.3,11.3,37.02,23.86,73.54,35.02,110.62,6.48,21.52,11.65,43.51,16.98,65.42,1.86,7.62,1.38,17.01,6.37,22.6.25.29.18-.86,0-1.19-2.67-4.86-5.83-9.4-8.49-14.27-5.13-9.4-10.25-18.82-14.86-28.55-11.48-24.25-22.71-50.15-30.78-76.12-1.26-4.06-5.1-16.88-4.25-17.84,2.5-2.81,7.08-.13,10.61,0,7.79.29,15.68-.32,23.35,1.19,20.72,4.07,41.06,10.18,61.55,15.46,13.23,3.4,21.94,6.2,35.02,10.71,3.21,1.11,6.37,2.38,9.55,3.57,1.5.56,5.82,2.2,4.25,2.38-28.93,3.25-58.42-9.87-87.03-13.08-12.54-1.4-25.66-.98-38.21-2.38-3.59-.4-7.05-1.76-10.61-2.38-1.4-.24-4.58-1.53-4.25,0,3.62,16.21,11.92,30.66,16.98,46.39,6.94,21.59,12.63,43.65,19.1,65.42,2.82,9.5,5.67,19.04,8.49,28.55.71,2.38.04,8.06,2.12,7.14,7.69-3.45,12.2-12.69,19.1-17.84,3.6-2.69,36.79-22.6,40.33-22.6l120.99-53.53h14.86l3.18-1.19h4.25v-1.19m-92.33-126.08v190.31m-120.99-158.2h0l9.55-1.19,14.86-3.57,28.65-5.95,20.16-5.95,16.98-5.95,16.98-5.95m61.55,44.01h-89.15l-19.1-3.57-22.29-4.76-10.61-2.38-11.67-3.57m216.5,47.58l-7.43-3.57-20.16-7.14-35.02-15.46-28.65-11.89-21.23-7.14-19.1-3.57m105.07,249.78v-2.38l-1.06,3.57-1.06,2.38-1.06,1.19v1.19h-1.06v1.19m-109.31-61.85c4.64-28.62,14.41-55.25,21.23-83.26,6.03-24.78,10.95-49.87,15.92-74.94,1.87-9.42,2.56-19.09,4.25-28.55.37-2.09,2.12-5.95,2.12-5.95,0,0,.38,2.57,1.06,3.57,3.07,4.47,6.48,8.62,9.55,13.08,24.17,35.11,45.56,71.34,65.8,109.43,4.47,8.41,9.22,16.64,13.8,24.98,1.08,1.97,5.03,4.91,3.18,5.95-6.14,3.44-13.45-3.14-20.16-4.76-17.37-4.17-34.92-7.61-52-13.08-11.51-3.69-22.73-8.45-33.96-13.08-2.1-.87-4.28-1.5-6.37-2.38-.74-.31-2.83-1.58-2.12-1.19,10.31,5.77,16.06,18.56,23.35,28.55,17.94,24.57,36.19,49.45,53.06,74.94,2.38,3.59,14.86,19.88,14.86,24.98l-116.74-255.73h-6.37l-74.29,2.38h-8.49l112.5-29.74,5.31-2.38h3.18v206.96l2.12,3.57v1.19"/>
</svg>