<svg version="1.1" xmlns="http://www.w3.org/2000/svg" xmlns:xlink="http://www.w3.org/1999/xlink" width="1728" height="1000" viewBox="0,0,1728,1000"><g fill-opacity="0.4" fill="#7e44ee" fill-rule="nonzero" stroke="#000000" stroke-width="2" stroke-linecap="butt" stroke-linejoin="miter" stroke-miterlimit="10" stroke-dasharray="" stroke-dashoffset="0" font-family="none" font-weight="none" font-size="none" text-anchor="none" style="mix-blend-mode: normal"><path d="M442,660.51635c168.22912,-7.87603 207.72444,-358.13289 375,-338.58918c137.91852,16.11377 -352.85665,357.39969 -214,357.39969c189.99138,0 254.38099,-345.51025 444,-357.39969c140.54066,-8.81214 -383.63038,326.61963 -244,344.85935c167.51202,21.88185 219.09658,-322.77341 388,-326.04884c106.15492,-2.05859 106.15492,320.58322 0,318.52463c-168.90342,-3.27542 -220.48798,-347.93069 -388,-326.04884c-139.63038,18.23971 384.54066,353.67148 244,344.85935c-189.61901,-11.88943 -254.00862,-357.39969 -444,-357.39969c-138.85665,0 351.91852,341.28591 214,357.39969c-167.27556,19.54372 -206.77088,-330.71315 -375,-338.58918c-106.89382,-5.00448 -106.89382,326.03718 0,321.0327z"/></g></svg>