<svg version="1.1" xmlns="http://www.w3.org/2000/svg" xmlns:xlink="http://www.w3.org/1999/xlink" width="1406" height="710" viewBox="0,0,1406,710"><g fill="none" fill-rule="nonzero" stroke="none" stroke-width="none" stroke-linecap="butt" stroke-linejoin="miter" stroke-miterlimit="10" stroke-dasharray="" stroke-dashoffset="0" font-family="none" font-weight="none" font-size="none" text-anchor="none" style="mix-blend-mode: normal"><path d="M15.35004,106.79478l13.76104,2.57563l4.64996,13.20522l-9.11108,10.62959l-13.76104,-2.57563l-4.64996,-13.20522z" fill="#ffc0cb" stroke="none" stroke-width="1"/><path d="M34.82495,123.48755l13.76104,2.57563l4.64996,13.20522l-9.11108,10.62959l-13.76104,-2.57563l-4.64996,-13.20522z" fill="#ffc0cb" stroke="none" stroke-width="1"/><path d="M54.29985,140.18033l13.76104,2.57563l4.64996,13.20522l-9.11108,10.62959l-13.76104,-2.57563l-4.64996,-13.20522z" fill="#ffc0cb" stroke="none" stroke-width="1"/><path d="M73.77476,156.87311l13.76104,2.57563l4.64996,13.20522l-9.11108,10.62959l-13.76104,-2.57563l-4.64996,-13.20522z" fill="#ffc0cb" stroke="none" stroke-width="1"/><path d="M82.94507,178.52145l-1.06408,-13.9595l11.55725,-7.90127l12.62132,6.05823l1.06408,13.9595l-11.55725,7.90127z" fill="#ffc0cb" stroke="none" stroke-width="1"/><path d="M94.04461,155.39741l-1.06408,-13.9595l11.55725,-7.90127l12.62132,6.05823l1.06408,13.9595l-11.55725,7.90127z" fill="#ffc0cb" stroke="none" stroke-width="1"/><path d="M105.14414,132.27338l-1.06408,-13.9595l11.55725,-7.90127l12.62132,6.05823l1.06408,13.9595l-11.55725,7.90127z" fill="#ffc0cb" stroke="none" stroke-width="1"/><path d="M116.24368,109.14934l-1.06408,-13.9595l11.55725,-7.90127l12.62132,6.05823l1.06408,13.9595l-11.55725,7.90127z" fill="#ffc0cb" stroke="none" stroke-width="1"/><path d="M127.34322,86.0253l-1.06408,-13.9595l11.55725,-7.90127l12.62132,6.05823l1.06408,13.9595l-11.55725,7.90127z" fill="#ffc0cb" stroke="none" stroke-width="1"/><path d="M138.44275,62.90127l-1.06408,-13.9595l11.55725,-7.90127l12.62132,6.05823l1.06408,13.9595l-11.55725,7.90127z" fill="#ffc0cb" stroke="none" stroke-width="1"/><path d="M94.30421,166.67807l9.38502,10.38852l-4.30421,13.32193l-13.68923,2.93341l-9.38502,-10.38852l4.30421,-13.32193z" fill="#ffc0cb" stroke="none" stroke-width="1"/><path d="M99.30421,190.01141l9.38502,10.38852l-4.30421,13.32193l-13.68923,2.93341l-9.38502,-10.38852l4.30421,-13.32193z" fill="#ffc0cb" stroke="none" stroke-width="1"/><path d="M104.30421,213.34474l9.38502,10.38852l-4.30421,13.32193l-13.68923,2.93341l-9.38502,-10.38852l4.30421,-13.32193z" fill="#ffc0cb" stroke="none" stroke-width="1"/><path d="M109.30421,236.67807l9.38502,10.38852l-4.30421,13.32193l-13.68923,2.93341l-9.38502,-10.38852l4.30421,-13.32193z" fill="#ffc0cb" stroke="none" stroke-width="1"/><path d="M114.30421,260.01141l9.38502,10.38852l-4.30421,13.32193l-13.68923,2.93341l-9.38502,-10.38852l4.30421,-13.32193z" fill="#ffc0cb" stroke="none" stroke-width="1"/><path d="M119.30421,283.34474l9.38502,10.38852l-4.30421,13.32193l-13.68923,2.93341l-9.38502,-10.38852l4.30421,-13.32193z" fill="#ffc0cb" stroke="none" stroke-width="1"/><path d="M124.30421,306.67807l9.38502,10.38852l-4.30421,13.32193l-13.68923,2.93341l-9.38502,-10.38852l4.30421,-13.32193z" fill="#ffc0cb" stroke="none" stroke-width="1"/><path d="M122.40576,188.24363l8.97844,7.96164l-2.40576,11.75637l-11.3842,3.79473l-8.97844,-7.96164l2.40576,-11.75637z" fill="#ffc0cb" stroke="none" stroke-width="1"/><path d="M129.85065,210.82646l8.41889,8.55115l-3.19607,11.56655l-11.61496,3.0154l-8.41889,-8.55115l3.19607,-11.56655z" fill="#ffc0cb" stroke="none" stroke-width="1"/><path d="M135.70902,233.8963l7.78375,9.13309l-4.01761,11.30747l-11.80136,2.17438l-7.78375,-9.13309l4.01761,-11.30747z" fill="#ffc0cb" stroke="none" stroke-width="1"/><path d="M139.64515,256.96424l7.72692,9.18121l-4.0877,11.28232l-11.81463,2.1011l-7.72692,-9.18121l4.0877,-11.28232z" fill="#ffc0cb" stroke="none" stroke-width="1"/><path d="M142.58728,278.41071l10.37757,6.02545l-0.02941,11.99996l-10.40698,5.97452l-10.37757,-6.02545l0.02941,-11.99996z" fill="#ffc0cb" stroke="none" stroke-width="1"/><path d="M147.7578,298.73224l0.71311,-11.97879l10.73049,-5.37183l10.01739,6.60696l-0.71311,11.97879l-10.73049,5.37183z" fill="#ffc0cb" stroke="none" stroke-width="1"/><path d="M158.90584,280.06999l-2.55603,-11.72462l8.8758,-8.0759l11.43183,3.64872l2.55603,11.72462l-8.8758,8.0759z" fill="#ffc0cb" stroke="none" stroke-width="1"/><path d="M165.65088,258.33124l-3.74349,-11.40115l8.00194,-8.94253l11.74543,2.45862l3.74349,11.40115l-8.00194,8.94253z" fill="#ffc0cb" stroke="none" stroke-width="1"/><path d="M170.28567,236.00693l-4.82868,-10.98562l7.09948,-9.67457l11.92817,1.31105l4.82868,10.98562l-7.09948,9.67457z" fill="#ffc0cb" stroke="none" stroke-width="1"/><path d="M173.77177,214.42004l-7.94465,-8.99347l3.81625,-11.377l11.7609,-2.38353l7.94465,8.99347l-3.81625,11.377z" fill="#ffc0cb" stroke="none" stroke-width="1"/><path d="M176.11302,200.16222l7.99366,8.94994l-3.75404,11.39768l-11.7477,2.44775l-7.99366,-8.94994l3.75404,-11.39768z" fill="#ffc0cb" stroke="none" stroke-width="1"/><path d="M180.86355,222.91283l8.17808,8.78174l-3.51617,11.4733l-11.69425,2.69156l-8.17808,-8.78174l3.51617,-11.4733z" fill="#ffc0cb" stroke="none" stroke-width="1"/><path d="M186.06499,245.49113l8.46291,8.5076l-3.13634,11.58289l-11.59925,3.07529l-8.46291,-8.5076l3.13634,-11.58289z" fill="#ffc0cb" stroke="none" stroke-width="1"/><path d="M191.90635,267.70525l9.01919,7.91544l-2.34538,11.76857l-11.36457,3.85313l-9.01919,-7.91544l2.34538,-11.76857z" fill="#ffc0cb" stroke="none" stroke-width="1"/><path d="M189.6077,294l10.3923,-6l10.3923,6v12l-10.3923,6l-10.3923,-6z" fill="#ffc0cb" stroke="none" stroke-width="1"/><path d="M202.40576,188.24363l8.97844,7.96164l-2.40576,11.75637l-11.3842,3.79473l-8.97844,-7.96164l2.40576,-11.75637z" fill="#ffc0cb" stroke="none" stroke-width="1"/><path d="M210.30129,212.09162l8.7413,8.22129l-2.74919,11.68084l-11.4905,3.45955l-8.7413,-8.22129l2.74919,-11.68084z" fill="#ffc0cb" stroke="none" stroke-width="1"/><path d="M217.48025,236.18944l8.46366,8.50684l-3.13531,11.58317l-11.59898,3.07632l-8.46366,-8.50684l3.13531,-11.58317z" fill="#ffc0cb" stroke="none" stroke-width="1"/><path d="M223.74441,260.39356l8.38101,8.58829l-3.24717,11.55231l-11.62818,2.96402l-8.38101,-8.58829l3.24717,-11.55231z" fill="#ffc0cb" stroke="none" stroke-width="1"/><path d="M229.38952,283.78643l9.62882,7.16142l-1.38756,11.91951l-11.01638,4.75809l-9.62882,-7.16142l1.38756,-11.91951z" fill="#ffc0cb" stroke="none" stroke-width="1"/><path d="M220.28746,292.63853l-8.62431,-8.34394l2.9139,-11.64084l11.53822,-3.2969l8.62431,8.34394l-2.9139,11.64084z" fill="#ffc0cb" stroke="none" stroke-width="1"/><path d="M213.57216,268.23708l-8.10377,-8.85036l3.61275,-11.44325l11.71652,-2.59289l8.10377,8.85036l-3.61275,11.44325z" fill="#ffc0cb" stroke="none" stroke-width="1"/><path d="M208.23162,243.67117l-7.8123,-9.10867l3.98219,-11.31999l11.79449,-2.21132l7.8123,9.10867l-3.98219,11.31999z" fill="#ffc0cb" stroke="none" stroke-width="1"/><path d="M202.69072,215.34244l-1.80286,-11.8638l9.37292,-7.49322l11.17578,4.37057l1.80286,11.8638l-9.37292,7.49322z" fill="#ffc0cb" stroke="none" stroke-width="1"/><path d="M223.92098,187.64885l11.81162,-2.11791l7.73998,9.17021l-4.07165,11.28812l-11.81162,2.11791l-7.73998,-9.17021z" fill="#ffc0cb" stroke="none" stroke-width="1"/><path d="M245.90959,208.01018l5.76011,10.52716l-6.23673,10.25198l-11.99684,-0.27518l-5.76011,-10.52716l6.23673,-10.25198z" fill="#ffc0cb" stroke="none" stroke-width="1"/><path d="M245.4515,232.18366l7.10089,9.67354l-4.82709,10.98632l-11.92798,1.31278l-7.10089,-9.67354l4.82709,-10.98632z" fill="#ffc0cb" stroke="none" stroke-width="1"/><path d="M248.09186,255.71836l9.08804,7.8363l-2.24242,11.78862l-11.33045,3.95232l-9.08804,-7.8363l2.24242,-11.78862z" fill="#ffc0cb" stroke="none" stroke-width="1"/><path d="M255.44757,277.25457l11.51538,3.37581l2.83415,11.66051l-8.68123,8.2847l-11.51538,-3.37581l-2.83415,-11.66051z" fill="#ffc0cb" stroke="none" stroke-width="1"/><path d="M269.6077,294l10.3923,-6l10.3923,6v12l-10.3923,6l-10.3923,-6z" fill="#ffc0cb" stroke="none" stroke-width="1"/><path d="M298.28874,101.87736l-9.43047,-7.42067l1.71126,-11.87736l11.14172,-4.45669l9.43047,7.42067l-1.71126,11.87736z" fill="#ffc0cb" stroke="none" stroke-width="1"/><path d="M290.27846,82.07331l-10.81856,-5.19218l-0.91272,-11.96524l9.90584,-6.77306l10.81856,5.19218l0.91272,11.96524z" fill="#ffc0cb" stroke="none" stroke-width="1"/><path d="M281.40043,63.8212l-11.48895,3.46467l-8.74497,-8.21739l2.74398,-11.68206l11.48895,-3.46467l8.74497,8.21739z" fill="#ffc0cb" stroke="none" stroke-width="1"/><path d="M265.36956,59.07066l3.94657,11.33246l-7.84091,9.08406l-11.78748,-2.2484l-3.94657,-11.33246l7.84091,-9.08406z" fill="#ffc0cb" stroke="none" stroke-width="1"/><path d="M261.84604,80.38176l5.77611,10.51839l-6.22114,10.26145l-11.99725,-0.25694l-5.77611,-10.51839l6.22114,-10.26145z" fill="#ffc0cb" stroke="none" stroke-width="1"/><path d="M261.48589,102.63602l6.36037,10.17574l-5.63226,10.59611l-11.99263,0.42038l-6.36037,-10.17574l5.63226,-10.59611z" fill="#ffc0cb" stroke="none" stroke-width="1"/><path d="M262.32153,125.02053l6.68617,9.9647l-5.28659,10.77274l-11.97276,0.80804l-6.68617,-9.9647l5.28659,-10.77274z" fill="#ffc0cb" stroke="none" stroke-width="1"/><path d="M263.85836,147.41447l6.92867,9.79763l-5.02066,10.89922l-11.94933,1.10159l-6.92867,-9.79763l5.02066,-10.89922z" fill="#ffc0cb" stroke="none" stroke-width="1"/><path d="M265.97303,169.27106l7.92158,9.0138l-3.84539,11.36719l-11.76697,2.35339l-7.92158,-9.0138l3.84539,-11.36719z" fill="#ffc0cb" stroke="none" stroke-width="1"/><path d="M270.40389,191.42533l7.92158,9.0138l-3.84539,11.36719l-11.76697,2.35339l-7.92158,-9.0138l3.84539,-11.36719z" fill="#ffc0cb" stroke="none" stroke-width="1"/><path d="M273.92656,213.05221l8.9801,7.95976l-2.4033,11.75688l-11.3834,3.79712l-8.9801,-7.95976l2.4033,-11.75688z" fill="#ffc0cb" stroke="none" stroke-width="1"/><path d="M280.91915,233.73769l9.93959,6.72343l-0.85286,11.96965l-10.79246,5.24622l-9.93959,-6.72343l0.85286,-11.96965z" fill="#ffc0cb" stroke="none" stroke-width="1"/><path d="M290.56265,253.38778l10.6785,5.47446l0.59823,11.98508l-10.08027,6.51062l-10.6785,-5.47446l-0.59823,-11.98508z" fill="#ffc0cb" stroke="none" stroke-width="1"/><path d="M302.50538,271.76154l11.24339,4.1936l1.98993,11.83386l-9.25346,7.64026l-11.24339,-4.1936l-1.98993,-11.83386z" fill="#ffc0cb" stroke="none" stroke-width="1"/><path d="M316.01432,288.68124l11.79517,2.20768l3.98568,11.31876l-7.8095,9.11108l-11.79517,-2.20768l-3.98568,-11.31876z" fill="#ffc0cb" stroke="none" stroke-width="1"/><path d="M229.06225,165.06385l9.74371,-7.0043l10.93775,4.93615l1.19404,11.94045l-9.74371,7.0043l-10.93775,-4.93615z" fill="#ffc0cb" stroke="none" stroke-width="1"/><path d="M254.06225,162.56385l9.74371,-7.0043l10.93775,4.93615l1.19404,11.94045l-9.74371,7.0043l-10.93775,-4.93615z" fill="#ffc0cb" stroke="none" stroke-width="1"/><path d="M279.06225,160.06385l9.74371,-7.0043l10.93775,4.93615l1.19404,11.94045l-9.74371,7.0043l-10.93775,-4.93615z" fill="#ffc0cb" stroke="none" stroke-width="1"/><path d="M338.46277,216.69965l8.6268,-8.34136l11.53723,3.30035l2.91043,11.64171l-8.6268,8.34136l-11.53723,-3.30035z" fill="#ffc0cb" stroke="none" stroke-width="1"/><path d="M356.84318,210.218l-11.47587,-3.50776l-2.70012,-11.69228l8.77575,-8.18451l11.47587,3.50776l2.70012,11.69228z" fill="#ffc0cb" stroke="none" stroke-width="1"/><path d="M338.9308,195.23649l-10.63716,5.55436l-10.1288,-6.43487l0.50836,-11.98923l10.63716,-5.55436l10.1288,6.43487z" fill="#ffc0cb" stroke="none" stroke-width="1"/><path d="M317.93523,198.02445l0.86932,11.96847l-9.93034,6.73709l-10.79966,-5.23138l-0.86932,-11.96847l9.93034,-6.73709z" fill="#ffc0cb" stroke="none" stroke-width="1"/><path d="M307.84898,222.0452l4.4647,11.13851l-7.41388,9.4358l-11.87859,-1.70271l-4.4647,-11.13851l7.41388,-9.4358z" fill="#ffc0cb" stroke="none" stroke-width="1"/><path d="M311.62363,225.24873l8.22994,-8.73316l11.67811,2.76075l3.44817,11.49392l-8.22994,8.73316l-11.67811,-2.76075z" fill="#ffc0cb" stroke="none" stroke-width="1"/><path d="M338.46277,216.69965l8.6268,-8.34136l11.53723,3.30035l2.91043,11.64171l-8.6268,8.34136l-11.53723,-3.30035z" fill="#ffc0cb" stroke="none" stroke-width="1"/><path d="M386,249.6077l6,10.3923l-6,10.3923h-12l-6,-10.3923l6,-10.3923z" fill="#ffc0cb" stroke="none" stroke-width="1"/><path d="M378.04201,278.15267l-4.48653,11.12974l-11.8819,1.67942l-7.39537,-9.45032l4.48653,-11.12974l11.8819,-1.67942z" fill="#ffc0cb" stroke="none" stroke-width="1"/><path d="M354.77305,294.49763l-9.60683,7.19088l-11.0309,-4.72432l-1.42407,-11.9152l9.60683,-7.19088l11.0309,4.72432z" fill="#ffc0cb" stroke="none" stroke-width="1"/><path d="M325.48238,290.27218l-11.56199,-3.21253l-2.99886,-11.61924l8.56313,-8.40671l11.56199,3.21253l2.99886,11.61924z" fill="#ffc0cb" stroke="none" stroke-width="1"/><path d="M307.72864,270.23979l-9.98004,-6.66325l0.78052,-11.97459l10.76056,-5.31134l9.98004,6.66325l-0.78052,11.97459z" fill="#ffc0cb" stroke="none" stroke-width="1"/><path d="M296.39729,246.44642l-8.11153,-8.84325l3.60271,-11.44642l11.71424,-2.60317l8.11153,8.84325l-3.60271,11.44642z" fill="#ffc0cb" stroke="none" stroke-width="1"/><path d="M383.60271,188.55358l8.11153,8.84325l-3.60271,11.44642l-11.71424,2.60317l-8.11153,-8.84325l3.60271,-11.44642z" fill="#ffc0cb" stroke="none" stroke-width="1"/><path d="M388.60271,211.05358l8.11153,8.84325l-3.60271,11.44642l-11.71424,2.60317l-8.11153,-8.84325l3.60271,-11.44642z" fill="#ffc0cb" stroke="none" stroke-width="1"/><path d="M393.60271,233.55358l8.11153,8.84325l-3.60271,11.44642l-11.71424,2.60317l-8.11153,-8.84325l3.60271,-11.44642z" fill="#ffc0cb" stroke="none" stroke-width="1"/><path d="M398.60271,256.05358l8.11153,8.84325l-3.60271,11.44642l-11.71424,2.60317l-8.11153,-8.84325l3.60271,-11.44642z" fill="#ffc0cb" stroke="none" stroke-width="1"/><path d="M403.60271,278.55358l8.11153,8.84325l-3.60271,11.44642l-11.71424,2.60317l-8.11153,-8.84325l3.60271,-11.44642z" fill="#ffc0cb" stroke="none" stroke-width="1"/><g><path d="M20,120l70,60l60,-125" fill="none" stroke="#ffff00" stroke-width="10"/><path d="M90,180l30,140" fill="none" stroke="#ffff00" stroke-width="10"/><path d="M120,200c20,60 10,80 30,100c20,0 40,-120 20,-100c20,100 30,100 30,100" fill="none" stroke="#ffff00" stroke-width="10"/><path d="M200,200c20,60 20,80 30,100c-10,-20 -20,-80 -20,-80c0,-30 30,-30 30,-10c-5,90 40,90 40,90" fill="none" stroke="#ffff00" stroke-width="10"/><path d="M300,90c0,0 -20,-50 -40,-30c-10,20 0,110 0,110l10,50c15,50 50,80 50,80" fill="none" stroke="#ffff00" stroke-width="10"/><path d="M240,170l50,-5" fill="none" stroke="#ffff00" stroke-width="10"/><path d="M350,220c20,-5 5,-30 -15,-30c-30,-10 -35,45 -35,45z" fill="none" stroke="#ffff00" stroke-width="10"/><path d="M380,260c0,10 -20,30 -40,30c-30,-10 -40,-55 -40,-55" fill="none" stroke="#ffff00" stroke-width="10"/><path d="M370,115l30.78181,-59.57234l-14.71212,65.42122l61.8726,-25.84889l-53.32209,40.6588l64.0125,19.96954l-66.98206,-3.12834l36.20025,56.444l-49.30038,-45.45168l-8.5505,66.50768l-8.5505,-66.50768l-49.30038,45.45168l36.20025,-56.444l-66.98206,3.12834l64.0125,-19.96954l-53.32209,-40.6588l61.8726,25.84889l-14.71212,-65.42122z" fill="#0000ff" stroke="none" stroke-width="1"/><path d="M380,200l20,90" fill="none" stroke="#ffff00" stroke-width="10"/></g><g stroke="#16f980"><path d="M20,120l70,60l60,-125" fill="none" stroke-width="10"/><path d="M90,180l30,140" fill="none" stroke-width="10"/><path d="M120,200c20,60 10,80 30,100c20,0 40,-120 20,-100c20,100 30,100 30,100" fill="none" stroke-width="10"/><path d="M200,200c20,60 20,80 30,100c-10,-20 -20,-80 -20,-80c0,-30 30,-30 30,-10c-5,90 40,90 40,90" fill="none" stroke-width="10"/><path d="M300,90c0,0 -20,-50 -40,-30c-10,20 0,110 0,110l10,50c15,50 50,80 50,80" fill="none" stroke-width="10"/><path d="M240,170l50,-5" fill="none" stroke-width="10"/><path d="M350,220c20,-5 5,-30 -15,-30c-30,-10 -35,45 -35,45z" fill="none" stroke-width="10"/><path d="M380,260c0,10 -20,30 -40,30c-30,-10 -40,-55 -40,-55" fill="none" stroke-width="10"/><path d="M370,115l30.78181,-59.57234l-14.71212,65.42122l61.8726,-25.84889l-53.32209,40.6588l64.0125,19.96954l-66.98206,-3.12834l36.20025,56.444l-49.30038,-45.45168l-8.5505,66.50768l-8.5505,-66.50768l-49.30038,45.45168l36.20025,-56.444l-66.98206,3.12834l64.0125,-19.96954l-53.32209,-40.6588l61.8726,25.84889l-14.71212,-65.42122z" fill="#0000ff" stroke-width="1"/><path d="M380,200l20,90" fill="none" stroke-width="10"/></g></g></svg>