<?xml version="1.0" encoding="utf-8"?>
<!-- Generator: Adobe Adobe Illustrator 24.2.0, SVG Export Plug-In . SVG Version: 6.00 Build 0)  -->
<svg version="1.1" id="Ebene_1" xmlns="http://www.w3.org/2000/svg" xmlns:xlink="http://www.w3.org/1999/xlink" x="0px" y="0px"
	 width="1000px" height="768px" viewBox="0 0 1000 768" style="enable-background:new 0 0 1000 768;" xml:space="preserve">
<style type="text/css">
	.st0{fill:url(#SVGID_1_);}
	.st1{fill:#FF8C00;}
</style>
<g>
	<linearGradient id="SVGID_1_" gradientUnits="userSpaceOnUse" x1="121.0263" y1="398.9295" x2="788.9736" y2="398.9295">
		<stop  offset="0" style="stop-color:#FFCC00"/>
		<stop  offset="0.1642" style="stop-color:#FFC800"/>
		<stop  offset="0.3259" style="stop-color:#FFBC00"/>
		<stop  offset="0.4869" style="stop-color:#FFA800"/>
		<stop  offset="0.6473" style="stop-color:#FF8D00"/>
		<stop  offset="0.8074" style="stop-color:#FF6900"/>
		<stop  offset="0.9651" style="stop-color:#FF3E00"/>
		<stop  offset="1" style="stop-color:#FF3300"/>
	</linearGradient>
	<path class="st0" d="M314.74,353.2c-7.45-12.67-14.46-24.59-26.64-33.38c-9.46-6.83-22.35-10.84-33.83-8.17
		c-7.52,1.75-17.82,8.17-23.91,12.72c-4.4,3.28-8.06,6.83-11.5,11.1c-8.65,10.74-14.1,23.84-12.4,37.76
		c0.83,6.8,5.25,12.75,6.26,19.2c0.45,2.88-0.39,3.7-3.13,5.31c-4.68,2.74-9.65,5.09-14.35,7.86c-15.5,9.14-30.33,19.32-45.49,29.01
		c-7.22,4.61-14.19,9.56-21.36,14.25c-2.06,1.35-8.09,3.62-7.29,6.64c7.4,1.91,15.68-1.92,22.96-3.49
		c7.39-1.6,14.56-2.77,22.07-3.61c8.58-0.96,17.32-0.68,25.76-2.6c7.07-1.61,14.1-3.37,21.19-4.9c8.31-1.79,16.73-3.3,24.98-5.36
		c4.42-1.1,5.59-1.57,8.01,3.02c7.65,14.55,23.25,22.69,38.7,26.39c12.74,3.05,27.76,5.33,40.92,4.65c2.51-0.13,2.87-0.58,4.94,0.85
		c1.02,2.17,2.22,4.25,3.59,6.23c3.58,4.58,7.2,9.13,10.86,13.66c7.96,9.86,16,19.97,25.33,28.59
		c11.72,10.83,25.05,18.22,40.32,22.82c7.62,2.29,14.38,3.83,22.3,1.46c3.59-0.92,6.81-2.53,9.69-4.84
		c0.94-2.06,2.29-2.87,4.06-2.41c-2.39,16.06-10.43,29.79-18.36,43.71c-11.61,20.38-24.94,37.79-40.5,55.31
		c-4.12,4.63-16.06,15.89-13.82,23.22c2.05,6.73,10.12,5.77,14.91,3.41c8.99-4.43,15.91-12.22,21.41-20.51
		c5.26-7.91,8.26-17.01,14.53-24.22c3.88,5.15-3.02,17.36-3.87,23.34c-1.22,8.57-1.19,17.75,5.44,23.91
		c16.41-5.59,17.21-33.42,20.3-47.72c1.33,2.23,1.8,4.71,1.42,7.45c0.29,6.5,0.98,12.96,2.08,19.37c1.89,8.22,5.09,16.8,14.44,17.8
		c20.44,2.2,7.28-33.35,4.66-41.85c-1.87-6.1-6.3-11.25-7.8-17.28c-1.6-6.43,0.3-14.04,0.96-20.55c1.13-11.14,2.66-22.23,4.14-33.32
		c0.26-1.92,0.18-9.02,1.82-10.88c2.84-3.23,11.24-0.56,14.92-0.75c10.5-0.54,21.16-3.92,30.44-8.68c4.15-1.97,8.11-4.28,11.86-6.95
		c3.02-1.47,5.9-3.18,8.64-5.13c-0.34-1.6,0.23-2.63,1.71-3.1c2.45,0.64,4.5,1.87,6.13,3.71c4.63,5.37,1.47,14.45,0.99,20.98
		c-1.3,17.95-2.46,35.8-4.43,53.7c-1.44,13.14-2.85,26.35-5.62,39.29c-0.89,4.17-6.92,17.31-0.96,19.84
		c16.11-6.85,15.81-25.8,24.99-38.66c5.53,7.47,4.02,38.86,20.52,28.33c7.96-5.08,7.13-11.69,9.54-19.81
		c1.81,10.69,24.03,31.59,30.35,13.66c4.53-12.85-9.12-21.99-15.89-30.38c-8.22-10.19-17.23-21.5-23.67-32.92
		c-6.72-11.92-9.9-25.06-13.1-38.21c-1.05-4.31-4.68-10.62-1.75-14.76c2.43-3.44,10.99-5.85,14.58-7.52
		c7.34-3.4,15.33-4.81,22.73-8.17c8.72-3.95,16.2-9.29,24.27-14.31c12.13-7.55,25.12-13.6,37.26-21.23c4.2-2.64,9.47-7.02,14.4-8.54
		c2.62,0.35,5.23,0.23,7.84-0.38c6.76-1.21,13.36-3.01,19.8-5.42c18.85-6.96,37.29-17.76,54.28-28.39
		c7.64-4.6,14.89-9.74,21.75-15.41c3.91-2.9,6.23-6.7,6.98-11.38c-2.24-9.58-31.24-1.76-36.59-0.86c-9.14,1.6-18.25,3.35-27.32,5.26
		c-4.92,2.69-9.63,2.95-14.15,0.79c15.99-8.84,33.41-13.95,48.9-23.92c7.28-4.45,14.26-9.34,20.92-14.69
		c6.05-2.7,9.43-7.1,10.15-13.23c-5.9-3.81-12.15-3.8-18.77,0.05c-8.62,3.07-17.19,6.26-25.72,9.57
		c-12.8,4.89-25.52,10.56-38.72,14.29c10.73-8,21.83-15.46,32.56-23.48c9.84-7.35,20.29-14.08,27.5-24.14
		c-1.16-4.25-4.16-5.31-9-3.16c-3.16,0.85-6.32,1.7-9.47,2.55c-12.99,3.91-25.54,10.84-37.76,16.53
		c-10.33,4.81-21.09,9.01-31.25,14.21c-2.88,1.48-6.19,3.71-9.63,3.55c-3.92-0.19-6.89-3.44-9.71-5.72
		c-5.39-4.37-11.15-8.04-17.62-10.66c-6.41-2.6-12.94-4.41-19.8-5.38c-4.98-0.71-10.55-0.58-15.24-2.58
		c-1.06-3.74,6.53-8.42,8.94-10.46c15.18-12.83,30.38-25.25,44.43-39.38c16.57-16.67,29.87-34.99,40.76-55.83
		c5.25-10.04,14.98-23.2,11.18-34.7c-7.94-1.35-13.97,0.59-21.25,4.21c-5.48,2.73-10.44,6.77-16.44,7.98
		c3.98-18.96,20.97-33.68,20.51-54.11c1.38-4.18-0.03-6.75-4.22-7.69c-6.17-5.14-12.97-4.04-20.4,3.3
		c-13.78,7.96-24.27,20.42-36.74,30.04c-4.88-2.54-6.83-6.84-5.85-12.91c-0.42-7.16-2.55-13.75-6.38-19.79
		c-7.32-10.96-17.9-16.02-30.17-9.64c-16.28,8.47-26.82,27.43-38.38,40.82c-8.65,10.01-17.67,18.02-30.02,22.87
		c-8.31,2.35-16.76,3.99-25.35,4.92c-9.05,1.43-17.77,3.97-26.16,7.65c-17.58,7.64-30.42,20.18-41.67,35.44
		c-16.88,22.9-22.41,54.55-21.99,82.61c0.06,3.83,2.02,10.35-1.83,12.58c-3.29,0.39-6.56,0.93-9.8,1.63
		c-4.74,1.28-9.4,2.8-13.98,4.57c-6.83,2.33-12.52,4.65-18.64,8.44c-3.39,2.1-7.04,3.64-10.86,4.78c-4.36,1.3-8.5,1.61-13.03,1.56
		c-3.91-0.04-9.4,0.99-13.19-0.24c-3.7-1.2-6.57-5.06-9.17-7.81c-2.46-2.61-2.93-5.17-5.11-7.93"/>
	<g>
		<path class="st1" d="M316.5,351.44c-9.84-16.74-20.98-34.09-40.46-40.43c-9-2.93-18.47-2.89-27.2,0.85
			c-8.13,3.49-16.03,8.5-22.72,14.29c-13.79,11.94-25.78,32.3-21.1,51.19c1.21,4.87,3.85,9.22,5.19,14.04
			c0.25,0.91,0.74,2.19,0.6,3.15c-0.2,1.32-0.99,1.49-2.18,2.18c-2.54,1.46-5.16,2.8-7.75,4.18c-10.34,5.51-20.18,12.01-30,18.41
			c-10.93,7.12-21.95,14.13-32.74,21.44c-4.51,3.06-9.06,5.92-13.7,8.75c-2.64,1.61-5.73,4.05-5.28,7.48
			c0.07,0.24,0.23,0.4,0.47,0.47c5.71,1.26,11.3-0.12,16.81-1.68c6.37-1.81,12.81-3.14,19.36-4.16c13.06-2.02,26.29-1.77,39.2-4.79
			c13.49-3.15,27.11-5.72,40.57-8.94c1.63-0.39,4.3-1.59,6-0.94c2.14,0.83,3.12,4.24,4.25,6.06c2.83,4.54,6.57,8.47,10.79,11.73
			c8.61,6.65,18.91,10.45,29.44,12.81c12.2,2.74,24.88,4.61,37.41,4.09c1.09-0.04,2.4-0.38,3.48-0.22c1.88,0.28,2.57,2.26,3.39,3.7
			c1.49,2.61,3.32,4.91,5.17,7.26c4.22,5.35,8.5,10.66,12.81,15.95c8.19,10.07,16.72,20.06,27.01,28.06
			c10.1,7.85,21.67,13.61,33.9,17.3c6.66,2.01,13.51,3.5,20.45,2.06c3.04-0.63,6.02-1.59,8.78-3.04c1.29-0.68,2.56-1.48,3.74-2.35
			c0.64-0.48,2.3-2.59,3.08-2.46c-0.17-0.29-0.34-0.57-0.5-0.86c-2.72,17.23-11.98,32.69-20.78,47.45
			c-8.85,14.85-19.18,28.76-30.35,41.95c-4.16,4.91-8.58,9.55-12.81,14.4c-3.63,4.16-7.74,9.03-8.81,14.61
			c-0.96,4.98,2.13,9.28,7.19,9.82c5.72,0.62,11.14-2.45,15.64-5.62c6.78-4.78,12.29-11.29,16.85-18.17
			c5.22-7.87,8.4-16.95,14.53-24.22c-1.03,0.46-2.06,0.92-3.09,1.39c2.23,3.38,0.32,8.45-0.8,11.88c-1.1,3.37-2.54,6.69-3.18,10.19
			c-1.61,8.72-1.1,18.63,5.54,25.17c0.29,0.28,0.81,0.23,1.14,0.11c19.55-7.11,19.33-33.81,22.9-50.67c-1.3,0.85-2.61,1.7-3.91,2.55
			c1.49,2.8,1.37,5.27,1.45,8.36c0.08,2.93,0.39,5.89,0.7,8.81c0.56,5.26,1.23,10.55,3.01,15.56c2.57,7.23,7.88,12.95,16.09,12.48
			c12.58-0.72,12.56-15.4,10.94-24.55c-1.01-5.7-2.65-11.27-4.42-16.78c-0.83-2.59-1.59-5.23-2.74-7.7c-2.25-4.86-5.6-9.34-6.6-14.7
			c-1.04-5.57,0.26-11.34,0.97-16.87c0.8-6.29,1.39-12.6,2.19-18.89c0.72-5.67,1.7-11.35,2.24-17.04c0.15-1.55,0.17-3.12,0.31-4.68
			c0.19-2.08-0.07-4.09,2.35-4.31c4.46-0.41,8.83,1.05,13.32,0.64c6.05-0.55,12.03-1.96,17.76-3.97c5.83-2.04,11.53-4.72,16.88-7.8
			c5.2-2.99,10.51-6.05,15.43-9.48c0.87-0.6,1.67-1.7,1.56-2.79c-0.23,0.21-0.45,0.42-0.68,0.62c0.61,0.19,1.18,0.46,1.73,0.79
			c0.87,0.47,1.64,1,2.35,1.69c1.17,1.13,1.97,2.43,2.45,3.99c0.99,3.24,0.5,6.78,0.02,10.07c-1.07,7.33-1.51,14.68-2.04,22.07
			c-1.21,16.72-2.67,33.41-4.62,50.07c-0.94,8.06-2.03,16.1-3.57,24.07c-0.92,4.75-2.72,9.21-3.74,13.92
			c-0.58,2.71-1.7,9.33,2.25,10.41c1.82,0.5,4.32-1.46,5.79-2.43c2.22-1.46,4.19-3.23,5.93-5.24c8.1-9.38,9.35-22.38,16.32-32.41
			c-1.03,0.46-2.06,0.92-3.09,1.39c2.84,4.05,3.3,10.03,4.4,14.72c1.09,4.64,2.24,10.61,5.92,14.01c3.99,3.68,9.43,1.31,13.24-1.43
			c7.36-5.32,7.86-13.09,10.16-21.16c-1.27,0.7-2.54,1.4-3.81,2.09c1.01,5.21,4.76,9.97,8.45,13.6c3.74,3.68,8.9,7.58,14.41,7.56
			c5.44-0.02,9.37-4.46,11.16-9.22c2.66-7.07,0.01-13.78-4.46-19.41c-5.01-6.3-10.9-11.83-15.93-18.16
			c-6.82-8.59-13.58-17.38-18.96-26.96c-5.17-9.21-8.33-19.34-10.95-29.52c-1.16-4.49-2.19-8.96-3.67-13.36
			c-0.67-1.99-1.55-4.34-1.3-6.47c0.29-2.4,2.25-3.24,4.23-4.18c8.33-3.98,17.25-6.55,25.95-9.56c9.87-3.42,18.53-9.18,27.27-14.76
			c9.2-5.87,18.86-10.91,28.39-16.19c4.64-2.57,9.29-5.19,13.71-8.14c3.58-2.38,8.19-6.89,12.65-7
			c20.44-0.51,40.7-10.87,58.27-20.56c9.45-5.21,18.71-10.81,27.8-16.62c4.26-2.72,8.41-5.6,12.43-8.66
			c3.54-2.69,7.48-5.37,10.22-8.92c3.11-4.02,6.51-10.92,0.42-13.7c-4.71-2.15-10.88-1.39-15.83-0.78
			c-5.37,0.66-10.64,1.8-15.93,2.92c-9.34,1.96-18.78,3.46-28.13,5.41c-2.41,0.5-4.45,1.85-6.88,2.3c-2.87,0.52-5.56-0.06-8.18-1.2
			c-0.53,1.2-1.07,2.4-1.6,3.6c16.14-8.83,33.76-14.46,49.42-24.24c3.79-2.37,7.53-4.79,11.18-7.37c3.8-2.68,7.34-5.76,11.36-8.09
			c5.61-3.26,9.21-8.44,10.12-14.87c0.03-0.26-0.03-0.49-0.2-0.69c-5.43-3.31-11.26-3.91-17.17-1.43
			c-7.57,3.17-15.29,5.91-22.96,8.83c-14.67,5.59-29.09,12.06-44.21,16.39c-0.08,1.07-0.16,2.13-0.24,3.2
			c12.83-9.53,25.97-18.66,38.86-28.11c5.7-4.18,11.39-8.47,16.32-13.56c3.03-3.13,9.44-8.37,4.24-12.42
			c-1.58-1.23-3.57-1.21-5.44-0.8c-3.47,0.76-6.94,2.05-10.38,2.98c-7.22,1.94-14.12,4.9-20.89,8.04
			c-7.19,3.33-14.24,6.96-21.45,10.25c-7.33,3.34-14.79,6.41-22.1,9.81c-3.23,1.51-6.37,3.16-9.55,4.78
			c-4.23,2.16-7.53,2.23-11.34-0.67c-5.36-4.08-10.31-8.34-16.34-11.48c-6.68-3.48-14.04-5.83-21.43-7.21
			c-3.39-0.63-6.79-0.92-10.22-1.28c-1.67-0.18-3.33-0.39-4.96-0.75c-1.86-0.42-3.99-0.69-2.49-2.74c1.35-1.86,3.58-3.19,5.38-4.57
			c2.78-2.13,5.41-4.48,8.09-6.74c5.96-5.02,11.92-10.04,17.79-15.17c11.53-10.09,22.67-20.61,32.63-32.27
			c10.62-12.43,19.84-26.03,27.61-40.41c6.14-11.35,17.19-25.46,13.12-39.14c-0.07-0.24-0.23-0.4-0.47-0.47
			c-6.73-1.02-12.94,0.14-19.14,2.88c-6.54,2.89-12.35,7.75-19.39,9.38c0.42,0.42,0.83,0.83,1.25,1.25
			c4.06-18.28,19.37-32.38,20.55-51.55c0.2-3.22,1.65-7.52-1.2-9.98c-1.44-1.25-3.51-1.82-5.12-2.81c-1.71-1.05-3.54-1.76-5.56-1.93
			c-3.98-0.34-7.74,1.37-10.93,3.61c-2.09,1.46-3.86,3.24-6.02,4.6c-2.25,1.41-4.43,2.93-6.54,4.53
			c-9.94,7.52-18.46,16.71-28.28,24.37c0.62-0.21,1.23-0.41,1.85-0.62c-3.02-1.69-5.11-4.31-5.52-7.79
			c-0.22-1.81,0.18-3.58,0.09-5.38c-0.11-2.33-0.55-4.69-1.11-6.95c-1.8-7.25-5.64-14.32-11.29-19.28
			c-4.75-4.18-10.9-6.51-17.26-5.57c-6.74,1-12.84,4.92-18,9.2c-11.44,9.51-19.3,22.28-28.67,33.64
			c-5.02,6.08-10.57,11.84-16.98,16.46c-7.65,5.52-15.84,8.18-25.02,9.96c-8.89,1.73-17.83,2.46-26.56,5.01
			c-8.26,2.41-16.33,5.78-23.69,10.25c-12.76,7.76-23.25,18.57-32.12,30.48c-9.34,12.54-15.39,27.12-18.92,42.3
			c-1.8,7.74-3.02,15.61-3.69,23.53c-0.61,7.09-1.18,14.5-0.47,21.6c0.17,1.72,0.46,3.45,0.35,5.18c-0.17,2.72-1.93,2.16-4.24,2.55
			c-5.04,0.84-9.88,2.24-14.71,3.92c-4.42,1.53-8.87,3.08-13.18,4.92c-4.43,1.89-8.41,4.35-12.63,6.62
			c-8.95,4.81-19.16,5.27-29.12,5.19c-4.8-0.04-7.79-2.07-10.93-5.47c-1.33-1.44-2.77-2.87-3.88-4.48
			c-1.37-1.99-2.29-4.23-3.72-6.19c-0.95-1.29-4.62,2.05-3.54,3.54c4.08,5.57,7.38,13.52,14.57,15.91c3.05,1.01,6.47,0.64,9.62,0.44
			c4.5-0.28,9-0.04,13.46-0.87c8.37-1.56,14.86-6.21,22.38-9.79c8.06-3.84,17.13-7.17,25.85-9.11c3.27-0.73,7.9-0.31,10.64-2.44
			c2.05-1.6,3.12-3.96,3.34-6.51c0.24-2.69-0.39-5.38-0.51-8.06c-0.18-4.2,0.01-8.47,0.22-12.67c0.82-16.05,3.61-32.15,9.51-47.15
			c5.96-15.14,15.8-28.65,27.72-39.68c12.71-11.77,28.68-19.2,45.63-22.49c9.02-1.75,18.07-2.63,26.99-4.99
			c7.42-1.96,14.36-6.29,20.3-11.06c11.74-9.42,20.13-21.76,29.35-33.46c9.31-11.81,25.92-30.41,42.17-18.93
			c7.36,5.2,11.94,13.87,13.62,22.58c0.46,2.41,0.57,4.67,0.44,7.1c-0.08,1.56,0.01,3.2,0.44,4.71c0.92,3.28,3.23,5.48,6.14,7.1
			c0.52,0.29,1.48-0.33,1.85-0.62c7.6-5.93,14.42-12.73,21.7-19.02c3.77-3.26,7.68-6.39,11.88-9.07c4.08-2.61,7.78-7.06,12.78-7.68
			c4.06-0.51,7.1,1.98,10.54,3.55c1.82,0.83,2.74,2.25,2.55,4.25c-0.19,2.02-0.41,4.04-0.59,6.09c-0.76,8.64-4.73,16.46-8.85,23.93
			c-4.54,8.24-9.37,16.44-11.43,25.71c-0.22,1.01,0.2,1.49,1.25,1.25c6.07-1.41,11-5.14,16.45-7.95c2.98-1.53,6.09-2.91,9.34-3.75
			c2.17-0.56,9.29-2.11,10.86,0.04c1.31,1.8,0.54,6.22,0.16,8.27c-0.63,3.4-1.97,6.67-3.47,9.76c-2.54,5.28-5.67,10.26-8.41,15.43
			c-12.97,24.43-30.09,45.61-50.41,64.3c-10.76,9.9-21.9,19.61-33.34,28.73c-3.15,2.51-6.76,4.77-8.95,8.25
			c-0.68,1.09-1.62,2.79-1.27,4.15c0.55,2.13,5.08,2.38,6.96,2.65c6.8,0.96,13.42,1.44,20.07,3.36c6.86,1.98,13.44,4.77,19.42,8.7
			c2.49,1.64,4.9,3.43,7.18,5.35c2.03,1.7,4.02,3.65,6.52,4.65c5.32,2.14,10.31-1.44,14.88-3.75c14.5-7.32,29.64-13.42,44.28-20.47
			c7.13-3.43,14.38-6.78,21.95-9.12c3.83-1.19,7.75-2.09,11.56-3.29c3.36-1.06,5.64-0.35,6.74,3.14c0.21-0.62,0.41-1.23,0.62-1.85
			c-7.05,9.62-17.11,16.18-26.56,23.2c-10.75,7.98-21.81,15.5-32.56,23.48c-0.87,0.64-2.77,3.92-0.24,3.2
			c11.65-3.34,22.81-8.04,34.07-12.48c5.8-2.29,11.63-4.51,17.48-6.68c2.86-1.06,5.72-2.11,8.59-3.15c2.93-1.06,5.73-2.56,8.66-3.54
			c2.77-0.92,5.75-1.05,8.57-0.28c1.23,0.34,2.82,0.76,3.69,1.75c1.01,1.15,0.26,2.62-0.38,4.01c-1.01,2.2-2.66,3.83-4.73,5.07
			c-2.31,1.37-4.34,2.79-6.49,4.43c-9.4,7.18-19.44,13.66-30.09,18.83c-11.7,5.68-23.95,10.18-35.38,16.44
			c-0.79,0.43-3.25,2.88-1.6,3.6c3.79,1.65,7.68,1.88,11.63,0.62c2.33-0.74,4.38-1.69,6.81-2.18c3.03-0.62,6.06-1.23,9.1-1.81
			c6.7-1.29,13.41-2.44,20.09-3.84c5.56-1.17,11.19-2.23,16.88-2.57c3.23-0.19,11.39-0.82,12.83,3.33c0.61,1.74-1,4.69-1.95,6.1
			c-1.33,1.97-3.27,3.35-5.09,4.82c-4.09,3.29-8.33,6.41-12.7,9.33c-8.4,5.61-17.15,10.8-25.92,15.8
			c-9.31,5.31-18.85,10.27-28.77,14.34c-4.52,1.85-9.1,3.55-13.79,4.92c-5.03,1.46-10.52,3.12-15.78,3.23
			c-2.32,0.05-3.54-0.29-5.68,0.6c-1.81,0.76-3.52,1.73-5.18,2.78c-4.1,2.58-7.99,5.45-12.17,7.92
			c-9.04,5.37-18.45,10.07-27.54,15.36c-8.51,4.95-16.49,10.8-25.22,15.37c-8.83,4.63-18.66,6.83-27.84,10.62
			c-5.48,2.27-13.2,4.02-16.16,9.77c-1.53,2.96-0.98,6.25-0.05,9.3c1.31,4.34,2.57,8.6,3.68,13.01c2.43,9.61,5.21,19.2,9.69,28.07
			c4.3,8.5,9.91,16.34,15.66,23.9c5.8,7.62,11.96,14.64,18.41,21.68c5.24,5.71,11.37,14.49,6.22,22.3
			c-3.58,5.42-11.89-0.19-15.27-3.04c-4.46-3.77-9.08-9.05-10.23-14.95c-0.37-1.92-3.6,1.35-3.81,2.09
			c-1.95,6.84-1.9,15.12-9.32,18.54c-4.29,1.97-7.42-0.45-9.28-4.34c-2.05-4.29-2.93-9.11-3.96-13.71
			c-0.86-3.83-1.56-8.12-3.86-11.4c-0.71-1.01-2.77,0.93-3.09,1.39c-6.39,9.2-8,20.77-14.36,29.92c-1.61,2.31-3.57,4.32-5.96,5.82
			c-0.31,0.19-1.12,0.78-1.55,0.87c-1.41,0.29-0.43,0.52-1.37-0.27c-0.8-0.68-0.98-2.08-1.04-3.05c-0.31-4.75,2.03-9.37,3.24-13.85
			c1.94-7.18,2.83-14.79,3.79-22.15c1.09-8.31,2-16.66,2.83-25c0.87-8.71,1.57-17.44,2.23-26.17c0.6-8.01,0.74-16.17,1.88-24.12
			c0.88-6.09,2.85-13.87-1.93-18.9c-1.76-1.85-5.19-4.33-7.8-3.05c-2.46,1.21-3.67,3.37-3.39,6.05c0.52-0.93,1.04-1.86,1.56-2.79
			c-4.42,3.08-9.27,5.81-13.91,8.53c-4.84,2.84-10,5.31-15.26,7.24c-5.42,1.99-11.05,3.43-16.8,4.05c-3.89,0.43-7.41-0.2-11.27-0.48
			c-3.21-0.24-6.47,0.01-8.89,2.39c-2.22,2.19-2.56,5.43-2.81,8.38c-0.86,10.13-2.45,20.19-3.62,30.29
			c-0.65,5.62-1.39,11.22-2.04,16.84c-0.59,5.07-0.64,10.12,1.31,14.92c1.97,4.87,5.09,9.15,6.76,14.16
			c0.6,1.81,1.17,3.64,1.75,5.46c1.69,5.35,3.22,10.78,4.13,16.32c0.68,4.13,2.02,11.66-1.09,15.22c-1.78,2.04-5.56,1.68-7.89,1.13
			c-4.73-1.13-7.81-4.8-9.67-9.11c-2.14-4.96-2.93-10.3-3.57-15.63c-0.44-3.7-0.95-7.53-0.92-11.26c0.03-2.89-0.05-5.2-1.46-7.84
			c-1.04-1.96-3.69,1.51-3.91,2.55c-1.73,8.2-2.48,16.58-4.54,24.71c-1.95,7.69-5,17.08-13.17,20.05c0.38,0.04,0.76,0.07,1.14,0.11
			c-6.85-6.74-7.11-17.97-4.32-26.7c1.87-5.85,6.66-14.65,2.76-20.55c-0.7-1.06-2.76,0.99-3.09,1.39
			c-4.79,5.69-7.87,12.39-11.39,18.88c-3.59,6.62-8.09,12.91-13.64,18.03c-4.4,4.05-10.88,9-17.3,7.87
			c-6.8-1.2-5.93-8.12-3.17-12.64c2.76-4.53,6.6-8.28,10.15-12.17c4.88-5.35,9.55-10.92,14.1-16.55
			c9.75-12.09,18.69-24.84,26.51-38.27c8.55-14.69,17.2-29.74,19.89-46.76c0.05-0.31-0.14-0.8-0.5-0.86
			c-3.73-0.6-4.97,2.12-7.44,4.14c-4.67,3.82-12.38,4.73-18.15,4.06c-10.5-1.21-21.32-5.69-30.54-10.7
			c-20.53-11.16-34.85-29.87-49.18-47.8c-1.82-2.27-3.62-4.55-5.42-6.84c-0.76-0.97-1.53-1.93-2.21-2.96
			c-0.98-1.48-1.62-3.59-2.75-4.93c-2.39-2.85-8.36-1.21-11.54-1.24c-11.52-0.1-23.05-1.94-34.24-4.6
			c-9.67-2.3-19.16-6.07-27.02-12.27c-3.8-2.99-7.18-6.53-9.85-10.57c-1.67-2.52-2.96-7.14-6.54-7.45
			c-1.41-0.12-2.91,0.38-4.26,0.71c-3.3,0.8-6.6,1.57-9.93,2.27c-5.78,1.22-11.58,2.33-17.35,3.61c-6.04,1.33-12.03,2.85-18.07,4.2
			c-6.12,1.37-12.3,1.76-18.55,2.15c-11.27,0.69-22.78,2.19-33.7,5.14c-2.57,0.7-5.11,1.5-7.7,2.13c-1.5,0.36-3.02,0.66-4.56,0.83
			c-0.69,0.08-5.31,0.61-5.62-0.09c-0.46-1.02,2.55-2.1,3.41-2.58c2.08-1.16,4.03-2.55,6.01-3.88
			c20.74-13.91,41.47-28.3,63.15-40.72c4.91-2.81,10.36-5.01,14.97-8.31c3.04-2.18,4.04-4.72,3.3-8.37
			c-1.03-5.07-3.85-9.57-5.29-14.51c-1.54-5.28-1.32-11.16-0.28-16.52c2.16-11.2,8.76-21.57,17.05-29.26
			c7.14-6.62,16.66-12.89,26.04-15.68c21.75-6.47,41.66,10.94,52.78,27.63c2.9,4.35,5.55,8.87,8.2,13.37
			C313.73,356.26,317.45,353.05,316.5,351.44L316.5,351.44z"/>
	</g>
</g>
</svg>
