<?xml version="1.0" encoding="UTF-8"?><svg id="Layer_1" xmlns="http://www.w3.org/2000/svg" viewBox="0 0 777.55 391.52"><defs><style>.cls-1{stroke:#ff7bac;stroke-miterlimit:10;stroke-width:3px;}.cls-1,.cls-2{fill:#9b9bea;}.cls-2,.cls-3{stroke-width:0px;}.cls-3{fill:#ff7bac;}</style></defs><path class="cls-1" d="m533.46,186.37c-63.61-17.89-120.79-40.56-186.96-57.89-6.28-1.64-12.6-3.21-18.95-4.7l20.26,1.43c2.48-36.23,32.12-68.81,67.95-74.71-10.43-14.48-32.31-11.99-49.69-7.95.37-12.03,12.05-22.5,24.05-21.55-13.33-8.37-30.71-5.83-45.67-.92-14.96,4.91-29.7,11.99-45.45,11.88,1.11-10.38,8.65-19.79,18.54-23.13-13.05-12.26-34.69-7.54-49.72,2.19-15.03,9.73-27.63,23.69-44.48,29.73,6.44-9.68,11.41-20.33,14.69-31.48-18.78,17.97-43.22,28.62-64.67,43.29s-41.2,31.42-42.05,57.4l27.86,1.96c-18.79,2.61-37.33,6.85-55.44,13.06-28.67,9.84-56.28,24.9-76.06,47.87S-3.15,227.53,3.38,257.13c8.46,38.37,44.65,65.92,82.88,75,38.23,9.08,78.33,2.97,116.79-5.06,0,0,49.54-10,72.03-17.63,0,0,4.22,41.69,35.28,49,31.06,7.31,60.29,21.92,60.29,29.23s23.75-3.65,5.48-16.44-8.11-30.21,6.91-21.5c15.02,8.71,33.29,30.64,33.29,34.29s-20.1-38.37-20.1-38.37c0,0,18.27,7.51,20.1,14.72,1.83,7.21-7.31-29.33-21.92-32.99-14.62-3.65-40.53-13.81-48.58-21.52-8.05-7.71-8.05-16.45-8.05-16.45,0,0,131.93-26.64,195.68-103.04"/><path class="cls-2" d="m740.57,228.35c11.83-2.24,23.66-4.49,35.49-6.73-9.76-15.82-23.87-28.93-40.36-37.51,13.61,2.84,28.33-.06,39.84-7.85-19.04-12.04-40.98-19.46-63.42-21.46,8.39-13.07,20.91-23.43,35.31-29.23-38.34-16.12-82.25-32.26-120.1-15.02-17.08,7.78-30.56,21.53-44.27,34.34-15.8,14.77-32.38,28.57-49.6,41.48,11.87,3.34,23.93,6.53,36.35,9.47.93.22,11.52,3.7,12.45,3.91,0,0,.34-.26,3.99,1.57s20.1,10.96,36.12,18.58c16.02,7.62,71.77,38.29,71.77,38.29,10.87,5.42,22.26,10.84,34.4,10.96s25.24-6.68,28.4-18.4c2.8-10.42-6.29-22.7-16.37-22.4Z"/><path class="cls-3" d="m740.97,229.79c11.83-2.24,23.66-4.49,35.49-6.73.95-.18,1.38-1.43.9-2.2-7.74-12.49-18.06-23.28-30.17-31.6-3.44-2.36-7.03-4.51-10.73-6.45l-1.16,2.74c14.07,2.87,29.05,0,41-8,.94-.63.99-1.97,0-2.59-15.06-9.49-31.88-16.17-49.35-19.57-4.9-.95-9.85-1.64-14.82-2.09l1.3,2.26c8.22-12.73,20.37-22.84,34.42-28.54,1.43-.58,1.4-2.3,0-2.89-14.95-6.28-30.08-12.31-45.74-16.62s-30.97-6.8-46.7-5.55-30.15,6.54-42.95,15.47c-12.87,8.97-23.78,20.37-35.32,30.91-12.63,11.53-25.77,22.51-39.35,32.91-1.68,1.29-3.37,2.57-5.07,3.84-.99.74-.98,2.36.36,2.74,7.21,2.03,14.44,3.99,21.7,5.85,5.55,1.42,11.24,2.52,16.7,4.24,3.36,1.06,6.71,2.37,10.13,3.22.37.09.68.07,1.06.07,0,0,.36-.15.36-.15.18-.05-.95.28-.66.19-.25.07-.2-.06.19.08s.75.27,1.12.43c1.6.7,3.14,1.54,4.68,2.36,10.86,5.78,21.72,11.58,32.83,16.88,6.02,2.87,11.92,5.98,17.81,9.09,14.83,7.82,29.56,15.83,44.28,23.87,3.35,1.83,6.66,3.72,10.03,5.5,5.25,2.77,10.73,5.29,16.3,7.35,6.46,2.39,13.38,4.07,20.31,3.84,10.44-.34,21.74-5.44,26.72-15.04,2.51-4.84,3-10.29,1.1-15.43-1.8-4.87-5.35-9.32-10.06-11.65-2.22-1.1-4.63-1.7-7.11-1.66-1.93.03-1.93,3.03,0,3,8.53-.14,15.3,8.72,15.38,16.77.09,8.97-7.74,15.96-15.53,18.9-10.02,3.78-20.67,1.9-30.44-1.77-5.8-2.18-11.46-4.86-16.89-7.84-9.76-5.36-19.53-10.68-29.32-15.97-11.91-6.44-23.82-12.9-35.92-19-7.85-3.96-15.8-7.72-23.6-11.79-4.05-2.11-8.09-4.26-12.12-6.42-2.7-1.44-5.4-3.05-8.27-4.12-.72-.27-1.63-.58-2.35-.14l1.16-.15c-3.84-.95-7.59-2.42-11.37-3.59-3.07-.95-6.26-1.56-9.38-2.33-4.45-1.11-8.89-2.25-13.33-3.43-4.92-1.3-9.82-2.65-14.72-4.03l.36,2.74c13.5-10.13,26.61-20.78,39.23-32,11.74-10.43,22.66-21.88,35.02-31.59,6.01-4.72,12.46-8.95,19.42-12.14s14.43-5.29,22-6.38c15.42-2.23,31.19-.23,46.21,3.48s30.62,9.57,45.42,15.68c1.84.76,3.67,1.52,5.5,2.29v-2.89c-14.81,6.01-27.53,16.48-36.21,29.92-.67,1.03.23,2.16,1.3,2.26,17.26,1.56,34.23,6.34,49.76,14.02,4.42,2.19,8.73,4.61,12.9,7.24v-2.59c-11.27,7.55-25.38,10.41-38.69,7.7-1.58-.32-2.74,1.91-1.16,2.74,12.69,6.63,23.9,15.87,32.84,27.04,2.53,3.16,4.85,6.49,6.98,9.93l.9-2.2c-11.83,2.24-23.66,4.49-35.49,6.73-1.89.36-1.09,3.25.8,2.89Z"/></svg>