<?xml version="1.0" encoding="utf-8"?>
<!-- Generator: Adobe Adobe Illustrator 24.2.0, SVG Export Plug-In . SVG Version: 6.00 Build 0)  -->
<svg version="1.1" id="Ebene_1" xmlns="http://www.w3.org/2000/svg" xmlns:xlink="http://www.w3.org/1999/xlink" x="0px" y="0px"
	 width="1000px" height="768px" viewBox="0 0 1000 768" style="enable-background:new 0 0 1000 768;" xml:space="preserve">
<style type="text/css">
	.st0{fill:#00FF00;}
	.st1{fill:none;stroke:#000000;stroke-miterlimit:10;}
</style>
<g>
	<path class="st0" d="M7.59,750.52c5.37-11.27,9.35-23.01,11.93-35.22c2.07-11.23,3.25-22.55,3.53-33.96
		c1.15-23.76,0.57-47.57,1.62-71.32c1.14-25.75,5.07-51.34,6.48-77.1c1.05-19.17-0.34-38.92,2.35-57.93
		c2.92,1.63,3.93,4.52,3.03,8.67c1.23,5.38,2.16,10.81,2.78,16.28c2.43,18.07,5.02,36.25,7.11,54.36
		c3.63,31.61,5.93,63.99,4.58,95.82c-0.83,19.63-4.96,39.06-2.35,58.73c0.91,6.84,2.25,13.9,4.48,20.45
		c1.03,3.04,2.45,6.14,5.13,8.1c8.78,6.39,10.44-7.13,10.57-13.04c0.17-7.91-0.33-15.45,1.9-23.17c1.73-6,4.88-11.59,7.5-17.25
		c2.99-6.46,4.8-12.01,5.05-19.32c0.36-10.36-0.21-20.96-0.16-31.33c0.12-31.71-3.32-62.97-4.17-94.62
		c1.96,10.15,5.87,19.91,8.56,29.89c3.83,14.26,6.93,28.53,11.31,42.65c3.71,11.95,6.13,22.38,4.76,34.97
		c-1.15,10.58-3.34,21.3-5.06,31.83c-1.04,7.03-2.83,13.85-5.36,20.48c-2.13,4.66-3.87,9.46-5.23,14.4
		c-1.13,6.64-0.17,12.15,2.81,18.27c2.03,4.16,5.04,10.37,9.4,12.68c5.35,2.83,12.06,0.79,15.5-3.82c4.32-5.79,2.34-15,3.73-21.77
		c1.52-7.39,4.57-14.27,6.33-21.61c2.25-9.36,4.58-16.71,7.92-25.7c4.61-12.4,5.34-25.26,4.72-38.35
		c-0.95-20.09-3.98-39.43-6.86-59.28c-2.78-19.16-3.46-38.41-4.24-57.75c-0.8-19.74,0-39.29,0.23-59.01
		c-0.1-13.17-0.5-26.34-1.21-39.49c-1.14-5.71-0.87-11.25,0.82-16.63c7.69,24.69,9.21,51.44,14.6,76.73
		c3.84,18.03,7.87,36.09,13.19,53.75c4.18,13.88,9.63,27.39,13.67,41.32c4.67,16.1,6.23,32.53,5.02,49.15
		c-0.99,13.55-3.69,26.79-5.56,40.24c-1.28,9.17-2.47,18.34-3.93,27.48c-1.37,8.58-3.2,17.04-2.61,25.76
		c0.42,6.2,3.92,22.92,13.18,22.59c7.93-0.28,6.93-15.49,7.3-20.23c1.4-17.72,6.8-34.88,9.05-52.5c2.33-18.27,1.41-36.97,4.33-55.12
		c3.44,13.4,4.89,28.58,4.78,42.42c-0.14,16.24-2.73,31.13,3.12,46.77c3.47,9.28,13.35,24.73,24.33,26.89
		c10.5,2.06,5.41-12.29,4.67-17.57c-1.92-13.57,2.64-25.11,4.56-38.39c1.04-7.2,2.2-14.51,2.9-21.74
		c0.94-9.67-0.02-17.51-4.82-26.21c-9-16.29-18.8-32.4-25.89-49.65c-4.51-10.96-7.41-22.51-10.47-33.92
		c-3.35-12.5-8-25.84-9.55-38.8c9.33,13.48,18.19,28.12,25.21,42.9c5.24,11.01,9.46,22.64,15.33,33.34
		c7.21,13.13,18.28,22.95,24.38,36.83c4.46,10.15,7.43,20.28,7.55,31.45c0.21,19.12-5.23,38.04-3.84,57.19
		c0.65,8.91,5.65,24.44,16.91,25.18c13.15,0.86,11.29-20.64,12.99-28.75c1.93-9.16,6.44-17.12,10.88-25.26
		c5.31-9.75,10.48-19.7,15.22-29.74c6.33-13.41,6.8-24.41,5.37-39.03c-1.14-11.77-2.75-23.4-2.8-35.25
		c-0.05-10.73,1.49-20.83,3.82-31.32c1.7-7.67,2.84-15.67,6.32-22.73c4.06,7.89,2.53,19.39,2.72,27.72
		c0.28,12.03,1.42,23.36,4.6,35.04c2.76,10.14,6.91,19.65,10.23,29.57c4.14,12.36,3.91,25.31-0.61,37.45
		c-3.99,10.72-10.22,20.43-14.03,31.26c-2.37,6.73-4.34,13.58-5.95,20.53c-1.45,6.25-5.43,24.5,6.06,24.75
		c8.84,0.19,15.6-11.74,20-17.45c8.27-10.73,28.3-0.74,37.9-6.98c2.18-1.84,4.37-3.68,6.55-5.52c-0.9-5.43-1.61-10.89-2.12-16.37
		c1.51-9.21,7.81-16.87,12.16-24.84c5.26-9.63,7.42-19.5,8.88-30.22c0.84-6.15,0.85-15.13,3.81-20.98c1.75-3.45,4.96-5.93,7.79-8.42
		c-1.64,12.37-3.8,24.44-4.06,36.97c-0.26,12.66,0.76,25.26,0.42,37.93c-0.25,9.6,0.77,19.81-3.02,28.89
		c-3.77,9.02-11.81,16.16-21.07,19.07c-10.48,3.3-32.07,0.64-37.34,13.13c-6.15,14.57,16.02,11,22.88,9.31
		c7.08-1.75,13.76-4.77,20.82-6.53c7.95-1.98,15.65-1.25,23.68-1.22c23.9,0.07,27.61-23.48,31.07-42.22
		c2.07-11.23,3.41-22.62,5.73-33.8c2.51-12.09,7.06-23.49,8.92-35.75c2.32-15.32,1.51-30.91,0.09-46.26
		c-0.87-9.44-2.6-18.73-2.84-28.22c0.8,21.79,3.48,43.94,8.78,65.11c3.32,13.23,9.22,26.54,10.62,40.2
		c0.97,9.44-0.82,18.51-3.11,27.58c-2.4,9.52-11.51,26.17-4.64,35.94c1.19,1.69,3.46,3.88,5.5,4.54c2.87,0.92,2.89,0.23,5.01-1.74
		c3.56-3.32,6.33-5.85,10.79-8.17c6.65-3.46,13.65-6.69,17.14-13.84c3.27-6.7,4.64-14.58,5.88-21.86
		c2.23-13.13,3.32-26.52,4.13-39.8c2.06-33.77-1.98-67.47-7.94-100.7c-2.05-11.46-5.3-23.02-6.3-34.65
		c-0.71-8.22,2.46-15.23,1.65-23.08c-2.68,0.33-3.55,1.89-2.61,4.69c-0.48,3.56-0.03,7.03,1.35,10.43
		c3.41,15.44,7.76,30.63,12.3,45.77c6.61,22.09,14.84,44.12,19.49,66.75c2.75,13.36,4.65,26.74,5.75,40.33
		c1.14,14.17,1.7,29.28,1.17,43.52c-0.24,6.46-0.65,12.77-2.4,19.02c-2.49,8.88-7.45,13.23-14.58,18.38
		c-3.13,2.26-8.63,5.08-8.71,9.52c-0.07,4.27,3.58,6.46,8.23,7.04c5.93,0.75,11.01-0.79,15.87-4.24c9.71-6.9,14-18.51,18.99-28.91
		c4.46-9.3,10.04-19.3,11.93-29.49c2.72-14.74,1.58-29.66-0.91-44.33c-3.58-21.07-13.91-45.24-7.48-66.71
		c4.65,3.05,7.07,7.62,7.27,13.7c2.31,11.11,4.11,22.31,5.38,33.6c1.39,10.76,3.53,21.37,6.43,31.83
		c2.84,9.15,5.83,18.24,8.99,27.29c2.57,7.69,3.5,15.56,2.78,23.61c-1.08,5.71-1.43,11.45-1.05,17.24
		c2.43,8.17,8.91,6.92,14.33,2.69c10.26-8.02,7.92-25.55,7.9-36.78c-0.06-23.25-2.41-45.69-7.32-68.41
		c-4.93-22.79-9.04-45.41-12.27-68.52c-0.41-2.96-5.97-26.76-1.62-28.88c10.43,22.29,14.64,47.7,20.96,71.35
		c7.5,28.03,17.48,56.03,21.88,84.78c1.42,9.87,2.26,19.79,2.52,29.75c-0.11,6.4,0.73,12.66,2.52,18.78
		c3.93,9.83,12.5,13.42,21.19,6.54c10.78-8.52,9.27-24.08,9.25-36.21c-0.26-8.84-0.29-17.69-0.08-26.53
		c0.61-9.41,2.25-18.65,4.92-27.7c4.67-17.72,10.28-36.68,18.55-53.1c3.61-7.18,8.88-12.46,12.81-19.22
		c-7,14.06-8.8,30.43-9.73,45.9c-1.23,20.67,1.14,40.79,2.72,61.34c0.89,11.5,0.56,22.75-0.67,34.19
		c-0.66,6.11-2.6,13.64-1.17,19.78c0.83,3.57,3.24,8.66,7.49,9.18c6.65,0.8,10.53-7.56,12.6-12.35c6.67-15.47,3.96-32.51,4.54-48.88
		c0.34-9.51,2.97-18.59,7.56-27.01c3.28-6.03,7.72-11.4,10.99-17.38c10.84-19.81,6.03-46.62,1-67.41
		c-6.48-26.77-22.47-51.25-34.75-75.65c3.65,3.85,6.1,8.75,8.69,13.36c9.24,16.48,15.56,35.18,22.85,52.61
		c5.44,13.02,10.81,26.02,14.95,39.52c3.83,12.49,8.41,26.44,7.71,39.75c-0.63,11.98-7.78,21.97-9.52,33.65
		c-0.91,6.09,0.07,12.24,0.9,18.31c1.2,8.8,2.59,20.81,8.97,27.55c2.98,3.14,9.03,8.78,14.07,7.4c4.55-1.24,6.55-7.26,8-11.02
		c5.29-13.69,6.56-29.07,6.29-43.59c-0.28-15.26,1.31-31.3,4-46.35c1.51-8.46,3.82-16.62,8.42-23.96c1.29-2.05,4.06-7.93,6.88-8.21
		c-2.73,16.23-6.49,32.65-4.8,49.23c1.16,11.36,5.27,22.25,8.09,33.24c2.5,9.71,3.92,19.3,4.44,29.34
		c0.29,5.7,0.25,11.51,1.89,17.05c0.74,3.67,2.59,6.43,5.55,8.28c1.21,1.92,2.75,2.31,4.62,1.17c6.53-0.66,8.12-11.52,9.03-16.66
		c2.06-11.58,1.26-23.66,2.8-35.33c2.56-19.35,9.6-38.32,10.33-57.85c1.06-28.32-20.67-46.8-36.07-67.42
		c-7.24-9.69-13.59-20.01-20.84-29.7c-8.29-11.07-17.63-22.28-23.87-34.65c-3.99-7.92-7.21-15.91-9.24-24.53
		c-1.31-5.54-2.12-11.02-3.65-16.5c10.66,16.27,21.79,32.22,32.24,48.63c7.56,11.86,14.66,23.96,22.96,35.34
		c5.99,8.21,12.38,16.09,18.18,24.44c12.9,18.56,21.12,38.4,26.3,60.35c2.2,9.31,3.88,18.54,4.26,28.11
		c0.43,10.63-0.14,21.23-0.07,31.87c0.1,16.59,1.41,32.86,7.7,48.4c1.76,4.34,4.8,12.79,9.54,14.99c4.47,2.07,8.79-0.27,11.83-3.59
		c4.96-5.42,6.26-14.91,7.29-21.78c1.77-11.87,0.28-25.12,0.17-37.16c-0.1-10.93-0.92-22.92,5.06-32.53
		c3.21,7.61,1.15,18.67,1.59,26.47c0.65,11.54,2.14,22.76,5.81,33.77c2.71,8.13,6.46,16.14,8.3,24.53c0.46,2.43,0.91,4.86,1.37,7.3
		c-0.3,4.13,1.17,7.35,4.42,9.67c6.42-1.23,10.85-5.11,13.31-11.63c4-9.36,5.95-19.13,5.84-29.32c0.87-17.02-0.86-33.52-3.38-50.32
		c-3.8-25.31-5.36-50.74-8.24-76.15c-2.52-22.2-8.03-43.53-11.45-65.5c10.09,31.09,16.67,63.06,23.64,94.96
		c2.97,13.6,6.54,26.91,11.16,40.04c4.73,13.46,10.45,27.54,11.87,41.83c0.98,9.79,0.49,19.23-0.32,28.99
		c-0.51,6.11-2.36,13.91,0.55,19.78c1.41,1.74,2.81,3.49,4.22,5.23c2.86,4.85,4.99,9.98,6.4,15.39c2.04,6.47,4.79,13.92,6.57,20.47
		L750.46,768l-219.26-0.46l-289.99,0.62L1.36,768.33L7.59,750.52z"/>
</g>
</svg>
