<?xml version="1.0" encoding="UTF-8"?><svg id="Ebene_1" xmlns="http://www.w3.org/2000/svg" xmlns:xlink="http://www.w3.org/1999/xlink" viewBox="0 0 320.14 234.55"><defs><style>.cls-1{fill:url(#linear-gradient);stroke-width:0px;}</style><linearGradient id="linear-gradient" x1="0" y1="203.39" x2="320.14" y2="203.39" gradientTransform="translate(0 320.66) scale(1 -1)" gradientUnits="userSpaceOnUse"><stop offset="0" stop-color="#e6ff00"/><stop offset="1" stop-color="#ff00f2"/></linearGradient></defs><path class="cls-1" d="m187.18,23.04c-1.13-4.07-3.25-7.8-6.22-10.81C175.48,6.67,168.02.46,161.15.02c-7.37-.47-7.37,7.16-6.34,12.37,1.11,5.62,2.67,7.42-.08,12.63-2.58,4.89-4.74,7.47-3.63,13.46,1.38,7.43,5.84,14.37,4.65,22.25-.81,5.37-1.82,9.19-1.34,14.74.44,5.13-.22,8.3-4.7,11.54-5.95,4.31-12.98,6.11-20,7.74-10.17,2.36-18.03,1.76-28.24-.14-7.11-1.32-12.88-1.81-19.94.2-6.84,1.95-13.33,5.44-19.96,7.99-6.46,2.49-13.12,6.32-20.02,7.36-4.06.61-8.15-.4-12.19.2-7,1.04-11.46,6.25-16.39,10.77-6.42,5.88-11.55,7.89-12.97,17.13,4.65,4.31,10.79-2.32,14.13-4.37,8.82-5.41,21.78,1.03,30.8,2.21,5.28.7,10.68.5,15.99,1.16,5.18.64,10.28,1.59,15.52,1.73,5.77.15,11.29-.16,17.06.35,6.68.58,9.43-.53,15.74-2.73,6.54-2.27,12.42-2.7,19.28-2.05,2.76.26,8.95.11,10.47,3.4,1.13,2.45.2,10.04-.43,12.31-1.26,4.48-4.48,10.56-6.55,14.69-7.11,14.22-22.43,17.87-33.36,28.23-5.28,5.01-9.44,10.36-11.67,17.35-1.62,5.07-2.1,10.41-3.06,15.62-.38,2.03-1.61,3.6.09,5.42,2.51,2.68,7.6-1.47,9.16-2.95,3.38-3.21,5.44-7.18,9.38-9.97,5.58-3.94,12.85-8.78,19.12-11.2,4.79-1.84,9.45-4.04,13.65-7,6.51-4.59,14.2-3.97,20.5-8.57,5.94-4.35,9.36-10.32,13.11-16.53,3.72-6.16,7.67-11.65,12.76-16.8,5.3-5.35,12.56-14.23,21.16-10.54,3.38,1.45,5.57,4.45,7.78,7.2,4.6,5.73,8.96,11.7,13.52,17.47,5.16,6.52,9.5,13.12,12.38,20.95,3.06,8.33,5.66,16.49,10.53,24,5.12,7.9,11.35,12.37,20.35,15.06,4.18,1.25,16.82,3.89,19.71-.94-3.51-10.17-10.06-17.68-13.93-27.78-3.33-8.71-9.27-18.79-7.28-28.22,2.22-10.52,3.82-21.55-6.05-28.82-6.43-4.74-13.53-9.26-13.8-18.28-.28-9.12,6.62-15.15,12.53-20.89,10.15-9.86,23.36-15.38,33.36-25.5,5.01-5.07,9.3-10.7,13.74-16.26,4.02-5.02,8.33-9.86,11.55-15.44,2.05-3.55,3.44-7.54,2.7-11.71-.46-2.58-2.87-8.07-6.49-7.88-3.31.17-4.89,4.85-6.47,7.05-2.31,3.22-4.01,5.84-7.78,7.39-6.01,2.47-12.63,2.23-18.59,4.9-9.81,4.4-21.79,6.73-29.53,14.45-7.92,7.9-14.02,15.02-25.48,17.6-6.89,1.55-9.61.77-12.88-5.74-1.86-3.71-2.14-6.49-1.46-10.59.58-3.5,2.78-6.8,1.72-10.46-2.23-7.77-10.83-9.28-16.61-12.99-2.6-1.67.1-2.48-3.6-7.48-1.97-2.67.28-2.96-4.21-8.25l-1.38-3.82Z"/></svg>