<svg version="1.1" xmlns="http://www.w3.org/2000/svg" xmlns:xlink="http://www.w3.org/1999/xlink" width="1440" height="900" viewBox="0,0,1440,900"><defs><radialGradient cx="0" cy="0" r="1698.1166" gradientUnits="userSpaceOnUse" id="color-1"><stop offset="0" stop-color="#b3d9ff"/><stop offset="1" stop-color="#ffffff"/></radialGradient><clipPath id="clip-1"><rect x="-160.07" y="-117.275" width="320.14" height="234.55" fill="none" stroke-width="1"/></clipPath><linearGradient x1="-160.07" y1="-0.005" x2="160.07" y2="-0.005" gradientUnits="userSpaceOnUse" id="color-2"><stop offset="0" stop-color="#e6ff00"/><stop offset="1" stop-color="#ff00f2"/></linearGradient><symbol viewBox="-160.07,-117.275,320.14,234.55" id="symbol-1"><g clip-path="url(#clip-1)" id="Ebene_1" fill="none" fill-rule="nonzero" stroke="none" stroke-width="none" stroke-linecap="butt" stroke-linejoin="miter" stroke-miterlimit="10" stroke-dasharray="" stroke-dashoffset="0" font-family="none" font-weight="none" font-size="none" text-anchor="none" style="mix-blend-mode: normal"><path d="M27.11,-94.235c-1.13,-4.07 -3.25,-7.8 -6.22,-10.81c-5.48,-5.56 -12.94,-11.77 -19.81,-12.21c-7.37,-0.47 -7.37,7.16 -6.34,12.37c1.11,5.62 2.67,7.42 -0.08,12.63c-2.58,4.89 -4.74,7.47 -3.63,13.46c1.38,7.43 5.84,14.37 4.65,22.25c-0.81,5.37 -1.82,9.19 -1.34,14.74c0.44,5.13 -0.22,8.3 -4.7,11.54c-5.95,4.31 -12.98,6.11 -20,7.74c-10.17,2.36 -18.03,1.76 -28.24,-0.14c-7.11,-1.32 -12.88,-1.81 -19.94,0.2c-6.84,1.95 -13.33,5.44 -19.96,7.99c-6.46,2.49 -13.12,6.32 -20.02,7.36c-4.06,0.61 -8.15,-0.4 -12.19,0.2c-7,1.04 -11.46,6.25 -16.39,10.77c-6.42,5.88 -11.55,7.89 -12.97,17.13c4.65,4.31 10.79,-2.32 14.13,-4.37c8.82,-5.41 21.78,1.03 30.8,2.21c5.28,0.7 10.68,0.5 15.99,1.16c5.18,0.64 10.28,1.59 15.52,1.73c5.77,0.15 11.29,-0.16 17.06,0.35c6.68,0.58 9.43,-0.53 15.74,-2.73c6.54,-2.27 12.42,-2.7 19.28,-2.05c2.76,0.26 8.95,0.11 10.47,3.4c1.13,2.45 0.2,10.04 -0.43,12.31c-1.26,4.48 -4.48,10.56 -6.55,14.69c-7.11,14.22 -22.43,17.87 -33.36,28.23c-5.28,5.01 -9.44,10.36 -11.67,17.35c-1.62,5.07 -2.1,10.41 -3.06,15.62c-0.38,2.03 -1.61,3.6 0.09,5.42c2.51,2.68 7.6,-1.47 9.16,-2.95c3.38,-3.21 5.44,-7.18 9.38,-9.97c5.58,-3.94 12.85,-8.78 19.12,-11.2c4.79,-1.84 9.45,-4.04 13.65,-7c6.51,-4.59 14.2,-3.97 20.5,-8.57c5.94,-4.35 9.36,-10.32 13.11,-16.53c3.72,-6.16 7.67,-11.65 12.76,-16.8c5.3,-5.35 12.56,-14.23 21.16,-10.54c3.38,1.45 5.57,4.45 7.78,7.2c4.6,5.73 8.96,11.7 13.52,17.47c5.16,6.52 9.5,13.12 12.38,20.95c3.06,8.33 5.66,16.49 10.53,24c5.12,7.9 11.35,12.37 20.35,15.06c4.18,1.25 16.82,3.89 19.71,-0.94c-3.51,-10.17 -10.06,-17.68 -13.93,-27.78c-3.33,-8.71 -9.27,-18.79 -7.28,-28.22c2.22,-10.52 3.82,-21.55 -6.05,-28.82c-6.43,-4.74 -13.53,-9.26 -13.8,-18.28c-0.28,-9.12 6.62,-15.15 12.53,-20.89c10.15,-9.86 23.36,-15.38 33.36,-25.5c5.01,-5.07 9.3,-10.7 13.74,-16.26c4.02,-5.02 8.33,-9.86 11.55,-15.44c2.05,-3.55 3.44,-7.54 2.7,-11.71c-0.46,-2.58 -2.87,-8.07 -6.49,-7.88c-3.31,0.17 -4.89,4.85 -6.47,7.05c-2.31,3.22 -4.01,5.84 -7.78,7.39c-6.01,2.47 -12.63,2.23 -18.59,4.9c-9.81,4.4 -21.79,6.73 -29.53,14.45c-7.92,7.9 -14.02,15.02 -25.48,17.6c-6.89,1.55 -9.61,0.77 -12.88,-5.74c-1.86,-3.71 -2.14,-6.49 -1.46,-10.59c0.58,-3.5 2.78,-6.8 1.72,-10.46c-2.23,-7.77 -10.83,-9.28 -16.61,-12.99c-2.6,-1.67 0.1,-2.48 -3.6,-7.48c-1.97,-2.67 0.28,-2.96 -4.21,-8.25z" fill="url(#color-2)" stroke-width="0"/></g></symbol><clipPath id="clip-2"><rect x="-500" y="-384" width="1000" height="768" fill="none"/></clipPath><symbol viewBox="-500,-384,1000,768" id="symbol-2"><g clip-path="url(#clip-2)" id="Ebene_1" fill="none" fill-rule="nonzero" stroke="none" stroke-width="1" stroke-linecap="butt" stroke-linejoin="miter" stroke-miterlimit="10" stroke-dasharray="" stroke-dashoffset="0" font-family="none" font-weight="none" font-size="none" text-anchor="none" style="mix-blend-mode: normal"><g fill="#00ff00"><path d="M-492.41,366.52c5.37,-11.27 9.35,-23.01 11.93,-35.22c2.07,-11.23 3.25,-22.55 3.53,-33.96c1.15,-23.76 0.57,-47.57 1.62,-71.32c1.14,-25.75 5.07,-51.34 6.48,-77.1c1.05,-19.17 -0.34,-38.92 2.35,-57.93c2.92,1.63 3.93,4.52 3.03,8.67c1.23,5.38 2.16,10.81 2.78,16.28c2.43,18.07 5.02,36.25 7.11,54.36c3.63,31.61 5.93,63.99 4.58,95.82c-0.83,19.63 -4.96,39.06 -2.35,58.73c0.91,6.84 2.25,13.9 4.48,20.45c1.03,3.04 2.45,6.14 5.13,8.1c8.78,6.39 10.44,-7.13 10.57,-13.04c0.17,-7.91 -0.33,-15.45 1.9,-23.17c1.73,-6 4.88,-11.59 7.5,-17.25c2.99,-6.46 4.8,-12.01 5.05,-19.32c0.36,-10.36 -0.21,-20.96 -0.16,-31.33c0.12,-31.71 -3.32,-62.97 -4.17,-94.62c1.96,10.15 5.87,19.91 8.56,29.89c3.83,14.26 6.93,28.53 11.31,42.65c3.71,11.95 6.13,22.38 4.76,34.97c-1.15,10.58 -3.34,21.3 -5.06,31.83c-1.04,7.03 -2.83,13.85 -5.36,20.48c-2.13,4.66 -3.87,9.46 -5.23,14.4c-1.13,6.64 -0.17,12.15 2.81,18.27c2.03,4.16 5.04,10.37 9.4,12.68c5.35,2.83 12.06,0.79 15.5,-3.82c4.32,-5.79 2.34,-15 3.73,-21.77c1.52,-7.39 4.57,-14.27 6.33,-21.61c2.25,-9.36 4.58,-16.71 7.92,-25.7c4.61,-12.4 5.34,-25.26 4.72,-38.35c-0.95,-20.09 -3.98,-39.43 -6.86,-59.28c-2.78,-19.16 -3.46,-38.41 -4.24,-57.75c-0.8,-19.74 0,-39.29 0.23,-59.01c-0.1,-13.17 -0.5,-26.34 -1.21,-39.49c-1.14,-5.71 -0.87,-11.25 0.82,-16.63c7.69,24.69 9.21,51.44 14.6,76.73c3.84,18.03 7.87,36.09 13.19,53.75c4.18,13.88 9.63,27.39 13.67,41.32c4.67,16.1 6.23,32.53 5.02,49.15c-0.99,13.55 -3.69,26.79 -5.56,40.24c-1.28,9.17 -2.47,18.34 -3.93,27.48c-1.37,8.58 -3.2,17.04 -2.61,25.76c0.42,6.2 3.92,22.92 13.18,22.59c7.93,-0.28 6.93,-15.49 7.3,-20.23c1.4,-17.72 6.8,-34.88 9.05,-52.5c2.33,-18.27 1.41,-36.97 4.33,-55.12c3.44,13.4 4.89,28.58 4.78,42.42c-0.14,16.24 -2.73,31.13 3.12,46.77c3.47,9.28 13.35,24.73 24.33,26.89c10.5,2.06 5.41,-12.29 4.67,-17.57c-1.92,-13.57 2.64,-25.11 4.56,-38.39c1.04,-7.2 2.2,-14.51 2.9,-21.74c0.94,-9.67 -0.02,-17.51 -4.82,-26.21c-9,-16.29 -18.8,-32.4 -25.89,-49.65c-4.51,-10.96 -7.41,-22.51 -10.47,-33.92c-3.35,-12.5 -8,-25.84 -9.55,-38.8c9.33,13.48 18.19,28.12 25.21,42.9c5.24,11.01 9.46,22.64 15.33,33.34c7.21,13.13 18.28,22.95 24.38,36.83c4.46,10.15 7.43,20.28 7.55,31.45c0.21,19.12 -5.23,38.04 -3.84,57.19c0.65,8.91 5.65,24.44 16.91,25.18c13.15,0.86 11.29,-20.64 12.99,-28.75c1.93,-9.16 6.44,-17.12 10.88,-25.26c5.31,-9.75 10.48,-19.7 15.22,-29.74c6.33,-13.41 6.8,-24.41 5.37,-39.03c-1.14,-11.77 -2.75,-23.4 -2.8,-35.25c-0.05,-10.73 1.49,-20.83 3.82,-31.32c1.7,-7.67 2.84,-15.67 6.32,-22.73c4.06,7.89 2.53,19.39 2.72,27.72c0.28,12.03 1.42,23.36 4.6,35.04c2.76,10.14 6.91,19.65 10.23,29.57c4.14,12.36 3.91,25.31 -0.61,37.45c-3.99,10.72 -10.22,20.43 -14.03,31.26c-2.37,6.73 -4.34,13.58 -5.95,20.53c-1.45,6.25 -5.43,24.5 6.06,24.75c8.84,0.19 15.6,-11.74 20,-17.45c8.27,-10.73 28.3,-0.74 37.9,-6.98c2.18,-1.84 4.37,-3.68 6.55,-5.52c-0.9,-5.43 -1.61,-10.89 -2.12,-16.37c1.51,-9.21 7.81,-16.87 12.16,-24.84c5.26,-9.63 7.42,-19.5 8.88,-30.22c0.84,-6.15 0.85,-15.13 3.81,-20.98c1.75,-3.45 4.96,-5.93 7.79,-8.42c-1.64,12.37 -3.8,24.44 -4.06,36.97c-0.26,12.66 0.76,25.26 0.42,37.93c-0.25,9.6 0.77,19.81 -3.02,28.89c-3.77,9.02 -11.81,16.16 -21.07,19.07c-10.48,3.3 -32.07,0.64 -37.34,13.13c-6.15,14.57 16.02,11 22.88,9.31c7.08,-1.75 13.76,-4.77 20.82,-6.53c7.95,-1.98 15.65,-1.25 23.68,-1.22c23.9,0.07 27.61,-23.48 31.07,-42.22c2.07,-11.23 3.41,-22.62 5.73,-33.8c2.51,-12.09 7.06,-23.49 8.92,-35.75c2.32,-15.32 1.51,-30.91 0.09,-46.26c-0.87,-9.44 -2.6,-18.73 -2.84,-28.22c0.8,21.79 3.48,43.94 8.78,65.11c3.32,13.23 9.22,26.54 10.62,40.2c0.97,9.44 -0.82,18.51 -3.11,27.58c-2.4,9.52 -11.51,26.17 -4.64,35.94c1.19,1.69 3.46,3.88 5.5,4.54c2.87,0.92 2.89,0.23 5.01,-1.74c3.56,-3.32 6.33,-5.85 10.79,-8.17c6.65,-3.46 13.65,-6.69 17.14,-13.84c3.27,-6.7 4.64,-14.58 5.88,-21.86c2.23,-13.13 3.32,-26.52 4.13,-39.8c2.06,-33.77 -1.98,-67.47 -7.94,-100.7c-2.05,-11.46 -5.3,-23.02 -6.3,-34.65c-0.71,-8.22 2.46,-15.23 1.65,-23.08c-2.68,0.33 -3.55,1.89 -2.61,4.69c-0.48,3.56 -0.03,7.03 1.35,10.43c3.41,15.44 7.76,30.63 12.3,45.77c6.61,22.09 14.84,44.12 19.49,66.75c2.75,13.36 4.65,26.74 5.75,40.33c1.14,14.17 1.7,29.28 1.17,43.52c-0.24,6.46 -0.65,12.77 -2.4,19.02c-2.49,8.88 -7.45,13.23 -14.58,18.38c-3.13,2.26 -8.63,5.08 -8.71,9.52c-0.07,4.27 3.58,6.46 8.23,7.04c5.93,0.75 11.01,-0.79 15.87,-4.24c9.71,-6.9 14,-18.51 18.99,-28.91c4.46,-9.3 10.04,-19.3 11.93,-29.49c2.72,-14.74 1.58,-29.66 -0.91,-44.33c-3.58,-21.07 -13.91,-45.24 -7.48,-66.71c4.65,3.05 7.07,7.62 7.27,13.7c2.31,11.11 4.11,22.31 5.38,33.6c1.39,10.76 3.53,21.37 6.43,31.83c2.84,9.15 5.83,18.24 8.99,27.29c2.57,7.69 3.5,15.56 2.78,23.61c-1.08,5.71 -1.43,11.45 -1.05,17.24c2.43,8.17 8.91,6.92 14.33,2.69c10.26,-8.02 7.92,-25.55 7.9,-36.78c-0.06,-23.25 -2.41,-45.69 -7.32,-68.41c-4.93,-22.79 -9.04,-45.41 -12.27,-68.52c-0.41,-2.96 -5.97,-26.76 -1.62,-28.88c10.43,22.29 14.64,47.7 20.96,71.35c7.5,28.03 17.48,56.03 21.88,84.78c1.42,9.87 2.26,19.79 2.52,29.75c-0.11,6.4 0.73,12.66 2.52,18.78c3.93,9.83 12.5,13.42 21.19,6.54c10.78,-8.52 9.27,-24.08 9.25,-36.21c-0.26,-8.84 -0.29,-17.69 -0.08,-26.53c0.61,-9.41 2.25,-18.65 4.92,-27.7c4.67,-17.72 10.28,-36.68 18.55,-53.1c3.61,-7.18 8.88,-12.46 12.81,-19.22c-7,14.06 -8.8,30.43 -9.73,45.9c-1.23,20.67 1.14,40.79 2.72,61.34c0.89,11.5 0.56,22.75 -0.67,34.19c-0.66,6.11 -2.6,13.64 -1.17,19.78c0.83,3.57 3.24,8.66 7.49,9.18c6.65,0.8 10.53,-7.56 12.6,-12.35c6.67,-15.47 3.96,-32.51 4.54,-48.88c0.34,-9.51 2.97,-18.59 7.56,-27.01c3.28,-6.03 7.72,-11.4 10.99,-17.38c10.84,-19.81 6.03,-46.62 1,-67.41c-6.48,-26.77 -22.47,-51.25 -34.75,-75.65c3.65,3.85 6.1,8.75 8.69,13.36c9.24,16.48 15.56,35.18 22.85,52.61c5.44,13.02 10.81,26.02 14.95,39.52c3.83,12.49 8.41,26.44 7.71,39.75c-0.63,11.98 -7.78,21.97 -9.52,33.65c-0.91,6.09 0.07,12.24 0.9,18.31c1.2,8.8 2.59,20.81 8.97,27.55c2.98,3.14 9.03,8.78 14.07,7.4c4.55,-1.24 6.55,-7.26 8,-11.02c5.29,-13.69 6.56,-29.07 6.29,-43.59c-0.28,-15.26 1.31,-31.3 4,-46.35c1.51,-8.46 3.82,-16.62 8.42,-23.96c1.29,-2.05 4.06,-7.93 6.88,-8.21c-2.73,16.23 -6.49,32.65 -4.8,49.23c1.16,11.36 5.27,22.25 8.09,33.24c2.5,9.71 3.92,19.3 4.44,29.34c0.29,5.7 0.25,11.51 1.89,17.05c0.74,3.67 2.59,6.43 5.55,8.28c1.21,1.92 2.75,2.31 4.62,1.17c6.53,-0.66 8.12,-11.52 9.03,-16.66c2.06,-11.58 1.26,-23.66 2.8,-35.33c2.56,-19.35 9.6,-38.32 10.33,-57.85c1.06,-28.32 -20.67,-46.8 -36.07,-67.42c-7.24,-9.69 -13.59,-20.01 -20.84,-29.7c-8.29,-11.07 -17.63,-22.28 -23.87,-34.65c-3.99,-7.92 -7.21,-15.91 -9.24,-24.53c-1.31,-5.54 -2.12,-11.02 -3.65,-16.5c10.66,16.27 21.79,32.22 32.24,48.63c7.56,11.86 14.66,23.96 22.96,35.34c5.99,8.21 12.38,16.09 18.18,24.44c12.9,18.56 21.12,38.4 26.3,60.35c2.2,9.31 3.88,18.54 4.26,28.11c0.43,10.63 -0.14,21.23 -0.07,31.87c0.1,16.59 1.41,32.86 7.7,48.4c1.76,4.34 4.8,12.79 9.54,14.99c4.47,2.07 8.79,-0.27 11.83,-3.59c4.96,-5.42 6.26,-14.91 7.29,-21.78c1.77,-11.87 0.28,-25.12 0.17,-37.16c-0.1,-10.93 -0.92,-22.92 5.06,-32.53c3.21,7.61 1.15,18.67 1.59,26.47c0.65,11.54 2.14,22.76 5.81,33.77c2.71,8.13 6.46,16.14 8.3,24.53c0.46,2.43 0.91,4.86 1.37,7.3c-0.3,4.13 1.17,7.35 4.42,9.67c6.42,-1.23 10.85,-5.11 13.31,-11.63c4,-9.36 5.95,-19.13 5.84,-29.32c0.87,-17.02 -0.86,-33.52 -3.38,-50.32c-3.8,-25.31 -5.36,-50.74 -8.24,-76.15c-2.52,-22.2 -8.03,-43.53 -11.45,-65.5c10.09,31.09 16.67,63.06 23.64,94.96c2.97,13.6 6.54,26.91 11.16,40.04c4.73,13.46 10.45,27.54 11.87,41.83c0.98,9.79 0.49,19.23 -0.32,28.99c-0.51,6.11 -2.36,13.91 0.55,19.78c1.41,1.74 2.81,3.49 4.22,5.23c2.86,4.85 4.99,9.98 6.4,15.39c2.04,6.47 4.79,13.92 6.57,20.47l-248.53,0.86l-219.26,-0.46l-289.99,0.62l-239.85,0.17z"/></g></g></symbol><clipPath id="clip-3"><rect x="-388.775" y="-195.76" width="777.55" height="391.52" fill="none" stroke="none" stroke-width="1"/></clipPath><symbol viewBox="-388.775,-195.76,777.55,391.52" id="symbol-3"><g clip-path="url(#clip-3)" id="Layer_1" fill="none" fill-rule="nonzero" stroke="none" stroke-width="none" stroke-linecap="butt" stroke-linejoin="miter" stroke-miterlimit="10" stroke-dasharray="" stroke-dashoffset="0" font-family="none" font-weight="none" font-size="none" text-anchor="none" style="mix-blend-mode: normal"><path d="M144.685,-9.39c-63.61,-17.89 -120.79,-40.56 -186.96,-57.89c-6.28,-1.64 -12.6,-3.21 -18.95,-4.7l20.26,1.43c2.48,-36.23 32.12,-68.81 67.95,-74.71c-10.43,-14.48 -32.31,-11.99 -49.69,-7.95c0.37,-12.03 12.05,-22.5 24.05,-21.55c-13.33,-8.37 -30.71,-5.83 -45.67,-0.92c-14.96,4.91 -29.7,11.99 -45.45,11.88c1.11,-10.38 8.65,-19.79 18.54,-23.13c-13.05,-12.26 -34.69,-7.54 -49.72,2.19c-15.03,9.73 -27.63,23.69 -44.48,29.73c6.44,-9.68 11.41,-20.33 14.69,-31.48c-18.78,17.97 -43.22,28.62 -64.67,43.29c-21.45,14.67 -41.2,31.42 -42.05,57.4l27.86,1.96c-18.79,2.61 -37.33,6.85 -55.44,13.06c-28.67,9.84 -56.28,24.9 -76.06,47.87c-19.78,22.97 -30.82,54.68 -24.29,84.28c8.46,38.37 44.65,65.92 82.88,75c38.23,9.08 78.33,2.97 116.79,-5.06c0,0 49.54,-10 72.03,-17.63c0,0 4.22,41.69 35.28,49c31.06,7.31 60.29,21.92 60.29,29.23c0,7.31 23.75,-3.65 5.48,-16.44c-18.27,-12.79 -8.11,-30.21 6.91,-21.5c15.02,8.71 33.29,30.64 33.29,34.29c0,3.65 -20.1,-38.37 -20.1,-38.37c0,0 18.27,7.51 20.1,14.72c1.83,7.21 -7.31,-29.33 -21.92,-32.99c-14.62,-3.65 -40.53,-13.81 -48.58,-21.52c-8.05,-7.71 -8.05,-16.45 -8.05,-16.45c0,0 131.93,-26.64 195.68,-103.04" fill="#0000ff" stroke="#00ff00" stroke-width="3"/><path d="M351.795,32.59c11.83,-2.24 23.66,-4.49 35.49,-6.73c-9.76,-15.82 -23.87,-28.93 -40.36,-37.51c13.61,2.84 28.33,-0.06 39.84,-7.85c-19.04,-12.04 -40.98,-19.46 -63.42,-21.46c8.39,-13.07 20.91,-23.43 35.31,-29.23c-38.34,-16.12 -82.25,-32.26 -120.1,-15.02c-17.08,7.78 -30.56,21.53 -44.27,34.34c-15.8,14.77 -32.38,28.57 -49.6,41.48c11.87,3.34 23.93,6.53 36.35,9.47c0.93,0.22 11.52,3.7 12.45,3.91c0,0 0.34,-0.26 3.99,1.57c3.65,1.83 20.1,10.96 36.12,18.58c16.02,7.62 71.77,38.29 71.77,38.29c10.87,5.42 22.26,10.84 34.4,10.96c12.14,0.12 25.24,-6.68 28.4,-18.4c2.8,-10.42 -6.29,-22.7 -16.37,-22.4z" fill="#0000ff" stroke="none" stroke-width="0"/><path d="M352.195,34.03c11.83,-2.24 23.66,-4.49 35.49,-6.73c0.95,-0.18 1.38,-1.43 0.9,-2.2c-7.74,-12.49 -18.06,-23.28 -30.17,-31.6c-3.44,-2.36 -7.03,-4.51 -10.73,-6.45l-1.16,2.74c14.07,2.87 29.05,0 41,-8c0.94,-0.63 0.99,-1.97 0,-2.59c-15.06,-9.49 -31.88,-16.17 -49.35,-19.57c-4.9,-0.95 -9.85,-1.64 -14.82,-2.09l1.3,2.26c8.22,-12.73 20.37,-22.84 34.42,-28.54c1.43,-0.58 1.4,-2.3 0,-2.89c-14.95,-6.28 -30.08,-12.31 -45.74,-16.62c-15.66,-4.31 -30.97,-6.8 -46.7,-5.55c-15.73,1.25 -30.15,6.54 -42.95,15.47c-12.87,8.97 -23.78,20.37 -35.32,30.91c-12.63,11.53 -25.77,22.51 -39.35,32.91c-1.68,1.29 -3.37,2.57 -5.07,3.84c-0.99,0.74 -0.98,2.36 0.36,2.74c7.21,2.03 14.44,3.99 21.7,5.85c5.55,1.42 11.24,2.52 16.7,4.24c3.36,1.06 6.71,2.37 10.13,3.22c0.37,0.09 0.68,0.07 1.06,0.07l0.36,-0.15c0.18,-0.05 -0.95,0.28 -0.66,0.19c-0.25,0.07 -0.2,-0.06 0.19,0.08c0.39,0.14 0.75,0.27 1.12,0.43c1.6,0.7 3.14,1.54 4.68,2.36c10.86,5.78 21.72,11.58 32.83,16.88c6.02,2.87 11.92,5.98 17.81,9.09c14.83,7.82 29.56,15.83 44.28,23.87c3.35,1.83 6.66,3.72 10.03,5.5c5.25,2.77 10.73,5.29 16.3,7.35c6.46,2.39 13.38,4.07 20.31,3.84c10.44,-0.34 21.74,-5.44 26.72,-15.04c2.51,-4.84 3,-10.29 1.1,-15.43c-1.8,-4.87 -5.35,-9.32 -10.06,-11.65c-2.22,-1.1 -4.63,-1.7 -7.11,-1.66c-1.93,0.03 -1.93,3.03 0,3c8.53,-0.14 15.3,8.72 15.38,16.77c0.09,8.97 -7.74,15.96 -15.53,18.9c-10.02,3.78 -20.67,1.9 -30.44,-1.77c-5.8,-2.18 -11.46,-4.86 -16.89,-7.84c-9.76,-5.36 -19.53,-10.68 -29.32,-15.97c-11.91,-6.44 -23.82,-12.9 -35.92,-19c-7.85,-3.96 -15.8,-7.72 -23.6,-11.79c-4.05,-2.11 -8.09,-4.26 -12.12,-6.42c-2.7,-1.44 -5.4,-3.05 -8.27,-4.12c-0.72,-0.27 -1.63,-0.58 -2.35,-0.14l1.16,-0.15c-3.84,-0.95 -7.59,-2.42 -11.37,-3.59c-3.07,-0.95 -6.26,-1.56 -9.38,-2.33c-4.45,-1.11 -8.89,-2.25 -13.33,-3.43c-4.92,-1.3 -9.82,-2.65 -14.72,-4.03l0.36,2.74c13.5,-10.13 26.61,-20.78 39.23,-32c11.74,-10.43 22.66,-21.88 35.02,-31.59c6.01,-4.72 12.46,-8.95 19.42,-12.14c6.96,-3.19 14.43,-5.29 22,-6.38c15.42,-2.23 31.19,-0.23 46.21,3.48c15.02,3.71 30.62,9.57 45.42,15.68c1.84,0.76 3.67,1.52 5.5,2.29v-2.89c-14.81,6.01 -27.53,16.48 -36.21,29.92c-0.67,1.03 0.23,2.16 1.3,2.26c17.26,1.56 34.23,6.34 49.76,14.02c4.42,2.19 8.73,4.61 12.9,7.24v-2.59c-11.27,7.55 -25.38,10.41 -38.69,7.7c-1.58,-0.32 -2.74,1.91 -1.16,2.74c12.69,6.63 23.9,15.87 32.84,27.04c2.53,3.16 4.85,6.49 6.98,9.93l0.9,-2.2c-11.83,2.24 -23.66,4.49 -35.49,6.73c-1.89,0.36 -1.09,3.25 0.8,2.89z" fill="#00ff00" stroke="none" stroke-width="0"/></g></symbol><clipPath id="clip-4"><rect x="-388.775" y="-195.76" width="777.55" height="391.52" fill="none" stroke="none" stroke-width="1"/></clipPath><symbol viewBox="-388.775,-195.76,777.55,391.52" id="symbol-4"><g clip-path="url(#clip-4)" id="Layer_1" fill="none" fill-rule="nonzero" stroke="none" stroke-width="none" stroke-linecap="butt" stroke-linejoin="miter" stroke-miterlimit="10" stroke-dasharray="" stroke-dashoffset="0" font-family="none" font-weight="none" font-size="none" text-anchor="none" style="mix-blend-mode: normal"><path d="M144.685,-9.39c-63.61,-17.89 -120.79,-40.56 -186.96,-57.89c-6.28,-1.64 -12.6,-3.21 -18.95,-4.7l20.26,1.43c2.48,-36.23 32.12,-68.81 67.95,-74.71c-10.43,-14.48 -32.31,-11.99 -49.69,-7.95c0.37,-12.03 12.05,-22.5 24.05,-21.55c-13.33,-8.37 -30.71,-5.83 -45.67,-0.92c-14.96,4.91 -29.7,11.99 -45.45,11.88c1.11,-10.38 8.65,-19.79 18.54,-23.13c-13.05,-12.26 -34.69,-7.54 -49.72,2.19c-15.03,9.73 -27.63,23.69 -44.48,29.73c6.44,-9.68 11.41,-20.33 14.69,-31.48c-18.78,17.97 -43.22,28.62 -64.67,43.29c-21.45,14.67 -41.2,31.42 -42.05,57.4l27.86,1.96c-18.79,2.61 -37.33,6.85 -55.44,13.06c-28.67,9.84 -56.28,24.9 -76.06,47.87c-19.78,22.97 -30.82,54.68 -24.29,84.28c8.46,38.37 44.65,65.92 82.88,75c38.23,9.08 78.33,2.97 116.79,-5.06c0,0 49.54,-10 72.03,-17.63c0,0 4.22,41.69 35.28,49c31.06,7.31 60.29,21.92 60.29,29.23c0,7.31 23.75,-3.65 5.48,-16.44c-18.27,-12.79 -8.11,-30.21 6.91,-21.5c15.02,8.71 33.29,30.64 33.29,34.29c0,3.65 -20.1,-38.37 -20.1,-38.37c0,0 18.27,7.51 20.1,14.72c1.83,7.21 -7.31,-29.33 -21.92,-32.99c-14.62,-3.65 -40.53,-13.81 -48.58,-21.52c-8.05,-7.71 -8.05,-16.45 -8.05,-16.45c0,0 131.93,-26.64 195.68,-103.04" fill="#9b9bea" stroke="#ff7bac" stroke-width="3"/><path d="M351.795,32.59c11.83,-2.24 23.66,-4.49 35.49,-6.73c-9.76,-15.82 -23.87,-28.93 -40.36,-37.51c13.61,2.84 28.33,-0.06 39.84,-7.85c-19.04,-12.04 -40.98,-19.46 -63.42,-21.46c8.39,-13.07 20.91,-23.43 35.31,-29.23c-38.34,-16.12 -82.25,-32.26 -120.1,-15.02c-17.08,7.78 -30.56,21.53 -44.27,34.34c-15.8,14.77 -32.38,28.57 -49.6,41.48c11.87,3.34 23.93,6.53 36.35,9.47c0.93,0.22 11.52,3.7 12.45,3.91c0,0 0.34,-0.26 3.99,1.57c3.65,1.83 20.1,10.96 36.12,18.58c16.02,7.62 71.77,38.29 71.77,38.29c10.87,5.42 22.26,10.84 34.4,10.96c12.14,0.12 25.24,-6.68 28.4,-18.4c2.8,-10.42 -6.29,-22.7 -16.37,-22.4z" fill="#9b9bea" stroke="none" stroke-width="0"/><path d="M352.195,34.03c11.83,-2.24 23.66,-4.49 35.49,-6.73c0.95,-0.18 1.38,-1.43 0.9,-2.2c-7.74,-12.49 -18.06,-23.28 -30.17,-31.6c-3.44,-2.36 -7.03,-4.51 -10.73,-6.45l-1.16,2.74c14.07,2.87 29.05,0 41,-8c0.94,-0.63 0.99,-1.97 0,-2.59c-15.06,-9.49 -31.88,-16.17 -49.35,-19.57c-4.9,-0.95 -9.85,-1.64 -14.82,-2.09l1.3,2.26c8.22,-12.73 20.37,-22.84 34.42,-28.54c1.43,-0.58 1.4,-2.3 0,-2.89c-14.95,-6.28 -30.08,-12.31 -45.74,-16.62c-15.66,-4.31 -30.97,-6.8 -46.7,-5.55c-15.73,1.25 -30.15,6.54 -42.95,15.47c-12.87,8.97 -23.78,20.37 -35.32,30.91c-12.63,11.53 -25.77,22.51 -39.35,32.91c-1.68,1.29 -3.37,2.57 -5.07,3.84c-0.99,0.74 -0.98,2.36 0.36,2.74c7.21,2.03 14.44,3.99 21.7,5.85c5.55,1.42 11.24,2.52 16.7,4.24c3.36,1.06 6.71,2.37 10.13,3.22c0.37,0.09 0.68,0.07 1.06,0.07l0.36,-0.15c0.18,-0.05 -0.95,0.28 -0.66,0.19c-0.25,0.07 -0.2,-0.06 0.19,0.08c0.39,0.14 0.75,0.27 1.12,0.43c1.6,0.7 3.14,1.54 4.68,2.36c10.86,5.78 21.72,11.58 32.83,16.88c6.02,2.87 11.92,5.98 17.81,9.09c14.83,7.82 29.56,15.83 44.28,23.87c3.35,1.83 6.66,3.72 10.03,5.5c5.25,2.77 10.73,5.29 16.3,7.35c6.46,2.39 13.38,4.07 20.31,3.84c10.44,-0.34 21.74,-5.44 26.72,-15.04c2.51,-4.84 3,-10.29 1.1,-15.43c-1.8,-4.87 -5.35,-9.32 -10.06,-11.65c-2.22,-1.1 -4.63,-1.7 -7.11,-1.66c-1.93,0.03 -1.93,3.03 0,3c8.53,-0.14 15.3,8.72 15.38,16.77c0.09,8.97 -7.74,15.96 -15.53,18.9c-10.02,3.78 -20.67,1.9 -30.44,-1.77c-5.8,-2.18 -11.46,-4.86 -16.89,-7.84c-9.76,-5.36 -19.53,-10.68 -29.32,-15.97c-11.91,-6.44 -23.82,-12.9 -35.92,-19c-7.85,-3.96 -15.8,-7.72 -23.6,-11.79c-4.05,-2.11 -8.09,-4.26 -12.12,-6.42c-2.7,-1.44 -5.4,-3.05 -8.27,-4.12c-0.72,-0.27 -1.63,-0.58 -2.35,-0.14l1.16,-0.15c-3.84,-0.95 -7.59,-2.42 -11.37,-3.59c-3.07,-0.95 -6.26,-1.56 -9.38,-2.33c-4.45,-1.11 -8.89,-2.25 -13.33,-3.43c-4.92,-1.3 -9.82,-2.65 -14.72,-4.03l0.36,2.74c13.5,-10.13 26.61,-20.78 39.23,-32c11.74,-10.43 22.66,-21.88 35.02,-31.59c6.01,-4.72 12.46,-8.95 19.42,-12.14c6.96,-3.19 14.43,-5.29 22,-6.38c15.42,-2.23 31.19,-0.23 46.21,3.48c15.02,3.71 30.62,9.57 45.42,15.68c1.84,0.76 3.67,1.52 5.5,2.29v-2.89c-14.81,6.01 -27.53,16.48 -36.21,29.92c-0.67,1.03 0.23,2.16 1.3,2.26c17.26,1.56 34.23,6.34 49.76,14.02c4.42,2.19 8.73,4.61 12.9,7.24v-2.59c-11.27,7.55 -25.38,10.41 -38.69,7.7c-1.58,-0.32 -2.74,1.91 -1.16,2.74c12.69,6.63 23.9,15.87 32.84,27.04c2.53,3.16 4.85,6.49 6.98,9.93l0.9,-2.2c-11.83,2.24 -23.66,4.49 -35.49,6.73c-1.89,0.36 -1.09,3.25 0.8,2.89z" fill="#ff7bac" stroke="none" stroke-width="0"/></g></symbol><clipPath id="clip-5"><rect x="-500" y="-384" width="1000" height="768" fill="none"/></clipPath><linearGradient x1="-378.9737" y1="14.9295" x2="288.9736" y2="14.9295" gradientUnits="userSpaceOnUse" id="color-3"><stop offset="0" stop-color="#ffcc00"/><stop offset="0.1642" stop-color="#ffc800"/><stop offset="0.3259" stop-color="#ffbc00"/><stop offset="0.4869" stop-color="#ffa800"/><stop offset="0.6473" stop-color="#ff8d00"/><stop offset="0.8074" stop-color="#ff6900"/><stop offset="0.9651" stop-color="#ff3e00"/><stop offset="1" stop-color="#ff3300"/></linearGradient><symbol viewBox="-500,-384,1000,768" id="symbol-5"><g clip-path="url(#clip-5)" id="Ebene_1" fill="none" fill-rule="nonzero" stroke="none" stroke-width="1" stroke-linecap="butt" stroke-linejoin="miter" stroke-miterlimit="10" stroke-dasharray="" stroke-dashoffset="0" font-family="none" font-weight="none" font-size="none" text-anchor="none" style="mix-blend-mode: normal"><g><path d="M-185.26,-30.8c-7.45,-12.67 -14.46,-24.59 -26.64,-33.38c-9.46,-6.83 -22.35,-10.84 -33.83,-8.17c-7.52,1.75 -17.82,8.17 -23.91,12.72c-4.4,3.28 -8.06,6.83 -11.5,11.1c-8.65,10.74 -14.1,23.84 -12.4,37.76c0.83,6.8 5.25,12.75 6.26,19.2c0.45,2.88 -0.39,3.7 -3.13,5.31c-4.68,2.74 -9.65,5.09 -14.35,7.86c-15.5,9.14 -30.33,19.32 -45.49,29.01c-7.22,4.61 -14.19,9.56 -21.36,14.25c-2.06,1.35 -8.09,3.62 -7.29,6.64c7.4,1.91 15.68,-1.92 22.96,-3.49c7.39,-1.6 14.56,-2.77 22.07,-3.61c8.58,-0.96 17.32,-0.68 25.76,-2.6c7.07,-1.61 14.1,-3.37 21.19,-4.9c8.31,-1.79 16.73,-3.3 24.98,-5.36c4.42,-1.1 5.59,-1.57 8.01,3.02c7.65,14.55 23.25,22.69 38.7,26.39c12.74,3.05 27.76,5.33 40.92,4.65c2.51,-0.13 2.87,-0.58 4.94,0.85c1.02,2.17 2.22,4.25 3.59,6.23c3.58,4.58 7.2,9.13 10.86,13.66c7.96,9.86 16,19.97 25.33,28.59c11.72,10.83 25.05,18.22 40.32,22.82c7.62,2.29 14.38,3.83 22.3,1.46c3.59,-0.92 6.81,-2.53 9.69,-4.84c0.94,-2.06 2.29,-2.87 4.06,-2.41c-2.39,16.06 -10.43,29.79 -18.36,43.71c-11.61,20.38 -24.94,37.79 -40.5,55.31c-4.12,4.63 -16.06,15.89 -13.82,23.22c2.05,6.73 10.12,5.77 14.91,3.41c8.99,-4.43 15.91,-12.22 21.41,-20.51c5.26,-7.91 8.26,-17.01 14.53,-24.22c3.88,5.15 -3.02,17.36 -3.87,23.34c-1.22,8.57 -1.19,17.75 5.44,23.91c16.41,-5.59 17.21,-33.42 20.3,-47.72c1.33,2.23 1.8,4.71 1.42,7.45c0.29,6.5 0.98,12.96 2.08,19.37c1.89,8.22 5.09,16.8 14.44,17.8c20.44,2.2 7.28,-33.35 4.66,-41.85c-1.87,-6.1 -6.3,-11.25 -7.8,-17.28c-1.6,-6.43 0.3,-14.04 0.96,-20.55c1.13,-11.14 2.66,-22.23 4.14,-33.32c0.26,-1.92 0.18,-9.02 1.82,-10.88c2.84,-3.23 11.24,-0.56 14.92,-0.75c10.5,-0.54 21.16,-3.92 30.44,-8.68c4.15,-1.97 8.11,-4.28 11.86,-6.95c3.02,-1.47 5.9,-3.18 8.64,-5.13c-0.34,-1.6 0.23,-2.63 1.71,-3.1c2.45,0.64 4.5,1.87 6.13,3.71c4.63,5.37 1.47,14.45 0.99,20.98c-1.3,17.95 -2.46,35.8 -4.43,53.7c-1.44,13.14 -2.85,26.35 -5.62,39.29c-0.89,4.17 -6.92,17.31 -0.96,19.84c16.11,-6.85 15.81,-25.8 24.99,-38.66c5.53,7.47 4.02,38.86 20.52,28.33c7.96,-5.08 7.13,-11.69 9.54,-19.81c1.81,10.69 24.03,31.59 30.35,13.66c4.53,-12.85 -9.12,-21.99 -15.89,-30.38c-8.22,-10.19 -17.23,-21.5 -23.67,-32.92c-6.72,-11.92 -9.9,-25.06 -13.1,-38.21c-1.05,-4.31 -4.68,-10.62 -1.75,-14.76c2.43,-3.44 10.99,-5.85 14.58,-7.52c7.34,-3.4 15.33,-4.81 22.73,-8.17c8.72,-3.95 16.2,-9.29 24.27,-14.31c12.13,-7.55 25.12,-13.6 37.26,-21.23c4.2,-2.64 9.47,-7.02 14.4,-8.54c2.62,0.35 5.23,0.23 7.84,-0.38c6.76,-1.21 13.36,-3.01 19.8,-5.42c18.85,-6.96 37.29,-17.76 54.28,-28.39c7.64,-4.6 14.89,-9.74 21.75,-15.41c3.91,-2.9 6.23,-6.7 6.98,-11.38c-2.24,-9.58 -31.24,-1.76 -36.59,-0.86c-9.14,1.6 -18.25,3.35 -27.32,5.26c-4.92,2.69 -9.63,2.95 -14.15,0.79c15.99,-8.84 33.41,-13.95 48.9,-23.92c7.28,-4.45 14.26,-9.34 20.92,-14.69c6.05,-2.7 9.43,-7.1 10.15,-13.23c-5.9,-3.81 -12.15,-3.8 -18.77,0.05c-8.62,3.07 -17.19,6.26 -25.72,9.57c-12.8,4.89 -25.52,10.56 -38.72,14.29c10.73,-8 21.83,-15.46 32.56,-23.48c9.84,-7.35 20.29,-14.08 27.5,-24.14c-1.16,-4.25 -4.16,-5.31 -9,-3.16c-3.16,0.85 -6.32,1.7 -9.47,2.55c-12.99,3.91 -25.54,10.84 -37.76,16.53c-10.33,4.81 -21.09,9.01 -31.25,14.21c-2.88,1.48 -6.19,3.71 -9.63,3.55c-3.92,-0.19 -6.89,-3.44 -9.71,-5.72c-5.39,-4.37 -11.15,-8.04 -17.62,-10.66c-6.41,-2.6 -12.94,-4.41 -19.8,-5.38c-4.98,-0.71 -10.55,-0.58 -15.24,-2.58c-1.06,-3.74 6.53,-8.42 8.94,-10.46c15.18,-12.83 30.38,-25.25 44.43,-39.38c16.57,-16.67 29.87,-34.99 40.76,-55.83c5.25,-10.04 14.98,-23.2 11.18,-34.7c-7.94,-1.35 -13.97,0.59 -21.25,4.21c-5.48,2.73 -10.44,6.77 -16.44,7.98c3.98,-18.96 20.97,-33.68 20.51,-54.11c1.38,-4.18 -0.03,-6.75 -4.22,-7.69c-6.17,-5.14 -12.97,-4.04 -20.4,3.3c-13.78,7.96 -24.27,20.42 -36.74,30.04c-4.88,-2.54 -6.83,-6.84 -5.85,-12.91c-0.42,-7.16 -2.55,-13.75 -6.38,-19.79c-7.32,-10.96 -17.9,-16.02 -30.17,-9.64c-16.28,8.47 -26.82,27.43 -38.38,40.82c-8.65,10.01 -17.67,18.02 -30.02,22.87c-8.31,2.35 -16.76,3.99 -25.35,4.92c-9.05,1.43 -17.77,3.97 -26.16,7.65c-17.58,7.64 -30.42,20.18 -41.67,35.44c-16.88,22.9 -22.41,54.55 -21.99,82.61c0.06,3.83 2.02,10.35 -1.83,12.58c-3.29,0.39 -6.56,0.93 -9.8,1.63c-4.74,1.28 -9.4,2.8 -13.98,4.57c-6.83,2.33 -12.52,4.65 -18.64,8.44c-3.39,2.1 -7.04,3.64 -10.86,4.78c-4.36,1.3 -8.5,1.61 -13.03,1.56c-3.91,-0.04 -9.4,0.99 -13.19,-0.24c-3.7,-1.2 -6.57,-5.06 -9.17,-7.81c-2.46,-2.61 -2.93,-5.17 -5.11,-7.93" fill="url(#color-3)"/><g fill="#ff8c00"><path d="M-183.5,-32.56c-9.84,-16.74 -20.98,-34.09 -40.46,-40.43c-9,-2.93 -18.47,-2.89 -27.2,0.85c-8.13,3.49 -16.03,8.5 -22.72,14.29c-13.79,11.94 -25.78,32.3 -21.1,51.19c1.21,4.87 3.85,9.22 5.19,14.04c0.25,0.91 0.74,2.19 0.6,3.15c-0.2,1.32 -0.99,1.49 -2.18,2.18c-2.54,1.46 -5.16,2.8 -7.75,4.18c-10.34,5.51 -20.18,12.01 -30,18.41c-10.93,7.12 -21.95,14.13 -32.74,21.44c-4.51,3.06 -9.06,5.92 -13.7,8.75c-2.64,1.61 -5.73,4.05 -5.28,7.48c0.07,0.24 0.23,0.4 0.47,0.47c5.71,1.26 11.3,-0.12 16.81,-1.68c6.37,-1.81 12.81,-3.14 19.36,-4.16c13.06,-2.02 26.29,-1.77 39.2,-4.79c13.49,-3.15 27.11,-5.72 40.57,-8.94c1.63,-0.39 4.3,-1.59 6,-0.94c2.14,0.83 3.12,4.24 4.25,6.06c2.83,4.54 6.57,8.47 10.79,11.73c8.61,6.65 18.91,10.45 29.44,12.81c12.2,2.74 24.88,4.61 37.41,4.09c1.09,-0.04 2.4,-0.38 3.48,-0.22c1.88,0.28 2.57,2.26 3.39,3.7c1.49,2.61 3.32,4.91 5.17,7.26c4.22,5.35 8.5,10.66 12.81,15.95c8.19,10.07 16.72,20.06 27.01,28.06c10.1,7.85 21.67,13.61 33.9,17.3c6.66,2.01 13.51,3.5 20.45,2.06c3.04,-0.63 6.02,-1.59 8.78,-3.04c1.29,-0.68 2.56,-1.48 3.74,-2.35c0.64,-0.48 2.3,-2.59 3.08,-2.46c-0.17,-0.29 -0.34,-0.57 -0.5,-0.86c-2.72,17.23 -11.98,32.69 -20.78,47.45c-8.85,14.85 -19.18,28.76 -30.35,41.95c-4.16,4.91 -8.58,9.55 -12.81,14.4c-3.63,4.16 -7.74,9.03 -8.81,14.61c-0.96,4.98 2.13,9.28 7.19,9.82c5.72,0.62 11.14,-2.45 15.64,-5.62c6.78,-4.78 12.29,-11.29 16.85,-18.17c5.22,-7.87 8.4,-16.95 14.53,-24.22c-1.03,0.46 -2.06,0.92 -3.09,1.39c2.23,3.38 0.32,8.45 -0.8,11.88c-1.1,3.37 -2.54,6.69 -3.18,10.19c-1.61,8.72 -1.1,18.63 5.54,25.17c0.29,0.28 0.81,0.23 1.14,0.11c19.55,-7.11 19.33,-33.81 22.9,-50.67c-1.3,0.85 -2.61,1.7 -3.91,2.55c1.49,2.8 1.37,5.27 1.45,8.36c0.08,2.93 0.39,5.89 0.7,8.81c0.56,5.26 1.23,10.55 3.01,15.56c2.57,7.23 7.88,12.95 16.09,12.48c12.58,-0.72 12.56,-15.4 10.94,-24.55c-1.01,-5.7 -2.65,-11.27 -4.42,-16.78c-0.83,-2.59 -1.59,-5.23 -2.74,-7.7c-2.25,-4.86 -5.6,-9.34 -6.6,-14.7c-1.04,-5.57 0.26,-11.34 0.97,-16.87c0.8,-6.29 1.39,-12.6 2.19,-18.89c0.72,-5.67 1.7,-11.35 2.24,-17.04c0.15,-1.55 0.17,-3.12 0.31,-4.68c0.19,-2.08 -0.07,-4.09 2.35,-4.31c4.46,-0.41 8.83,1.05 13.32,0.64c6.05,-0.55 12.03,-1.96 17.76,-3.97c5.83,-2.04 11.53,-4.72 16.88,-7.8c5.2,-2.99 10.51,-6.05 15.43,-9.48c0.87,-0.6 1.67,-1.7 1.56,-2.79c-0.23,0.21 -0.45,0.42 -0.68,0.62c0.61,0.19 1.18,0.46 1.73,0.79c0.87,0.47 1.64,1 2.35,1.69c1.17,1.13 1.97,2.43 2.45,3.99c0.99,3.24 0.5,6.78 0.02,10.07c-1.07,7.33 -1.51,14.68 -2.04,22.07c-1.21,16.72 -2.67,33.41 -4.62,50.07c-0.94,8.06 -2.03,16.1 -3.57,24.07c-0.92,4.75 -2.72,9.21 -3.74,13.92c-0.58,2.71 -1.7,9.33 2.25,10.41c1.82,0.5 4.32,-1.46 5.79,-2.43c2.22,-1.46 4.19,-3.23 5.93,-5.24c8.1,-9.38 9.35,-22.38 16.32,-32.41c-1.03,0.46 -2.06,0.92 -3.09,1.39c2.84,4.05 3.3,10.03 4.4,14.72c1.09,4.64 2.24,10.61 5.92,14.01c3.99,3.68 9.43,1.31 13.24,-1.43c7.36,-5.32 7.86,-13.09 10.16,-21.16c-1.27,0.7 -2.54,1.4 -3.81,2.09c1.01,5.21 4.76,9.97 8.45,13.6c3.74,3.68 8.9,7.58 14.41,7.56c5.44,-0.02 9.37,-4.46 11.16,-9.22c2.66,-7.07 0.01,-13.78 -4.46,-19.41c-5.01,-6.3 -10.9,-11.83 -15.93,-18.16c-6.82,-8.59 -13.58,-17.38 -18.96,-26.96c-5.17,-9.21 -8.33,-19.34 -10.95,-29.52c-1.16,-4.49 -2.19,-8.96 -3.67,-13.36c-0.67,-1.99 -1.55,-4.34 -1.3,-6.47c0.29,-2.4 2.25,-3.24 4.23,-4.18c8.33,-3.98 17.25,-6.55 25.95,-9.56c9.87,-3.42 18.53,-9.18 27.27,-14.76c9.2,-5.87 18.86,-10.91 28.39,-16.19c4.64,-2.57 9.29,-5.19 13.71,-8.14c3.58,-2.38 8.19,-6.89 12.65,-7c20.44,-0.51 40.7,-10.87 58.27,-20.56c9.45,-5.21 18.71,-10.81 27.8,-16.62c4.26,-2.72 8.41,-5.6 12.43,-8.66c3.54,-2.69 7.48,-5.37 10.22,-8.92c3.11,-4.02 6.51,-10.92 0.42,-13.7c-4.71,-2.15 -10.88,-1.39 -15.83,-0.78c-5.37,0.66 -10.64,1.8 -15.93,2.92c-9.34,1.96 -18.78,3.46 -28.13,5.41c-2.41,0.5 -4.45,1.85 -6.88,2.3c-2.87,0.52 -5.56,-0.06 -8.18,-1.2c-0.53,1.2 -1.07,2.4 -1.6,3.6c16.14,-8.83 33.76,-14.46 49.42,-24.24c3.79,-2.37 7.53,-4.79 11.18,-7.37c3.8,-2.68 7.34,-5.76 11.36,-8.09c5.61,-3.26 9.21,-8.44 10.12,-14.87c0.03,-0.26 -0.03,-0.49 -0.2,-0.69c-5.43,-3.31 -11.26,-3.91 -17.17,-1.43c-7.57,3.17 -15.29,5.91 -22.96,8.83c-14.67,5.59 -29.09,12.06 -44.21,16.39c-0.08,1.07 -0.16,2.13 -0.24,3.2c12.83,-9.53 25.97,-18.66 38.86,-28.11c5.7,-4.18 11.39,-8.47 16.32,-13.56c3.03,-3.13 9.44,-8.37 4.24,-12.42c-1.58,-1.23 -3.57,-1.21 -5.44,-0.8c-3.47,0.76 -6.94,2.05 -10.38,2.98c-7.22,1.94 -14.12,4.9 -20.89,8.04c-7.19,3.33 -14.24,6.96 -21.45,10.25c-7.33,3.34 -14.79,6.41 -22.1,9.81c-3.23,1.51 -6.37,3.16 -9.55,4.78c-4.23,2.16 -7.53,2.23 -11.34,-0.67c-5.36,-4.08 -10.31,-8.34 -16.34,-11.48c-6.68,-3.48 -14.04,-5.83 -21.43,-7.21c-3.39,-0.63 -6.79,-0.92 -10.22,-1.28c-1.67,-0.18 -3.33,-0.39 -4.96,-0.75c-1.86,-0.42 -3.99,-0.69 -2.49,-2.74c1.35,-1.86 3.58,-3.19 5.38,-4.57c2.78,-2.13 5.41,-4.48 8.09,-6.74c5.96,-5.02 11.92,-10.04 17.79,-15.17c11.53,-10.09 22.67,-20.61 32.63,-32.27c10.62,-12.43 19.84,-26.03 27.61,-40.41c6.14,-11.35 17.19,-25.46 13.12,-39.14c-0.07,-0.24 -0.23,-0.4 -0.47,-0.47c-6.73,-1.02 -12.94,0.14 -19.14,2.88c-6.54,2.89 -12.35,7.75 -19.39,9.38c0.42,0.42 0.83,0.83 1.25,1.25c4.06,-18.28 19.37,-32.38 20.55,-51.55c0.2,-3.22 1.65,-7.52 -1.2,-9.98c-1.44,-1.25 -3.51,-1.82 -5.12,-2.81c-1.71,-1.05 -3.54,-1.76 -5.56,-1.93c-3.98,-0.34 -7.74,1.37 -10.93,3.61c-2.09,1.46 -3.86,3.24 -6.02,4.6c-2.25,1.41 -4.43,2.93 -6.54,4.53c-9.94,7.52 -18.46,16.71 -28.28,24.37c0.62,-0.21 1.23,-0.41 1.85,-0.62c-3.02,-1.69 -5.11,-4.31 -5.52,-7.79c-0.22,-1.81 0.18,-3.58 0.09,-5.38c-0.11,-2.33 -0.55,-4.69 -1.11,-6.95c-1.8,-7.25 -5.64,-14.32 -11.29,-19.28c-4.75,-4.18 -10.9,-6.51 -17.26,-5.57c-6.74,1 -12.84,4.92 -18,9.2c-11.44,9.51 -19.3,22.28 -28.67,33.64c-5.02,6.08 -10.57,11.84 -16.98,16.46c-7.65,5.52 -15.84,8.18 -25.02,9.96c-8.89,1.73 -17.83,2.46 -26.56,5.01c-8.26,2.41 -16.33,5.78 -23.69,10.25c-12.76,7.76 -23.25,18.57 -32.12,30.48c-9.34,12.54 -15.39,27.12 -18.92,42.3c-1.8,7.74 -3.02,15.61 -3.69,23.53c-0.61,7.09 -1.18,14.5 -0.47,21.6c0.17,1.72 0.46,3.45 0.35,5.18c-0.17,2.72 -1.93,2.16 -4.24,2.55c-5.04,0.84 -9.88,2.24 -14.71,3.92c-4.42,1.53 -8.87,3.08 -13.18,4.92c-4.43,1.89 -8.41,4.35 -12.63,6.62c-8.95,4.81 -19.16,5.27 -29.12,5.19c-4.8,-0.04 -7.79,-2.07 -10.93,-5.47c-1.33,-1.44 -2.77,-2.87 -3.88,-4.48c-1.37,-1.99 -2.29,-4.23 -3.72,-6.19c-0.95,-1.29 -4.62,2.05 -3.54,3.54c4.08,5.57 7.38,13.52 14.57,15.91c3.05,1.01 6.47,0.64 9.62,0.44c4.5,-0.28 9,-0.04 13.46,-0.87c8.37,-1.56 14.86,-6.21 22.38,-9.79c8.06,-3.84 17.13,-7.17 25.85,-9.11c3.27,-0.73 7.9,-0.31 10.64,-2.44c2.05,-1.6 3.12,-3.96 3.34,-6.51c0.24,-2.69 -0.39,-5.38 -0.51,-8.06c-0.18,-4.2 0.01,-8.47 0.22,-12.67c0.82,-16.05 3.61,-32.15 9.51,-47.15c5.96,-15.14 15.8,-28.65 27.72,-39.68c12.71,-11.77 28.68,-19.2 45.63,-22.49c9.02,-1.75 18.07,-2.63 26.99,-4.99c7.42,-1.96 14.36,-6.29 20.3,-11.06c11.74,-9.42 20.13,-21.76 29.35,-33.46c9.31,-11.81 25.92,-30.41 42.17,-18.93c7.36,5.2 11.94,13.87 13.62,22.58c0.46,2.41 0.57,4.67 0.44,7.1c-0.08,1.56 0.01,3.2 0.44,4.71c0.92,3.28 3.23,5.48 6.14,7.1c0.52,0.29 1.48,-0.33 1.85,-0.62c7.6,-5.93 14.42,-12.73 21.7,-19.02c3.77,-3.26 7.68,-6.39 11.88,-9.07c4.08,-2.61 7.78,-7.06 12.78,-7.68c4.06,-0.51 7.1,1.98 10.54,3.55c1.82,0.83 2.74,2.25 2.55,4.25c-0.19,2.02 -0.41,4.04 -0.59,6.09c-0.76,8.64 -4.73,16.46 -8.85,23.93c-4.54,8.24 -9.37,16.44 -11.43,25.71c-0.22,1.01 0.2,1.49 1.25,1.25c6.07,-1.41 11,-5.14 16.45,-7.95c2.98,-1.53 6.09,-2.91 9.34,-3.75c2.17,-0.56 9.29,-2.11 10.86,0.04c1.31,1.8 0.54,6.22 0.16,8.27c-0.63,3.4 -1.97,6.67 -3.47,9.76c-2.54,5.28 -5.67,10.26 -8.41,15.43c-12.97,24.43 -30.09,45.61 -50.41,64.3c-10.76,9.9 -21.9,19.61 -33.34,28.73c-3.15,2.51 -6.76,4.77 -8.95,8.25c-0.68,1.09 -1.62,2.79 -1.27,4.15c0.55,2.13 5.08,2.38 6.96,2.65c6.8,0.96 13.42,1.44 20.07,3.36c6.86,1.98 13.44,4.77 19.42,8.7c2.49,1.64 4.9,3.43 7.18,5.35c2.03,1.7 4.02,3.65 6.52,4.65c5.32,2.14 10.31,-1.44 14.88,-3.75c14.5,-7.32 29.64,-13.42 44.28,-20.47c7.13,-3.43 14.38,-6.78 21.95,-9.12c3.83,-1.19 7.75,-2.09 11.56,-3.29c3.36,-1.06 5.64,-0.35 6.74,3.14c0.21,-0.62 0.41,-1.23 0.62,-1.85c-7.05,9.62 -17.11,16.18 -26.56,23.2c-10.75,7.98 -21.81,15.5 -32.56,23.48c-0.87,0.64 -2.77,3.92 -0.24,3.2c11.65,-3.34 22.81,-8.04 34.07,-12.48c5.8,-2.29 11.63,-4.51 17.48,-6.68c2.86,-1.06 5.72,-2.11 8.59,-3.15c2.93,-1.06 5.73,-2.56 8.66,-3.54c2.77,-0.92 5.75,-1.05 8.57,-0.28c1.23,0.34 2.82,0.76 3.69,1.75c1.01,1.15 0.26,2.62 -0.38,4.01c-1.01,2.2 -2.66,3.83 -4.73,5.07c-2.31,1.37 -4.34,2.79 -6.49,4.43c-9.4,7.18 -19.44,13.66 -30.09,18.83c-11.7,5.68 -23.95,10.18 -35.38,16.44c-0.79,0.43 -3.25,2.88 -1.6,3.6c3.79,1.65 7.68,1.88 11.63,0.62c2.33,-0.74 4.38,-1.69 6.81,-2.18c3.03,-0.62 6.06,-1.23 9.1,-1.81c6.7,-1.29 13.41,-2.44 20.09,-3.84c5.56,-1.17 11.19,-2.23 16.88,-2.57c3.23,-0.19 11.39,-0.82 12.83,3.33c0.61,1.74 -1,4.69 -1.95,6.1c-1.33,1.97 -3.27,3.35 -5.09,4.82c-4.09,3.29 -8.33,6.41 -12.7,9.33c-8.4,5.61 -17.15,10.8 -25.92,15.8c-9.31,5.31 -18.85,10.27 -28.77,14.34c-4.52,1.85 -9.1,3.55 -13.79,4.92c-5.03,1.46 -10.52,3.12 -15.78,3.23c-2.32,0.05 -3.54,-0.29 -5.68,0.6c-1.81,0.76 -3.52,1.73 -5.18,2.78c-4.1,2.58 -7.99,5.45 -12.17,7.92c-9.04,5.37 -18.45,10.07 -27.54,15.36c-8.51,4.95 -16.49,10.8 -25.22,15.37c-8.83,4.63 -18.66,6.83 -27.84,10.62c-5.48,2.27 -13.2,4.02 -16.16,9.77c-1.53,2.96 -0.98,6.25 -0.05,9.3c1.31,4.34 2.57,8.6 3.68,13.01c2.43,9.61 5.21,19.2 9.69,28.07c4.3,8.5 9.91,16.34 15.66,23.9c5.8,7.62 11.96,14.64 18.41,21.68c5.24,5.71 11.37,14.49 6.22,22.3c-3.58,5.42 -11.89,-0.19 -15.27,-3.04c-4.46,-3.77 -9.08,-9.05 -10.23,-14.95c-0.37,-1.92 -3.6,1.35 -3.81,2.09c-1.95,6.84 -1.9,15.12 -9.32,18.54c-4.29,1.97 -7.42,-0.45 -9.28,-4.34c-2.05,-4.29 -2.93,-9.11 -3.96,-13.71c-0.86,-3.83 -1.56,-8.12 -3.86,-11.4c-0.71,-1.01 -2.77,0.93 -3.09,1.39c-6.39,9.2 -8,20.77 -14.36,29.92c-1.61,2.31 -3.57,4.32 -5.96,5.82c-0.31,0.19 -1.12,0.78 -1.55,0.87c-1.41,0.29 -0.43,0.52 -1.37,-0.27c-0.8,-0.68 -0.98,-2.08 -1.04,-3.05c-0.31,-4.75 2.03,-9.37 3.24,-13.85c1.94,-7.18 2.83,-14.79 3.79,-22.15c1.09,-8.31 2,-16.66 2.83,-25c0.87,-8.71 1.57,-17.44 2.23,-26.17c0.6,-8.01 0.74,-16.17 1.88,-24.12c0.88,-6.09 2.85,-13.87 -1.93,-18.9c-1.76,-1.85 -5.19,-4.33 -7.8,-3.05c-2.46,1.21 -3.67,3.37 -3.39,6.05c0.52,-0.93 1.04,-1.86 1.56,-2.79c-4.42,3.08 -9.27,5.81 -13.91,8.53c-4.84,2.84 -10,5.31 -15.26,7.24c-5.42,1.99 -11.05,3.43 -16.8,4.05c-3.89,0.43 -7.41,-0.2 -11.27,-0.48c-3.21,-0.24 -6.47,0.01 -8.89,2.39c-2.22,2.19 -2.56,5.43 -2.81,8.38c-0.86,10.13 -2.45,20.19 -3.62,30.29c-0.65,5.62 -1.39,11.22 -2.04,16.84c-0.59,5.07 -0.64,10.12 1.31,14.92c1.97,4.87 5.09,9.15 6.76,14.16c0.6,1.81 1.17,3.64 1.75,5.46c1.69,5.35 3.22,10.78 4.13,16.32c0.68,4.13 2.02,11.66 -1.09,15.22c-1.78,2.04 -5.56,1.68 -7.89,1.13c-4.73,-1.13 -7.81,-4.8 -9.67,-9.11c-2.14,-4.96 -2.93,-10.3 -3.57,-15.63c-0.44,-3.7 -0.95,-7.53 -0.92,-11.26c0.03,-2.89 -0.05,-5.2 -1.46,-7.84c-1.04,-1.96 -3.69,1.51 -3.91,2.55c-1.73,8.2 -2.48,16.58 -4.54,24.71c-1.95,7.69 -5,17.08 -13.17,20.05c0.38,0.04 0.76,0.07 1.14,0.11c-6.85,-6.74 -7.11,-17.97 -4.32,-26.7c1.87,-5.85 6.66,-14.65 2.76,-20.55c-0.7,-1.06 -2.76,0.99 -3.09,1.39c-4.79,5.69 -7.87,12.39 -11.39,18.88c-3.59,6.62 -8.09,12.91 -13.64,18.03c-4.4,4.05 -10.88,9 -17.3,7.87c-6.8,-1.2 -5.93,-8.12 -3.17,-12.64c2.76,-4.53 6.6,-8.28 10.15,-12.17c4.88,-5.35 9.55,-10.92 14.1,-16.55c9.75,-12.09 18.69,-24.84 26.51,-38.27c8.55,-14.69 17.2,-29.74 19.89,-46.76c0.05,-0.31 -0.14,-0.8 -0.5,-0.86c-3.73,-0.6 -4.97,2.12 -7.44,4.14c-4.67,3.82 -12.38,4.73 -18.15,4.06c-10.5,-1.21 -21.32,-5.69 -30.54,-10.7c-20.53,-11.16 -34.85,-29.87 -49.18,-47.8c-1.82,-2.27 -3.62,-4.55 -5.42,-6.84c-0.76,-0.97 -1.53,-1.93 -2.21,-2.96c-0.98,-1.48 -1.62,-3.59 -2.75,-4.93c-2.39,-2.85 -8.36,-1.21 -11.54,-1.24c-11.52,-0.1 -23.05,-1.94 -34.24,-4.6c-9.67,-2.3 -19.16,-6.07 -27.02,-12.27c-3.8,-2.99 -7.18,-6.53 -9.85,-10.57c-1.67,-2.52 -2.96,-7.14 -6.54,-7.45c-1.41,-0.12 -2.91,0.38 -4.26,0.71c-3.3,0.8 -6.6,1.57 -9.93,2.27c-5.78,1.22 -11.58,2.33 -17.35,3.61c-6.04,1.33 -12.03,2.85 -18.07,4.2c-6.12,1.37 -12.3,1.76 -18.55,2.15c-11.27,0.69 -22.78,2.19 -33.7,5.14c-2.57,0.7 -5.11,1.5 -7.7,2.13c-1.5,0.36 -3.02,0.66 -4.56,0.83c-0.69,0.08 -5.31,0.61 -5.62,-0.09c-0.46,-1.02 2.55,-2.1 3.41,-2.58c2.08,-1.16 4.03,-2.55 6.01,-3.88c20.74,-13.91 41.47,-28.3 63.15,-40.72c4.91,-2.81 10.36,-5.01 14.97,-8.31c3.04,-2.18 4.04,-4.72 3.3,-8.37c-1.03,-5.07 -3.85,-9.57 -5.29,-14.51c-1.54,-5.28 -1.32,-11.16 -0.28,-16.52c2.16,-11.2 8.76,-21.57 17.05,-29.26c7.14,-6.62 16.66,-12.89 26.04,-15.68c21.75,-6.47 41.66,10.94 52.78,27.63c2.9,4.35 5.55,8.87 8.2,13.37c0.78,1.26 4.5,-1.95 3.55,-3.56z"/></g></g></g></symbol></defs><g fill="none" fill-rule="nonzero" stroke="none" stroke-width="none" stroke-linecap="butt" stroke-linejoin="miter" stroke-miterlimit="10" stroke-dasharray="" stroke-dashoffset="0" font-family="none" font-weight="none" font-size="none" text-anchor="none" style="mix-blend-mode: normal"><path d="M0,900v-900h1440v900z" fill="url(#color-1)" stroke="none" stroke-width="1"/><text x="230" y="20" fill="#0000ff" stroke="none" stroke-width="1" font-family="sans-serif" font-weight="normal" font-size="12" text-anchor="start">A DAY WITH THE FISH &amp; FRIENDS</text><path d="M-720,1350c64,-378.95197 128,-757.90394 192,-900c64,-142.09606 128,-47.3362 192,-13.72489c64,33.61131 128,6.07407 192,-3.89623c64,-9.97029 128,-2.37364 192,2.34887c64,4.72252 128,6.57089 192,12.85196c64,6.28106 128,16.99481 192,28.27228c64,11.27747 128,23.11867 192,37.09369c64,13.97502 128,30.08386 192,45.10495c64,15.02109 128,28.95443 192,37.4091c64,8.45467 128,11.43068 192,12.44866c64,1.01798 128,0.07793 192,-6.33817c64,-6.41609 128,-18.30823 192,-20.94671c64,-2.63848 128,3.97669 192,-59.6356c64,-63.61229 128,-197.45203 192,-70.98793c64,126.4641 128,513.23205 192,900" fill="#99ccff" stroke="#0000ff" stroke-width="5"/><use x="-900.244" y="-1205.27429" transform="rotate(-170) scale(0.5,0.5)" xlink:href="#symbol-1" width="320.14" height="234.55" overflow="visible" fill="none" stroke="none" stroke-width="1"/><use x="0" y="-71.5" transform="scale(1.44,1.44)" xlink:href="#symbol-2" width="1000" height="768" overflow="visible" fill="none" stroke="none" stroke-width="1"/><use x="603.48086" y="980.72255" transform="scale(0.5,0.5)" xlink:href="#symbol-3" width="777.55" height="391.52" overflow="visible" fill="none" stroke="none" stroke-width="1"/><use x="2291.54482" y="1553.28398" transform="scale(0.4,0.4)" xlink:href="#symbol-4" width="777.55" height="391.52" overflow="visible" fill="none" stroke="none" stroke-width="1"/><use x="666.66667" y="-50.66667" transform="scale(0.3,0.3)" xlink:href="#symbol-5" width="1000" height="768" overflow="visible" fill="none" stroke="none" stroke-width="1"/></g></svg>