<svg version="1.1" xmlns="http://www.w3.org/2000/svg" xmlns:xlink="http://www.w3.org/1999/xlink" width="1819" height="919" viewBox="0,0,1819,919"><g fill="none" fill-rule="nonzero" stroke="none" stroke-width="none" stroke-linecap="butt" stroke-linejoin="miter" stroke-miterlimit="10" stroke-dasharray="" stroke-dashoffset="0" font-family="none" font-weight="none" font-size="none" text-anchor="none" style="mix-blend-mode: normal"><path d="M506.67399,95.00354l0.65202,29.99291l-305.04296,6.63137c-39.99055,0.86936 -63.20698,36.38233 -108.19635,37.36036l-2.1734,-99.97638c44.98937,-0.97803 69.73321,33.49233 109.72377,32.62297z" fill="none" stroke="none" stroke-width="1"/><path d="M202.28305,131.62783c-39.99055,0.86936 -63.20698,36.38233 -108.19635,37.36036l-2.1734,-99.97638c44.98937,-0.97803 69.73321,33.49233 109.72377,32.62297l196.07988,-4.26261c39.99055,-0.86936 63.20698,-36.38233 108.19635,-37.36036l2.1734,99.97638c-44.98937,0.97803 -69.73321,-33.49233 -109.72376,-32.62297z" fill="none" stroke="none" stroke-width="1"/><path d="M202.28305,131.62783c-39.90254,0.86745 -63.10471,36.22619 -107.89964,37.35341c-0.45962,0.01249 -0.92078,0.01877 -1.38341,0.01877c-27.61424,0 -50,-22.38576 -50,-50c0,-27.31626 21.90526,-49.51628 49.10792,-49.9922c44.86619,-0.87461 69.59629,33.49509 109.52914,32.62698l196.07988,-4.26261c39.99055,-0.86936 63.20698,-36.38233 108.19635,-37.36036l2.1734,99.97638c-44.98937,0.97803 -69.73321,-33.49233 -109.72376,-32.62297z" fill="none" stroke="none" stroke-width="1"/><path d="M202.28305,131.62783c-39.90254,0.86745 -63.10471,36.22619 -107.89964,37.35341c-0.45962,0.01249 -0.92078,0.01877 -1.38341,0.01877c-27.61424,0 -50,-22.38576 -50,-50c0,-27.31626 21.90526,-49.51628 49.10792,-49.9922c44.86619,-0.87461 69.59629,33.49509 109.52914,32.62698l196.07988,-4.26261c39.90254,-0.86745 63.10471,-36.22619 107.89964,-37.35341c0.45962,-0.01249 0.92078,-0.01877 1.38341,-0.01877c27.61424,0 50,22.38576 50,50c0,27.31626 -21.90526,49.51628 -49.10792,49.9922c-44.86618,0.87461 -69.59629,-33.49509 -109.52914,-32.62698z" fill="#5d1414" stroke="#ffffff" stroke-width="6" style="mix-blend-mode: source-over"/><path d="M528.99627,423.66569l-29.99255,0.66862l-4.57105,-205.04436c-0.8915,-39.99006 -36.41732,-63.18675 -37.42025,-108.17558l99.97516,-2.22875c1.00294,44.98882 -33.45372,69.75182 -32.56222,109.74188z" fill="none" stroke="none" stroke-width="1"/><path d="M494.43267,219.28995c-0.8915,-39.99006 -36.41732,-63.18675 -37.42025,-108.17558l99.97516,-2.22875c1.00294,44.98882 -33.45372,69.75182 -32.56222,109.74188l2.14197,96.08254c0.8915,39.99006 36.41732,63.18675 37.42025,108.17558l-99.97516,2.22875c-1.00294,-44.98882 33.45372,-69.75182 32.56222,-109.74188z" fill="none" stroke="none" stroke-width="1"/><path d="M494.43267,219.28995c-0.88949,-39.89995 -36.25739,-63.08213 -37.41295,-107.87178c-0.01312,-0.47112 -0.01972,-0.94387 -0.01972,-1.41817c0,-27.61424 22.38576,-50 50,-50c27.30862,0 49.50385,21.89299 49.9918,49.08508c0.89689,44.86264 -33.45662,69.61151 -32.56644,109.54243l2.14197,96.08254c0.8915,39.99006 36.41732,63.18675 37.42025,108.17558l-99.97516,2.22875c-1.00294,-44.98882 33.45372,-69.75182 32.56222,-109.74188z" fill="none" stroke="none" stroke-width="1"/><path d="M494.43267,219.28995c-0.88949,-39.89995 -36.25739,-63.08213 -37.41295,-107.87178c-0.01312,-0.47112 -0.01972,-0.94387 -0.01972,-1.41817c0,-27.61424 22.38576,-50 50,-50c27.30862,0 49.50385,21.89299 49.9918,49.08508c0.89689,44.86264 -33.45662,69.61151 -32.56644,109.54243l2.14197,96.08254c0.88949,39.89995 36.25739,63.08213 37.41295,107.87178c0.01312,0.47112 0.01972,0.94387 0.01972,1.41817c0,27.61424 -22.38576,50 -50,50c-27.30862,0 -49.50385,-21.89299 -49.9918,-49.08508c-0.89689,-44.86264 33.45662,-69.61151 32.56644,-109.54243z" fill="#aee436" stroke="#ffffff" stroke-width="6" style="mix-blend-mode: source-over"/><path d="M96.2132,472.95086l-2.42639,-29.90172l310.3815,-25.18609c39.86895,-3.23519 60.93514,-40.05966 105.78771,-43.69925l8.08797,99.67239c-44.85257,3.63959 -71.60086,-29.30495 -111.46982,-26.06976zM406.57417,447.76644c0,0 0,0 0,0z" fill="none" stroke="none" stroke-width="1"/><path d="M404.1683,417.86305c39.86895,-3.23519 60.93514,-40.05966 105.78771,-43.69925l8.08797,99.67239c-44.85257,3.63959 -71.60086,-29.30495 -111.46982,-26.06976l-201.74247,16.37051c-39.86895,3.23519 -60.93514,40.05966 -105.78771,43.69925l-8.08797,-99.67239c44.85257,-3.63959 71.60086,29.30495 111.46981,26.06976zM406.57417,447.76644c0,0 0,0 0,0z" fill="none" stroke="none" stroke-width="1"/><path d="M404.1683,417.86305c39.59161,-3.21268 60.64114,-39.54895 104.85511,-43.6185c1.63695,-0.16175 3.2971,-0.24456 4.97659,-0.24456c27.61424,0 50,22.38576 50,50c0,26.48096 -20.58607,48.15379 -46.62778,49.88808c-44.44875,3.259 -71.12854,-29.34065 -110.79805,-26.12164l-201.74247,16.37051c-39.86895,3.23519 -60.93514,40.05966 -105.78771,43.69925l-8.08797,-99.67239c44.85257,-3.63959 71.60086,29.30495 111.46981,26.06976zM406.57417,447.76644c0,0 0,0 0,0z" fill="none" stroke="none" stroke-width="1"/><path d="M404.1683,417.86305c39.59161,-3.21268 60.64114,-39.54895 104.85511,-43.6185c1.63695,-0.16175 3.2971,-0.24456 4.97659,-0.24456c27.61424,0 50,22.38576 50,50c0,26.48096 -20.58607,48.15379 -46.62778,49.88808c-44.44875,3.259 -71.12854,-29.34065 -110.79805,-26.12164l-201.74247,16.37051c-39.59161,3.21268 -60.64114,39.54895 -104.85511,43.6185c-1.63695,0.16175 -3.2971,0.24456 -4.97659,0.24456c-27.61424,0 -50,-22.38576 -50,-50c0,-26.48096 20.58607,-48.15379 46.62778,-49.88808c44.44875,-3.259 71.12853,29.34065 110.79804,26.12164zM406.57417,447.76644c0,0 0,0 0,0z" fill="#3142ab" stroke="#ffffff" stroke-width="6" style="mix-blend-mode: source-over"/><path d="M538.13703,843.94375l-20.27405,22.1125l-352.67603,-323.35423c-29.48334,-27.03207 -70.80828,-17.43677 -103.97703,-47.84785l67.58017,-73.70835c33.16876,30.41108 27.1928,72.41641 56.67614,99.44848z" fill="none" stroke="none" stroke-width="1"/><path d="M165.18695,542.70202c-29.48334,-27.03207 -70.80828,-17.43677 -103.97703,-47.84785l67.58017,-73.70835c33.16876,30.41108 27.1928,72.41641 56.67614,99.44848l272.34683,249.70368c29.48334,27.03207 70.80828,17.43677 103.97703,47.84785l-67.58017,73.70835c-33.16876,-30.41108 -27.1928,-72.41641 -56.67614,-99.44848z" fill="none" stroke="none" stroke-width="1"/><path d="M165.18695,542.70202c-29.41818,-26.97233 -70.62567,-17.479 -103.757,-47.6468c-10.09165,-9.14806 -16.42995,-22.36145 -16.42995,-37.05522c0,-27.61424 22.38576,-50 50,-50c13.11182,0 25.04486,5.04698 33.96241,13.30425c32.9758,30.39839 27.07164,72.3049 56.50382,99.29006l272.34683,249.70368c29.48334,27.03207 70.80828,17.43677 103.97703,47.84785l-67.58017,73.70835c-33.16876,-30.41108 -27.1928,-72.41641 -56.67614,-99.44848z" fill="none" stroke="none" stroke-width="1"/><path d="M165.18695,542.70202c-29.41818,-26.97233 -70.62567,-17.479 -103.757,-47.6468c-10.09165,-9.14806 -16.42995,-22.36145 -16.42995,-37.05522c0,-27.61424 22.38576,-50 50,-50c13.11182,0 25.04486,5.04698 33.96241,13.30425c32.9758,30.39839 27.07164,72.3049 56.50382,99.29006l272.34683,249.70368c29.41818,26.97233 70.62567,17.479 103.757,47.6468c10.09165,9.14806 16.42995,22.36145 16.42995,37.05522c0,27.61424 -22.38576,50 -50,50c-13.11182,0 -25.04486,-5.04698 -33.96241,-13.30425c-32.9758,-30.39839 -27.07164,-72.3049 -56.50382,-99.29006z" fill="#6e86da" stroke="#ffffff" stroke-width="6" style="mix-blend-mode: source-over"/><path d="M102.78826,863.99851l0.42349,-29.99701l316.02308,4.4615c39.99601,0.56465 64.47547,-34.09325 109.47098,-33.45801l-1.41162,99.99004c-44.99552,-0.63523 -68.4829,-35.97031 -108.47891,-36.53495z" fill="none" stroke="none" stroke-width="1"/><path d="M419.23483,838.463c39.99601,0.56465 64.47547,-34.09325 109.47098,-33.45801l-1.41162,99.99004c-44.99552,-0.63523 -68.4829,-35.97031 -108.47891,-36.53495l-207.0501,-2.92306c-39.99601,-0.56465 -64.47547,34.09325 -109.47098,33.45801l1.41162,-99.99004c44.99552,0.63523 68.4829,35.97031 108.47891,36.53495z" fill="none" stroke="none" stroke-width="1"/><path d="M419.23483,838.463c39.95821,0.56412 64.42918,-34.02776 109.34344,-33.45972c27.34781,0.30992 49.42173,22.5755 49.42173,49.99672c0,27.61424 -22.38576,50 -50,50c-0.30153,0 -0.60244,-0.00267 -0.9027,-0.00799c-44.86723,-0.7353 -68.34439,-35.96813 -108.28202,-36.53195l-207.0501,-2.92306c-39.99601,-0.56465 -64.47547,34.09325 -109.47098,33.45801l1.41162,-99.99004c44.99552,0.63523 68.4829,35.97031 108.47891,36.53495z" fill="none" stroke="none" stroke-width="1"/><path d="M419.23483,838.463c39.95821,0.56412 64.42918,-34.02776 109.34344,-33.45972c27.34781,0.30992 49.42173,22.5755 49.42173,49.99672c0,27.61424 -22.38576,50 -50,50c-0.30153,0 -0.60244,-0.00267 -0.9027,-0.00799c-44.86723,-0.7353 -68.34439,-35.96813 -108.28202,-36.53195l-207.0501,-2.92306c-39.95821,-0.56412 -64.42918,34.02776 -109.34344,33.45972c-27.34781,-0.30992 -49.42173,-22.5755 -49.42173,-49.99672c0,-27.61424 22.38576,-50 50,-50c0.30153,0 0.60244,0.00267 0.9027,0.00799c44.86723,0.7353 68.34439,35.96813 108.28202,36.53195z" fill="#55e53a" stroke="#ffffff" stroke-width="6" style="mix-blend-mode: source-over"/><path d="M1101.10979,95.91844l17.78042,24.16313l-919.21245,676.40161c-32.21751,23.70722 -30.79904,66.11808 -67.04373,92.7887l-59.26805,-80.54376c36.24469,-26.67062 76.2969,-12.68837 108.5144,-36.39559z" fill="none" stroke="none" stroke-width="1"/><path d="M199.67776,796.48318c-32.21751,23.70722 -30.79904,66.11808 -67.04373,92.7887l-59.26805,-80.54376c36.24469,-26.67062 76.2969,-12.68837 108.5144,-36.39559l831.44186,-611.81571c32.21751,-23.70722 30.79904,-66.11808 67.04373,-92.7887l59.26805,80.54376c-36.24469,26.67062 -76.2969,12.68837 -108.51441,36.39559z" fill="none" stroke="none" stroke-width="1"/><path d="M199.67776,796.48318c-32.02728,23.56725 -30.81461,65.61792 -66.40566,92.31465c-8.40273,6.40133 -18.89355,10.20217 -30.2721,10.20217c-27.61424,0 -50,-22.38576 -50,-50c0,-16.87454 8.3593,-31.79667 21.16277,-40.85125c36.03403,-25.88851 75.73601,-12.28259 107.71761,-35.81622l831.44186,-611.81571c32.21751,-23.70722 30.79904,-66.11808 67.04373,-92.7887l59.26805,80.54376c-36.24469,26.67062 -76.2969,12.68837 -108.51441,36.39559z" fill="none" stroke="none" stroke-width="1"/><path d="M199.67776,796.48318c-32.02728,23.56725 -30.81461,65.61792 -66.40566,92.31465c-8.40273,6.40133 -18.89355,10.20217 -30.2721,10.20217c-27.61424,0 -50,-22.38576 -50,-50c0,-16.87454 8.3593,-31.79667 21.16277,-40.85125c36.03403,-25.88851 75.73601,-12.28259 107.71761,-35.81622l831.44186,-611.81571c32.02728,-23.56725 30.81461,-65.61792 66.40566,-92.31465c8.40273,-6.40133 18.89355,-10.20217 30.2721,-10.20217c27.61424,0 50,22.38576 50,50c0,16.87454 -8.3593,31.79667 -21.16277,40.85125c-36.03403,25.88851 -75.73601,12.28259 -107.71761,35.81622z" fill="#ea4669" stroke="#ffffff" stroke-width="6" style="mix-blend-mode: source-over"/><path d="M702.92629,120.99982l0.14742,-29.99964l298.01482,1.46445c39.99952,0.19656 64.15771,-34.68515 109.15717,-34.46402l-0.49139,99.99879c-44.99946,-0.22113 -68.8123,-35.33857 -108.81182,-35.53512z" fill="none" stroke="none" stroke-width="1"/><path d="M1001.08853,92.46463c39.99952,0.19656 64.15771,-34.68515 109.15717,-34.46402l-0.49139,99.99879c-44.99946,-0.22113 -68.8123,-35.33857 -108.81182,-35.53512l-189.03101,-0.9289c-39.99952,-0.19656 -64.15771,34.68515 -109.15717,34.46402l0.49139,-99.99879c44.99946,0.22113 68.8123,35.33857 108.81182,35.53512z" fill="none" stroke="none" stroke-width="1"/><path d="M1001.08853,92.46463c39.98622,0.19649 64.14165,-34.66196 109.1123,-34.46423c27.52186,0.10822 49.79917,22.45234 49.79917,49.99961c0,27.61424 -22.38576,50 -50,50c-0.10542,0 -0.21076,-0.00033 -0.31603,-0.00098c-44.95395,-0.25734 -68.76282,-35.33829 -108.74149,-35.53475l-189.03101,-0.9289c-39.99952,-0.19656 -64.15771,34.68515 -109.15717,34.46402l0.49139,-99.99879c44.99946,0.22113 68.8123,35.33857 108.81182,35.53512z" fill="none" stroke="none" stroke-width="1"/><path d="M1001.08853,92.46463c39.98622,0.19649 64.14165,-34.66196 109.1123,-34.46423c27.52186,0.10822 49.79917,22.45234 49.79917,49.99961c0,27.61424 -22.38576,50 -50,50c-0.10542,0 -0.21076,-0.00033 -0.31603,-0.00098c-44.95395,-0.25734 -68.76282,-35.33829 -108.74149,-35.53475l-189.03101,-0.9289c-39.98622,-0.19649 -64.14165,34.66196 -109.1123,34.46423c-27.52186,-0.10822 -49.79917,-22.45234 -49.79917,-49.99961c0,-27.61424 22.38576,-50 50,-50c0.10542,0 0.21076,0.00033 0.31603,0.00098c44.95395,0.25734 68.76282,35.33829 108.74149,35.53475z" fill="#2fa3c4" stroke="#ffffff" stroke-width="6" style="mix-blend-mode: source-over"/><path d="M1122.23859,477.03774l-20.47719,21.92453l-329.35843,-307.61594c-29.2327,-27.30291 -70.64483,-18.08966 -103.53162,-48.80544l68.25729,-73.08175c32.88679,30.71578 26.52292,72.66358 55.75562,99.9665z" fill="none" stroke="none" stroke-width="1"/><path d="M772.40298,191.34632c-29.2327,-27.30291 -70.64483,-18.08966 -103.53162,-48.80544l68.25729,-73.08175c32.88679,30.71578 26.52292,72.66358 55.75562,99.9665l249.71276,233.22806c29.2327,27.30291 70.64483,18.08966 103.53162,48.80544l-68.25729,73.08175c-32.88679,-30.71578 -26.52292,-72.66358 -55.75562,-99.9665zM1022.11574,424.57438c0,0 0,0 0,0z" fill="none" stroke="none" stroke-width="1"/><path d="M772.40298,191.34632c-29.18177,-27.25534 -70.50056,-18.12166 -103.35965,-48.64526c-9.86665,-9.13325 -16.04333,-22.19584 -16.04333,-36.70106c0,-27.61424 22.38576,-50 50,-50c13.25985,0 25.31415,5.16158 34.26328,13.58514c32.73482,30.70441 26.42824,72.57489 55.62098,99.84048l249.71276,233.22806c29.2327,27.30291 70.64483,18.08966 103.53162,48.80544l-68.25729,73.08175c-32.88679,-30.71578 -26.52292,-72.66358 -55.75562,-99.9665z" fill="none" stroke="none" stroke-width="1"/><path d="M772.40298,191.34632c-29.18177,-27.25534 -70.50056,-18.12166 -103.35965,-48.64526c-9.86665,-9.13325 -16.04333,-22.19584 -16.04333,-36.70106c0,-27.61424 22.38576,-50 50,-50c13.25985,0 25.31415,5.16158 34.26328,13.58514c32.73482,30.70441 26.42824,72.57489 55.62098,99.84048l249.71276,233.22806c29.18177,27.25534 70.50056,18.12166 103.35965,48.64526c9.86665,9.13325 16.04333,22.19584 16.04333,36.70106c0,27.61424 -22.38576,50 -50,50c-13.25985,0 -25.31415,-5.16158 -34.26328,-13.58514c-32.73482,-30.70441 -26.42824,-72.57489 -55.62098,-99.84048z" fill="#59ede9" stroke="#ffffff" stroke-width="6" style="mix-blend-mode: source-over"/><path d="M720.68401,838.45513l-19.36802,-22.91025l317.76963,-268.63817c30.54701,-25.82403 26.26896,-68.03843 60.63434,-97.09046l64.56007,76.36752c-34.36538,29.05203 -75.26933,17.80067 -105.81634,43.6247z" fill="none" stroke="none" stroke-width="1"/><path d="M1019.08562,546.9067c30.54701,-25.82403 26.26896,-68.03843 60.63434,-97.09046l64.56007,76.36752c-34.36538,29.05203 -75.26933,17.80067 -105.81634,43.6247l-234.54932,198.28484c-30.54701,25.82403 -26.26896,68.03843 -60.63434,97.09046l-64.56007,-76.36752c34.36538,-29.05203 75.26933,-17.80067 105.81634,-43.6247z" fill="none" stroke="none" stroke-width="1"/><path d="M1019.08562,546.9067c30.44533,-25.73807 26.29705,-67.75758 60.29246,-96.79992c8.75636,-7.54511 20.15642,-12.10679 32.62192,-12.10679c27.61424,0 50,22.38576 50,50c0,15.514 -7.06567,29.37773 -18.15458,38.54874c-34.27518,28.59292 -74.96339,17.54447 -105.38172,43.25972l-234.54932,198.28484c-30.54701,25.82403 -26.26896,68.03843 -60.63434,97.09046l-64.56007,-76.36752c34.36538,-29.05203 75.26933,-17.80067 105.81634,-43.6247z" fill="none" stroke="none" stroke-width="1"/><path d="M1019.08562,546.9067c30.44533,-25.73807 26.29705,-67.75758 60.29246,-96.79992c8.75636,-7.54511 20.15642,-12.10679 32.62192,-12.10679c27.61424,0 50,22.38576 50,50c0,15.514 -7.06567,29.37773 -18.15458,38.54874c-34.27518,28.59292 -74.96339,17.54447 -105.38172,43.25972l-234.54932,198.28484c-30.44533,25.73807 -26.29705,67.75758 -60.29246,96.79992c-8.75636,7.54511 -20.15642,12.10679 -32.62192,12.10679c-27.61424,0 -50,-22.38576 -50,-50c0,-15.514 7.06567,-29.37773 18.15458,-38.54874c34.27518,-28.59292 74.96339,-17.54447 105.38172,-43.25972z" fill="#54d1f2" stroke="#ffffff" stroke-width="6" style="mix-blend-mode: source-over"/><path d="M1098.32641,480.53607l19.34718,22.92785l-313.70562,264.71381c-30.57047,25.79624 -26.33088,68.01458 -60.72267,97.03535l-64.49061,-76.42618c34.39178,-29.02077 75.28546,-17.73221 105.85593,-43.52845l0,0z" fill="none" stroke="none" stroke-width="1"/><path d="M803.96797,768.17774c-30.57047,25.79624 -26.33088,68.01458 -60.72267,97.03535l-64.49061,-76.42618c34.39178,-29.02077 75.28546,-17.73221 105.85593,-43.52845l0,0l230.4214,-194.4362c30.57047,-25.79624 26.33088,-68.01458 60.72267,-97.03535l64.49061,76.42618c-34.39178,29.02077 -75.28546,17.73221 -105.85593,43.52845z" fill="none" stroke="none" stroke-width="1"/><path d="M803.96797,768.17774c-30.46763,25.70946 -26.35902,67.7307 -60.37687,96.74201c-8.75229,7.52927 -20.14022,12.08026 -32.5911,12.08026c-27.61424,0 -50,-22.38576 -50,-50c0,-15.53248 7.08251,-29.41075 18.19422,-38.58149c34.3002,-28.55695 74.97606,-17.47361 105.41641,-43.16005l0,0l230.4214,-194.4362c30.57047,-25.79624 26.33088,-68.01458 60.72267,-97.03535l64.49061,76.42618c-34.39178,29.02077 -75.28546,17.73221 -105.85593,43.52845z" fill="none" stroke="none" stroke-width="1"/><path d="M803.96797,768.17774c-30.46763,25.70946 -26.35902,67.7307 -60.37687,96.74201c-8.75229,7.52927 -20.14022,12.08026 -32.5911,12.08026c-27.61424,0 -50,-22.38576 -50,-50c0,-15.53248 7.08251,-29.41075 18.19422,-38.58149c34.3002,-28.55695 74.97606,-17.47361 105.41641,-43.16005l0,0l230.4214,-194.4362c30.46763,-25.70946 26.35902,-67.7307 60.37687,-96.74201c8.75229,-7.52927 20.14022,-12.08026 32.5911,-12.08026c27.61424,0 50,22.38576 50,50c0,15.53248 -7.08251,29.41075 -18.19422,38.58149c-34.3002,28.55695 -74.97606,17.47361 -105.41641,43.16005z" fill="#ed2ab3" stroke="#ffffff" stroke-width="6" style="mix-blend-mode: source-over"/><path d="M890.5677,853.18859l-25.1354,-16.37717l170.51036,-261.69634c21.83623,-33.51386 5.59925,-72.70726 30.16501,-110.41036l83.78466,54.59057c-24.56576,37.7031 -66.99137,38.70356 -88.8276,72.21743z" fill="none" stroke="none" stroke-width="1"/><path d="M1035.94266,575.11508c21.83623,-33.51386 5.59925,-72.70726 30.16501,-110.41036l83.78466,54.59057c-24.56576,37.7031 -66.99137,38.70356 -88.8276,72.21743l-111.00739,170.37221c-21.83623,33.51386 -5.59925,72.70726 -30.16501,110.41036l-83.78466,-54.59057c24.56576,-37.7031 66.99137,-38.70356 88.8276,-72.21743z" fill="none" stroke="none" stroke-width="1"/><path d="M1035.94266,575.11508c21.62714,-33.19296 5.90671,-71.9572 29.47048,-109.32689c8.80437,-14.27422 24.58456,-23.78818 42.58686,-23.78818c27.61424,0 50,22.38576 50,50c0,10.45472 -3.20871,20.16 -8.69505,28.18477c-24.64951,36.83151 -66.57704,38.07967 -88.24022,71.32794l-111.00739,170.37221c-21.83623,33.51386 -5.59925,72.70726 -30.16501,110.41036l-83.78466,-54.59057c24.56576,-37.7031 66.99137,-38.70356 88.8276,-72.21743z" fill="none" stroke="none" stroke-width="1"/><path d="M1035.94266,575.11508c21.62714,-33.19296 5.90671,-71.9572 29.47048,-109.32689c8.80437,-14.27422 24.58456,-23.78818 42.58686,-23.78818c27.61424,0 50,22.38576 50,50c0,10.45472 -3.20871,20.16 -8.69505,28.18477c-24.64951,36.83151 -66.57704,38.07967 -88.24022,71.32794l-111.00739,170.37221c-21.62714,33.19296 -5.90671,71.9572 -29.47048,109.32689c-8.80437,14.27422 -24.58456,23.78818 -42.58686,23.78818c-27.61424,0 -50,-22.38576 -50,-50c0,-10.45472 3.20871,-20.16 8.69505,-28.18477c24.64951,-36.83151 66.57704,-38.07967 88.24022,-71.32794z" fill="#31046f" stroke="#ffffff" stroke-width="6" style="mix-blend-mode: source-over"/><path d="M1090.36137,484.92133l25.27727,16.15734l-166.30864,260.18063c-21.54313,33.70302 -4.96519,72.7537 -29.20121,110.6696l-84.25756,-53.85781c24.23602,-37.9159 66.65164,-39.28685 88.19476,-72.98988z" fill="none" stroke="none" stroke-width="1"/><path d="M949.32999,761.25931c-21.54313,33.70302 -4.96519,72.7537 -29.20121,110.6696l-84.25756,-53.85781c24.23602,-37.9159 66.65164,-39.28685 88.19476,-72.98988l107.60403,-168.34052c21.54313,-33.70302 4.96519,-72.7537 29.20121,-110.6696l84.25756,53.85781c-24.23602,37.9159 -66.65163,39.28685 -88.19476,72.98987z" fill="none" stroke="none" stroke-width="1"/><path d="M949.32999,761.25931c-21.33022,33.36994 -5.28914,71.98236 -28.49454,109.54513c-8.75387,14.50029 -24.66244,24.19556 -42.83545,24.19556c-27.61424,0 -50,-22.38576 -50,-50c0,-10.31247 3.12199,-19.89576 8.47237,-27.85628c24.33057,-37.01324 66.22752,-38.63644 87.59361,-72.0625l107.60403,-168.34052c21.54313,-33.70302 4.96519,-72.7537 29.20121,-110.6696l84.25756,53.85781c-24.23602,37.9159 -66.65163,39.28685 -88.19476,72.98987z" fill="none" stroke="none" stroke-width="1"/><path d="M949.32999,761.25931c-21.33022,33.36994 -5.28914,71.98236 -28.49454,109.54513c-8.75387,14.50029 -24.66244,24.19556 -42.83545,24.19556c-27.61424,0 -50,-22.38576 -50,-50c0,-10.31247 3.12199,-19.89576 8.47237,-27.85628c24.33057,-37.01324 66.22752,-38.63644 87.59361,-72.0625l107.60403,-168.34052c21.33022,-33.36994 5.28914,-71.98236 28.49454,-109.54513c8.75387,-14.50029 24.66244,-24.19556 42.83545,-24.19556c27.61424,0 50,22.38576 50,50c0,10.31247 -3.12199,19.89576 -8.47237,27.85628c-24.33057,37.01324 -66.22752,38.63644 -87.59361,72.0625z" fill="#450143" stroke="#ffffff" stroke-width="6" style="mix-blend-mode: source-over"/><path d="M1066.845,847.15084l-29.68999,-4.30167l35.37041,-244.1252c5.73557,-39.58666 -25.46125,-68.35843 -19.00874,-112.89342l98.96664,14.33892c-6.45251,44.53499 -44.52824,63.24117 -50.2638,102.82783l0,0z" fill="none" stroke="none" stroke-width="1"/><path d="M1072.52542,598.72396c5.73557,-39.58666 -25.46125,-68.35843 -19.00874,-112.89342l98.96664,14.33892c-6.45251,44.53499 -44.52824,63.24117 -50.2638,102.82783l0,0l-19.74493,136.27875c-5.73557,39.58666 25.46125,68.35843 19.00874,112.89342l-98.96664,-14.33892c6.45251,-44.53499 44.52824,-63.24118 50.2638,-102.82783z" fill="none" stroke="none" stroke-width="1"/><path d="M1072.52542,598.72396c5.68883,-39.26411 -24.95532,-67.88885 -19.159,-111.80794c3.00169,-24.74477 24.07879,-43.91602 49.63358,-43.91602c27.61424,0 50,22.38576 50,50c0,2.91263 -0.24904,5.76709 -0.727,8.54324c-7.02645,43.55043 -44.37725,62.27688 -50.05349,101.45404l0,0l-19.74493,136.27875c-5.73557,39.58666 25.46125,68.35843 19.00874,112.89342l-98.96664,-14.33892c6.45251,-44.53499 44.52824,-63.24118 50.2638,-102.82783z" fill="none" stroke="none" stroke-width="1"/><path d="M1072.52542,598.72396c5.68883,-39.26411 -24.95532,-67.88885 -19.159,-111.80794c3.00169,-24.74477 24.07879,-43.91602 49.63358,-43.91602c27.61424,0 50,22.38576 50,50c0,2.91263 -0.24904,5.76709 -0.727,8.54324c-7.02645,43.55043 -44.37725,62.27688 -50.05349,101.45404l0,0l-19.74493,136.27875c-5.68883,39.26411 24.95532,67.88885 19.159,111.80794c-3.00169,24.74477 -24.07879,43.91602 -49.63358,43.91602c-27.61424,0 -50,-22.38576 -50,-50c0,-2.91263 0.24904,-5.76709 0.727,-8.54324c7.02645,-43.55043 44.37725,-62.27688 50.05349,-101.45404z" fill="#8826e0" stroke="#ffffff" stroke-width="6" style="mix-blend-mode: source-over"/><path d="M1085.13832,491.96763l29.72336,4.06473l-33.23137,243.00442c-5.41964,39.63114 26.00572,68.15273 19.90862,112.73777l-99.07786,-13.54911c6.0971,-44.58503 44.0224,-63.59426 49.44205,-103.2254z" fill="none" stroke="none" stroke-width="1"/><path d="M1081.6303,739.03679c-5.41964,39.63114 26.00572,68.15273 19.90862,112.73777l-99.07786,-13.54911c6.0971,-44.58503 44.0224,-63.59426 49.44205,-103.2254l18.46658,-135.03683c5.41964,-39.63114 -26.00572,-68.15273 -19.90862,-112.73777l99.07786,13.54911c-6.0971,44.58503 -44.0224,63.59426 -49.44205,103.2254l0,0z" fill="none" stroke="none" stroke-width="1"/><path d="M1081.6303,739.03679c-5.37744,39.32253 25.51853,67.70786 20.04427,111.69911c-2.84532,24.91283 -24.00008,44.2641 -49.67457,44.2641c-27.61424,0 -50,-22.38576 -50,-50c0,-2.75927 0.22351,-5.46633 0.65341,-8.10407c6.65979,-43.63764 43.88425,-62.66093 49.24971,-101.89588l18.46658,-135.03683c5.41964,-39.63114 -26.00572,-68.15273 -19.90862,-112.73777l99.07786,13.54911c-6.0971,44.58503 -44.0224,63.59426 -49.44205,103.2254l0,0z" fill="none" stroke="none" stroke-width="1"/><path d="M1081.6303,739.03679c-5.37744,39.32253 25.51853,67.70786 20.04427,111.69911c-2.84532,24.91283 -24.00008,44.2641 -49.67457,44.2641c-27.61424,0 -50,-22.38576 -50,-50c0,-2.75927 0.22351,-5.46633 0.65341,-8.10407c6.65979,-43.63764 43.88425,-62.66093 49.24971,-101.89588l18.46658,-135.03683c5.37744,-39.32253 -25.51853,-67.70786 -20.04427,-111.69911c2.84532,-24.91283 24.00008,-44.2641 49.67457,-44.2641c27.61424,0 50,22.38576 50,50c0,2.75927 -0.22351,5.46633 -0.65341,8.10407c-6.65979,43.63764 -43.88425,62.66093 -49.24971,101.89588l0,0z" fill="#01e412" stroke="#ffffff" stroke-width="6" style="mix-blend-mode: source-over"/><path d="M1228.25859,838.34247l-28.51718,9.31507l-80.15788,-245.39563c-12.42009,-38.02291 -53.13956,-49.96103 -67.11216,-92.73679l95.05726,-31.05022c13.9726,42.77577 -11.8461,76.4549 0.57399,114.47781l0,0z" fill="none" stroke="none" stroke-width="1"/><path d="M1119.58353,602.26191c-12.42009,-38.02291 -53.13956,-49.96103 -67.11216,-92.73679l95.05726,-31.05022c13.9726,42.77577 -11.8461,76.4549 0.57399,114.47781l0,0l46.31385,141.78539c12.42009,38.02291 53.13956,49.96103 67.11216,92.73679l-95.05726,31.05022c-13.9726,-42.77577 11.8461,-76.45491 -0.57399,-114.47781z" fill="none" stroke="none" stroke-width="1"/><path d="M1119.58353,602.26191c-12.25391,-37.51415 -52.05495,-49.63689 -66.53705,-91.03617c-1.97074,-5.37017 -3.04647,-11.17233 -3.04647,-17.22574c0,-27.61424 22.38576,-50 50,-50c22.80699,0 42.04745,15.27009 48.05526,36.14413c12.77894,41.98586 -12.21072,75.28162 0.04736,112.80857l0,0l46.31385,141.78539c12.42009,38.02291 53.13956,49.96103 67.11216,92.73679l-95.05726,31.05022c-13.9726,-42.77577 11.8461,-76.45491 -0.57399,-114.47781z" fill="none" stroke="none" stroke-width="1"/><path d="M1119.58353,602.26191c-12.25391,-37.51415 -52.05495,-49.63689 -66.53705,-91.03617c-1.97074,-5.37017 -3.04647,-11.17233 -3.04647,-17.22574c0,-27.61424 22.38576,-50 50,-50c22.80699,0 42.04745,15.27009 48.05526,36.14413c12.77894,41.98586 -12.21072,75.28162 0.04736,112.80857l0,0l46.31385,141.78539c12.25391,37.51415 52.05495,49.63689 66.53705,91.03617c1.97074,5.37017 3.04647,11.17233 3.04647,17.22574c0,27.61424 -22.38576,50 -50,50c-22.80699,0 -42.04745,-15.27009 -48.05526,-36.14413c-12.77895,-41.98586 12.21072,-75.28162 -0.04736,-112.80857z" fill="#b8b828" stroke="#ffffff" stroke-width="6" style="mix-blend-mode: source-over"/><path d="M1089.72044,505.59284l28.55912,-9.18568l76.62813,238.24382c12.24758,38.07882 52.91232,50.20087 66.69084,93.03955l-95.19706,30.61894c-13.77852,-42.83868 12.1925,-76.40076 -0.05508,-114.47958z" fill="none" stroke="none" stroke-width="1"/><path d="M1194.90769,734.65098c12.24758,38.07882 52.91232,50.20087 66.69084,93.03955l-95.19706,30.61894c-13.77852,-42.83868 12.1925,-76.40076 -0.05508,-114.47958l-43.25408,-134.48086c-12.24758,-38.07882 -52.91232,-50.20087 -66.69084,-93.03955l95.19706,-30.61894c13.77852,42.83868 -12.1925,76.40076 0.05508,114.47958z" fill="none" stroke="none" stroke-width="1"/><path d="M1194.90769,734.65098c12.08359,37.56898 51.82848,49.87161 66.12307,91.33521c1.92159,5.31077 2.96925,11.03995 2.96925,17.01381c0,27.61424 -22.38576,50 -50,50c-22.88373,0 -42.17689,-15.37302 -48.11545,-36.35503c-12.59343,-42.04675 12.55035,-75.23083 0.46184,-112.81509l-43.25408,-134.48086c-12.24758,-38.07882 -52.91232,-50.20087 -66.69084,-93.03955l95.19706,-30.61894c13.77852,42.83868 -12.1925,76.40076 0.05508,114.47958z" fill="none" stroke="none" stroke-width="1"/><path d="M1194.90769,734.65098c12.08359,37.56898 51.82848,49.87161 66.12307,91.33521c1.92159,5.31077 2.96925,11.03995 2.96925,17.01381c0,27.61424 -22.38576,50 -50,50c-22.88373,0 -42.17689,-15.37302 -48.11545,-36.35503c-12.59343,-42.04675 12.55035,-75.23083 0.46184,-112.81509l-43.25408,-134.48086c-12.08359,-37.56898 -51.82848,-49.87161 -66.12307,-91.33521c-1.92159,-5.31077 -2.96925,-11.03995 -2.96925,-17.01381c0,-27.61424 22.38576,-50 50,-50c22.88373,0 42.17689,15.37302 48.11545,36.35503c12.59343,42.04675 -12.55035,75.23083 -0.46184,112.81509z" fill="#244672" stroke="#ffffff" stroke-width="6" style="mix-blend-mode: source-over"/><path d="M1248.48586,621.27401l-20.97171,21.45198l-56.0738,-54.81842c-28.60264,-27.96228 -70.21522,-19.69671 -102.39319,-51.15427l69.9057,-71.50659c32.17797,31.45757 24.8579,73.24792 53.46054,101.2102z" fill="none" stroke="none" stroke-width="1"/><path d="M1069.04715,536.7533l69.9057,-71.50659c27.87354,27.24951 26.10952,62.25228 43.72996,89.30421c27.44364,17.00325 62.3965,14.44628 90.27004,41.69579l-69.9057,71.50659c-27.87354,-27.24951 -26.10952,-62.25228 -43.72996,-89.30421c-27.44364,-17.00325 -62.3965,-14.44628 -90.27004,-41.69579z" fill="none" stroke="none" stroke-width="1"/><path d="M1182.68281,554.55092c27.44364,17.00325 62.3965,14.44628 90.27004,41.69579l-69.9057,71.50659c-27.87354,-27.24951 -26.10952,-62.25228 -43.72996,-89.30421c-27.42529,-16.99188 -62.34976,-14.44969 -90.21412,-41.64117c-9.31723,-9.08165 -15.10306,-21.7691 -15.10306,-35.80791c0,-27.61424 22.38576,-50 50,-50c13.62557,0 25.97817,5.45023 34.99663,14.28954c27.82791,27.24335 26.07497,62.22362 43.68618,89.26138z" fill="none" stroke="none" stroke-width="1"/><path d="M1182.68281,554.55092c27.42529,16.99188 62.34976,14.44969 90.21412,41.64117c9.31723,9.08165 15.10306,21.7691 15.10306,35.80791c0,27.61424 -22.38576,50 -50,50c-13.62557,0 -25.97817,-5.45023 -34.99663,-14.28954c-27.82791,-27.24335 -26.07497,-62.22362 -43.68618,-89.26138c-27.42529,-16.99188 -62.34976,-14.44969 -90.21412,-41.64117c-9.31723,-9.08165 -15.10306,-21.7691 -15.10306,-35.80791c0,-27.61424 22.38576,-50 50,-50c13.62557,0 25.97817,5.45023 34.99663,14.28954c27.82791,27.24335 26.07497,62.22362 43.68618,89.26138z" fill="#50d334" stroke="#ffffff" stroke-width="6" style="mix-blend-mode: source-over"/><path d="M1093.20095,503.4106l21.5981,-20.82119l58.36346,60.5412c27.76159,28.79747 69.60254,21.77026 100.83433,54.16741l-71.99367,69.40397c-31.23179,-32.39715 -22.67507,-73.95054 -50.43665,-102.74801l0,0z" fill="none" stroke="none" stroke-width="1"/><path d="M1273.99684,597.29801l-71.99367,69.40397c-27.85979,-28.89934 -24.05894,-65.0845 -42.61895,-93.002c-27.21951,-19.57021 -63.52126,-17.09867 -91.38105,-45.998l71.99367,-69.40397c27.85979,28.89934 24.05894,65.0845 42.61895,93.002c27.21951,19.57021 63.52126,17.09867 91.38105,45.998z" fill="none" stroke="none" stroke-width="1"/><path d="M1159.38421,573.69999c-27.21951,-19.57021 -63.52126,-17.09867 -91.38105,-45.998l71.99367,-69.40397c27.85979,28.89934 24.05894,65.0845 42.61895,93.002c27.19711,19.55411 63.46152,17.10272 91.31225,45.92672c8.71108,8.99853 14.07196,21.25985 14.07196,34.77327c0,27.61424 -22.38576,50 -50,50c-14.1819,0 -26.98476,-5.90438 -36.08448,-15.38907c-27.76419,-28.88426 -23.99078,-65.02276 -42.5313,-92.91095z" fill="none" stroke="none" stroke-width="1"/><path d="M1159.38421,573.69999c-27.19711,-19.55411 -63.46152,-17.10272 -91.31225,-45.92672c-8.71108,-8.99853 -14.07196,-21.25985 -14.07196,-34.77327c0,-27.61424 22.38576,-50 50,-50c14.1819,0 26.98476,5.90438 36.08448,15.38907c27.76419,28.88426 23.99078,65.02276 42.5313,92.91095c27.19711,19.55411 63.46152,17.10272 91.31225,45.92672c8.71108,8.99853 14.07196,21.25985 14.07196,34.77327c0,27.61424 -22.38576,50 -50,50c-14.1819,0 -26.98476,-5.90438 -36.08448,-15.38907c-27.76419,-28.88426 -23.99078,-65.02276 -42.5313,-92.91095z" fill="#790d97" stroke="#ffffff" stroke-width="6" style="mix-blend-mode: source-over"/><path d="M1246.83963,620.63166l-21.67926,20.73668l-56.67022,-59.24614c-27.64891,-28.90567 -69.51723,-22.04219 -100.62225,-54.56107l72.26419,-69.12226c31.10502,32.51888 22.38587,74.03833 50.03478,102.944l0,0z" fill="none" stroke="none" stroke-width="1"/><path d="M1067.86791,527.56113l72.26419,-69.12226c27.45042,28.69816 23.88499,64.40614 41.67172,92.26809c27.04478,19.00735 62.87787,17.03375 90.32828,45.73191l-72.26419,69.12226c-27.45042,-28.69816 -23.88499,-64.40614 -41.67172,-92.26809c-27.04478,-19.00735 -62.87787,-17.03375 -90.32828,-45.73191z" fill="none" stroke="none" stroke-width="1"/><path d="M1181.80381,550.70696c27.04478,19.00735 62.87787,17.03375 90.32828,45.73191l-72.26419,69.12226c-27.45042,-28.69816 -23.88499,-64.40614 -41.67172,-92.26809c-27.01749,-18.98817 -62.80556,-17.03771 -90.24516,-45.64513c-8.63974,-8.98688 -13.95103,-21.19714 -13.95103,-34.64792c0,-27.61424 22.38576,-50 50,-50c14.26181,0 27.12899,5.97111 36.23795,15.54973c27.33542,28.67922 23.80203,64.33114 41.56586,92.15723z" fill="none" stroke="none" stroke-width="1"/><path d="M1181.80381,550.70696c27.01749,18.98817 62.80556,17.03771 90.24516,45.64513c8.63974,8.98688 13.95103,21.19714 13.95103,34.64792c0,27.61424 -22.38576,50 -50,50c-14.26181,0 -27.12899,-5.97111 -36.23795,-15.54973c-27.33542,-28.67922 -23.80203,-64.33114 -41.56586,-92.15723c-27.01749,-18.98817 -62.80556,-17.03771 -90.24516,-45.64513c-8.63974,-8.98688 -13.95103,-21.19714 -13.95103,-34.64792c0,-27.61424 22.38576,-50 50,-50c14.26181,0 27.12899,5.97111 36.23795,15.54973c27.33542,28.67922 23.80203,64.33114 41.56586,92.15723z" fill="#d8be0f" stroke="#ffffff" stroke-width="6" style="mix-blend-mode: source-over"/><path d="M1092.27578,505.48766l21.44845,-20.97532l56.804,58.0853c27.96709,28.59793 69.7562,21.27082 101.21919,53.4435l-71.49483,69.91774c-31.46298,-32.17267 -23.20442,-73.78666 -51.17151,-102.38459l0,0z" fill="none" stroke="none" stroke-width="1"/><path d="M1271.74741,596.04113l-71.49483,69.91774c-27.66028,-28.2842 -24.62048,-63.86543 -42.48443,-91.48457c-27.21411,-18.47572 -62.85529,-16.23122 -90.51557,-44.51543l71.49483,-69.91774c27.66028,28.2842 24.62048,63.86543 42.48443,91.48457c27.21411,18.47572 62.85529,16.23122 90.51557,44.51543z" fill="none" stroke="none" stroke-width="1"/><path d="M1157.76816,574.47429c-27.21411,-18.47572 -62.85529,-16.23122 -90.51557,-44.51543l71.49483,-69.91774c27.66028,28.2842 24.62048,63.86543 42.48443,91.48457c27.20028,18.46632 62.81904,16.2335 90.47337,44.4723c8.84239,9.01893 14.29479,21.37372 14.29479,35.00199c0,27.61424 -22.38576,50 -50,50c-14.03536,0 -26.72003,-5.783 -35.80122,-15.09621c-27.60254,-28.2753 -24.57826,-63.82828 -42.43062,-91.4295z" fill="none" stroke="none" stroke-width="1"/><path d="M1157.76816,574.47429c-27.20028,-18.46632 -62.81904,-16.2335 -90.47337,-44.4723c-8.84239,-9.01893 -14.29479,-21.37372 -14.29479,-35.00199c0,-27.61424 22.38576,-50 50,-50c14.03536,0 26.72003,5.783 35.80122,15.09621c27.60254,28.2753 24.57826,63.82828 42.43062,91.4295c27.20028,18.46632 62.81904,16.2335 90.47337,44.4723c8.84239,9.01893 14.29479,21.37372 14.29479,35.00199c0,27.61424 -22.38576,50 -50,50c-14.03536,0 -26.72003,-5.783 -35.80122,-15.09621c-27.60254,-28.2753 -24.57826,-63.82828 -42.43062,-91.4295z" fill="#aa0bf6" stroke="#ffffff" stroke-width="6" style="mix-blend-mode: source-over"/><path d="M1347.50436,99.70186l24.99127,16.59627l-196.7147,296.22019c-22.12836,33.3217 -6.2344,72.65521 -31.12881,110.14212l-83.30425,-55.32091c24.89441,-37.48691 67.32678,-38.1159 89.45514,-71.4376z" fill="none" stroke="none" stroke-width="1"/><path d="M1175.78093,412.51833c-22.12836,33.3217 -6.2344,72.65521 -31.12881,110.14212l-83.30425,-55.32091c24.89441,-37.48691 67.32678,-38.1159 89.45514,-71.4376l136.41605,-205.42028c22.12836,-33.3217 6.2344,-72.65521 31.12881,-110.14212l83.30425,55.32091c-24.89441,37.48691 -67.32678,38.1159 -89.45514,71.4376z" fill="none" stroke="none" stroke-width="1"/><path d="M1175.78093,412.51833c-21.92353,33.01326 -6.52539,71.92755 -30.44793,109.10066c-8.85177,14.04768 -24.50243,23.38101 -42.33301,23.38101c-27.61424,0 -50,-22.38576 -50,-50c0,-10.5971 3.29671,-20.42422 8.92047,-28.51171c24.96783,-36.64715 66.92293,-37.51877 88.88254,-70.58634l136.41605,-205.42028c22.12836,-33.3217 6.2344,-72.65521 31.12881,-110.14212l83.30425,55.32091c-24.89441,37.48691 -67.32678,38.1159 -89.45514,71.4376z" fill="none" stroke="none" stroke-width="1"/><path d="M1175.78093,412.51833c-21.92353,33.01326 -6.52539,71.92755 -30.44793,109.10066c-8.85177,14.04768 -24.50243,23.38101 -42.33301,23.38101c-27.61424,0 -50,-22.38576 -50,-50c0,-10.5971 3.29671,-20.42422 8.92047,-28.51171c24.96783,-36.64715 66.92293,-37.51877 88.88254,-70.58634l136.41605,-205.42028c21.92353,-33.01326 6.52539,-71.92755 30.44793,-109.10066c8.85177,-14.04768 24.50243,-23.38101 42.33301,-23.38101c27.61424,0 50,22.38576 50,50c0,10.5971 -3.29671,20.42422 -8.92047,28.51171c-24.96783,36.64715 -66.92293,37.51877 -88.88254,70.58634z" fill="#263f49" stroke="#ffffff" stroke-width="6" style="mix-blend-mode: source-over"/><path d="M1726.28683,100.00274l-0.57367,29.99451l-257.03146,-4.9159c-39.99269,-0.76489 -64.64604,33.77 -109.63781,32.9095l1.91222,-99.98172c44.99177,0.8605 68.30126,36.31271 108.29394,37.0776z" fill="none" stroke="none" stroke-width="1"/><path d="M1468.6817,125.08136c-39.99269,-0.76489 -64.64604,33.77 -109.63781,32.9095l1.91222,-99.98172c44.99177,0.8605 68.30126,36.31271 108.29394,37.0776l148.06825,2.83191c39.99269,0.76489 64.64604,-33.77 109.63781,-32.9095l-1.91222,99.98172c-44.99177,-0.8605 -68.30126,-36.31271 -108.29394,-37.0776z" fill="none" stroke="none" stroke-width="1"/><path d="M1468.6817,125.08136c-39.94176,-0.76391 -64.58323,33.68211 -109.46605,32.91262c-27.25254,-0.41911 -49.21565,-22.64166 -49.21565,-49.99397c0,-27.61424 22.38576,-50 50,-50c0.40752,0 0.8139,0.00488 1.21909,0.01457c44.81977,0.99322 68.11627,36.30877 108.03096,37.07217l148.06825,2.83191c39.99269,0.76489 64.64604,-33.77 109.63781,-32.9095l-1.91222,99.98172c-44.99177,-0.8605 -68.30126,-36.31271 -108.29394,-37.0776z" fill="none" stroke="none" stroke-width="1"/><path d="M1468.6817,125.08136c-39.94176,-0.76391 -64.58323,33.68211 -109.46605,32.91262c-27.25254,-0.41911 -49.21565,-22.64166 -49.21565,-49.99397c0,-27.61424 22.38576,-50 50,-50c0.40752,0 0.8139,0.00488 1.21909,0.01457c44.81977,0.99322 68.11627,36.30877 108.03096,37.07217l148.06825,2.83191c39.94176,0.76391 64.58323,-33.68211 109.46605,-32.91262c27.25254,0.41911 49.21565,22.64166 49.21565,49.99397c0,27.61424 -22.38576,50 -50,50c-0.40752,0 -0.8139,-0.00488 -1.21909,-0.01457c-44.81977,-0.99322 -68.11627,-36.30877 -108.03096,-37.07217z" fill="#bcc9a6" stroke="#ffffff" stroke-width="6" style="mix-blend-mode: source-over"/><path d="M1744.9984,388.78105l-29.9968,0.43791l-2.40917,-165.02784c-0.58388,-39.99574 -35.93024,-63.46606 -36.58711,-108.46127l99.98935,-1.4597c0.65686,44.99521 -33.98926,69.49139 -33.40538,109.48713z" fill="none" stroke="none" stroke-width="1"/><path d="M1712.59243,224.19112c-0.58388,-39.99574 -35.93024,-63.46606 -36.58711,-108.46127l99.98935,-1.4597c0.65686,44.99521 -33.98926,69.49139 -33.40538,109.48713l0.81827,56.05161c0.58388,39.99574 35.93024,63.46606 36.58711,108.46127l-99.98935,1.4597c-0.65686,-44.9952 33.98926,-69.49139 33.40538,-109.48712l0,0z" fill="none" stroke="none" stroke-width="1"/><path d="M1712.59243,224.19112c-0.583,-39.93545 -35.82376,-63.39527 -36.5839,-108.25795c-0.00568,-0.31037 -0.00853,-0.62144 -0.00853,-0.93317c0,-27.61424 22.38576,-50 50,-50c27.41462,0 49.67608,22.06328 49.9965,49.40196c0.58738,44.91127 -33.99051,69.39865 -33.4072,109.35531l0.81827,56.05161c0.58388,39.99574 35.93024,63.46606 36.58711,108.46127l-99.98935,1.4597c-0.65686,-44.9952 33.98926,-69.49139 33.40538,-109.48712l0,0z" fill="none" stroke="none" stroke-width="1"/><path d="M1712.59243,224.19112c-0.583,-39.93545 -35.82376,-63.39527 -36.5839,-108.25795c-0.00568,-0.31037 -0.00853,-0.62144 -0.00853,-0.93317c0,-27.61424 22.38576,-50 50,-50c27.41462,0 49.67608,22.06328 49.9965,49.40196c0.58738,44.91127 -33.99051,69.39865 -33.4072,109.35531l0.81827,56.05161c0.583,39.93545 35.82376,63.39527 36.5839,108.25795c0.00568,0.31037 0.00853,0.62144 0.00853,0.93317c0,27.61424 -22.38576,50 -50,50c-27.41462,0 -49.67608,-22.06328 -49.9965,-49.40196c-0.58738,-44.91127 33.99051,-69.39865 33.4072,-109.35531l0,0z" fill="#1d4aa5" stroke="#ffffff" stroke-width="6" style="mix-blend-mode: source-over"/><path d="M1386.47941,414.99234l-0.95881,-29.98467l235.07429,-7.51691c39.97957,-1.27842 62.83009,-37.02699 107.8071,-38.46521l3.19604,99.94891c-44.97701,1.43822 -70.07357,-32.77716 -110.05313,-31.49875l0,0z" fill="none" stroke="none" stroke-width="1"/><path d="M1620.59488,377.49075c39.97957,-1.27842 62.83009,-37.02699 107.8071,-38.46521l3.19604,99.94891c-44.97701,1.43822 -70.07357,-32.77716 -110.05313,-31.49875l0,0l-126.13977,4.03354c-39.97957,1.27842 -62.83009,37.02699 -107.8071,38.46521l-3.19604,-99.94891c44.97701,-1.43822 70.07357,32.77716 110.05313,31.49875l0,0z" fill="none" stroke="none" stroke-width="1"/><path d="M1620.59488,377.49075c39.85377,-1.27439 62.68612,-36.80237 107.38319,-38.45062c0.67066,-0.02667 1.34472,-0.04014 2.02193,-0.04014c27.61424,0 50,22.38576 50,50c0,27.17445 -21.67841,49.28565 -48.6847,49.98304c-44.79962,1.28628 -69.87469,-32.78306 -109.77041,-31.50733l0,0l-126.13977,4.03354c-39.97957,1.27842 -62.83009,37.02699 -107.8071,38.46521l-3.19604,-99.94891c44.97701,-1.43822 70.07357,32.77716 110.05313,31.49875l0,0z" fill="none" stroke="none" stroke-width="1"/><path d="M1620.59488,377.49075c39.85377,-1.27439 62.68612,-36.80237 107.38319,-38.45062c0.67066,-0.02667 1.34472,-0.04014 2.02193,-0.04014c27.61424,0 50,22.38576 50,50c0,27.17445 -21.67841,49.28565 -48.6847,49.98304c-44.79962,1.28628 -69.87469,-32.78306 -109.77041,-31.50733l0,0l-126.13977,4.03354c-39.85377,1.27439 -62.68612,36.80237 -107.38319,38.45062c-0.67066,0.02667 -1.34472,0.04014 -2.02193,0.04014c-27.61424,0 -50,-22.38576 -50,-50c0,-27.17445 21.67841,-49.28565 48.6847,-49.98304c44.79962,-1.28628 69.87469,32.78306 109.77041,31.50733l0,0z" fill="#fd63fd" stroke="#ffffff" stroke-width="6" style="mix-blend-mode: source-over"/><path d="M1401.99996,846.96644l-29.99992,0.06711l-0.75619,-338.01477c-0.08949,-39.9999 -35.14306,-63.90704 -35.24373,-108.90693l99.99975,-0.22371c0.10067,44.99989 -34.84558,69.06425 -34.7561,109.06415z" fill="none" stroke="none" stroke-width="1"/><path d="M1371.24385,509.01878c-0.08949,-39.9999 -35.14306,-63.90704 -35.24373,-108.90693l99.99975,-0.22371c0.10067,44.99989 -34.84558,69.06425 -34.7561,109.06415l0.51237,229.02892c0.08949,39.9999 35.14306,63.90704 35.24373,108.90693l-99.99975,0.22371c-0.10067,-44.99989 34.84558,-69.06425 34.7561,-109.06415z" fill="none" stroke="none" stroke-width="1"/><path d="M1371.24385,509.01878c-0.08946,-39.99034 -35.1263,-63.89561 -35.24365,-108.87467c-0.00014,-0.04802 -0.0002,-0.09606 -0.0002,-0.14412c0,-27.61424 22.38576,-50 50,-50c27.58378,0 49.9506,22.3364 49.99992,49.90863c0.09002,44.9867 -34.84561,69.04983 -34.75614,109.04366l0.51237,229.02892c0.08949,39.9999 35.14306,63.90704 35.24373,108.90693l-99.99975,0.22371c-0.10067,-44.99989 34.84558,-69.06425 34.7561,-109.06415z" fill="none" stroke="none" stroke-width="1"/><path d="M1371.24385,509.01878c-0.08946,-39.99034 -35.1263,-63.89561 -35.24365,-108.87467c-0.00014,-0.04802 -0.0002,-0.09606 -0.0002,-0.14412c0,-27.61424 22.38576,-50 50,-50c27.58378,0 49.9506,22.3364 49.99992,49.90863c0.09002,44.9867 -34.84561,69.04983 -34.75614,109.04366l0.51237,229.02892c0.08946,39.99034 35.1263,63.89561 35.24365,108.87467c0.00014,0.04802 0.0002,0.09606 0.0002,0.14412c0,27.61424 -22.38576,50 -50,50c-27.58378,0 -49.9506,-22.3364 -49.99992,-49.90863c-0.09002,-44.9867 34.84561,-69.04983 34.75614,-109.04366z" fill="#1b2cd3" stroke="#ffffff" stroke-width="6" style="mix-blend-mode: source-over"/><path d="M1730.73841,826.00228l0.52318,29.99544l-235.0332,4.09942c-39.99392,0.69757 -63.36328,36.1105 -108.35643,36.89526l-1.74392,-99.98479c44.99316,-0.78476 69.58811,33.79158 109.58203,33.09401z" fill="none" stroke="none" stroke-width="1"/><path d="M1496.22839,860.09714c-39.99392,0.69757 -63.36328,36.1105 -108.35643,36.89526l-1.74392,-99.98479c44.99316,-0.78476 69.58811,33.79158 109.58203,33.09401l126.06154,-2.19875c39.99392,-0.69757 63.36328,-36.1105 108.35643,-36.89526l1.74392,99.98479c-44.99316,0.78476 -69.58811,-33.79158 -109.58203,-33.09401l0,0z" fill="none" stroke="none" stroke-width="1"/><path d="M1496.22839,860.09714c-39.92246,0.69632 -63.27971,35.98406 -108.11546,36.89072c-0.37,0.00808 -0.74099,0.01214 -1.11294,0.01214c-27.61424,0 -50,-22.38576 -50,-50c0,-27.37551 22.00038,-49.61255 49.285,-49.99499c44.89345,-0.70176 69.47769,33.79336 109.42508,33.0966l126.06154,-2.19875c39.99392,-0.69757 63.36328,-36.1105 108.35643,-36.89526l1.74392,99.98479c-44.99316,0.78476 -69.58811,-33.79158 -109.58203,-33.09401l0,0z" fill="none" stroke="none" stroke-width="1"/><path d="M1496.22839,860.09714c-39.92246,0.69632 -63.27971,35.98406 -108.11546,36.89072c-0.37,0.00808 -0.74099,0.01214 -1.11294,0.01214c-27.61424,0 -50,-22.38576 -50,-50c0,-27.37551 22.00038,-49.61255 49.285,-49.99499c44.89345,-0.70176 69.47769,33.79336 109.42508,33.0966l126.06154,-2.19875c39.92246,-0.69632 63.27971,-35.98406 108.11546,-36.89072c0.37,-0.00808 0.74099,-0.01214 1.11294,-0.01214c27.61424,0 50,22.38576 50,50c0,27.37551 -22.00038,49.61255 -49.285,49.99499c-44.89345,0.70176 -69.47769,-33.79336 -109.42507,-33.0966l0,0z" fill="#e21aee" stroke="#ffffff" stroke-width="6" style="mix-blend-mode: source-over"/><path d="M1706.00873,548.51165l29.98254,-1.02329l6.28267,184.08232c1.36439,39.97672 37.16202,62.75002 38.69696,107.72384l-99.94181,3.41098c-1.53494,-44.97381 32.62638,-70.14418 31.26199,-110.1209z" fill="none" stroke="none" stroke-width="1"/><path d="M1742.27394,731.57067c1.36439,39.97672 37.16202,62.75002 38.69696,107.72384l-99.94181,3.41098c-1.53494,-44.97381 32.62638,-70.14418 31.26199,-110.1209l-2.56503,-75.15526c-1.36439,-39.97672 -37.16202,-62.75002 -38.69696,-107.72384l99.94181,-3.41098c1.53494,44.97381 -32.62638,70.14418 -31.26199,110.1209l0,0z" fill="none" stroke="none" stroke-width="1"/><path d="M1742.27394,731.57067c1.35984,39.84327 36.92339,62.59778 38.68044,107.27417c0.0303,0.71461 0.04561,1.4331 0.04561,2.15516c0,27.61424 -22.38576,50 -50,50c-27.14452,0 -49.23692,-21.63067 -49.98065,-48.59546c-1.37283,-44.78534 32.63308,-69.93249 31.27173,-109.81996l-2.56503,-75.15526c-1.36439,-39.97672 -37.16202,-62.75002 -38.69696,-107.72384l99.94181,-3.41098c1.53494,44.97381 -32.62638,70.14418 -31.26199,110.1209l0,0z" fill="none" stroke="none" stroke-width="1"/><path d="M1742.27394,731.57067c1.35984,39.84327 36.92339,62.59778 38.68044,107.27417c0.0303,0.71461 0.04561,1.4331 0.04561,2.15516c0,27.61424 -22.38576,50 -50,50c-27.14452,0 -49.23692,-21.63067 -49.98065,-48.59546c-1.37283,-44.78534 32.63308,-69.93249 31.27173,-109.81996l-2.56503,-75.15526c-1.35984,-39.84327 -36.92339,-62.59778 -38.68044,-107.27417c-0.0303,-0.71461 -0.04561,-1.4331 -0.04561,-2.15516c0,-27.61424 22.38576,-50 50,-50c27.14452,0 49.23692,21.63067 49.98065,48.59546c1.37283,44.78534 -32.63308,69.93249 -31.27173,109.81995l0,0z" fill="#d8b1ab" stroke="#ffffff" stroke-width="6" style="mix-blend-mode: source-over"/><path d="M1465.23435,566.99817l-0.46869,-29.99634l147.02967,-2.29734c39.99512,-0.62492 63.42901,-35.99535 108.42352,-36.69839l1.56231,99.9878c-44.99451,0.70304 -69.52637,-33.91792 -109.52149,-33.293z" fill="none" stroke="none" stroke-width="1"/><path d="M1611.79532,534.70449c39.99512,-0.62492 63.42901,-35.99535 108.42352,-36.69839l1.56231,99.9878c-44.99451,0.70304 -69.52637,-33.91792 -109.52149,-33.293l-38.05499,0.59461c-39.99512,0.62492 -63.42901,35.99535 -108.42352,36.69839l-1.56231,-99.9878c44.99451,-0.70304 69.52637,33.91792 109.52149,33.293z" fill="none" stroke="none" stroke-width="1"/><path d="M1611.79532,534.70449c39.93078,-0.62392 63.35357,-35.88164 108.20653,-36.69473c0.33193,-0.0065 0.66465,-0.00976 0.99814,-0.00976c27.61424,0 50,22.38576 50,50c0,27.40051 -22.04058,49.65316 -49.35975,49.99598c-44.90486,0.62867 -69.42723,-33.91936 -109.38058,-33.29509l-38.05499,0.59461c-39.99512,0.62492 -63.42901,35.99535 -108.42352,36.69839l-1.56231,-99.9878c44.99451,-0.70304 69.52637,33.91792 109.52149,33.293z" fill="none" stroke="none" stroke-width="1"/><path d="M1611.79532,534.70449c39.93078,-0.62392 63.35357,-35.88164 108.20653,-36.69473c0.33193,-0.0065 0.66465,-0.00976 0.99814,-0.00976c27.61424,0 50,22.38576 50,50c0,27.40051 -22.04058,49.65316 -49.35975,49.99598c-44.90486,0.62867 -69.42723,-33.91936 -109.38058,-33.29509l-38.05499,0.59461c-39.93078,0.62392 -63.35357,35.88164 -108.20653,36.69473c-0.33193,0.0065 -0.66465,0.00976 -0.99814,0.00976c-27.61424,0 -50,-22.38576 -50,-50c0,-27.40051 22.04058,-49.65316 49.35975,-49.99598c44.90486,-0.62867 69.42723,33.91936 109.38058,33.29509z" fill="#b7512c" stroke="#ffffff" stroke-width="6" style="mix-blend-mode: source-over"/><path d="M1476.99862,773.2036l-29.99724,-0.4072l1.52067,-112.02234c0.54294,-39.99632 -34.12824,-64.45688 -33.51744,-109.45273l99.99079,1.35734c-0.6108,44.99585 -35.93312,68.50249 -36.47606,108.4988l0,0z" fill="none" stroke="none" stroke-width="1"/><path d="M1448.52205,660.77406c0.54294,-39.99632 -34.12824,-64.45688 -33.51744,-109.45273l99.99079,1.35734c-0.6108,44.99585 -35.93312,68.50249 -36.47606,108.4988l0,0l-0.04138,3.04846c-0.54294,39.99632 34.12824,64.45688 33.51744,109.45273l-99.99079,-1.35734c0.6108,-44.99585 35.93312,-68.50249 36.47606,-108.4988l0,0z" fill="none" stroke="none" stroke-width="1"/><path d="M1448.52205,660.77406c0.54244,-39.95994 -34.06521,-64.41237 -33.51902,-109.33002c0.29806,-27.35812 22.56829,-49.44404 49.99697,-49.44404c27.61424,0 50,22.38576 50,50c0,0.29001 -0.00247,0.57944 -0.00739,0.86828c-0.70725,44.87236 -35.9311,68.3691 -36.47328,108.3092l0,0l-0.04138,3.04846c-0.54294,39.99632 34.12824,64.45688 33.51744,109.45273l-99.99079,-1.35734c0.6108,-44.99585 35.93312,-68.50249 36.47606,-108.4988l0,0z" fill="none" stroke="none" stroke-width="1"/><path d="M1448.52205,660.77406c0.54244,-39.95994 -34.06521,-64.41237 -33.51902,-109.33002c0.29806,-27.35812 22.56829,-49.44404 49.99697,-49.44404c27.61424,0 50,22.38576 50,50c0,0.29001 -0.00247,0.57944 -0.00739,0.86828c-0.70725,44.87236 -35.9311,68.3691 -36.47328,108.3092l0,0l-0.04138,3.04846c-0.54244,39.95994 34.06521,64.41237 33.51902,109.33002c-0.29806,27.35812 -22.56829,49.44404 -49.99697,49.44404c-27.61424,0 -50,-22.38576 -50,-50c0,-0.29001 0.00247,-0.57944 0.00739,-0.86828c0.70725,-44.87236 35.9311,-68.3691 36.47328,-108.30919l0,0z" fill="#5926bd" stroke="#ffffff" stroke-width="6" style="mix-blend-mode: source-over"/><path d="M1586.46667,668.66378l17.06665,24.67244l-43.3598,29.99324c-32.89659,22.75554 -32.72045,65.1913 -69.72911,90.79127l-56.88884,-82.24147c37.00866,-25.59998 76.63561,-10.45349 109.53219,-33.20903z" fill="none" stroke="none" stroke-width="1"/><path d="M1490.44442,814.12074l-56.88884,-82.24147c27.55868,-19.06315 56.56923,-15.53194 83.17141,-21.88185c15.33061,-22.65624 22.26991,-51.05501 49.82859,-70.11815l56.88884,82.24147c-27.55868,19.06315 -56.56923,15.53194 -83.17141,21.88185c-15.33061,22.65624 -22.26991,51.05501 -49.82859,70.11815z" fill="none" stroke="none" stroke-width="1"/><path d="M1516.72699,709.99742c15.33061,-22.65624 22.26991,-51.05501 49.82859,-70.11815l56.88884,82.24147c-27.55868,19.06315 -56.56923,15.53194 -83.17141,21.88185c-15.18724,22.44436 -22.13939,50.52435 -49.06081,69.5809c-8.2176,5.92547 -18.30721,9.41652 -29.2122,9.41652c-27.61424,0 -50,-22.38576 -50,-50c0,-17.45654 8.94586,-32.82365 22.50322,-41.76701c27.27537,-18.33727 55.92632,-14.95841 82.22377,-21.23557z" fill="none" stroke="none" stroke-width="1"/><path d="M1516.72699,709.99742c15.18724,-22.44436 22.13939,-50.52435 49.06081,-69.5809c8.2176,-5.92547 18.30721,-9.41652 29.2122,-9.41652c27.61424,0 50,22.38576 50,50c0,17.45654 -8.94586,32.82365 -22.50322,41.76701c-27.27537,18.33727 -55.92632,14.95841 -82.22377,21.23557c-15.18724,22.44436 -22.13939,50.52435 -49.06081,69.5809c-8.2176,5.92547 -18.30721,9.41652 -29.2122,9.41652c-27.61424,0 -50,-22.38576 -50,-50c0,-17.45654 8.94586,-32.82365 22.50322,-41.76701c27.27537,-18.33727 55.92632,-14.95841 82.22377,-21.23557z" fill="#8d87c5" stroke="#ffffff" stroke-width="6" style="mix-blend-mode: source-over"/></g></svg>