<svg version="1.1" xmlns="http://www.w3.org/2000/svg" xmlns:xlink="http://www.w3.org/1999/xlink" width="1391" height="710" viewBox="0,0,1391,710"><g fill="none" fill-rule="nonzero" stroke="none" stroke-width="1" stroke-linecap="butt" stroke-linejoin="miter" stroke-miterlimit="10" stroke-dasharray="" stroke-dashoffset="0" font-family="none" font-weight="none" font-size="none" text-anchor="none" style="mix-blend-mode: normal"><path d="M0,7100v-7100h13910v7100z" fill="#29190d" stroke="#008000"/><path d="M0,7100v-7100h13910v7100z" fill="#29190d" stroke="#008000"/><g><path d="M260,309l6.54031,-73.78589l-3.14663,74.00833l16.11535,-72.30096l-12.77974,72.96446l25.41465,-69.57894l-22.19418,70.67215l34.2791,-65.66641l-31.22887,67.17061l42.55702,-60.6303l-39.72923,62.51977l50.10678,-54.55679l-47.54981,56.7992l56.7992,-47.54981l-54.55679,50.10678l62.51977,-39.72923l-60.6303,42.55702l67.17061,-31.22887l-65.66641,34.2791l70.67215,-22.19418l-69.57894,25.41465l72.96446,-12.77974l-72.30096,16.11535l74.00833,-3.14663l-73.78589,6.54031l73.78589,6.54031l-74.00833,-3.14663l72.30096,16.11535l-72.96446,-12.77974l69.57894,25.41465l-70.67215,-22.19418l65.66641,34.2791l-67.17061,-31.22887l60.6303,42.55702l-62.51977,-39.72923l54.55679,50.10678l-56.7992,-47.54981l47.54981,56.7992l-50.10678,-54.55679l39.72923,62.51977l-42.55702,-60.6303l31.22887,67.17061l-34.2791,-65.66641l22.19418,70.67215l-25.41465,-69.57894l12.77974,72.96446l-16.11535,-72.30096l3.14663,74.00833l-6.54031,-73.78589l-6.54031,73.78589l3.14663,-74.00833l-16.11535,72.30096l12.77974,-72.96446l-25.41465,69.57894l22.19418,-70.67215l-34.2791,65.66641l31.22887,-67.17061l-42.55702,60.6303l39.72923,-62.51977l-50.10678,54.55679l47.54981,-56.7992l-56.7992,47.54981l54.55679,-50.10678l-62.51977,39.72923l60.6303,-42.55702l-67.17061,31.22887l65.66641,-34.2791l-70.67215,22.19418l69.57894,-25.41465l-72.96446,12.77974l72.30096,-16.11535l-74.00833,3.14663l73.78589,-6.54031l-73.78589,-6.54031l74.00833,3.14663l-72.30096,-16.11535l72.96446,12.77974l-69.57894,-25.41465l70.67215,22.19418l-65.66641,-34.2791l67.17061,31.22887l-60.6303,-42.55702l62.51977,39.72923l-54.55679,-50.10678l56.7992,47.54981l-47.54981,-56.7992l50.10678,54.55679l-39.72923,-62.51977l42.55702,60.6303l-31.22887,-67.17061l34.2791,65.66641l-22.19418,-70.67215l25.41465,69.57894l-12.77974,-72.96446l16.11535,72.30096l-3.14663,-74.00833z" fill="#ffffd1" stroke="none"/><path d="M275,295l1.39598,20.02437l2.78941,-19.87821l-0.00425,20.07297l4.16925,-19.63521l-1.40446,20.02377l5.52877,-19.29655l-2.79783,19.87703l6.86137,-18.86387l-4.17756,19.63344l8.16053,-18.3393l-5.53694,19.2942l9.41993,-17.72537l-6.86935,18.86097l10.63345,-17.02509l-8.16829,18.33584l11.79516,-16.24187l-9.42744,17.72138l12.8994,-15.37952l-10.64066,17.02059l13.9408,-14.44224l-11.80203,16.23687l14.91428,-13.4346l-12.90591,15.37405l15.8151,-12.3615l-13.94691,14.43633l16.63887,-11.22818l-14.91997,13.42828l17.38157,-10.04016l-15.82033,12.3548l18.0396,-8.80323l-16.64362,11.22114l18.60974,-7.52341l-17.38582,10.0328l19.08921,-6.20693l-18.04333,8.79559l19.47569,-4.86021l-18.61292,7.51553l19.76728,-3.48982l-19.09184,6.19885l19.96256,-2.10242l-19.47774,4.85197l20.06059,-0.70478l-19.76875,3.48145l20.06089,0.69629l-19.96345,2.09397l19.96345,2.09397l-20.06089,0.69629l19.76875,3.48145l-20.06059,-0.70478l19.47774,4.85197l-19.96256,-2.10242l19.09184,6.19885l-19.76728,-3.48982l18.61292,7.51553l-19.47569,-4.86021l18.04333,8.79559l-19.08921,-6.20693l17.38582,10.0328l-18.60974,-7.52341l16.64362,11.22114l-18.0396,-8.80323l15.82033,12.3548l-17.38157,-10.04016l14.91997,13.42828l-16.63887,-11.22818l13.94691,14.43633l-15.8151,-12.3615l12.90591,15.37405l-14.91428,-13.4346l11.80203,16.23687l-13.9408,-14.44224l10.64066,17.02059l-12.8994,-15.37952l9.42744,17.72138l-11.79516,-16.24187l8.16829,18.33584l-10.63345,-17.02509l6.86935,18.86097l-9.41993,-17.72537l5.53694,19.2942l-8.16053,-18.3393l4.17756,19.63344l-6.86137,-18.86387l2.79783,19.87703l-5.52877,-19.29655l1.40446,20.02377l-4.16925,-19.63521l0.00425,20.07297l-2.78941,-19.87821l-1.39598,20.02437l-1.39598,-20.02437l-2.78941,19.87821l0.00425,-20.07297l-4.16925,19.63521l1.40446,-20.02377l-5.52877,19.29655l2.79783,-19.87703l-6.86137,18.86387l4.17756,-19.63344l-8.16053,18.3393l5.53694,-19.2942l-9.41993,17.72537l6.86935,-18.86097l-10.63345,17.02509l8.16829,-18.33584l-11.79516,16.24187l9.42744,-17.72138l-12.8994,15.37952l10.64066,-17.02059l-13.9408,14.44224l11.80203,-16.23687l-14.91428,13.4346l12.90591,-15.37405l-15.8151,12.3615l13.94691,-14.43633l-16.63887,11.22818l14.91997,-13.42828l-17.38157,10.04016l15.82033,-12.3548l-18.0396,8.80323l16.64362,-11.22114l-18.60974,7.52341l17.38582,-10.0328l-19.08921,6.20693l18.04333,-8.79559l-19.47569,4.86021l18.61292,-7.51553l-19.76728,3.48982l19.09184,-6.19885l-19.96256,2.10242l19.47774,-4.85197l-20.06059,0.70478l19.76875,-3.48145l-20.06089,-0.69629l19.96345,-2.09397l-19.96345,-2.09397l20.06089,-0.69629l-19.76875,-3.48145l20.06059,0.70478l-19.47774,-4.85197l19.96256,2.10242l-19.09184,-6.19885l19.76728,3.48982l-18.61292,-7.51553l19.47569,4.86021l-18.04333,-8.79559l19.08921,6.20693l-17.38582,-10.0328l18.60974,7.52341l-16.64362,-11.22114l18.0396,8.80323l-15.82033,-12.3548l17.38157,10.04016l-14.91997,-13.42828l16.63887,11.22818l-13.94691,-14.43633l15.8151,12.3615l-12.90591,-15.37405l14.91428,13.4346l-11.80203,-16.23687l13.9408,14.44224l-10.64066,-17.02059l12.8994,15.37952l-9.42744,-17.72138l11.79516,16.24187l-8.16829,-18.33584l10.63345,17.02509l-6.86935,-18.86097l9.41993,17.72537l-5.53694,-19.2942l8.16053,18.3393l-4.17756,-19.63344l6.86137,18.86387l-2.79783,-19.87703l5.52877,19.29655l-1.40446,-20.02377l4.16925,19.63521l-0.00425,-20.07297l2.78941,19.87821z" fill="#fcf9e4" stroke="none"/><path d="M287,360c0,-1.65685 1.34315,-3 3,-3c1.65685,0 3,1.34315 3,3c0,1.65685 -1.34315,3 -3,3c-1.65685,0 -3,-1.34315 -3,-3z" fill="#000000" stroke="none"/><path d="M302,370c0,-1.65685 1.34315,-3 3,-3c1.65685,0 3,1.34315 3,3c0,1.65685 -1.34315,3 -3,3c-1.65685,0 -3,-1.34315 -3,-3z" fill="#000000" stroke="none"/><ellipse cx="300" cy="380" rx="4" ry="3" fill="#ffc0cb" stroke="#008000"/><path d="M265,368c-10,10 11,-2 1,8l-6,-1" fill="none" stroke="#000000"/></g><text x="50" y="50" fill="#f2f79e" stroke="none" font-family="Courier New" font-weight="bold" font-size="25" text-anchor="start">Please click and drag the mouse or click the hedgehog</text><g><path d="M260,309l6.54031,-73.78589l-3.14663,74.00833l16.11535,-72.30096l-12.77974,72.96446l25.41465,-69.57894l-22.19418,70.67215l34.2791,-65.66641l-31.22887,67.17061l42.55702,-60.6303l-39.72923,62.51977l50.10678,-54.55679l-47.54981,56.7992l56.7992,-47.54981l-54.55679,50.10678l62.51977,-39.72923l-60.6303,42.55702l67.17061,-31.22887l-65.66641,34.2791l70.67215,-22.19418l-69.57894,25.41465l72.96446,-12.77974l-72.30096,16.11535l74.00833,-3.14663l-73.78589,6.54031l73.78589,6.54031l-74.00833,-3.14663l72.30096,16.11535l-72.96446,-12.77974l69.57894,25.41465l-70.67215,-22.19418l65.66641,34.2791l-67.17061,-31.22887l60.6303,42.55702l-62.51977,-39.72923l54.55679,50.10678l-56.7992,-47.54981l47.54981,56.7992l-50.10678,-54.55679l39.72923,62.51977l-42.55702,-60.6303l31.22887,67.17061l-34.2791,-65.66641l22.19418,70.67215l-25.41465,-69.57894l12.77974,72.96446l-16.11535,-72.30096l3.14663,74.00833l-6.54031,-73.78589l-6.54031,73.78589l3.14663,-74.00833l-16.11535,72.30096l12.77974,-72.96446l-25.41465,69.57894l22.19418,-70.67215l-34.2791,65.66641l31.22887,-67.17061l-42.55702,60.6303l39.72923,-62.51977l-50.10678,54.55679l47.54981,-56.7992l-56.7992,47.54981l54.55679,-50.10678l-62.51977,39.72923l60.6303,-42.55702l-67.17061,31.22887l65.66641,-34.2791l-70.67215,22.19418l69.57894,-25.41465l-72.96446,12.77974l72.30096,-16.11535l-74.00833,3.14663l73.78589,-6.54031l-73.78589,-6.54031l74.00833,3.14663l-72.30096,-16.11535l72.96446,12.77974l-69.57894,-25.41465l70.67215,22.19418l-65.66641,-34.2791l67.17061,31.22887l-60.6303,-42.55702l62.51977,39.72923l-54.55679,-50.10678l56.7992,47.54981l-47.54981,-56.7992l50.10678,54.55679l-39.72923,-62.51977l42.55702,60.6303l-31.22887,-67.17061l34.2791,65.66641l-22.19418,-70.67215l25.41465,69.57894l-12.77974,-72.96446l16.11535,72.30096l-3.14663,-74.00833z" fill="#ffffd1" stroke="none"/><path d="M275,295l1.39598,20.02437l2.78941,-19.87821l-0.00425,20.07297l4.16925,-19.63521l-1.40446,20.02377l5.52877,-19.29655l-2.79783,19.87703l6.86137,-18.86387l-4.17756,19.63344l8.16053,-18.3393l-5.53694,19.2942l9.41993,-17.72537l-6.86935,18.86097l10.63345,-17.02509l-8.16829,18.33584l11.79516,-16.24187l-9.42744,17.72138l12.8994,-15.37952l-10.64066,17.02059l13.9408,-14.44224l-11.80203,16.23687l14.91428,-13.4346l-12.90591,15.37405l15.8151,-12.3615l-13.94691,14.43633l16.63887,-11.22818l-14.91997,13.42828l17.38157,-10.04016l-15.82033,12.3548l18.0396,-8.80323l-16.64362,11.22114l18.60974,-7.52341l-17.38582,10.0328l19.08921,-6.20693l-18.04333,8.79559l19.47569,-4.86021l-18.61292,7.51553l19.76728,-3.48982l-19.09184,6.19885l19.96256,-2.10242l-19.47774,4.85197l20.06059,-0.70478l-19.76875,3.48145l20.06089,0.69629l-19.96345,2.09397l19.96345,2.09397l-20.06089,0.69629l19.76875,3.48145l-20.06059,-0.70478l19.47774,4.85197l-19.96256,-2.10242l19.09184,6.19885l-19.76728,-3.48982l18.61292,7.51553l-19.47569,-4.86021l18.04333,8.79559l-19.08921,-6.20693l17.38582,10.0328l-18.60974,-7.52341l16.64362,11.22114l-18.0396,-8.80323l15.82033,12.3548l-17.38157,-10.04016l14.91997,13.42828l-16.63887,-11.22818l13.94691,14.43633l-15.8151,-12.3615l12.90591,15.37405l-14.91428,-13.4346l11.80203,16.23687l-13.9408,-14.44224l10.64066,17.02059l-12.8994,-15.37952l9.42744,17.72138l-11.79516,-16.24187l8.16829,18.33584l-10.63345,-17.02509l6.86935,18.86097l-9.41993,-17.72537l5.53694,19.2942l-8.16053,-18.3393l4.17756,19.63344l-6.86137,-18.86387l2.79783,19.87703l-5.52877,-19.29655l1.40446,20.02377l-4.16925,-19.63521l0.00425,20.07297l-2.78941,-19.87821l-1.39598,20.02437l-1.39598,-20.02437l-2.78941,19.87821l0.00425,-20.07297l-4.16925,19.63521l1.40446,-20.02377l-5.52877,19.29655l2.79783,-19.87703l-6.86137,18.86387l4.17756,-19.63344l-8.16053,18.3393l5.53694,-19.2942l-9.41993,17.72537l6.86935,-18.86097l-10.63345,17.02509l8.16829,-18.33584l-11.79516,16.24187l9.42744,-17.72138l-12.8994,15.37952l10.64066,-17.02059l-13.9408,14.44224l11.80203,-16.23687l-14.91428,13.4346l12.90591,-15.37405l-15.8151,12.3615l13.94691,-14.43633l-16.63887,11.22818l14.91997,-13.42828l-17.38157,10.04016l15.82033,-12.3548l-18.0396,8.80323l16.64362,-11.22114l-18.60974,7.52341l17.38582,-10.0328l-19.08921,6.20693l18.04333,-8.79559l-19.47569,4.86021l18.61292,-7.51553l-19.76728,3.48982l19.09184,-6.19885l-19.96256,2.10242l19.47774,-4.85197l-20.06059,0.70478l19.76875,-3.48145l-20.06089,-0.69629l19.96345,-2.09397l-19.96345,-2.09397l20.06089,-0.69629l-19.76875,-3.48145l20.06059,0.70478l-19.47774,-4.85197l19.96256,2.10242l-19.09184,-6.19885l19.76728,3.48982l-18.61292,-7.51553l19.47569,4.86021l-18.04333,-8.79559l19.08921,6.20693l-17.38582,-10.0328l18.60974,7.52341l-16.64362,-11.22114l18.0396,8.80323l-15.82033,-12.3548l17.38157,10.04016l-14.91997,-13.42828l16.63887,11.22818l-13.94691,-14.43633l15.8151,12.3615l-12.90591,-15.37405l14.91428,13.4346l-11.80203,-16.23687l13.9408,14.44224l-10.64066,-17.02059l12.8994,15.37952l-9.42744,-17.72138l11.79516,16.24187l-8.16829,-18.33584l10.63345,17.02509l-6.86935,-18.86097l9.41993,17.72537l-5.53694,-19.2942l8.16053,18.3393l-4.17756,-19.63344l6.86137,18.86387l-2.79783,-19.87703l5.52877,19.29655l-1.40446,-20.02377l4.16925,19.63521l-0.00425,-20.07297l2.78941,19.87821z" fill="#fcf9e4" stroke="none"/><path d="M287,360c0,-1.65685 1.34315,-3 3,-3c1.65685,0 3,1.34315 3,3c0,1.65685 -1.34315,3 -3,3c-1.65685,0 -3,-1.34315 -3,-3z" fill="#000000" stroke="none"/><path d="M302,370c0,-1.65685 1.34315,-3 3,-3c1.65685,0 3,1.34315 3,3c0,1.65685 -1.34315,3 -3,3c-1.65685,0 -3,-1.34315 -3,-3z" fill="#000000" stroke="none"/><ellipse cx="300" cy="380" rx="4" ry="3" fill="#ffc0cb" stroke="#008000"/><path d="M265,368c-10,10 11,-2 1,8l-6,-1" fill="none" stroke="#000000"/></g><text x="50" y="50" fill="#f2f79e" stroke="none" font-family="Courier New" font-weight="bold" font-size="25" text-anchor="start">Please click and drag the mouse or click the hedgehog</text><path d="M1212,430l-1,1l-12,4l-27,6l-60,11l-53,5l-106,3h-105l-113,-3l-66,-7l-87,-14l-52,-17l-12,-7l-5,-9l-1,-8l4,-12l6,-11l15,-29l22,-38l15,-33l5,-18l1,-18v-11l-4,-9" fill="none" stroke="#bff79e"/><path d="M566,216c0,-5.52285 4.47715,-10 10,-10c5.52285,0 10,4.47715 10,10c0,5.52285 -4.47715,10 -10,10c-5.52285,0 -10,-4.47715 -10,-10z" fill="#ff0000" stroke="#16f980" style="mix-blend-mode: screen"/><path d="M577.50565,418.58926c3.24625,-4.46808 9.49994,-5.45857 13.96802,-2.21232c4.46808,3.24625 5.45857,9.49994 2.21232,13.96802c-3.24625,4.46808 -9.49994,5.45857 -13.96802,2.21232c-4.46808,-3.24625 -5.45857,-9.49994 -2.21232,-13.96802z" fill="#ff0000" stroke="#16f980" style="mix-blend-mode: screen"/><path d="M777,231l-9,13l-15,19l-41,40l-51,46l-79,63l-42,31l-72,57l-47,36l-14,11l-4,3h1v-1l2,-2l28,-18l59,-34l96,-47l84,-39l100,-38l95,-28l35,-5h3v1h-1l-3,5l-8,14l-15,29l-22,48l-14,25l-27,46l-24,30l-8,9" fill="none" stroke="#bff79e"/><path d="M774,545c0,-5.52285 4.47715,-10 10,-10c5.52285,0 10,4.47715 10,10c0,5.52285 -4.47715,10 -10,10c-5.52285,0 -10,-4.47715 -10,-10z" fill="#ff0000" stroke="#16f980" style="mix-blend-mode: screen"/><path d="M552.39983,807.01519c3.24625,-4.46808 9.49994,-5.45857 13.96802,-2.21232c4.46808,3.24625 5.45857,9.49994 2.21232,13.96802c-3.24625,4.46808 -9.49994,5.45857 -13.96802,2.21232c-4.46808,-3.24625 -5.45857,-9.49994 -2.21232,-13.96802z" fill="#ff0000" stroke="#16f980" style="mix-blend-mode: screen"/><path d="M965,597v6h-1l-2,-2l-14,-12l-19,-15l-52,-38l-61,-44l-78,-59l-49,-40" fill="none" stroke="#bff79e"/><path d="M679,393c0,-5.52285 4.47715,-10 10,-10c5.52285,0 10,4.47715 10,10c0,5.52285 -4.47715,10 -10,10c-5.52285,0 -10,-4.47715 -10,-10z" fill="#ff0000" stroke="#16f980" style="mix-blend-mode: screen"/><path d="M564.88658,628.20501c3.24625,-4.46808 9.49994,-5.45857 13.96802,-2.21232c4.46808,3.24625 5.45857,9.49994 2.21232,13.96802c-3.24625,4.46808 -9.49994,5.45857 -13.96802,2.21232c-4.46808,-3.24625 -5.45857,-9.49994 -2.21232,-13.96802z" fill="#ff0000" stroke="#16f980" style="mix-blend-mode: screen"/><path d="M800,567l-2,1l-7,-1l-28,-10l-27,-12l-41,-21l-36,-22l-80,-61" fill="none" stroke="#bff79e"/><path d="M569,441c0,-5.52285 4.47715,-10 10,-10c5.52285,0 10,4.47715 10,10c0,5.52285 -4.47715,10 -10,10c-5.52285,0 -10,-4.47715 -10,-10z" fill="#ff0000" stroke="#16f980" style="mix-blend-mode: screen"/><path d="M447.68101,602.38144c3.24625,-4.46808 9.49994,-5.45857 13.96802,-2.21232c4.46808,3.24625 5.45857,9.49994 2.21232,13.96802c-3.24625,4.46808 -9.49994,5.45857 -13.96802,2.21232c-4.46808,-3.24625 -5.45857,-9.49994 -2.21232,-13.96802z" fill="#ff0000" stroke="#16f980" style="mix-blend-mode: screen"/><path d="M945,206l-3,4l-8,12l-17,19l-29,30l-56,54l-93,95l-63,62l-59,46" fill="none" stroke="#bff79e"/><path d="M607,528c0,-5.52285 4.47715,-10 10,-10c5.52285,0 10,4.47715 10,10c0,5.52285 -4.47715,10 -10,10c-5.52285,0 -10,-4.47715 -10,-10z" fill="#ff0000" stroke="#16f980" style="mix-blend-mode: screen"/><path d="M427.28634,695.10176c3.24625,-4.46808 9.49994,-5.45857 13.96802,-2.21232c4.46808,3.24625 5.45857,9.49994 2.21232,13.96802c-3.24625,4.46808 -9.49994,5.45857 -13.96802,2.21232c-4.46808,-3.24625 -5.45857,-9.49994 -2.21232,-13.96802z" fill="#ff0000" stroke="#16f980" style="mix-blend-mode: screen"/><path d="M441,303h1h4l10,2l13,3l128,27l101,22l76,16" fill="none" stroke="#bff79e"/><path d="M764,373c0,-5.52285 4.47715,-10 10,-10c5.52285,0 10,4.47715 10,10c0,5.52285 -4.47715,10 -10,10c-5.52285,0 -10,-4.47715 -10,-10z" fill="#ff0000" stroke="#16f980" style="mix-blend-mode: screen"/><path d="M645.40873,661.98641c3.24625,-4.46808 9.49994,-5.45857 13.96802,-2.21232c4.46808,3.24625 5.45857,9.49994 2.21232,13.96802c-3.24625,4.46808 -9.49994,5.45857 -13.96802,2.21232c-4.46808,-3.24625 -5.45857,-9.49994 -2.21232,-13.96802z" fill="#ff0000" stroke="#16f980" style="mix-blend-mode: screen"/><path d="M1169,537l-10,17l-19,27l-35,31l-42,13l-75,-10l-131,-43l-155,-53l-85,-27" fill="none" stroke="#bff79e"/><path d="M607,492c0,-5.52285 4.47715,-10 10,-10c5.52285,0 10,4.47715 10,10c0,5.52285 -4.47715,10 -10,10c-5.52285,0 -10,-4.47715 -10,-10z" fill="#ff0000" stroke="#16f980" style="mix-blend-mode: screen"/><path d="M448.44661,665.97715c3.24625,-4.46808 9.49994,-5.45857 13.96802,-2.21232c4.46808,3.24625 5.45857,9.49994 2.21232,13.96802c-3.24625,4.46808 -9.49994,5.45857 -13.96802,2.21232c-4.46808,-3.24625 -5.45857,-9.49994 -2.21232,-13.96802z" fill="#ff0000" stroke="#16f980" style="mix-blend-mode: screen"/><path d="M299,481l-9,2l-11,2l-6,2h5l168,-3h86" fill="none" stroke="#bff79e"/><path d="M522,484c0,-5.52285 4.47715,-10 10,-10c5.52285,0 10,4.47715 10,10c0,5.52285 -4.47715,10 -10,10c-5.52285,0 -10,-4.47715 -10,-10z" fill="#ff0000" stroke="#16f980" style="mix-blend-mode: screen"/><path d="M384.38245,609.54327c3.24625,-4.46808 9.49994,-5.45857 13.96802,-2.21232c4.46808,3.24625 5.45857,9.49994 2.21232,13.96802c-3.24625,4.46808 -9.49994,5.45857 -13.96802,2.21232c-4.46808,-3.24625 -5.45857,-9.49994 -2.21232,-13.96802z" fill="#ff0000" stroke="#16f980" style="mix-blend-mode: screen"/><path d="M890,215l-36,21l-93,42l-233,88l-95,26" fill="none" stroke="#bff79e"/><path d="M423,392c0,-5.52285 4.47715,-10 10,-10c5.52285,0 10,4.47715 10,10c0,5.52285 -4.47715,10 -10,10c-5.52285,0 -10,-4.47715 -10,-10z" fill="#ff0000" stroke="#16f980" style="mix-blend-mode: screen"/><path d="M358.36601,476.92296c3.24625,-4.46808 9.49994,-5.45857 13.96802,-2.21232c4.46808,3.24625 5.45857,9.49994 2.21232,13.96802c-3.24625,4.46808 -9.49994,5.45857 -13.96802,2.21232c-4.46808,-3.24625 -5.45857,-9.49994 -2.21232,-13.96802z" fill="#ff0000" stroke="#16f980" style="mix-blend-mode: screen"/><path d="M399,185h1l19,17l13,15l37,49l44,68l90,207l23,144l-1,43l-6,15" fill="none" stroke="#bff79e"/><path d="M609,743c0,-5.52285 4.47715,-10 10,-10c5.52285,0 10,4.47715 10,10c0,5.52285 -4.47715,10 -10,10c-5.52285,0 -10,-4.47715 -10,-10z" fill="#ff0000" stroke="#16f980" style="mix-blend-mode: screen"/><path d="M302.53055,870.21599c3.24625,-4.46808 9.49994,-5.45857 13.96802,-2.21232c4.46808,3.24625 5.45857,9.49994 2.21232,13.96802c-3.24625,4.46808 -9.49994,5.45857 -13.96802,2.21232c-4.46808,-3.24625 -5.45857,-9.49994 -2.21232,-13.96802z" fill="#ff0000" stroke="#16f980" style="mix-blend-mode: screen"/><path d="M331,593l12,-5l170,-72l111,-95l49,-57" fill="none" stroke="#bff79e"/><path d="M663,364c0,-5.52285 4.47715,-10 10,-10c5.52285,0 10,4.47715 10,10c0,5.52285 -4.47715,10 -10,10c-5.52285,0 -10,-4.47715 -10,-10z" fill="#ff0000" stroke="#16f980" style="mix-blend-mode: screen"/><path d="M568.98808,595.33895c3.24625,-4.46808 9.49994,-5.45857 13.96802,-2.21232c4.46808,3.24625 5.45857,9.49994 2.21232,13.96802c-3.24625,4.46808 -9.49994,5.45857 -13.96802,2.21232c-4.46808,-3.24625 -5.45857,-9.49994 -2.21232,-13.96802z" fill="#ff0000" stroke="#16f980" style="mix-blend-mode: screen"/><path d="M717,411l-4,3l-4,2l-79,6l-346,5l-151,35l-18,6l-41,9l-69,-9l-26,-16v-2v-1" fill="none" stroke="#bff79e"/><path d="M-31,449c0,-5.52285 4.47715,-10 10,-10c5.52285,0 10,4.47715 10,10c0,5.52285 -4.47715,10 -10,10c-5.52285,0 -10,-4.47715 -10,-10z" fill="#ff0000" stroke="#16f980" style="mix-blend-mode: screen"/><path d="M-42.43146,256.18243c3.24625,-4.46808 9.49994,-5.45857 13.96802,-2.21232c4.46808,3.24625 5.45857,9.49994 2.21232,13.96802c-3.24625,4.46808 -9.49994,5.45857 -13.96802,2.21232c-4.46808,-3.24625 -5.45857,-9.49994 -2.21232,-13.96802z" fill="#ff0000" stroke="#16f980" style="mix-blend-mode: screen"/><path d="M131,243l11,-5l4,-2h1l12,14l229,137l92,40l92,42l20,11" fill="none" stroke="#bff79e"/><path d="M582,480c0,-5.52285 4.47715,-10 10,-10c5.52285,0 10,4.47715 10,10c0,5.52285 -4.47715,10 -10,10c-5.52285,0 -10,-4.47715 -10,-10z" fill="#ff0000" stroke="#16f980" style="mix-blend-mode: screen"/><path d="M435.27461,641.57432c3.24625,-4.46808 9.49994,-5.45857 13.96802,-2.21232c4.46808,3.24625 5.45857,9.49994 2.21232,13.96802c-3.24625,4.46808 -9.49994,5.45857 -13.96802,2.21232c-4.46808,-3.24625 -5.45857,-9.49994 -2.21232,-13.96802z" fill="#ff0000" stroke="#16f980" style="mix-blend-mode: screen"/><path d="M946,457l-43,-1h-59l-268,8l-359,12l-56,-1h-2" fill="none" stroke="#bff79e"/><path d="M149,475c0,-5.52285 4.47715,-10 10,-10c5.52285,0 10,4.47715 10,10c0,5.52285 -4.47715,10 -10,10c-5.52285,0 -10,-4.47715 -10,-10z" fill="#ff0000" stroke="#16f980" style="mix-blend-mode: screen"/><path d="M87.90918,383.01822c3.24625,-4.46808 9.49994,-5.45857 13.96802,-2.21232c4.46808,3.24625 5.45857,9.49994 2.21232,13.96802c-3.24625,4.46808 -9.49994,5.45857 -13.96802,2.21232c-4.46808,-3.24625 -5.45857,-9.49994 -2.21232,-13.96802z" fill="#ff0000" stroke="#16f980" style="mix-blend-mode: screen"/><path d="M126,584l22,-22l31,-55l33,-114l11,-39l6,-29l8,-33l6,-15" fill="none" stroke="#bff79e"/><path d="M233,277c0,-5.52285 4.47715,-10 10,-10c5.52285,0 10,4.47715 10,10c0,5.52285 -4.47715,10 -10,10c-5.52285,0 -10,-4.47715 -10,-10z" fill="#ff0000" stroke="#16f980" style="mix-blend-mode: screen"/><path d="M272.24809,272.20681c3.24625,-4.46808 9.49994,-5.45857 13.96802,-2.21232c4.46808,3.24625 5.45857,9.49994 2.21232,13.96802c-3.24625,4.46808 -9.49994,5.45857 -13.96802,2.21232c-4.46808,-3.24625 -5.45857,-9.49994 -2.21232,-13.96802z" fill="#ff0000" stroke="#16f980" style="mix-blend-mode: screen"/><path d="M435,154l-29,61l-27,53l-93,213l-12,41" fill="none" stroke="#bff79e"/><path d="M264,522c0,-5.52285 4.47715,-10 10,-10c5.52285,0 10,4.47715 10,10c0,5.52285 -4.47715,10 -10,10c-5.52285,0 -10,-4.47715 -10,-10z" fill="#ff0000" stroke="#16f980" style="mix-blend-mode: screen"/><path d="M153.32023,488.63732c3.24625,-4.46808 9.49994,-5.45857 13.96802,-2.21232c4.46808,3.24625 5.45857,9.49994 2.21232,13.96802c-3.24625,4.46808 -9.49994,5.45857 -13.96802,2.21232c-4.46808,-3.24625 -5.45857,-9.49994 -2.21232,-13.96802z" fill="#ff0000" stroke="#16f980" style="mix-blend-mode: screen"/></g></svg>