<?xml version="1.0" encoding="UTF-8"?>
<svg id="Layer_1" data-name="Layer 1" xmlns="http://www.w3.org/2000/svg" version="1.1" viewBox="0 0 328.9 213.4">
  <defs>
    <style>
      .cls-1, .cls-2, .cls-3 {
        stroke: #000;
        stroke-miterlimit: 10;
      }

      .cls-1, .cls-4 {
        fill: #000;
      }

      .cls-2 {
        fill: #d3d3d3;
        isolation: isolate;
        opacity: .7;
      }

      .cls-4, .cls-5, .cls-6 {
        stroke-width: 0px;
      }

      .cls-5 {
        fill: blue;
        fill-opacity: 0;
      }

      .cls-3 {
        fill: none;
        stroke-width: 1.5px;
      }

      .cls-6 {
        fill: #fff;
      }
    </style>
  </defs>
  <g>
    <path class="cls-1" d="M49,87.9c-5.6-3.6-8.2-9.5-5.8-13.2,2.4-3.7,8.8-3.8,14.4-.3s8.2,9.5,5.8,13.2c-2.4,3.7-8.8,3.8-14.4.3Z"/>
    <path class="cls-4" d="M38.9,81.4c-3.7-2.4-4.8-7.3-2.4-11.1s7.3-4.8,11.1-2.4c3.7,2.4,4.8,7.3,2.4,11.1s-7.3,4.8-11.1,2.4Z"/>
    <path class="cls-6" d="M37.2,80.3c-.9-.6-1.2-1.8-.6-2.8s1.8-1.2,2.8-.6,1.2,1.8.6,2.8-1.8,1.2-2.8.6Z"/>
    <path class="cls-6" d="M43.7,70.2c-.9-.6-1.2-1.8-.6-2.8s1.8-1.2,2.8-.6,1.2,1.8.6,2.8-1.8,1.2-2.8.6Z"/>
    <path class="cls-3" d="M50.1,86.2l6.9,11.5"/>
    <path class="cls-3" d="M55.6,85l7.5,14.3"/>
    <path class="cls-3" d="M59.5,82.7l13.7-.7"/>
    <path class="cls-3" d="M59.9,78.3l10-.7"/>
    <path class="cls-3" d="M46.7,84.1l-16.7-3.6"/>
    <path class="cls-3" d="M53.2,74l-10.2-13.7"/>
    <path class="cls-2" d="M57.9,100.7c-2,1-6-2.9-9.1-8.8-3-5.9-3.9-11.5-2-12.5s6,2.9,9.1,8.8c3,5.9,3.9,11.5,2,12.5Z"/>
    <path class="cls-2" d="M49,76c.1-2.2,5.6-3.7,12.2-3.4,6.6.3,11.9,2.3,11.8,4.6s-5.6,3.7-12.2,3.4c-6.6-.3-11.9-2.3-11.8-4.6Z"/>
    <path class="cls-5" d="M21,131.7C-6.9,113.8-15.1,76.7,2.8,48.8,20.7,20.9,57.8,12.8,85.7,30.7c27.9,17.9,36,55,18.1,82.9-17.9,27.9-55,36-82.9,18.1h0Z"/>
  </g>
  <g>
    <path class="cls-1" d="M137.2,161.6c3.6-5.6,9.5-8.2,13.2-5.8,3.7,2.4,3.8,8.8.3,14.4s-9.5,8.2-13.2,5.8c-3.7-2.4-3.8-8.8-.3-14.4Z"/>
    <path class="cls-4" d="M143.6,151.5c2.4-3.7,7.3-4.8,11.1-2.4s4.8,7.3,2.4,11.1c-2.4,3.7-7.3,4.8-11.1,2.4s-4.8-7.3-2.4-11.1Z"/>
    <path class="cls-6" d="M144.7,149.9c.6-.9,1.8-1.2,2.8-.6s1.2,1.8.6,2.8-1.8,1.2-2.8.6-1.2-1.8-.6-2.8Z"/>
    <path class="cls-6" d="M154.8,156.3c.6-.9,1.8-1.2,2.8-.6s1.2,1.8.6,2.8-1.8,1.2-2.8.6-1.2-1.8-.6-2.8Z"/>
    <path class="cls-3" d="M138.9,162.7l-11.5,6.9"/>
    <path class="cls-3" d="M140.1,168.3l-14.3,7.5"/>
    <path class="cls-3" d="M142.4,172.1l.7,13.7"/>
    <path class="cls-3" d="M146.8,172.6l.7,10"/>
    <path class="cls-3" d="M141,159.4l3.6-16.7"/>
    <path class="cls-3" d="M151.1,165.8l13.7-10.2"/>
    <path class="cls-2" d="M124.4,170.5c-1-2,2.9-6,8.8-9.1,5.9-3,11.5-3.9,12.5-2s-2.9,6-8.8,9.1c-5.9,3-11.5,3.9-12.5,2Z"/>
    <path class="cls-2" d="M149,161.7c2.2.1,3.7,5.6,3.4,12.2-.3,6.6-2.3,11.9-4.6,11.8s-3.7-5.6-3.4-12.2c.3-6.6,2.3-11.9,4.6-11.8Z"/>
    <path class="cls-5" d="M93.4,133.6c17.9-27.9,55-36,82.9-18.1,27.9,17.9,36,55,18.1,82.9-17.9,27.9-55,36-82.9,18.1-27.9-17.9-36-55-18.1-82.9h0Z"/>
  </g>
  <g>
    <path class="cls-1" d="M276.2,53.1c2.5,6.1,1.3,12.5-2.8,14.1-4.1,1.7-9.4-1.9-12-8s-1.3-12.5,2.8-14.1c4.1-1.7,9.4,1.9,12,8Z"/>
    <path class="cls-4" d="M280.8,64.1c1.7,4.1-.3,8.8-4.3,10.4s-8.8-.3-10.4-4.3c-1.7-4.1.3-8.8,4.3-10.4,4.1-1.7,8.8.3,10.4,4.3Z"/>
    <path class="cls-6" d="M281.6,66c.4,1,0,2.2-1.1,2.6s-2.2,0-2.6-1.1,0-2.2,1.1-2.6,2.2,0,2.6,1.1Z"/>
    <path class="cls-6" d="M270.5,70.6c.4,1,0,2.2-1.1,2.6s-2.2,0-2.6-1.1,0-2.2,1.1-2.6,2.2,0,2.6,1.1Z"/>
    <path class="cls-3" d="M274.4,53.8l1-13.4"/>
    <path class="cls-3" d="M269.2,51.6l2.1-16"/>
    <path class="cls-3" d="M264.7,51.3l-11.7-7.3"/>
    <path class="cls-3" d="M261.8,54.7l-8.6-5.1"/>
    <path class="cls-3" d="M275.9,57.5l11.6,12.5"/>
    <path class="cls-3" d="M264.8,62.1l.6,17.1"/>
    <path class="cls-2" d="M276.3,37.5c2.2.3,3.3,5.9,2.4,12.4-.9,6.6-3.4,11.7-5.6,11.4s-3.3-5.9-2.4-12.4c.9-6.6,3.4-11.7,5.6-11.4Z"/>
    <path class="cls-2" d="M269.4,62.8c-1.3,1.8-6.7-.1-11.9-4.2-5.3-4-8.4-8.7-7.1-10.5s6.7.1,11.9,4.2c5.3,4,8.4,8.7,7.1,10.5Z"/>
    <path class="cls-5" d="M324.3,33.2c12.6,30.6-2,65.7-32.6,78.3-30.6,12.6-65.7-2-78.3-32.6-12.6-30.6,2-65.7,32.6-78.3,30.6-12.6,65.7,2,78.3,32.6h0Z"/>
  </g>
</svg>