<svg version="1.1" xmlns="http://www.w3.org/2000/svg" xmlns:xlink="http://www.w3.org/1999/xlink" width="720" height="741.60004" viewBox="0,0,720,741.60004"><g fill="none" fill-rule="nonzero" stroke="none" stroke-width="none" stroke-linecap="butt" stroke-linejoin="miter" stroke-miterlimit="10" stroke-dasharray="" stroke-dashoffset="0" font-family="none" font-weight="none" font-size="none" text-anchor="none" style="mix-blend-mode: normal"><path d="M350,170.80002c0,-5.52285 4.47715,-10 10,-10c5.52285,0 10,4.47715 10,10c0,5.52285 -4.47715,10 -10,10c-5.52285,0 -10,-4.47715 -10,-10z" fill="#ff0000" stroke="#0000ff" stroke-width="2"/><path d="M467.55705,208.99662c0,-5.52285 4.47715,-10 10,-10c5.52285,0 10,4.47715 10,10c0,5.52285 -4.47715,10 -10,10c-5.52285,0 -10,-4.47715 -10,-10z" fill="#ff9900" stroke="#0000ff" stroke-width="2"/><path d="M540.2113,308.99662c0,-5.52285 4.47715,-10 10,-10c5.52285,0 10,4.47715 10,10c0,5.52285 -4.47715,10 -10,10c-5.52285,0 -10,-4.47715 -10,-10z" fill="#ccff00" stroke="#0000ff" stroke-width="2"/><path d="M540.2113,432.60342c0,-5.52285 4.47715,-10 10,-10c5.52285,0 10,4.47715 10,10c0,5.52285 -4.47715,10 -10,10c-5.52285,0 -10,-4.47715 -10,-10z" fill="#33ff00" stroke="#0000ff" stroke-width="2"/><path d="M467.55705,532.60342c0,-5.52285 4.47715,-10 10,-10c5.52285,0 10,4.47715 10,10c0,5.52285 -4.47715,10 -10,10c-5.52285,0 -10,-4.47715 -10,-10z" fill="#00ff66" stroke="#0000ff" stroke-width="2"/><path d="M350,570.80002c0,-5.52285 4.47715,-10 10,-10c5.52285,0 10,4.47715 10,10c0,5.52285 -4.47715,10 -10,10c-5.52285,0 -10,-4.47715 -10,-10z" fill="#00ffff" stroke="#0000ff" stroke-width="2"/><path d="M232.44295,532.60342c0,-5.52285 4.47715,-10 10,-10c5.52285,0 10,4.47715 10,10c0,5.52285 -4.47715,10 -10,10c-5.52285,0 -10,-4.47715 -10,-10z" fill="#0066ff" stroke="#0000ff" stroke-width="2"/><path d="M159.7887,432.60342c0,-5.52285 4.47715,-10 10,-10c5.52285,0 10,4.47715 10,10c0,5.52285 -4.47715,10 -10,10c-5.52285,0 -10,-4.47715 -10,-10z" fill="#3300ff" stroke="#0000ff" stroke-width="2"/><path d="M159.7887,308.99662c0,-5.52285 4.47715,-10 10,-10c5.52285,0 10,4.47715 10,10c0,5.52285 -4.47715,10 -10,10c-5.52285,0 -10,-4.47715 -10,-10z" fill="#cc00ff" stroke="#0000ff" stroke-width="2"/><path d="M232.44295,208.99662c0,-5.52285 4.47715,-10 10,-10c5.52285,0 10,4.47715 10,10c0,5.52285 -4.47715,10 -10,10c-5.52285,0 -10,-4.47715 -10,-10z" fill="#ff0099" stroke="#0000ff" stroke-width="2"/><g><path d="M360,170.80002l15.45085,152.44717l102.1062,-114.25057l-77.1062,132.41414l149.76045,-32.41414l-140.2113,61.8034l140.2113,61.8034l-149.76045,-32.41414l77.1062,132.41414l-102.1062,-114.25057l-15.45085,152.44717l-15.45085,-152.44717l-102.1062,114.25057l77.1062,-132.41414l-149.76045,32.41414l140.2113,-61.8034l-140.2113,-61.8034l149.76045,32.41414l-77.1062,-132.41414l102.1062,114.25057z" fill="#0000ff" stroke="#0000ff" stroke-width="2"/><g stroke="#ff69b4"><path d="M340,359.55002c0,-2.76142 2.23858,-5 5,-5c2.76142,0 5,2.23858 5,5c0,2.76142 -2.23858,5 -5,5c-2.76142,0 -5,-2.23858 -5,-5z" fill="#ff69b4" stroke-width="2"/><path d="M370,359.55002c0,-2.76142 2.23858,-5 5,-5c2.76142,0 5,2.23858 5,5c0,2.76142 -2.23858,5 -5,5c-2.76142,0 -5,-2.23858 -5,-5z" fill="#ff69b4" stroke-width="2"/><path d="M345,379.55002c5,3.75 10,7.5 15,7.5c5,0 10,-3.75 15,-7.5" fill="none" stroke-width="3"/></g></g></g></svg>